<svg width="80" height="104" viewBox="0 0 80 104" fill="none" xmlns="http://www.w3.org/2000/svg">
<path d="M76.9083 14.8986C74.7799 14.4074 72.6515 15.8809 71.9967 18.0093L66.2664 38.9655L69.7046 11.4605C70.032 9.33208 68.7222 7.20371 66.5939 6.71255C64.1381 6.22139 61.846 7.85859 61.6822 10.1507L59.0627 30.7795L57.2618 4.09302C57.0981 1.96465 55.4609 0.163721 53.3325 0C50.8767 0 48.912 1.96465 49.0757 4.42046L51.3678 38.4744C50.0581 37.3283 48.5846 36.5097 46.9474 35.6911C42.8544 34.0539 38.4339 34.0539 34.3409 35.6911C30.4116 37.3283 27.3009 40.2753 25.6637 44.2046C24.6814 46.1692 25.3362 48.6251 27.3009 49.7711C29.4293 50.9171 32.0488 50.0985 33.0311 47.8065C33.686 46.333 34.5046 45.1869 35.8144 44.2046C38.2702 42.4037 41.2171 42.0762 43.8367 43.2223C45.8013 44.0409 47.4385 45.6781 48.2571 47.6427C49.0757 49.6074 49.0757 51.8995 48.2571 53.8641C46.9474 56.9748 44.0004 58.7757 40.8897 58.9395H40.5623C38.7613 58.9395 36.7967 58.2846 35.1595 56.9748C34.1772 56.1562 33.5223 55.0102 32.8674 53.8641C31.8851 51.7358 29.2655 50.7534 27.1372 52.0632C25.1725 53.2092 24.6814 55.5013 25.5 57.6297C27.1372 61.3953 30.2479 64.506 34.1772 66.1432C34.5046 66.3069 34.832 66.3069 34.9958 66.4706C38.2702 67.6167 40.3985 70.7274 40.3985 74.1655V83.825H68.886V59.2669L79.6915 20.3014C80.6739 17.6818 79.2004 15.3897 76.9083 14.8986Z" fill="#0052FE"/>
<path d="M35.3234 11.6241L39.089 10.3144C40.5624 9.82321 40.5624 7.69484 39.089 7.20368L35.3234 5.89391C34.8322 5.73019 34.5048 5.40275 34.3411 4.91159L33.0313 1.14601C32.5401 -0.327478 30.4118 -0.327478 29.9206 1.14601L28.6108 4.91159C28.6108 5.40275 28.1197 5.73019 27.6285 5.89391L23.8629 7.20368C22.3894 7.69484 22.3894 9.82321 23.8629 10.3144L27.6285 11.6241C28.1197 11.7879 28.4471 12.1153 28.6108 12.6065L29.9206 16.372C30.4118 17.8455 32.5401 17.8455 33.0313 16.372L34.3411 12.6065C34.5048 12.1153 34.8322 11.7879 35.3234 11.6241Z" fill="#00C5FF"/>
<path d="M17.6409 33.7265L24.5172 31.4344C25.9907 30.9433 25.9907 28.8149 24.5172 28.3237L17.6409 26.0316C17.1497 25.8679 16.8223 25.5405 16.6586 25.0493L14.3665 18.173C13.8753 16.6996 11.747 16.6996 11.2558 18.173L8.96371 25.0493C8.79999 25.5405 8.47255 25.8679 7.98139 26.0316L1.10511 28.3237C-0.368372 28.8149 -0.368372 30.9433 1.10511 31.4344L7.98139 33.7265C8.47255 33.8902 8.79999 34.2177 8.96371 34.7088L11.2558 41.5851C11.747 43.0586 13.8753 43.0586 14.3665 41.5851L16.6586 34.7088C16.8223 34.2177 17.1497 33.8902 17.6409 33.7265Z" fill="#00C5FF"/>
<path d="M74.625 85.9534V77.7673C74.625 75.4752 72.8241 73.6743 70.532 73.6743H39.425C37.133 73.6743 35.332 75.4752 35.332 77.7673V85.9534C35.332 88.2455 37.133 90.0464 39.425 90.0464H70.532C72.8241 90.0464 74.625 88.2455 74.625 85.9534Z" fill="#00C5FF"/>
<path d="M73.3492 99.0509V88.2454H36.6758V99.0509C36.6758 101.801 38.9169 103.963 41.7693 103.963H68.2557C71.1081 103.963 73.3492 101.801 73.3492 99.0509Z" fill="#0052FE"/>
</svg>
