<svg width="80" height="97" viewBox="0 0 80 97" fill="none" xmlns="http://www.w3.org/2000/svg">
<path d="M32.0004 39.3387C28.2779 39.3387 25.25 36.3319 25.25 32.6358C25.25 28.9397 28.2787 25.9322 32.0004 25.9322C35.7236 25.9322 38.7515 28.939 38.7515 32.6358C38.7515 36.3319 35.7228 39.3387 32.0004 39.3387ZM32.0004 28.9571C29.9461 28.9571 28.2756 30.6072 28.2756 32.6358C28.2756 34.6645 29.9468 36.3138 32.0004 36.3138C34.0554 36.3138 35.7266 34.6637 35.7266 32.6358C35.7266 30.6079 34.0547 28.9571 32.0004 28.9571Z" fill="#282D33"/>
<path d="M46.7863 53.3848C43.0631 53.3848 40.0352 50.378 40.0352 46.6811C40.0352 42.9858 43.0638 39.9783 46.7863 39.9783C50.5088 39.9783 53.5359 42.9851 53.5359 46.6811C53.5359 50.378 50.508 53.3848 46.7863 53.3848ZM46.7863 43.0032C44.732 43.0032 43.06 44.6532 43.06 46.6811C43.06 48.7098 44.7327 50.3599 46.7863 50.3599C48.8398 50.3599 50.511 48.7098 50.511 46.6811C50.511 44.6532 48.8406 43.0032 46.7863 43.0032Z" fill="#282D33"/>
<path d="M51.5508 30.0484L49.4219 27.8995L27.5431 49.5751L29.672 51.724L51.5508 30.0484Z" fill="#282D33"/>
<path d="M32.0299 96.5219L22.7501 86.6637L9.14453 87.3719L16.2147 70.0265L19.0156 71.1682L13.7441 84.1034L23.9929 83.5694L31.005 91.0204L36.873 76.6253L39.6747 77.7678L32.0299 96.5219Z" fill="#00C5FF"/>
<path d="M19.0156 71.1682L13.7441 84.1034L23.9929 83.5694L31.005 91.0204L36.873 76.6253V75.1253L19.4946 70.0265L19.0156 71.1682Z" fill="#00C5FF"/>
<path d="M47.9701 96.5219L57.2499 86.6637L70.8555 87.3719L63.7853 70.0265L60.9844 71.1682L66.2559 84.1034L56.0071 83.5694L48.995 91.0204L43.127 76.6253L40.3253 77.7678L47.9701 96.5219Z" fill="#00C5FF"/>
<path d="M60.9844 71.1682L66.2559 84.1034L56.0071 83.5694L48.995 91.0204L43.127 76.6253V75.1253L60.5054 70.0265L60.9844 71.1682Z" fill="#00C5FF"/>
<path d="M39.9992 79.3032C38.3296 79.3032 37.0913 78.0271 35.9985 76.8989C35.4683 76.3514 34.6659 75.5249 34.279 75.4653C33.7225 75.4638 32.8318 75.9389 32.1071 76.3228C30.9947 76.9125 29.8446 77.5226 28.635 77.5226C28.2881 77.5226 27.9532 77.4713 27.6388 77.3695C26.0611 76.8627 25.2858 75.2738 24.6018 73.871C24.2662 73.184 23.7587 72.144 23.4004 71.9623C23.3567 71.9404 23.2164 71.8876 22.8763 71.8876C22.3778 71.8876 21.7526 71.9977 21.092 72.1146C20.3333 72.2481 19.5498 72.3861 18.7896 72.3861C17.8529 72.3861 17.1026 72.1727 16.4932 71.7338C15.1554 70.7677 14.9125 69.0234 14.6983 67.4849C14.5928 66.7247 14.4329 65.5754 14.1471 65.2911C13.8575 65.0045 12.6923 64.8462 11.9216 64.7406C10.3733 64.5294 8.6184 64.2903 7.6448 62.9661C6.67044 61.6418 6.98039 59.9103 7.25415 58.3839C7.39065 57.6252 7.59578 56.4804 7.4095 56.1184C7.22851 55.7677 6.17798 55.2647 5.48341 54.9321C4.06863 54.2534 2.46531 53.4842 1.95023 51.9118C1.44193 50.3605 2.27526 48.8167 3.0098 47.4563C3.37934 46.7722 3.9374 45.7383 3.87255 45.3265C3.81297 44.9525 2.98115 44.1599 2.43062 43.6357C1.2911 42.5505 0 41.3213 0 39.6516C0 37.9842 1.29035 36.7549 2.42986 35.6704C2.98039 35.1463 3.81297 34.3529 3.87255 33.9774C3.9374 33.5679 3.38009 32.5347 3.0098 31.8514C2.27376 30.4894 1.44042 28.9449 1.95098 27.3929C2.46606 25.8243 4.06712 25.0551 5.48039 24.3771C6.17572 24.0437 7.22549 23.54 7.40875 23.1855C7.59276 22.8273 7.38763 21.6817 7.25113 20.9246C6.97813 19.3974 6.66817 17.6667 7.64027 16.3409C8.61538 15.0166 10.3695 14.7768 11.9178 14.5656C12.6885 14.46 13.8552 14.3009 14.1463 14.0128C14.4299 13.7315 14.589 12.5845 14.6946 11.8265C14.908 10.2858 15.1501 8.53997 16.4917 7.5724C17.1011 7.13348 17.8529 6.91931 18.7911 6.91931C19.5513 6.91931 20.3348 7.05731 21.092 7.1908C21.7526 7.30694 22.3763 7.41704 22.8741 7.41704C23.2134 7.41704 23.3537 7.36501 23.3982 7.34238C23.7557 7.16139 24.2632 6.12217 24.5995 5.43439C25.2843 4.03243 26.0603 2.44344 27.6403 1.93439C27.9532 1.83333 28.2873 1.78205 28.6335 1.78205C29.8439 1.78205 30.9947 2.39291 32.1071 2.9819C32.8326 3.36652 33.7338 3.8454 34.2172 3.8454C34.6667 3.77979 35.4691 2.95249 36 2.40573C37.092 1.27677 38.3303 0 40 0C41.6689 0 42.9065 1.27526 43.9985 2.40196C44.5302 2.95023 45.3333 3.77677 45.7225 3.83786H45.7293C46.2738 3.83786 47.1712 3.36199 47.8922 2.97964C49.0045 2.38989 50.1553 1.77903 51.3665 1.77903C51.7134 1.77903 52.0475 1.83032 52.3605 1.93137C53.9404 2.44042 54.7157 4.02866 55.3997 5.43062C55.736 6.11915 56.2428 7.15837 56.6018 7.33937C56.6471 7.36199 56.7873 7.41478 57.1282 7.41478C57.6267 7.41478 58.2504 7.30467 58.9103 7.18854C59.6682 7.05581 60.451 6.91855 61.2104 6.91855C62.1478 6.91855 62.8997 7.13198 63.509 7.57164C64.8469 8.53544 65.0905 10.2798 65.3047 11.819C65.411 12.5792 65.5709 13.727 65.8567 14.0113C66.1471 14.2994 67.313 14.4585 68.0822 14.5626C69.6312 14.7738 71.3869 15.0143 72.3575 16.3386C73.3303 17.6606 73.0204 19.3914 72.7466 20.9186C72.6101 21.6765 72.405 22.8228 72.5913 23.184C72.773 23.5377 73.8243 24.0415 74.5189 24.3741C75.9336 25.052 77.5362 25.8205 78.0513 27.3922C78.5596 28.9434 77.7247 30.4872 76.9902 31.8492C76.6207 32.5324 76.0626 33.5664 76.1259 33.9774C76.1855 34.3514 77.0196 35.1448 77.5701 35.6697C78.7089 36.7541 80 37.9834 80 39.6493C80 41.319 78.7081 42.5483 77.5679 43.6335C77.0173 44.1576 76.1848 44.9502 76.1252 45.325C76.0611 45.7345 76.6191 46.7692 76.9894 47.4532C77.724 48.8152 78.5566 50.359 78.049 51.9095C77.5332 53.4811 75.9306 54.2504 74.5151 54.9291C73.8205 55.2617 72.77 55.7662 72.5875 56.1184C72.4012 56.4796 72.6063 57.6259 72.7428 58.3846C73.0166 59.911 73.3273 61.6418 72.3529 62.9661C71.3816 64.2903 69.6259 64.5287 68.0762 64.7406C67.3062 64.8462 66.1403 65.0053 65.8484 65.2926C65.5664 65.5732 65.4065 66.7225 65.3009 67.4811C65.0867 69.0211 64.8439 70.7662 63.5053 71.7315C62.8959 72.1712 62.144 72.3846 61.2066 72.3846C60.4465 72.3846 59.6629 72.2458 58.905 72.1131C58.2443 71.997 57.6214 71.8869 57.1229 71.8869C56.7836 71.8869 56.6433 71.9389 56.5995 71.9615C56.2406 72.1433 55.7338 73.1825 55.3974 73.8703C54.7127 75.2715 53.9366 76.8605 52.3567 77.3695C52.043 77.4713 51.7097 77.5219 51.3635 77.5219C50.1531 77.5219 49.0008 76.911 47.8884 76.3205C47.1644 75.9366 46.2632 75.4585 45.782 75.4585C45.3296 75.5226 44.5279 76.3507 43.997 76.8982C42.9065 78.0279 41.6682 79.3032 39.9992 79.3032ZM34.2157 72.4366C34.3952 72.4366 34.5724 72.4502 34.7451 72.4766C36.1335 72.6931 37.1689 73.7617 38.1704 74.7949L38.1741 74.7986C38.713 75.3541 39.6102 76.279 39.9992 76.279C40.3876 76.279 41.2881 75.3514 41.8258 74.7964L41.8287 74.7933C42.8301 73.7603 43.8649 72.6928 45.2542 72.4766C45.4268 72.4502 45.6033 72.4366 45.7828 72.4366C47.0166 72.4366 48.181 73.0535 49.3069 73.6501C50.0189 74.0287 50.9065 74.4992 51.365 74.4992C51.7858 74.3786 52.368 73.1863 52.681 72.5445L52.683 72.5404C53.3166 71.2438 53.9712 69.9043 55.2353 69.2647C55.7685 68.9947 56.3861 68.8643 57.1252 68.8643C57.8868 68.8643 58.6693 69.0017 59.428 69.1349L59.4329 69.1357C60.092 69.2519 60.7134 69.3612 61.2089 69.3612C61.6207 69.3612 61.7338 69.2836 61.7383 69.2805C62.0287 69.0716 62.2097 67.7677 62.3069 67.0671L62.3081 67.0589C62.5076 65.6278 62.7138 64.1482 63.7202 63.1463C64.7338 62.1463 66.2262 61.9419 67.6697 61.7458L67.6769 61.7449C68.3891 61.6473 69.7036 61.4673 69.9163 61.1772C70.1207 60.8989 69.8906 59.6124 69.767 58.9216C69.5219 57.555 69.2443 56.0075 69.9005 54.7338C70.5483 53.4796 71.9004 52.8311 73.2081 52.2044L73.2171 52.2001C73.867 51.8876 75.0624 51.3129 75.175 50.9698C75.2768 50.6523 74.6357 49.463 74.3273 48.8922C73.6652 47.6659 72.9148 46.2753 73.138 44.8552C73.358 43.4675 74.4366 42.4403 75.4794 41.4473L75.4827 41.4442C76.0045 40.948 76.9751 40.0234 76.9751 39.6508C76.9751 39.2813 76.0053 38.3575 75.4842 37.862C74.4382 36.8665 73.3575 35.8363 73.138 34.4495C72.914 33.0287 73.6652 31.638 74.328 30.4118C74.6365 29.8416 75.2783 28.6538 75.1765 28.3348C75.0636 27.9917 73.8643 27.4158 73.2162 27.1046L73.2119 27.1026L73.2095 27.1014C71.9018 26.4743 70.5494 25.8258 69.902 24.5701C69.248 23.299 69.5244 21.7539 69.7686 20.3891L69.7692 20.3854L69.7711 20.375C69.8952 19.681 70.1234 18.4051 69.9193 18.129C69.7064 17.8386 68.3916 17.6586 67.6798 17.5611L67.6742 17.5603C66.23 17.3635 64.736 17.1599 63.7277 16.1606C62.7157 15.1576 62.4996 13.6072 62.3089 12.2392L62.3084 12.236C62.2112 11.5362 62.0302 10.2345 61.7398 10.0249C61.7338 10.0211 61.6214 9.94344 61.2104 9.94344C60.7216 9.94344 60.1084 10.0509 59.4588 10.1648C59.4509 10.1662 59.443 10.1675 59.4351 10.1689L59.4326 10.1694C58.674 10.3027 57.8905 10.4404 57.1282 10.4404C56.3891 10.4404 55.77 10.3092 55.236 10.0392C53.972 9.39963 53.3174 8.06021 52.6831 6.76212L52.681 6.75792C52.3688 6.11765 51.7858 4.92534 51.4329 4.81146C50.8882 4.81368 50.0544 5.2563 49.3512 5.62963C49.3369 5.63723 49.3227 5.6448 49.3084 5.65234L49.3046 5.65435C48.1799 6.25025 47.0167 6.86652 45.7843 6.86652C45.6056 6.86652 45.4284 6.85294 45.2572 6.82655C43.8682 6.6091 42.8343 5.5449 41.8335 4.5147L41.8265 4.50754C41.2896 3.95324 40.3891 3.02489 40 3.02489C39.6101 3.02489 38.7089 3.954 38.1704 4.5098C37.1689 5.54223 36.1335 6.60935 34.7458 6.8273C33.3597 7.03846 31.9789 6.33635 30.69 5.65234C29.9774 5.27451 29.0913 4.80543 28.632 4.80543C28.2104 4.92609 27.6282 6.11916 27.316 6.75943C26.6817 8.05807 26.0256 9.40045 24.7602 10.04C24.227 10.3092 23.6101 10.4397 22.8718 10.4397C22.1094 10.4397 21.3243 10.3017 20.5649 10.1682C19.9065 10.052 19.2843 9.94268 18.7888 9.94268C18.3771 9.94268 18.264 10.0211 18.2594 10.0234C17.9668 10.2338 17.7858 11.5392 17.6885 12.2398C17.4894 13.6735 17.2836 15.1561 16.2745 16.1576C15.264 17.1591 13.77 17.3635 12.325 17.5603C11.6146 17.6569 10.2911 17.8379 10.0769 18.1297C9.87255 18.4072 10.1041 19.6961 10.2285 20.3884L10.2293 20.393C10.4727 21.7562 10.7481 23.2986 10.0973 24.5686C9.44796 25.8258 8.09578 26.4744 6.78808 27.1018L6.77933 27.106C6.13096 27.4177 4.9369 27.9917 4.82428 28.3348C4.72277 28.6544 5.35975 29.8347 5.66848 30.4067L5.67119 30.4118C6.33409 31.638 7.08446 33.0287 6.85973 34.4495C6.63876 35.8371 5.55882 36.865 4.51508 37.859L4.50783 37.8659C3.98576 38.3637 3.02413 39.2808 3.02413 39.6501C3.02413 40.0234 3.99472 40.948 4.51659 41.4442C5.56033 42.4382 6.63876 43.4661 6.85973 44.8514C7.08506 46.2735 6.33511 47.6633 5.6733 48.8897L5.67195 48.8922L5.67034 48.8951C5.36128 49.4679 4.7219 50.6529 4.82428 50.9691C4.93717 51.3137 6.13821 51.8905 6.78625 52.2016L6.79035 52.2036C8.09729 52.8303 9.44872 53.4781 10.0965 54.7315C10.7521 56.0036 10.4755 57.5497 10.2313 58.9147L10.2308 58.9178L10.2293 58.9262C10.1052 59.619 9.87639 60.897 10.0799 61.1734C10.2949 61.4661 11.6184 61.6471 12.3296 61.7436L12.334 61.7442C13.7753 61.9416 15.2665 62.1458 16.2738 63.1418C17.2862 64.1459 17.4927 65.6293 17.6924 67.0629L17.6931 67.0679C17.6938 67.0732 17.6945 67.0785 17.6953 67.0838C17.7938 67.788 17.9735 69.0725 18.2624 69.2813C18.2624 69.2813 18.3771 69.3605 18.7881 69.3605C19.2776 69.3605 19.8927 69.2527 20.5434 69.1386C20.5503 69.1374 20.5572 69.1362 20.5641 69.135C21.325 69.0007 22.1109 68.8627 22.8741 68.8627C23.6124 68.8627 24.2315 68.9932 24.7647 69.2624C26.0288 69.9028 26.6834 71.243 27.317 72.5404L27.319 72.5445C27.6312 73.1855 28.2127 74.3771 28.5649 74.4902H28.5769C29.1048 74.4902 29.9827 74.0249 30.6893 73.6501C31.816 73.0535 32.9804 72.4366 34.2157 72.4366Z" fill="#0052FE"/>
<path d="M34.2157 72.4366C34.3952 72.4366 34.5724 72.4502 34.7451 72.4766C36.1335 72.6931 37.1689 73.7617 38.1704 74.7949L38.1741 74.7986C38.713 75.3541 39.6102 76.279 39.9992 76.279C40.3876 76.279 41.2881 75.3514 41.8258 74.7964L41.8287 74.7933C42.8301 73.7603 43.8649 72.6928 45.2542 72.4766C45.4268 72.4502 45.6033 72.4366 45.7828 72.4366C47.0166 72.4366 48.181 73.0535 49.3069 73.6501C50.0189 74.0287 50.9065 74.4992 51.365 74.4992C51.7858 74.3786 52.368 73.1863 52.681 72.5445L52.683 72.5404C53.3166 71.2438 53.9712 69.9043 55.2353 69.2647C55.7685 68.9947 56.3861 68.8643 57.1252 68.8643C57.8868 68.8643 58.6693 69.0017 59.428 69.1349L59.4329 69.1357C60.092 69.2519 60.7134 69.3612 61.2089 69.3612C61.6207 69.3612 61.7338 69.2836 61.7383 69.2805C62.0287 69.0716 62.2097 67.7677 62.3069 67.0671L62.3081 67.0589C62.5076 65.6278 62.7138 64.1482 63.7202 63.1463C64.7338 62.1463 66.2262 61.9419 67.6697 61.7458L67.6769 61.7449C68.3891 61.6473 69.7036 61.4673 69.9163 61.1772C70.1207 60.8989 69.8906 59.6124 69.767 58.9216C69.5219 57.555 69.2443 56.0075 69.9005 54.7338C70.5483 53.4796 71.9004 52.8311 73.2081 52.2044L73.2171 52.2001C73.867 51.8876 75.0624 51.3129 75.175 50.9698C75.2768 50.6523 74.6357 49.463 74.3273 48.8922C73.6652 47.6659 72.9148 46.2753 73.138 44.8552C73.358 43.4675 74.4366 42.4403 75.4794 41.4473L75.4827 41.4442C76.0045 40.948 76.9751 40.0234 76.9751 39.6508C76.9751 39.2813 76.0053 38.3575 75.4842 37.862C74.4382 36.8665 73.3575 35.8363 73.138 34.4495C72.914 33.0287 73.6652 31.638 74.328 30.4118C74.6365 29.8416 75.2783 28.6538 75.1765 28.3348C75.0636 27.9917 73.8643 27.4158 73.2162 27.1046L73.2119 27.1026L73.2095 27.1014C71.9018 26.4743 70.5494 25.8258 69.902 24.5701C69.248 23.299 69.5244 21.7539 69.7686 20.3891L69.7692 20.3854L69.7711 20.375C69.8952 19.681 70.1234 18.4051 69.9193 18.129C69.7064 17.8386 68.3916 17.6586 67.6798 17.5611L67.6742 17.5603C66.23 17.3635 64.736 17.1599 63.7277 16.1606C62.7157 15.1576 62.4996 13.6072 62.3089 12.2392L62.3084 12.236C62.2112 11.5362 62.0302 10.2345 61.7398 10.0249C61.7297 10.0183 61.6132 9.94344 61.2104 9.94344C60.7216 9.94344 60.1084 10.0509 59.4588 10.1648L59.4351 10.1689L59.4326 10.1694C58.674 10.3027 57.8905 10.4404 57.1282 10.4404C56.3891 10.4404 55.77 10.3092 55.236 10.0392C53.972 9.39963 53.3174 8.06021 52.6831 6.76212L52.681 6.75792C52.3688 6.11765 51.7858 4.92534 51.4329 4.81146C50.8882 4.81368 50.0544 5.2563 49.3512 5.62963L49.3084 5.65234L49.3046 5.65435C48.1799 6.25025 47.0167 6.86652 45.7843 6.86652C45.6056 6.86652 45.4284 6.85294 45.2572 6.82655C43.8682 6.6091 42.8343 5.5449 41.8335 4.5147L41.8265 4.50754C41.2896 3.95324 40.3891 3.02489 40 3.02489C39.6101 3.02489 38.7089 3.954 38.1704 4.5098C37.1689 5.54223 36.1335 6.60935 34.7458 6.8273C33.3597 7.03846 31.9789 6.33635 30.69 5.65234C29.9774 5.27451 29.0913 4.80543 28.632 4.80543C28.2104 4.92609 27.6282 6.11916 27.316 6.75943C26.6817 8.05807 26.0256 9.40045 24.7602 10.04C24.227 10.3092 23.6101 10.4397 22.8718 10.4397C22.1094 10.4397 21.3243 10.3017 20.5649 10.1682C19.9065 10.052 19.2843 9.94268 18.7888 9.94268C18.3771 9.94268 18.264 10.0211 18.2594 10.0234C17.9668 10.2338 17.7858 11.5392 17.6885 12.2398C17.4894 13.6735 17.2836 15.1561 16.2745 16.1576C15.264 17.1591 13.77 17.3635 12.325 17.5603C11.6146 17.6569 10.2911 17.8379 10.0769 18.1297C9.87255 18.4072 10.1041 19.6961 10.2285 20.3884L10.2293 20.393C10.4727 21.7562 10.7481 23.2986 10.0973 24.5686C9.44796 25.8258 8.09578 26.4744 6.78808 27.1018L6.77933 27.106C6.13096 27.4177 4.9369 27.9917 4.82428 28.3348C4.72277 28.6544 5.35975 29.8347 5.66848 30.4067L5.67119 30.4118C6.33409 31.638 7.08446 33.0287 6.85973 34.4495C6.63876 35.8371 5.55882 36.865 4.51508 37.859L4.50783 37.8659C3.98576 38.3637 3.02413 39.2808 3.02413 39.6501C3.02413 40.0234 3.99472 40.948 4.51659 41.4442C5.56033 42.4382 6.63876 43.4661 6.85973 44.8514C7.08506 46.2735 6.33511 47.6633 5.6733 48.8897L5.67195 48.8922L5.67034 48.8951C5.36128 49.4679 4.7219 50.6529 4.82428 50.9691C4.93717 51.3137 6.13821 51.8905 6.78625 52.2016L6.79035 52.2036C8.09729 52.8303 9.44872 53.4781 10.0965 54.7315C10.7521 56.0036 10.4755 57.5497 10.2313 58.9147L10.2308 58.9178L10.2293 58.9262C10.1052 59.619 9.87639 60.897 10.0799 61.1734C10.2949 61.4661 11.6184 61.6471 12.3296 61.7436L12.334 61.7442C13.7753 61.9416 15.2665 62.1458 16.2738 63.1418C17.2862 64.1459 17.4927 65.6293 17.6924 67.0629L17.6931 67.0679L17.6953 67.0838C17.7938 67.788 17.9735 69.0725 18.2624 69.2813C18.2624 69.2813 18.3771 69.3605 18.7881 69.3605C19.2776 69.3605 19.8927 69.2527 20.5434 69.1386L20.5641 69.135C21.325 69.0007 22.1109 68.8627 22.8741 68.8627C23.6124 68.8627 24.2315 68.9932 24.7647 69.2624C26.0288 69.9028 26.6834 71.243 27.317 72.5404L27.319 72.5445C27.6312 73.1855 28.2127 74.3771 28.5649 74.4902H28.5769C29.1048 74.4902 29.9827 74.0249 30.6893 73.6501C31.816 73.0535 32.9804 72.4366 34.2157 72.4366Z" fill="#0052FE"/>
<path d="M40.0028 65.8679C25.4213 65.8679 13.5586 54.1077 13.5586 39.6507C13.5586 25.1959 25.4213 13.4357 40.0028 13.4357C54.5812 13.4357 66.4425 25.1959 66.4425 39.6507C66.4425 54.1077 54.5812 65.8679 40.0028 65.8679ZM40.0028 16.4606C27.0895 16.4606 16.5827 26.8641 16.5827 39.6507C16.5827 52.4395 27.0895 62.843 40.0028 62.843C52.9138 62.843 63.4176 52.4395 63.4176 39.6507C63.4176 26.8641 52.9138 16.4606 40.0028 16.4606Z" fill="#00C5FF"/>
<path d="M33.7088 39.9866C30.6469 39.9866 28.1562 37.5133 28.1562 34.4731C28.1562 31.4329 30.6475 28.959 33.7088 28.959C36.7714 28.959 39.262 31.4322 39.262 34.4731C39.262 37.5133 36.7708 39.9866 33.7088 39.9866ZM33.7088 31.4471C32.019 31.4471 30.645 32.8044 30.645 34.4731C30.645 36.1418 32.0197 37.4984 33.7088 37.4984C35.3992 37.4984 36.7739 36.1412 36.7739 34.4731C36.7739 32.805 35.3986 31.4471 33.7088 31.4471Z" fill="white"/>
<path d="M45.8696 51.5405C42.807 51.5405 40.3164 49.0672 40.3164 46.0264C40.3164 42.9867 42.8076 40.5129 45.8696 40.5129C48.9315 40.5129 51.4215 42.9861 51.4215 46.0264C51.4215 49.0672 48.9309 51.5405 45.8696 51.5405ZM45.8696 43.001C44.1798 43.001 42.8045 44.3583 42.8045 46.0264C42.8045 47.695 44.1804 49.0523 45.8696 49.0523C47.5587 49.0523 48.9334 47.695 48.9334 46.0264C48.9334 44.3583 47.5594 43.001 45.8696 43.001Z" fill="white"/>
<path d="M49.7824 32.3447L48.0312 30.5771L30.0347 48.4065L31.7858 50.1741L49.7824 32.3447Z" fill="white"/>
</svg>
