<svg width="80" height="94" viewBox="0 0 80 94" fill="none" xmlns="http://www.w3.org/2000/svg">
<path d="M56.7023 69.0077V57.719L64.9604 49.461C66.6351 47.7862 66.6351 45.0459 64.9604 43.3713C63.2856 41.6966 60.5453 41.6966 58.8708 43.3713L54.2681 47.974V36.6866H21.3672V69.0081H56.7023V69.0077Z" fill="#0052FE"/>
<path d="M8.70663 0H80V46.3934H74.0523H0V0H2.39479H8.70663Z" fill="#00C5FF"/>
<path d="M39.9963 7.45844C48.6884 7.45844 55.7348 14.5048 55.7348 23.1969C55.7348 31.8891 48.6884 38.9354 39.9963 38.9354C31.3042 38.9354 24.2578 31.8891 24.2578 23.1969C24.2578 16.772 28.1075 11.2466 33.6261 8.80106C33.6263 8.80088 36.077 7.45844 39.9963 7.45844Z" fill="#0052FE"/>
<path d="M12.6164 0.0288237C12.6164 6.99654 6.96791 12.6453 0 12.6453V0L12.6164 0.0288237Z" fill="#0052FE"/>
<path d="M12.6164 46.3933C12.6164 39.4256 6.96791 33.7769 0 33.7769V46.3933H12.6164Z" fill="#0052FE"/>
<path d="M67.3789 0.0288237C67.3789 6.99654 73.0274 12.6453 79.9953 12.6453V0L67.3789 0.0288237Z" fill="#0052FE"/>
<path d="M67.3789 46.3933C67.3789 39.4256 73.0274 33.7769 79.9953 33.7769V46.3933H67.3789Z" fill="#0052FE"/>
<path d="M56.7063 57.7189L64.9643 49.4608C66.6391 47.786 66.6391 45.0457 64.9643 43.3712C63.2896 41.6964 60.5493 41.6964 58.8747 43.3712L57.7815 44.4644L49.9725 52.4322C49.9725 52.4322 40.8026 50.8484 38.0664 59.0046V69.0078H56.7061L56.7063 57.7189Z" fill="#0052FE"/>
<path d="M35.7381 74.7711H58.6905C59.6862 74.7711 60.4934 75.8861 60.4934 77.2611V91.3234C60.4934 92.6984 59.6862 93.8133 58.6905 93.8133H19.4514C18.4557 93.8133 17.6484 92.6984 17.6484 91.3234V77.2611C17.6484 75.8861 18.4557 74.7711 19.4514 74.7711H28.7335H35.7381Z" fill="#0052FE"/>
<path d="M40.0385 11.3542C39.2664 11.3542 38.6406 11.9799 38.6406 12.752V14.0605C36.3639 14.6769 34.6836 16.7598 34.6836 19.229C34.6836 21.8362 36.5612 22.8603 38.2181 23.764C38.5763 23.9593 38.9467 24.1614 39.3198 24.3851C39.3268 24.3892 39.3339 24.3935 39.341 24.3974C39.693 24.6003 40.0329 24.782 40.3617 24.9577C42.1482 25.9131 42.598 26.2698 42.598 27.1431C42.598 28.5541 41.4501 29.7023 40.0389 29.7023C38.6278 29.7023 37.4797 28.5543 37.4797 27.1431C37.4797 26.3708 36.8537 25.7452 36.0818 25.7452C35.3099 25.7452 34.684 26.371 34.684 27.1431C34.684 29.6123 36.3643 31.6952 38.641 32.3118V33.2682C38.641 34.0405 39.2669 34.6661 40.0389 34.6661C40.811 34.6661 41.4367 34.0403 41.4367 33.2682V32.3118C43.7134 31.6954 45.3938 29.6123 45.3938 27.1431C45.3938 24.4779 43.4209 23.423 41.6801 22.4922C41.3739 22.3284 41.0574 22.1594 40.7468 21.9808C40.329 21.7305 39.9366 21.5165 39.5568 21.3095C37.8732 20.3913 37.4795 20.0891 37.4795 19.229C37.4795 17.8181 38.6274 16.67 40.0387 16.67C41.4499 16.67 42.5978 17.818 42.5978 19.229C42.5978 20.0013 43.2238 20.6269 43.9957 20.6269C44.7678 20.6269 45.3936 20.0011 45.3936 19.229C45.3936 16.7598 43.7132 14.6769 41.4365 14.0605V12.752C41.4363 11.9799 40.8106 11.3542 40.0385 11.3542Z" fill="white"/>
<path d="M35.7381 67.6301H58.6905C59.6862 67.6301 60.4934 68.4662 60.4934 69.4975V80.0444C60.4934 81.0757 59.6862 81.9118 58.6905 81.9118H19.4514C18.4557 81.9118 17.6484 81.0757 17.6484 80.0444V69.4975C17.6484 68.4662 18.4557 67.6301 19.4514 67.6301H28.7335H35.7381Z" fill="#00C5FF"/>
</svg>
