<svg width="250" height="250" viewBox="0 0 250 250" fill="none" xmlns="http://www.w3.org/2000/svg">
<rect width="250" height="250" fill="white"/>
<path d="M145.56 154.11H149.775H152.56L144.765 160.555H143.335H142.06L143.88 157.795L138.57 160.555H137.29H135.78L145.56 154.11Z" fill="#F9FBFF"/>
<path d="M200.805 160.555H198.01L191.815 157.335L194.52 160.555H191.815L184.025 154.11H191.02L200.805 160.555Z" fill="#F9FBFF"/>
<path d="M193.25 160.555L186.805 154.11H191.02L200.805 160.555H199.29L191.815 156.445L194.52 160.555H193.25Z" fill="#F9FBFF"/>
<path d="M120.835 160.555V191.15H215.045V160.555H120.835ZM122.375 162.555H198V172.555H122.375V162.555Z" fill="#F9FBFF"/>
<path d="M120.835 160.555V191.15H200.07V160.555H120.835ZM122.375 162.555H198V172.555H122.375V162.555Z" fill="#F9FBFF"/>
<path d="M122.375 172.54H136.165V162.545H122.375V172.54Z" fill="#F9FBFF"/>
<path d="M137.43 154.965H202.325C203.3 154.965 204.09 154.175 204.09 153.2V115.385C204.09 114.41 203.3 113.62 202.325 113.62H137.43C136.455 113.62 135.665 114.41 135.665 115.385V153.2C135.665 154.175 136.455 154.965 137.43 154.965Z" fill="#F9FBFF"/>
<path d="M135.825 154.965H200.72C201.695 154.965 202.485 154.175 202.485 153.2V115.385C202.485 114.41 201.695 113.62 200.72 113.62H135.825C134.85 113.62 134.06 114.41 134.06 115.385V153.2C134.06 154.175 134.85 154.965 135.825 154.965Z" fill="#F9FBFF"/>
<path d="M202 153V115.5H136V153H202Z" fill="#F9FBFF"/>
<path d="M54.8995 60.1005C56.0596 55.1854 53.0155 50.2606 48.1005 49.1005C43.1854 47.9404 38.2605 50.9845 37.1005 55.8995C35.9404 60.8146 38.9844 65.7395 43.8995 66.8995C48.8146 68.0596 53.7395 65.0156 54.8995 60.1005Z" fill="#F9FBFF"/>
<path d="M53.6341 59.4746C54.4459 55.2592 51.6867 51.1838 47.4713 50.3721C43.2558 49.5603 39.1805 52.3195 38.3687 56.5349C37.557 60.7503 40.3162 64.8257 44.5316 65.6374C48.747 66.4492 52.8224 63.69 53.6341 59.4746Z" fill="white"/>
<path d="M45.6337 58.5875C45.5508 58.5872 45.4693 58.5656 45.3971 58.5247L41.7955 56.4873C41.6843 56.4244 41.6025 56.32 41.5681 56.1969C41.5337 56.0739 41.5495 55.9422 41.6121 55.8307C41.6432 55.775 41.6851 55.726 41.7353 55.6866C41.7855 55.6471 41.843 55.618 41.9045 55.601C41.966 55.5839 42.0303 55.5792 42.0936 55.5872C42.157 55.5951 42.2181 55.6155 42.2735 55.6473L45.1702 57.2791V52.6685C45.1702 52.5404 45.2211 52.4176 45.3116 52.3271C45.4022 52.2365 45.525 52.1857 45.653 52.1857C45.7811 52.1857 45.9039 52.2365 45.9944 52.3271C46.0849 52.4176 46.1358 52.5404 46.1358 52.6685V58.1047C46.1358 58.1885 46.114 58.2708 46.0725 58.3436C46.031 58.4164 45.9713 58.4771 45.8992 58.5199C45.8198 58.5692 45.7271 58.5928 45.6337 58.5875Z" fill="#F9FBFF"/>
<path d="M154.185 65.83C154.185 65.83 153.725 62.83 155.925 60.885C158.125 58.94 157.925 57.805 157.3 57.655C156.675 57.505 156.095 59.44 155.125 59.97C155.125 59.97 155.095 57.215 156.08 56.205C157.065 55.195 157.58 52.575 156.64 52.53C155.7 52.485 155.61 54.08 155.415 55.215C155.153 56.1831 154.738 57.103 154.185 57.94C154.185 57.94 153.98 55.48 153.345 54.465C152.71 53.45 154.405 51.13 153.75 50.12C153.095 49.11 151.94 51.035 152.035 53.21C152.13 55.385 153.58 57.71 153.245 59.97C153.245 59.97 152.605 58.375 152.03 58.23C151.455 58.085 150.88 57.03 150.49 56.64C150.1 56.25 149.62 57.605 150.49 58.86C151.36 60.115 153.58 63.475 153.245 66.19L154.185 65.83Z" fill="#F9FBFF"/>
<path d="M155.5 64.4601L156.22 68.9601C156.273 69.288 156.254 69.6236 156.164 69.9435C156.075 70.2634 155.917 70.56 155.701 70.813C155.486 71.0659 155.218 71.269 154.917 71.4084C154.615 71.5477 154.287 71.62 153.955 71.6201H153.185C152.853 71.62 152.524 71.5477 152.223 71.4084C151.921 71.269 151.654 71.0659 151.438 70.813C151.223 70.56 151.065 70.2634 150.976 69.9435C150.886 69.6236 150.867 69.288 150.92 68.9601L151.64 64.4601H155.5Z" fill="#F9FBFF"/>
<path d="M144.615 72.5801H195.475V69.9651H144.615V72.5801Z" fill="#F9FBFF"/>
<path d="M190.89 69.9651H193.13V60.3301H190.89V69.9651Z" fill="#F9FBFF"/>
<path d="M180.06 69.9651H182.3V60.3301H180.06V69.9651Z" fill="#F9FBFF"/>
<path d="M166.127 69.5798L168.334 69.9603L169.971 60.4654L167.764 60.0849L166.127 69.5798Z" fill="#F9FBFF"/>
<path d="M188.12 69.9651H190.36V61.6001H188.12V69.9651Z" fill="#F9FBFF"/>
<path d="M182.97 69.9651H185.21V61.6001H182.97V69.9651Z" fill="#F9FBFF"/>
<path d="M169.97 69.9651H172.21V61.6001H169.97V69.9651Z" fill="#F9FBFF"/>
<path d="M175.308 69.4704L177.495 69.9564L179.31 61.7907L177.123 61.3047L175.308 69.4704Z" fill="#F9FBFF"/>
<path d="M186.18 69.9651H187.3V59.8551H186.18V69.9651Z" fill="#F9FBFF"/>
<path d="M172.855 69.9651H173.975V59.8551H172.855V69.9651Z" fill="#F9FBFF"/>
<path d="M195.475 89.475H144.615V92.09H195.475V89.475Z" fill="#F9FBFF"/>
<path d="M149.195 79.84H146.955V89.475H149.195V79.84Z" fill="#F9FBFF"/>
<path d="M160.03 79.84H157.79V89.475H160.03V79.84Z" fill="#F9FBFF"/>
<path d="M172.33 79.5967L170.123 79.9772L171.759 89.4722L173.967 89.0917L172.33 79.5967Z" fill="#F9FBFF"/>
<path d="M151.97 81.11H149.73V89.475H151.97V81.11Z" fill="#F9FBFF"/>
<path d="M157.12 81.11H154.88V89.475H157.12V81.11Z" fill="#F9FBFF"/>
<path d="M170.12 81.11H167.88V89.475H170.12V81.11Z" fill="#F9FBFF"/>
<path d="M162.973 80.8173L160.786 81.3032L162.601 89.469L164.788 88.983L162.973 80.8173Z" fill="#F9FBFF"/>
<path d="M153.91 79.365H152.79V89.475H153.91V79.365Z" fill="#F9FBFF"/>
<path d="M167.235 79.365H166.115V89.475H167.235V79.365Z" fill="#F9FBFF"/>
<path d="M190.595 81.85H179.675V89.385H190.595V81.85Z" fill="#F9FBFF"/>
<path d="M120.5 214C176.557 214 222 211.426 222 208.25C222 205.074 176.557 202.5 120.5 202.5C64.4431 202.5 19 205.074 19 208.25C19 211.426 64.4431 214 120.5 214Z" fill="#F9FBFF"/>
<path d="M135.391 74.5581C135.363 71.7664 133.891 69.2643 131.541 67.4798C131.617 67.1112 131.652 66.7353 131.647 66.359C131.617 62.6459 127.851 59.6479 123.152 59.6242C121.705 56.0507 117.442 53.4887 112.434 53.5311C108.438 53.5674 104.951 55.2589 103 57.7687C102.507 57.7209 102.012 57.706 101.517 57.7242C96.7491 57.7701 92.9087 60.8578 92.9392 64.6281C92.9482 65.2674 93.0684 65.9001 93.2943 66.4976C90.2692 68.1184 88.2875 70.8857 88.3176 73.9889C88.3458 76.9775 90.2242 79.6006 93.0919 81.1924C93.0921 81.2241 93.0891 81.2558 93.083 81.2869C93.1173 84.9495 96.7875 87.894 101.369 88.021C104.313 90.6838 108.168 92.1011 112.13 91.9772C114.978 91.9735 117.776 91.2209 120.244 89.7943C120.633 89.831 121.022 89.8676 121.422 89.8482C126.191 89.7959 130.032 86.7083 130.001 82.938C130 82.9147 130.002 82.8913 130.008 82.8687C133.271 81.0036 135.423 77.9728 135.391 74.5581Z" fill="url(#paint0_linear_551_14883)"/>
<path d="M107.382 106.622C107.446 106.228 107.291 105.837 106.99 105.523C107.01 105.473 107.024 105.421 107.032 105.368C107.118 104.844 106.639 104.323 105.951 104.196C105.825 103.654 105.263 103.181 104.528 103.055C103.942 102.954 103.39 103.101 103.043 103.403C102.972 103.383 102.9 103.368 102.827 103.357C102.127 103.238 101.489 103.572 101.403 104.103C101.388 104.194 101.391 104.286 101.409 104.376C100.927 104.525 100.569 104.862 100.499 105.3C100.43 105.722 100.642 106.141 101.024 106.44C101.023 106.445 101.022 106.449 101.02 106.453C100.936 106.97 101.403 107.482 102.071 107.62C102.438 108.073 102.969 108.375 103.552 108.462C103.97 108.536 104.398 108.504 104.794 108.368C104.85 108.384 104.906 108.399 104.965 108.407C105.665 108.525 106.303 108.192 106.39 107.66C106.39 107.657 106.391 107.653 106.392 107.65C106.916 107.474 107.304 107.104 107.382 106.622Z" fill="url(#paint1_linear_551_14883)"/>
<path d="M112.26 97.6759C112.171 97.287 111.88 96.9827 111.483 96.8056C111.483 96.7518 111.477 96.6982 111.464 96.6458C111.347 96.1283 110.707 95.8251 110.021 95.9657C109.702 95.511 109.002 95.2839 108.274 95.4432C107.693 95.5706 107.236 95.9136 107.029 96.3238C106.955 96.3322 106.883 96.3453 106.811 96.363C106.118 96.5155 105.652 97.0642 105.772 97.5897C105.793 97.6786 105.829 97.7633 105.881 97.8398C105.489 98.1588 105.285 98.6058 105.384 99.0382C105.479 99.4546 105.833 99.7633 106.299 99.8977C106.3 99.9021 106.301 99.9067 106.301 99.9112C106.417 100.422 107.042 100.72 107.713 100.598C108.223 100.879 108.828 100.959 109.402 100.82C109.817 100.733 110.201 100.542 110.517 100.267C110.575 100.26 110.633 100.254 110.691 100.239C111.384 100.085 111.849 99.5365 111.73 99.011C111.729 99.0078 111.729 99.0045 111.729 99.0011C112.147 98.6408 112.369 98.1517 112.26 97.6759Z" fill="url(#paint2_linear_551_14883)"/>
<path d="M114.679 70.6992C114.73 69.3265 113.593 68.3482 111.7 68.2765C110.931 68.2044 110.157 68.3257 109.447 68.6296C108.737 68.9334 108.114 69.41 107.635 70.016L105.316 68.38C106.757 66.5633 108.991 65.5193 112.074 65.6353C115.678 65.7661 118.015 67.5029 117.911 70.3196C117.763 74.3203 113.555 74.529 113.453 77.4245L110.337 77.3104C110.47 73.6869 114.587 73.1515 114.679 70.6992ZM109.792 81.2485C109.801 80.8644 109.924 80.4917 110.145 80.1775C110.366 79.8633 110.675 79.6216 111.034 79.4831C111.392 79.3445 111.783 79.3154 112.158 79.3992C112.533 79.4831 112.875 79.6762 113.14 79.9542C113.405 80.2322 113.582 80.5826 113.648 80.961C113.714 81.3394 113.666 81.729 113.511 82.0803C113.355 82.4316 113.099 82.729 112.775 82.9348C112.451 83.1407 112.072 83.2457 111.688 83.2367C111.431 83.2378 111.177 83.1864 110.94 83.0857C110.703 82.9849 110.49 82.837 110.312 82.6509C110.135 82.4648 109.997 82.2444 109.908 82.0033C109.818 81.7621 109.779 81.5053 109.792 81.2485Z" fill="white"/>
<path d="M157.215 159.825H207.555C207.555 162.03 206.1 163.825 204.255 163.94C198.845 164.23 190.52 165.25 187.88 168.825C182.96 175.48 183.44 198.87 189.33 204.29C191.18 205.985 196.565 209.36 196.565 209.36H168.2C168.2 209.36 173.235 205.92 174.985 204.29C180.845 198.825 181.015 175.45 176.07 168.825C173.535 165.425 165.735 164.325 160.5 163.98C158.655 163.855 157.215 162.03 157.215 159.825Z" fill="#407BFF"/>
<path d="M157.215 159.825H207.555C207.555 162.03 206.1 163.825 204.255 163.94C198.845 164.23 190.52 165.25 187.88 168.825C182.96 175.48 183.44 198.87 189.33 204.29C191.18 205.985 196.565 209.36 196.565 209.36H168.2C168.2 209.36 173.235 205.92 174.985 204.29C180.845 198.825 181.015 175.45 176.07 168.825C173.535 165.425 165.735 164.325 160.5 163.98C158.655 163.855 157.215 162.03 157.215 159.825Z" fill="url(#paint3_linear_551_14883)"/>
<path d="M192.79 153.09L196.55 159.865H191.865L192.79 153.09Z" fill="#407BFF"/>
<path d="M192.79 153.09L196.55 159.865H191.865L192.79 153.09Z" fill="#82A8F5"/>
<path d="M194.045 159.865H185.195L187.965 148.4H196.81L194.045 159.865Z" fill="url(#paint4_linear_551_14883)"/>
<path d="M168.15 154.645L165.955 159.865H171.825L168.15 154.645Z" fill="#83A8F5"/>
<path d="M180.135 159.865H168.895L166.255 151.72H177.5L180.135 159.865Z" fill="#407BFF"/>
<path d="M180.135 159.865H168.895L166.255 151.72H177.5L180.135 159.865Z" fill="url(#paint5_linear_551_14883)"/>
<path d="M137.491 191.755H143.556L144.556 209.36H141.496L137.491 191.755Z" fill="#263238"/>
<path d="M106.471 191.755H112.536L113.536 209.36H110.476L106.471 191.755Z" fill="#263238"/>
<path d="M75.0158 191.755H68.9508L67.9458 209.36H71.0108L75.0158 191.755Z" fill="#263238"/>
<path d="M106.036 191.755H99.9658L98.9658 209.36H102.031L106.036 191.755Z" fill="#263238"/>
<path d="M137.491 191.755H143.556L144.556 209.36H141.496L137.491 191.755Z" fill="url(#paint6_linear_551_14883)"/>
<path d="M106.036 191.755H99.9658L98.9658 209.36H102.031L106.036 191.755Z" fill="url(#paint7_linear_551_14883)"/>
<path d="M106.471 191.755H112.536L113.536 209.36H110.476L106.471 191.755Z" fill="url(#paint8_linear_551_14883)"/>
<path d="M75.0158 191.755H68.9508L67.9458 209.36H71.0108L75.0158 191.755Z" fill="url(#paint9_linear_551_14883)"/>
<path d="M110.316 145.135L113.646 175.29C113.758 176.115 113.689 176.955 113.444 177.75C113.199 178.546 112.783 179.279 112.226 179.898C111.668 180.516 110.983 181.006 110.217 181.333C109.451 181.66 108.623 181.816 107.791 181.79H69.3558C68.4558 181.775 67.591 181.438 66.9185 180.84C66.246 180.242 65.8104 179.422 65.6908 178.53L61.6458 141.93C61.5912 141.516 61.6273 141.095 61.7516 140.696C61.8759 140.298 62.0853 139.931 62.3655 139.621C62.6456 139.312 62.9897 139.067 63.374 138.903C63.7582 138.74 64.1734 138.662 64.5908 138.675H103.026C104.811 138.708 106.526 139.376 107.862 140.561C109.198 141.745 110.069 143.367 110.316 145.135Z" fill="#407BFF"/>
<path d="M110.316 145.135L113.646 175.29C113.758 176.115 113.689 176.955 113.444 177.75C113.199 178.546 112.783 179.279 112.226 179.898C111.668 180.516 110.983 181.006 110.217 181.333C109.451 181.66 108.623 181.816 107.791 181.79H69.3558C68.4558 181.775 67.591 181.438 66.9185 180.84C66.246 180.242 65.8104 179.422 65.6908 178.53L61.6458 141.93C61.5912 141.516 61.6273 141.095 61.7516 140.696C61.8759 140.298 62.0853 139.931 62.3655 139.621C62.6456 139.312 62.9897 139.067 63.374 138.903C63.7582 138.74 64.1734 138.662 64.5908 138.675H103.026C104.811 138.708 106.526 139.376 107.862 140.561C109.198 141.745 110.069 143.367 110.316 145.135Z" fill="#80A1F2"/>
<path d="M75.2958 145.135L78.6258 175.29C78.7381 176.115 78.6692 176.955 78.4239 177.75C78.1787 178.546 77.7629 179.279 77.2056 179.898C76.6483 180.516 75.9628 181.006 75.1969 181.333C74.431 181.66 73.6031 181.816 72.7708 181.79H69.3558C68.4558 181.775 67.591 181.438 66.9185 180.84C66.246 180.242 65.8104 179.422 65.6908 178.53L61.6458 141.93C61.5912 141.516 61.6273 141.095 61.7516 140.696C61.8759 140.298 62.0853 139.931 62.3655 139.621C62.6456 139.312 62.9897 139.067 63.374 138.903C63.7582 138.74 64.1734 138.662 64.5908 138.675H68.0008C69.7868 138.707 71.503 139.375 72.8403 140.559C74.1776 141.743 75.0484 143.366 75.2958 145.135Z" fill="#9EBDFE"/>
<path d="M147.536 181.465V191.3C147.536 191.963 147.272 192.599 146.803 193.068C146.335 193.537 145.699 193.8 145.036 193.8H69.1206C68.4576 193.8 67.8217 193.537 67.3528 193.068C66.884 192.599 66.6206 191.963 66.6206 191.3V181.465C66.6206 180.802 66.884 180.166 67.3528 179.697C67.8217 179.228 68.4576 178.965 69.1206 178.965H145.051C145.711 178.969 146.343 179.234 146.809 179.702C147.274 180.171 147.536 180.805 147.536 181.465Z" fill="#407BFF"/>
<path d="M147.536 181.465V191.3C147.536 191.963 147.272 192.599 146.803 193.068C146.335 193.537 145.699 193.8 145.036 193.8H69.1206C68.4576 193.8 67.8217 193.537 67.3528 193.068C66.884 192.599 66.6206 191.963 66.6206 191.3V181.465C66.6206 180.802 66.884 180.166 67.3528 179.697C67.8217 179.228 68.4576 178.965 69.1206 178.965H145.051C145.711 178.969 146.343 179.234 146.809 179.702C147.274 180.171 147.536 180.805 147.536 181.465Z" fill="#80A1F2"/>
<path d="M102.501 181.465V191.3C102.501 191.963 102.237 192.599 101.768 193.068C101.3 193.537 100.664 193.8 100.001 193.8H69.1006C68.4375 193.8 67.8017 193.537 67.3328 193.068C66.864 192.599 66.6006 191.963 66.6006 191.3V181.465C66.6006 180.802 66.864 180.166 67.3328 179.697C67.8017 179.228 68.4375 178.965 69.1006 178.965H100.001C100.664 178.965 101.3 179.228 101.768 179.697C102.237 180.166 102.501 180.802 102.501 181.465Z" fill="#9EBDFE"/>
<path d="M121.281 204.44L117.986 203.13L119.271 198.335L120.461 193.935L124.621 194.855L122.851 199.93L121.281 204.44Z" fill="#EBC0BB"/>
<path opacity="0.2" d="M122.811 200.035L119.236 198.425L120.441 193.98L124.611 194.88L122.811 200.035Z" fill="black"/>
<path d="M96.381 161.235C96.381 161.235 123.881 157.525 131.521 162.405C139.161 167.285 124.366 197 124.366 197L119.736 196C119.736 196 123.206 172.44 122.946 171.455C122.686 170.47 109.741 176.88 92.001 177.5L96.381 161.235Z" fill="#263238"/>
<path opacity="0.5" d="M96.381 161.235C96.381 161.235 123.881 157.525 131.521 162.405C139.161 167.285 124.366 197 124.366 197L119.736 196C119.736 196 123.206 172.44 122.946 171.455C122.686 170.47 109.741 176.88 92.001 177.5L96.381 161.235Z" fill="#7B9CDB"/>
<path d="M150.921 202.97L148.376 205.43L144.531 202.285L141.006 199.395L143.556 195.985L147.456 199.68L150.921 202.97Z" fill="#EBC0BB"/>
<path d="M146.001 203.86C145.876 203.49 150.501 202.095 150.501 202.095C150.501 202.095 154.316 203.875 157.236 203.5C160.156 203.125 159.261 205.3 156.261 206.42L148.836 209.2C146.696 210 147.346 207.685 146.001 203.86Z" fill="#4B69A2"/>
<path d="M152.001 202.5C151.641 202.5 151.331 202.475 151.206 202.465H151.156H151.131C151.113 202.449 151.1 202.428 151.096 202.405C151.096 202.355 151.096 201.17 151.596 200.685C151.672 200.611 151.763 200.555 151.864 200.521C151.964 200.486 152.07 200.474 152.176 200.485C152.416 200.485 152.561 200.595 152.611 200.75C152.686 200.995 152.441 201.36 152.141 201.695C152.465 201.502 152.838 201.405 153.216 201.415C153.286 201.424 153.353 201.448 153.414 201.485C153.474 201.522 153.526 201.571 153.566 201.63C153.626 201.697 153.665 201.78 153.677 201.869C153.69 201.958 153.675 202.049 153.636 202.13C153.436 202.445 152.641 202.5 152.001 202.5ZM151.566 202.245C152.341 202.275 153.271 202.245 153.421 201.96C153.421 201.96 153.476 201.87 153.361 201.705C153.338 201.675 153.309 201.65 153.277 201.631C153.244 201.612 153.208 201.6 153.171 201.595C152.771 201.545 152.036 201.96 151.571 202.265L151.566 202.245ZM152.101 200.665C151.972 200.665 151.848 200.716 151.756 200.805C151.482 201.171 151.338 201.618 151.346 202.075C151.921 201.575 152.441 200.97 152.371 200.76C152.371 200.695 152.226 200.675 152.151 200.67L152.101 200.665Z" fill="#577AFA"/>
<path opacity="0.2" d="M147.531 199.76L144.596 202.355L141.041 199.43L143.571 196L147.531 199.76Z" fill="black"/>
<path d="M104.181 164.79C104.181 164.79 103.786 159.35 103.601 158.24C103.449 157.14 103.225 156.051 102.931 154.98C101.721 151.355 85.5556 155.62 85.5556 155.62L85.0956 158.12C85.0956 158.12 77.8006 171.875 82.6756 176.83C84.1756 178.33 87.0656 179.01 90.0306 178.99C90.0306 178.99 99.0956 179.425 115.951 178.64C115.951 178.64 121.886 187.475 142.451 201.525L145.806 198.025C145.806 198.025 122.551 171.3 121.781 170.68C115.066 165.22 104.181 164.79 104.181 164.79Z" fill="#263238"/>
<path opacity="0.6" d="M104.181 164.79C104.181 164.79 103.786 159.35 103.601 158.24C103.449 157.14 103.226 156.051 102.931 154.98C101.721 151.355 85.5558 155.62 85.5558 155.62L85.0959 158.12C85.0959 158.12 77.7159 171.785 82.6759 176.83C84.1759 178.33 87.0658 179.01 90.0308 178.99C90.0308 178.99 99.0958 179.425 115.951 178.64C115.951 178.64 121.886 187.475 142.451 201.525L145.806 198.025C145.806 198.025 122.551 171.3 121.781 170.68C115.066 165.22 104.181 164.79 104.181 164.79Z" fill="#89ADFF"/>
<path d="M140.916 200.975L145.036 196.44L147.031 198.485L143.166 202.62L140.916 200.975Z" fill="#263238"/>
<path d="M119.481 194.505L125.311 196.395L124.266 199.05L118.911 197.23L119.481 194.505Z" fill="#263238"/>
<path d="M124.901 205.085C124.199 204.983 123.521 204.754 122.901 204.41C122.885 204.401 122.871 204.389 122.861 204.375V204.35C122.854 204.337 122.851 204.322 122.851 204.307C122.851 204.293 122.854 204.278 122.861 204.265C122.861 204.215 123.316 203.11 123.976 202.865C124.074 202.826 124.181 202.809 124.287 202.815C124.393 202.821 124.497 202.85 124.591 202.9C124.801 203.01 124.906 203.15 124.891 203.31C124.891 203.565 124.501 203.81 124.096 204.005C124.468 203.953 124.847 204.006 125.191 204.16C125.252 204.194 125.305 204.24 125.348 204.296C125.39 204.352 125.42 204.417 125.436 204.485C125.461 204.572 125.463 204.665 125.44 204.753C125.417 204.841 125.371 204.921 125.306 204.985C125.186 205.063 125.043 205.099 124.901 205.085ZM123.311 204.345C124.011 204.67 124.896 204.975 125.131 204.79C125.131 204.79 125.216 204.725 125.176 204.535C125.166 204.498 125.15 204.463 125.126 204.433C125.103 204.403 125.074 204.378 125.041 204.36C124.696 204.145 123.856 204.245 123.311 204.345ZM124.216 203.05C124.154 203.049 124.093 203.061 124.036 203.085C123.647 203.316 123.344 203.667 123.171 204.085C123.896 203.835 124.606 203.48 124.626 203.265C124.626 203.195 124.521 203.125 124.456 203.09C124.38 203.058 124.298 203.045 124.216 203.05Z" fill="#577AFA"/>
<path d="M117.316 203.04C117.341 202.65 122.121 203.12 122.121 203.12C122.121 203.12 124.971 206.22 127.811 206.995C130.651 207.77 128.996 209.43 125.811 209.32L117.891 209.05C115.596 209 117.086 207.085 117.316 203.04Z" fill="#4B69A2"/>
<path d="M100.046 127.63C103.046 129.195 106.096 131.07 109.211 132.275C109.376 132.33 109.346 132.325 109.211 132.335C108.91 132.371 108.62 132.468 108.358 132.62C108.096 132.773 107.868 132.977 107.688 133.22C107.508 133.464 107.379 133.741 107.31 134.036C107.241 134.331 107.232 134.637 107.286 134.935C107.286 134.965 107.331 135.095 107.346 135.095C107.162 134.701 106.943 134.324 106.691 133.97C104.326 130.605 100.291 125.925 97.6907 122.655C97.4803 122.388 97.3747 122.053 97.3937 121.714C97.4127 121.374 97.555 121.054 97.7938 120.812C98.0327 120.57 98.3516 120.423 98.6908 120.4C99.03 120.377 99.366 120.478 99.6357 120.685C102.557 123.024 105.341 125.528 107.976 128.185C109.391 129.685 110.901 131.115 111.921 133.03C112.13 133.424 112.254 133.858 112.285 134.303C112.316 134.749 112.253 135.196 112.101 135.615C111.451 137.285 109.576 137.69 108.051 137.325C104.116 136.325 100.721 134.44 97.2707 132.485C94.1707 130.535 96.8107 125.94 100.051 127.63H100.046Z" fill="#EBC0BB"/>
<path d="M99.3706 127.28L100.826 132.63L101.626 135.59C102.468 135.937 103.327 136.241 104.201 136.5C106.35 137.214 108.601 137.574 110.866 137.565L109.966 135.715C109.966 135.715 106.936 132.905 102.611 128.715C102.611 128.73 99.9206 127.46 99.3706 127.28Z" fill="#407BFF"/>
<path d="M107.416 133.33L109.256 138.05L111.411 137.54L109.966 135.72L107.416 133.33Z" fill="#407BFF"/>
<path opacity="0.6" d="M107.416 133.33L109.256 138.05L111.411 137.54L109.966 135.72L107.416 133.33Z" fill="white"/>
<path opacity="0.2" d="M100.826 132.63L101.626 135.59C102.468 135.937 103.327 136.241 104.201 136.5C103.701 133.735 100.946 131.975 100.946 131.975C100.873 132.186 100.833 132.407 100.826 132.63Z" fill="black"/>
<path d="M103.066 154.88L85.2157 155.915C85.0677 151.729 84.6737 147.555 84.0357 143.415C84.0357 143.305 84.0007 143.19 83.9857 143.08C83.8357 142.12 83.6757 141.19 83.5157 140.305C83.3557 139.42 83.2007 138.61 83.0157 137.805C82.7957 136.71 82.5657 135.695 82.3507 134.775C82.1857 134.07 82.0257 133.42 81.8507 132.83C81.2057 130.3 80.7207 128.83 80.7207 128.83C90.1907 123.56 99.5907 127.33 99.5907 127.33C104.676 133.835 103.066 154.88 103.066 154.88Z" fill="#407BFF"/>
<path d="M89.7957 124.9C84.1957 125.22 83.7607 129.875 83.7607 129.875L86.3107 128.595L94.3107 133.295L95.8907 128L98.2907 128.305C98.2907 128.305 94.6607 124.625 89.7957 124.9Z" fill="#407BFF"/>
<path opacity="0.6" d="M89.7957 124.9C84.1957 125.22 83.7607 129.875 83.7607 129.875L86.3107 128.595L94.3107 133.295L95.8907 128L98.2907 128.305C98.2907 128.305 94.6607 124.625 89.7957 124.9Z" fill="white"/>
<path d="M94.0358 133L86.4508 127.135C88.1008 125.235 86.9158 120.345 86.0308 117.69L91.7608 121.765C91.5158 123.885 91.7308 126.11 94.8358 126.65C94.8358 126.65 94.0258 133 94.0358 133Z" fill="#EEC1BB"/>
<path opacity="0.2" d="M88.3656 119.35L91.7606 121.765C91.694 122.262 91.6722 122.764 91.6956 123.265C90.5256 123.165 88.7806 122 88.5006 120.81C88.366 120.336 88.3202 119.841 88.3656 119.35Z" fill="black"/>
<path d="M86.7556 103.94C84.7106 104.25 79.8907 106.965 80.9807 113.305C82.0707 119.645 88.4006 120.805 91.3656 118.75C94.3306 116.695 90.2106 103.425 86.7556 103.94Z" fill="#263238"/>
<path d="M89.2558 104.15C92.0808 103.56 97.8908 107.03 95.0858 111.65C91.5758 117.455 79.3558 106.23 89.2558 104.15Z" fill="#263238"/>
<path d="M96.6656 116.275C96.6656 116.52 96.6656 116.775 96.6656 116.995C96.6453 117.728 96.4642 118.447 96.135 119.102C95.8058 119.757 95.3366 120.331 94.7606 120.785C92.8856 122.245 89.9506 122.35 87.4706 120.5C84.8656 118.555 84.5006 116.71 83.4306 112.405C83.1546 111.426 83.1463 110.39 83.4064 109.407C83.6665 108.423 84.1856 107.527 84.9096 106.812C85.6336 106.098 86.5361 105.59 87.5229 105.342C88.5098 105.095 89.545 105.116 90.5206 105.405C94.8106 106.535 96.6456 112.255 96.6656 116.275Z" fill="#EEC1BB"/>
<path d="M87.0008 109.04C84.7808 112.285 89.9208 115.54 84.9708 115.645C80.0208 115.75 81.6258 108.645 84.4708 106.88C87.3158 105.115 87.0008 109.04 87.0008 109.04Z" fill="#263238"/>
<path d="M89.801 112.295C89.876 112.66 90.126 112.93 90.361 112.9C90.596 112.87 90.726 112.545 90.651 112.18C90.576 111.815 90.326 111.545 90.091 111.575C89.856 111.605 89.726 111.925 89.801 112.295Z" fill="#263238"/>
<path d="M94.2356 111.77C94.3106 112.14 94.5606 112.41 94.7956 112.38C95.0306 112.35 95.1606 112.025 95.0856 111.66C95.0106 111.295 94.7606 111.025 94.5256 111.055C94.2906 111.085 94.1606 111.405 94.2356 111.77Z" fill="#263238"/>
<path d="M94.4258 111.09L95.2408 110.72C95.2408 110.72 94.9358 111.465 94.4258 111.09Z" fill="#263238"/>
<path d="M93.3359 112.625C93.8269 113.419 94.4185 114.147 95.0959 114.79C94.9345 114.948 94.7397 115.067 94.5258 115.139C94.312 115.21 94.0847 115.233 93.8609 115.205L93.3359 112.625Z" fill="#D4827D"/>
<path d="M83.2357 116.63C83.4374 117.002 83.7147 117.327 84.0496 117.586C84.3846 117.844 84.7698 118.029 85.1807 118.13C86.2107 118.34 86.5807 117.155 86.1807 116.015C85.8207 114.985 84.8457 113.64 83.8657 113.95C82.8857 114.26 82.6657 115.64 83.2357 116.63Z" fill="#EEC1BB"/>
<path d="M89.0006 110.82C89.0285 110.82 89.056 110.814 89.0811 110.802C89.1062 110.789 89.1283 110.772 89.1456 110.75C89.3058 110.54 89.5158 110.372 89.7567 110.263C89.9976 110.154 90.2618 110.107 90.5256 110.125C90.553 110.129 90.5811 110.128 90.6079 110.12C90.6347 110.113 90.6597 110.1 90.6813 110.083C90.703 110.066 90.7208 110.044 90.7335 110.019C90.7463 109.995 90.7538 109.968 90.7556 109.94C90.7587 109.882 90.74 109.824 90.703 109.779C90.666 109.733 90.6134 109.704 90.5556 109.695C90.222 109.666 89.8865 109.721 89.5799 109.856C89.2732 109.991 89.0053 110.2 88.8006 110.465C88.7758 110.5 88.7614 110.541 88.7591 110.584C88.7568 110.626 88.7668 110.669 88.7878 110.706C88.8087 110.743 88.8399 110.774 88.8776 110.794C88.9153 110.814 88.958 110.823 89.0006 110.82Z" fill="#263238"/>
<path d="M95.6709 110.035C95.6975 110.036 95.7241 110.032 95.7491 110.023C95.774 110.013 95.7967 109.999 95.8159 109.98C95.836 109.96 95.8519 109.936 95.8628 109.91C95.8737 109.884 95.8793 109.856 95.8793 109.827C95.8793 109.799 95.8737 109.771 95.8628 109.745C95.8519 109.719 95.836 109.695 95.8159 109.675C95.5765 109.419 95.2817 109.222 94.954 109.098C94.6263 108.974 94.2746 108.927 93.9259 108.96C93.8983 108.965 93.872 108.975 93.8486 108.99C93.8253 109.006 93.8054 109.026 93.7903 109.049C93.7753 109.073 93.7653 109.099 93.7611 109.127C93.7569 109.155 93.7585 109.183 93.7659 109.21C93.7801 109.266 93.8145 109.315 93.8624 109.347C93.9104 109.379 93.9686 109.393 94.0259 109.385C94.3036 109.361 94.583 109.401 94.843 109.501C95.1029 109.602 95.3365 109.76 95.5259 109.965C95.5644 110.005 95.6158 110.029 95.6709 110.035Z" fill="#263238"/>
<path d="M90.001 111.61L90.811 111.24C90.811 111.24 90.501 112 90.001 111.61Z" fill="#263238"/>
<path d="M93.7609 117.04C92.9536 117.012 92.1847 116.688 91.6009 116.13C91.5889 116.119 91.5794 116.105 91.5729 116.09C91.5664 116.075 91.563 116.059 91.563 116.043C91.563 116.026 91.5664 116.01 91.5729 115.995C91.5794 115.98 91.5889 115.966 91.6009 115.955C91.6125 115.943 91.6265 115.933 91.642 115.927C91.6574 115.92 91.6741 115.917 91.6909 115.917C91.7077 115.917 91.7243 115.92 91.7398 115.927C91.7552 115.933 91.7692 115.943 91.7809 115.955C92.3268 116.462 93.0364 116.756 93.7809 116.785C93.8145 116.788 93.8458 116.803 93.8681 116.828C93.8905 116.853 93.9023 116.886 93.9009 116.92C93.9003 116.937 93.8961 116.954 93.8886 116.97C93.8811 116.986 93.8705 117 93.8573 117.011C93.8441 117.022 93.8287 117.031 93.8121 117.036C93.7956 117.041 93.7781 117.042 93.7609 117.04Z" fill="#263238"/>
<path d="M91.5309 105.8C91.5309 105.8 90.8309 109.95 85.4959 110.255L81.9109 113.55C81.9109 113.55 80.2209 108.845 85.1659 104.89C90.1109 100.935 95.6059 106.705 90.6659 108.945C90.6759 108.945 92.5359 107.085 91.5309 105.8Z" fill="#263238"/>
<path d="M82.6408 107.795C82.6408 107.795 80.8508 104.485 77.6408 105.895C74.1408 107.425 73.1858 114.61 74.7208 119.35C76.2558 124.09 79.5158 124.04 79.5158 124.04C79.5158 124.04 77.9858 122.17 77.9858 116.48C77.9858 116.48 78.1808 118.98 78.6758 120.235C78.6758 120.235 78.3808 113.945 79.0208 111.48C79.6608 109.015 81.7808 110.445 81.7808 110.445L82.6408 107.795Z" fill="#263238"/>
<path d="M85.266 156.3L90.821 155.96V157.54L84.916 157.865L85.266 156.3Z" fill="#263238"/>
<path d="M103.531 156.835L91.4907 157.5V155.92L103.311 155.195L103.531 156.835Z" fill="#263238"/>
<path d="M97.3159 157.54C97.1443 157.542 96.9785 157.478 96.8522 157.362C96.7259 157.246 96.6485 157.086 96.6358 156.915L96.5458 155.915C96.5383 155.825 96.5486 155.735 96.5761 155.649C96.6035 155.563 96.6476 155.484 96.7058 155.415C96.7683 155.343 96.8448 155.284 96.9309 155.243C97.0169 155.202 97.1105 155.178 97.2058 155.175L98.7658 155.065C98.8563 155.059 98.9472 155.07 99.033 155.099C99.1189 155.129 99.1981 155.175 99.2658 155.235C99.3374 155.298 99.3951 155.374 99.4356 155.46C99.476 155.546 99.4982 155.64 99.5008 155.735L99.5558 156.77C99.5654 156.951 99.5031 157.129 99.3823 157.265C99.2616 157.401 99.0922 157.483 98.9109 157.495L97.3858 157.585L97.3159 157.54ZM97.0408 155.85L97.1308 156.85C97.1359 156.899 97.1595 156.943 97.1968 156.975C97.234 157.007 97.282 157.023 97.3308 157.02L98.8559 156.93C98.9045 156.926 98.9498 156.904 98.9823 156.867C99.0149 156.831 99.0323 156.784 99.0308 156.735L98.9758 155.695C98.9723 155.645 98.9489 155.598 98.9109 155.565C98.8931 155.548 98.8718 155.535 98.8485 155.527C98.8251 155.519 98.8003 155.517 98.7758 155.52L97.2158 155.63C97.1908 155.631 97.1662 155.637 97.1438 155.648C97.1213 155.66 97.1016 155.675 97.0858 155.695C97.0563 155.734 97.0405 155.781 97.0408 155.83V155.85Z" fill="white"/>
<path opacity="0.5" d="M140.916 200.975L145.036 196.44L147.031 198.485L143.166 202.62L140.916 200.975Z" fill="white"/>
<path opacity="0.4" d="M119.481 194.505L125.311 196.395L124.266 199.05L118.911 197.23L119.481 194.505Z" fill="white"/>
<path opacity="0.2" d="M96.666 116.275C96.666 116.52 96.666 116.775 96.666 116.995C96.6457 117.728 96.4645 118.447 96.1353 119.102C95.8061 119.757 95.337 120.331 94.761 120.785C94.216 117.905 95.096 117.31 96.666 116.275Z" fill="black"/>
<path d="M98.5009 116.305L99.6609 117.05C99.8751 117.19 100.053 117.38 100.18 117.602C100.307 117.825 100.379 118.074 100.391 118.33L100.501 120.75C100.523 121.228 100.43 121.705 100.229 122.14C100.029 122.574 99.7282 122.955 99.3509 123.25L98.8809 123.62C96.8809 122.51 95.5209 119.83 95.5209 119.83L95.0509 119.105C94.9506 118.96 94.88 118.796 94.8432 118.624C94.8065 118.451 94.8043 118.273 94.8369 118.099C94.8694 117.926 94.936 117.761 95.0328 117.613C95.1297 117.466 95.2548 117.339 95.4009 117.24L96.8209 116.29C97.0723 116.129 97.3649 116.045 97.6631 116.048C97.9614 116.051 98.2524 116.14 98.5009 116.305Z" fill="#EEC1BB"/>
<path opacity="0.2" d="M107.416 137.3C107.416 137.3 109.086 135.405 110.416 135.4C110.961 135.449 111.49 135.609 111.971 135.87C111.971 135.87 111.306 137.19 110.101 137.37C109.206 137.426 108.307 137.403 107.416 137.3Z" fill="black"/>
<path d="M112.401 139.265L111.716 140.46C111.588 140.681 111.409 140.869 111.194 141.007C110.98 141.145 110.735 141.23 110.481 141.255L108.066 141.495C107.591 141.543 107.111 141.478 106.667 141.304C106.223 141.13 105.826 140.853 105.511 140.495L105.121 140.045C106.121 137.98 108.731 136.495 108.731 136.495L109.426 135.995C109.566 135.887 109.726 135.807 109.897 135.761C110.068 135.716 110.246 135.704 110.421 135.728C110.597 135.752 110.766 135.81 110.918 135.9C111.071 135.989 111.204 136.108 111.311 136.25L112.311 137.615C112.481 137.853 112.581 138.134 112.597 138.427C112.613 138.719 112.545 139.01 112.401 139.265Z" fill="#EEC1BB"/>
<path opacity="0.2" d="M91.7606 144.915C89.4806 145.33 86.3006 144.16 83.9856 143.08C83.8356 142.12 83.6756 141.19 83.5156 140.305C83.3556 139.42 83.2006 138.61 83.0156 137.805C82.7956 136.71 82.5656 135.695 82.3506 134.775C82.1856 134.07 82.0256 133.42 81.8506 132.83C82.5006 132.1 83.4606 131.755 84.8756 132.125C90.8456 133.69 95.7506 144.185 91.7606 144.915Z" fill="black"/>
<path opacity="0.2" d="M82.3657 134.79C82.5857 135.71 82.8107 136.725 83.0357 137.815C83.1957 138.605 83.3557 139.44 83.5357 140.315C84.153 137.596 83.9671 134.756 83.0007 132.14L82.3657 134.79Z" fill="black"/>
<path d="M84.4606 131.44C86.7306 133.865 90.7656 138.48 93.0356 140.535C93.6008 140.721 94.1984 140.787 94.7906 140.73C96.4984 140.616 98.195 140.372 99.8656 140C102.201 139.5 104.596 138.92 106.931 138.305C107.261 138.218 107.612 138.255 107.916 138.411C108.22 138.566 108.457 138.827 108.581 139.146C108.704 139.464 108.706 139.817 108.586 140.137C108.467 140.457 108.233 140.721 107.931 140.88C105.697 142.07 103.381 143.099 101.001 143.96C97.8956 144.96 93.3206 146.615 90.2406 144.72C86.4456 142.02 83.3656 138.59 80.3006 135.15C77.9956 132.32 81.9456 128.81 84.4856 131.44H84.4606Z" fill="#EBC0BB"/>
<path d="M87.8509 143.565L91.7709 139.385L86.5659 132.235C86.5659 132.235 82.9009 126.835 80.7609 128.86C77.0009 132.43 80.4559 137.44 87.8509 143.565Z" fill="#407BFF"/>
<path d="M91.5557 138.735L86.8457 143.915L89.1857 144.915L92.6757 139.92L91.5557 138.735Z" fill="#407BFF"/>
<path opacity="0.6" d="M91.5557 138.735L86.8457 143.915L89.1857 144.915L92.6757 139.92L91.5557 138.735Z" fill="white"/>
<path d="M121.281 204.401L117.986 203.091L119.271 198.296L120.461 193.896L124.621 194.816L122.851 199.891L121.281 204.401Z" fill="#96B7FF"/>
<path opacity="0.2" d="M122.811 199.996L119.236 198.386L120.441 193.941L124.611 194.841L122.811 199.996Z" fill="#96B7FF"/>
<path d="M96.381 161.196C96.381 161.196 123.881 157.486 131.521 162.366C139.161 167.246 124.366 196.961 124.366 196.961L119.736 195.961C119.736 195.961 123.206 172.401 122.946 171.416C122.686 170.431 109.741 176.841 92.001 177.461L96.381 161.196Z" fill="#96B7FF"/>
<path opacity="0.5" d="M96.381 161.196C96.381 161.196 123.881 157.486 131.521 162.366C139.161 167.246 124.366 196.961 124.366 196.961L119.736 195.961C119.736 195.961 123.206 172.401 122.946 171.416C122.686 170.431 109.741 176.841 92.001 177.461L96.381 161.196Z" fill="#96B7FF"/>
<path d="M150.921 202.931L148.376 205.391L144.531 202.246L141.006 199.356L143.556 195.946L147.456 199.641L150.921 202.931Z" fill="#96B7FF"/>
<path d="M146.001 203.821C145.876 203.451 150.501 202.056 150.501 202.056C150.501 202.056 154.316 203.836 157.236 203.461C160.156 203.086 159.261 205.261 156.261 206.381L148.836 209.161C146.696 209.961 147.346 207.646 146.001 203.821Z" fill="#96B7FF"/>
<path d="M152.001 202.461C151.641 202.461 151.331 202.436 151.206 202.426H151.156H151.131C151.113 202.41 151.1 202.389 151.096 202.366C151.096 202.316 151.096 201.131 151.596 200.646C151.672 200.572 151.763 200.516 151.864 200.481C151.964 200.447 152.07 200.435 152.176 200.446C152.416 200.446 152.561 200.556 152.611 200.711C152.686 200.956 152.441 201.321 152.141 201.656C152.465 201.463 152.838 201.366 153.216 201.376C153.286 201.385 153.353 201.408 153.414 201.446C153.474 201.483 153.526 201.532 153.566 201.591C153.626 201.657 153.665 201.741 153.677 201.83C153.69 201.919 153.675 202.01 153.636 202.091C153.436 202.406 152.641 202.461 152.001 202.461ZM151.566 202.206C152.341 202.236 153.271 202.206 153.421 201.921C153.421 201.921 153.476 201.831 153.361 201.666C153.338 201.636 153.309 201.61 153.277 201.592C153.244 201.573 153.208 201.56 153.171 201.556C152.771 201.506 152.036 201.921 151.571 202.226L151.566 202.206ZM152.101 200.626C151.972 200.626 151.848 200.676 151.756 200.766C151.482 201.132 151.338 201.579 151.346 202.036C151.921 201.536 152.441 200.931 152.371 200.721C152.371 200.656 152.226 200.636 152.151 200.631L152.101 200.626Z" fill="#96B7FF"/>
<path opacity="0.2" d="M147.531 199.721L144.596 202.316L141.041 199.391L143.571 195.961L147.531 199.721Z" fill="#96B7FF"/>
<path d="M104.181 164.751C104.181 164.751 103.786 159.311 103.601 158.201C103.449 157.1 103.225 156.011 102.931 154.941C101.721 151.316 85.5556 155.581 85.5556 155.581L85.0956 158.081C85.0956 158.081 77.8006 171.836 82.6756 176.791C84.1756 178.291 87.0656 178.971 90.0306 178.951C90.0306 178.951 99.0956 179.386 115.951 178.601C115.951 178.601 121.886 187.436 142.451 201.486L145.806 197.986C145.806 197.986 122.551 171.261 121.781 170.641C115.066 165.181 104.181 164.751 104.181 164.751Z" fill="#96B7FF"/>
<path opacity="0.6" d="M104.181 164.751C104.181 164.751 103.786 159.311 103.601 158.201C103.449 157.1 103.226 156.011 102.931 154.941C101.721 151.316 85.5558 155.581 85.5558 155.581L85.0959 158.081C85.0959 158.081 77.7159 171.746 82.6759 176.791C84.1759 178.291 87.0658 178.971 90.0308 178.951C90.0308 178.951 99.0958 179.386 115.951 178.601C115.951 178.601 121.886 187.436 142.451 201.486L145.806 197.986C145.806 197.986 122.551 171.261 121.781 170.641C115.066 165.181 104.181 164.751 104.181 164.751Z" fill="#96B7FF"/>
<path d="M140.916 200.936L145.036 196.401L147.031 198.446L143.166 202.581L140.916 200.936Z" fill="#96B7FF"/>
<path d="M119.481 194.466L125.311 196.356L124.266 199.011L118.911 197.191L119.481 194.466Z" fill="#96B7FF"/>
<path d="M124.901 205.046C124.199 204.943 123.521 204.715 122.901 204.371C122.886 204.362 122.872 204.35 122.861 204.336V204.311C122.855 204.297 122.852 204.283 122.852 204.268C122.852 204.253 122.855 204.239 122.861 204.226C122.861 204.176 123.316 203.071 123.976 202.826C124.075 202.787 124.181 202.77 124.287 202.776C124.394 202.782 124.497 202.811 124.591 202.861C124.801 202.971 124.906 203.111 124.891 203.271C124.891 203.526 124.501 203.771 124.096 203.966C124.468 203.913 124.848 203.967 125.191 204.121C125.252 204.155 125.306 204.201 125.348 204.257C125.39 204.313 125.42 204.377 125.436 204.446C125.462 204.533 125.464 204.626 125.441 204.714C125.418 204.802 125.371 204.882 125.306 204.946C125.186 205.024 125.043 205.059 124.901 205.046ZM123.311 204.306C124.011 204.631 124.896 204.936 125.131 204.751C125.131 204.751 125.216 204.686 125.176 204.496C125.167 204.459 125.15 204.424 125.127 204.394C125.104 204.364 125.074 204.339 125.041 204.321C124.696 204.106 123.856 204.206 123.311 204.306ZM124.216 203.011C124.154 203.01 124.093 203.022 124.036 203.046C123.648 203.277 123.344 203.628 123.171 204.046C123.896 203.796 124.606 203.441 124.626 203.226C124.626 203.156 124.521 203.086 124.456 203.051C124.38 203.019 124.298 203.005 124.216 203.011Z" fill="#96B7FF"/>
<path d="M117.316 203.001C117.341 202.611 122.121 203.081 122.121 203.081C122.121 203.081 124.971 206.181 127.811 206.956C130.651 207.731 128.996 209.391 125.811 209.281L117.891 209.011C115.596 208.961 117.086 207.046 117.316 203.001Z" fill="#96B7FF"/>
<path d="M100.046 127.591C103.046 129.156 106.096 131.031 109.211 132.236C109.376 132.291 109.346 132.286 109.211 132.296C108.91 132.332 108.62 132.429 108.358 132.581C108.096 132.733 107.868 132.937 107.688 133.181C107.508 133.424 107.379 133.702 107.31 133.997C107.241 134.292 107.232 134.597 107.286 134.896C107.286 134.926 107.331 135.056 107.346 135.056C107.162 134.661 106.943 134.285 106.691 133.931C104.326 130.566 100.291 125.886 97.6907 122.616C97.4803 122.349 97.3747 122.014 97.3937 121.674C97.4127 121.335 97.555 121.014 97.7938 120.772C98.0327 120.53 98.3516 120.384 98.6908 120.361C99.03 120.337 99.366 120.439 99.6357 120.646C102.557 122.984 105.341 125.488 107.976 128.146C109.391 129.646 110.901 131.076 111.921 132.991C112.13 133.385 112.254 133.819 112.285 134.264C112.316 134.709 112.253 135.156 112.101 135.576C111.451 137.246 109.576 137.651 108.051 137.286C104.116 136.286 100.721 134.401 97.2707 132.446C94.1707 130.496 96.8107 125.901 100.051 127.591H100.046Z" fill="#96B7FF"/>
<path d="M99.3711 127.241L100.826 132.591L101.626 135.551C102.468 135.898 103.328 136.202 104.201 136.461C106.35 137.175 108.601 137.535 110.866 137.526L109.966 135.676C109.966 135.676 106.936 132.866 102.611 128.676C102.611 128.691 99.9211 127.421 99.3711 127.241Z" fill="#96B7FF"/>
<path d="M107.416 133.291L109.256 138.011L111.411 137.501L109.966 135.681L107.416 133.291Z" fill="#96B7FF"/>
<path opacity="0.6" d="M107.416 133.291L109.256 138.011L111.411 137.501L109.966 135.681L107.416 133.291Z" fill="#96B7FF"/>
<path opacity="0.2" d="M100.826 132.591L101.626 135.551C102.468 135.898 103.327 136.202 104.201 136.461C103.701 133.696 100.946 131.936 100.946 131.936C100.873 132.147 100.833 132.368 100.826 132.591Z" fill="#96B7FF"/>
<path d="M103.066 154.841L85.2157 155.876C85.0677 151.689 84.6737 147.516 84.0357 143.376C84.0357 143.266 84.0007 143.151 83.9857 143.041C83.8357 142.081 83.6757 141.151 83.5157 140.266C83.3557 139.381 83.2007 138.571 83.0157 137.766C82.7957 136.671 82.5657 135.656 82.3507 134.736C82.1857 134.031 82.0257 133.381 81.8507 132.791C81.2057 130.261 80.7207 128.791 80.7207 128.791C90.1907 123.521 99.5907 127.291 99.5907 127.291C104.676 133.796 103.066 154.841 103.066 154.841Z" fill="#96B7FF"/>
<path d="M89.7957 124.861C84.1957 125.181 83.7607 129.836 83.7607 129.836L86.3107 128.556L94.3107 133.256L95.8907 127.961L98.2907 128.266C98.2907 128.266 94.6607 124.586 89.7957 124.861Z" fill="#96B7FF"/>
<path opacity="0.6" d="M89.7957 124.861C84.1957 125.181 83.7607 129.836 83.7607 129.836L86.3107 128.556L94.3107 133.256L95.8907 127.961L98.2907 128.266C98.2907 128.266 94.6607 124.586 89.7957 124.861Z" fill="#96B7FF"/>
<path d="M94.0358 132.961L86.4508 127.096C88.1008 125.196 86.9158 120.306 86.0308 117.651L91.7608 121.726C91.5158 123.846 91.7308 126.071 94.8358 126.611C94.8358 126.611 94.0258 132.961 94.0358 132.961Z" fill="#96B7FF"/>
<path opacity="0.2" d="M88.3656 119.311L91.7606 121.726C91.694 122.223 91.6722 122.725 91.6956 123.226C90.5256 123.126 88.7806 121.961 88.5006 120.771C88.366 120.296 88.3202 119.801 88.3656 119.311Z" fill="#96B7FF"/>
<path d="M86.7556 103.901C84.7106 104.211 79.8907 106.926 80.9807 113.266C82.0707 119.606 88.4006 120.766 91.3656 118.711C94.3306 116.656 90.2106 103.386 86.7556 103.901Z" fill="#96B7FF"/>
<path d="M89.2558 104.111C92.0808 103.521 97.8908 106.991 95.0858 111.611C91.5758 117.416 79.3558 106.191 89.2558 104.111Z" fill="#96B7FF"/>
<path d="M96.6656 116.236C96.6656 116.481 96.6656 116.736 96.6656 116.956C96.6453 117.688 96.4642 118.408 96.135 119.063C95.8058 119.718 95.3366 120.292 94.7606 120.746C92.8856 122.206 89.9506 122.311 87.4706 120.461C84.8656 118.516 84.5006 116.671 83.4306 112.366C83.1546 111.386 83.1463 110.351 83.4064 109.367C83.6665 108.384 84.1856 107.488 84.9096 106.773C85.6336 106.058 86.5361 105.551 87.5229 105.303C88.5098 105.056 89.545 105.077 90.5206 105.366C94.8106 106.496 96.6456 112.216 96.6656 116.236Z" fill="#96B7FF"/>
<path d="M87.0008 109.001C84.7808 112.246 89.9208 115.501 84.9708 115.606C80.0208 115.711 81.6258 108.606 84.4708 106.841C87.3158 105.076 87.0008 109.001 87.0008 109.001Z" fill="#96B7FF"/>
<path d="M89.8005 112.256C89.8755 112.621 90.1255 112.891 90.3605 112.861C90.5955 112.831 90.7255 112.506 90.6505 112.141C90.5755 111.776 90.3255 111.506 90.0905 111.536C89.8555 111.566 89.7255 111.886 89.8005 112.256Z" fill="#96B7FF"/>
<path d="M94.2361 111.731C94.3111 112.101 94.5611 112.371 94.7961 112.341C95.0311 112.311 95.1611 111.986 95.0861 111.621C95.0111 111.256 94.7611 110.986 94.5261 111.016C94.2911 111.046 94.1611 111.366 94.2361 111.731Z" fill="#96B7FF"/>
<path d="M94.4258 111.051L95.2408 110.681C95.2408 110.681 94.9358 111.426 94.4258 111.051Z" fill="#96B7FF"/>
<path d="M93.3359 112.586C93.8269 113.38 94.4185 114.108 95.0959 114.751C94.9345 114.908 94.7397 115.027 94.5258 115.099C94.312 115.171 94.0847 115.194 93.8609 115.166L93.3359 112.586Z" fill="#96B7FF"/>
<path d="M83.2357 116.591C83.4374 116.962 83.7147 117.288 84.0496 117.546C84.3846 117.805 84.7698 117.99 85.1807 118.091C86.2107 118.301 86.5807 117.116 86.1807 115.976C85.8207 114.946 84.8457 113.601 83.8657 113.911C82.8857 114.221 82.6657 115.601 83.2357 116.591Z" fill="#96B7FF"/>
<path d="M89.0006 110.781C89.0285 110.781 89.056 110.774 89.0811 110.762C89.1062 110.75 89.1283 110.732 89.1456 110.711C89.3058 110.5 89.5158 110.333 89.7567 110.224C89.9976 110.115 90.2618 110.067 90.5256 110.086C90.553 110.09 90.5811 110.088 90.6079 110.081C90.6347 110.074 90.6597 110.061 90.6813 110.044C90.703 110.026 90.7208 110.005 90.7335 109.98C90.7463 109.955 90.7538 109.928 90.7556 109.901C90.7587 109.842 90.74 109.785 90.703 109.739C90.666 109.694 90.6134 109.664 90.5556 109.656C90.222 109.627 89.8865 109.682 89.5799 109.817C89.2732 109.951 89.0053 110.161 88.8006 110.426C88.7758 110.46 88.7614 110.502 88.7591 110.544C88.7568 110.587 88.7668 110.629 88.7878 110.667C88.8087 110.704 88.8399 110.734 88.8776 110.755C88.9153 110.775 88.958 110.784 89.0006 110.781Z" fill="#96B7FF"/>
<path d="M95.6709 109.996C95.6975 109.997 95.7241 109.993 95.7491 109.983C95.774 109.974 95.7967 109.959 95.8159 109.941C95.836 109.921 95.8519 109.897 95.8628 109.871C95.8737 109.845 95.8793 109.817 95.8793 109.788C95.8793 109.76 95.8737 109.732 95.8628 109.706C95.8519 109.679 95.836 109.656 95.8159 109.636C95.5765 109.38 95.2817 109.182 94.954 109.058C94.6263 108.934 94.2746 108.887 93.9259 108.921C93.8983 108.925 93.872 108.936 93.8486 108.951C93.8253 108.966 93.8054 108.987 93.7903 109.01C93.7753 109.034 93.7653 109.06 93.7611 109.088C93.7569 109.115 93.7585 109.144 93.7659 109.171C93.7801 109.227 93.8145 109.276 93.8624 109.308C93.9104 109.34 93.9686 109.354 94.0259 109.346C94.3036 109.322 94.583 109.362 94.843 109.462C95.1029 109.563 95.3365 109.721 95.5259 109.926C95.5644 109.965 95.6158 109.99 95.6709 109.996Z" fill="#96B7FF"/>
<path d="M90.001 111.571L90.811 111.201C90.811 111.201 90.501 111.961 90.001 111.571Z" fill="#96B7FF"/>
<path d="M93.7609 117.001C92.9536 116.973 92.1847 116.649 91.6009 116.091C91.5889 116.079 91.5794 116.066 91.5729 116.051C91.5664 116.036 91.563 116.02 91.563 116.003C91.563 115.987 91.5664 115.971 91.5729 115.956C91.5794 115.94 91.5889 115.927 91.6009 115.916C91.6125 115.904 91.6265 115.894 91.642 115.887C91.6574 115.881 91.6741 115.877 91.6909 115.877C91.7077 115.877 91.7243 115.881 91.7398 115.887C91.7552 115.894 91.7692 115.904 91.7809 115.916C92.3268 116.423 93.0364 116.717 93.7809 116.746C93.8145 116.748 93.8458 116.764 93.8681 116.789C93.8905 116.814 93.9023 116.847 93.9009 116.881C93.9003 116.898 93.8961 116.915 93.8886 116.931C93.8811 116.946 93.8705 116.96 93.8573 116.972C93.8441 116.983 93.8287 116.991 93.8121 116.996C93.7956 117.001 93.7781 117.003 93.7609 117.001Z" fill="#96B7FF"/>
<path d="M91.5309 105.761C91.5309 105.761 90.8309 109.911 85.4959 110.216L81.9109 113.511C81.9109 113.511 80.2209 108.806 85.1659 104.851C90.1109 100.896 95.6059 106.666 90.6659 108.906C90.6759 108.906 92.5359 107.046 91.5309 105.761Z" fill="#96B7FF"/>
<path d="M82.6408 107.756C82.6408 107.756 80.8508 104.446 77.6408 105.856C74.1408 107.386 73.1858 114.571 74.7208 119.311C76.2558 124.051 79.5158 124.001 79.5158 124.001C79.5158 124.001 77.9858 122.131 77.9858 116.441C77.9858 116.441 78.1808 118.941 78.6758 120.196C78.6758 120.196 78.3808 113.906 79.0208 111.441C79.6608 108.976 81.7808 110.406 81.7808 110.406L82.6408 107.756Z" fill="#96B7FF"/>
<path d="M85.266 156.261L90.821 155.921V157.501L84.916 157.826L85.266 156.261Z" fill="#96B7FF"/>
<path d="M103.531 156.796L91.4907 157.461V155.881L103.311 155.156L103.531 156.796Z" fill="#96B7FF"/>
<path d="M97.3159 157.501C97.1443 157.502 96.9785 157.439 96.8522 157.323C96.7259 157.207 96.6485 157.047 96.6358 156.876L96.5458 155.876C96.5383 155.786 96.5486 155.696 96.5761 155.61C96.6035 155.524 96.6476 155.444 96.7058 155.376C96.7683 155.303 96.8448 155.245 96.9309 155.204C97.0169 155.162 97.1105 155.139 97.2058 155.136L98.7658 155.026C98.8563 155.019 98.9472 155.031 99.033 155.06C99.1189 155.089 99.1981 155.135 99.2658 155.196C99.3374 155.258 99.3951 155.335 99.4356 155.421C99.476 155.507 99.4982 155.601 99.5008 155.696L99.5558 156.731C99.5654 156.912 99.5031 157.09 99.3823 157.226C99.2616 157.361 99.0922 157.444 98.9109 157.456L97.3858 157.546L97.3159 157.501ZM97.0408 155.811L97.1308 156.811C97.1359 156.859 97.1595 156.904 97.1968 156.936C97.234 156.967 97.282 156.983 97.3308 156.981L98.8559 156.891C98.9045 156.887 98.9498 156.864 98.9823 156.828C99.0149 156.792 99.0323 156.744 99.0308 156.696L98.9758 155.656C98.9723 155.605 98.9489 155.559 98.9109 155.526C98.8931 155.509 98.8718 155.496 98.8485 155.488C98.8251 155.48 98.8003 155.478 98.7758 155.481L97.2158 155.591C97.1908 155.592 97.1662 155.598 97.1438 155.609C97.1213 155.62 97.1016 155.636 97.0858 155.656C97.0563 155.694 97.0405 155.742 97.0408 155.791V155.811Z" fill="#96B7FF"/>
<path opacity="0.5" d="M140.916 200.936L145.036 196.401L147.031 198.446L143.166 202.581L140.916 200.936Z" fill="#96B7FF"/>
<path opacity="0.4" d="M119.481 194.466L125.311 196.356L124.266 199.011L118.911 197.191L119.481 194.466Z" fill="#96B7FF"/>
<path opacity="0.2" d="M96.6655 116.236C96.6655 116.481 96.6655 116.736 96.6655 116.956C96.6452 117.688 96.4641 118.408 96.1349 119.063C95.8056 119.718 95.3365 120.292 94.7605 120.746C94.2155 117.866 95.0955 117.271 96.6655 116.236Z" fill="#96B7FF"/>
<path d="M98.5009 116.266L99.6609 117.011C99.8751 117.151 100.053 117.34 100.18 117.563C100.307 117.785 100.379 118.035 100.391 118.291L100.501 120.711C100.523 121.189 100.43 121.665 100.229 122.1C100.029 122.535 99.7282 122.916 99.3509 123.211L98.8809 123.581C96.8809 122.471 95.5209 119.791 95.5209 119.791L95.0509 119.066C94.9506 118.92 94.88 118.757 94.8432 118.584C94.8065 118.412 94.8043 118.234 94.8369 118.06C94.8694 117.887 94.936 117.721 95.0328 117.574C95.1297 117.426 95.2548 117.299 95.4009 117.201L96.8209 116.251C97.0723 116.09 97.3649 116.006 97.6631 116.009C97.9614 116.012 98.2524 116.101 98.5009 116.266Z" fill="#96B7FF"/>
<path opacity="0.2" d="M107.416 137.261C107.416 137.261 109.086 135.366 110.416 135.361C110.961 135.409 111.49 135.569 111.971 135.831C111.971 135.831 111.306 137.151 110.101 137.331C109.206 137.387 108.307 137.363 107.416 137.261Z" fill="#96B7FF"/>
<path d="M112.401 139.226L111.716 140.421C111.588 140.642 111.41 140.829 111.195 140.968C110.98 141.106 110.735 141.191 110.481 141.216L108.066 141.456C107.591 141.504 107.112 141.439 106.668 141.265C106.223 141.091 105.827 140.813 105.511 140.456L105.121 140.006C106.121 137.941 108.731 136.456 108.731 136.456L109.426 135.956C109.566 135.847 109.726 135.768 109.897 135.722C110.068 135.676 110.247 135.665 110.422 135.689C110.597 135.712 110.766 135.771 110.919 135.86C111.072 135.95 111.205 136.069 111.311 136.211L112.311 137.576C112.482 137.813 112.581 138.095 112.597 138.387C112.613 138.68 112.545 138.971 112.401 139.226Z" fill="#96B7FF"/>
<path opacity="0.2" d="M91.7606 144.876C89.4806 145.291 86.3006 144.121 83.9856 143.041C83.8356 142.081 83.6756 141.151 83.5156 140.266C83.3556 139.381 83.2006 138.571 83.0156 137.766C82.7956 136.671 82.5656 135.656 82.3506 134.736C82.1856 134.031 82.0256 133.381 81.8506 132.791C82.5006 132.061 83.4606 131.716 84.8756 132.086C90.8456 133.651 95.7506 144.146 91.7606 144.876Z" fill="#96B7FF"/>
<path opacity="0.2" d="M82.3657 134.751C82.5857 135.671 82.8107 136.686 83.0357 137.776C83.1957 138.566 83.3557 139.401 83.5357 140.276C84.153 137.556 83.9671 134.716 83.0007 132.101L82.3657 134.751Z" fill="#96B7FF"/>
<path d="M84.4606 131.401C86.7306 133.826 90.7656 138.441 93.0356 140.496C93.6008 140.682 94.1984 140.748 94.7906 140.691C96.4984 140.577 98.195 140.333 99.8656 139.961C102.201 139.461 104.596 138.881 106.931 138.266C107.261 138.179 107.612 138.216 107.916 138.371C108.22 138.526 108.457 138.788 108.581 139.107C108.704 139.425 108.706 139.778 108.586 140.098C108.467 140.417 108.233 140.682 107.931 140.841C105.697 142.03 103.381 143.06 101.001 143.921C97.8956 144.921 93.3206 146.576 90.2406 144.681C86.4456 141.981 83.3656 138.551 80.3006 135.111C77.9956 132.281 81.9456 128.771 84.4856 131.401H84.4606Z" fill="#96B7FF"/>
<path d="M87.8509 143.526L91.7709 139.346L86.5659 132.196C86.5659 132.196 82.9009 126.796 80.7609 128.821C77.0009 132.391 80.4559 137.401 87.8509 143.526Z" fill="#96B7FF"/>
<path d="M91.5557 138.696L86.8457 143.876L89.1857 144.876L92.6757 139.881L91.5557 138.696Z" fill="#96B7FF"/>
<path opacity="0.6" d="M91.5557 138.696L86.8457 143.876L89.1857 144.876L92.6757 139.881L91.5557 138.696Z" fill="#96B7FF"/>
<path d="M42.6146 200.597H42.5496C42.4926 200.58 42.4449 200.54 42.4168 200.488C42.3886 200.435 42.3825 200.374 42.3996 200.317C42.3996 200.262 43.9746 194.767 41.3746 186.817C40.5862 184.532 39.5588 182.336 38.3096 180.267C36.1046 176.352 34.2046 172.977 36.0646 166.227C36.6396 164.142 37.2546 162.187 37.8496 160.297C40.0446 153.327 41.7796 147.797 39.0896 143.067C39.0715 143.041 39.059 143.012 39.0529 142.981C39.0468 142.95 39.0472 142.919 39.0542 142.888C39.0611 142.857 39.0743 142.828 39.0931 142.803C39.1119 142.778 39.1357 142.757 39.1631 142.741C39.1905 142.726 39.2208 142.716 39.2521 142.713C39.2833 142.71 39.3149 142.714 39.3447 142.724C39.3746 142.734 39.402 142.75 39.4252 142.771C39.4484 142.792 39.467 142.818 39.4796 142.847C42.2696 147.762 40.5096 153.347 38.2796 160.437C37.6846 162.322 37.0746 164.272 36.4996 166.347C34.6896 172.917 36.4596 176.062 38.7046 180.042C39.9634 182.141 41.0022 184.364 41.8046 186.677C44.4496 194.787 42.8446 200.407 42.8296 200.467C42.8102 200.507 42.7796 200.541 42.7414 200.564C42.7033 200.587 42.6592 200.598 42.6146 200.597Z" fill="#96B7FF"/>
<path d="M40.5894 145.397C40.5894 145.397 41.5894 138.922 36.9894 139.542C32.3894 140.162 38.3944 145.082 40.5894 145.397Z" fill="#B3CAFF"/>
<path d="M37.3645 150.772C37.3645 150.772 35.0845 145.407 32.0145 147.117C28.9445 148.827 34.1295 151.407 37.3645 150.772Z" fill="#B3CAFF"/>
<path d="M42.9795 150.352C42.9795 150.352 41.7645 145.977 45.2145 145.322C48.6645 144.667 47.7595 148.837 42.9795 150.352Z" fill="#B3CAFF"/>
<path d="M42.1597 159.812C42.1597 159.812 46.1597 154.912 48.3047 157.722C50.4497 160.532 45.3947 162.037 42.1597 159.812Z" fill="#B3CAFF"/>
<path d="M33.8145 160.432C33.8145 160.432 31.8145 153.692 28.4145 156.462C25.0145 159.232 30.6545 161.652 33.8145 160.432Z" fill="#B3CAFF"/>
<path d="M32.1145 170.812C32.1145 170.812 33.7545 163.407 28.7295 165.032C23.7045 166.657 28.2045 169.727 32.1145 170.812Z" fill="#B3CAFF"/>
<path d="M40.4243 172.017C40.4243 172.017 43.9243 166.182 47.5293 167.267C51.1343 168.352 49.2293 173.892 40.4243 172.017Z" fill="#B3CAFF"/>
<path d="M38.3247 184.017C38.3247 184.017 33.2797 176.387 30.4347 179.702C27.5897 183.017 33.6647 186.277 38.3247 184.017Z" fill="#B3CAFF"/>
<path d="M43.6296 182.657C43.6296 182.657 41.6296 176.432 45.3646 176.347C49.0996 176.262 48.7896 180.312 43.6296 182.657Z" fill="#B3CAFF"/>
<g opacity="0.2">
<path d="M40.5894 145.397C40.5894 145.397 41.5894 138.922 36.9894 139.542C32.3894 140.162 38.3944 145.082 40.5894 145.397Z" fill="url(#paint10_linear_551_14883)"/>
<path d="M37.3645 150.772C37.3645 150.772 35.0845 145.407 32.0145 147.117C28.9445 148.827 34.1295 151.407 37.3645 150.772Z" fill="url(#paint11_linear_551_14883)"/>
<path d="M42.9795 150.352C42.9795 150.352 41.7645 145.977 45.2145 145.322C48.6645 144.667 47.7595 148.837 42.9795 150.352Z" fill="url(#paint12_linear_551_14883)"/>
<path d="M42.1597 159.812C42.1597 159.812 46.1597 154.912 48.3047 157.722C50.4497 160.532 45.3947 162.037 42.1597 159.812Z" fill="url(#paint13_linear_551_14883)"/>
<path d="M33.8145 160.432C33.8145 160.432 31.8145 153.692 28.4145 156.462C25.0145 159.232 30.6545 161.652 33.8145 160.432Z" fill="url(#paint14_linear_551_14883)"/>
<path d="M32.1145 170.812C32.1145 170.812 33.7545 163.407 28.7295 165.032C23.7045 166.657 28.2045 169.727 32.1145 170.812Z" fill="url(#paint15_linear_551_14883)"/>
<path d="M40.4243 172.017C40.4243 172.017 43.9243 166.182 47.5293 167.267C51.1343 168.352 49.2293 173.892 40.4243 172.017Z" fill="url(#paint16_linear_551_14883)"/>
<path d="M38.3247 184.017C38.3247 184.017 33.2797 176.387 30.4347 179.702C27.5897 183.017 33.6647 186.277 38.3247 184.017Z" fill="url(#paint17_linear_551_14883)"/>
<path d="M43.6296 182.657C43.6296 182.657 41.6296 176.432 45.3646 176.347C49.0996 176.262 48.7896 180.312 43.6296 182.657Z" fill="url(#paint18_linear_551_14883)"/>
</g>
<path d="M39.9347 154.147C39.9041 154.143 39.8745 154.133 39.8478 154.118C39.8212 154.102 39.798 154.082 39.7797 154.057C39.7797 154.027 37.4497 150.937 35.9897 150.357C35.96 150.347 35.9326 150.332 35.9092 150.312C35.8858 150.291 35.8669 150.266 35.8537 150.238C35.8406 150.21 35.8334 150.179 35.8326 150.148C35.8318 150.117 35.8375 150.086 35.8493 150.057C35.8611 150.028 35.8787 150.002 35.9011 149.981C35.9235 149.959 35.9501 149.942 35.9792 149.931C36.0084 149.921 36.0395 149.916 36.0706 149.918C36.1016 149.919 36.132 149.928 36.1597 149.942C37.5297 150.487 39.4597 152.897 39.9997 153.602C41.5442 152.186 42.805 150.489 43.7147 148.602C43.7271 148.575 43.7447 148.551 43.7665 148.53C43.7883 148.51 43.8139 148.495 43.8418 148.484C43.8696 148.474 43.8993 148.47 43.929 148.471C43.9586 148.472 43.9878 148.479 44.0147 148.492C44.042 148.503 44.0666 148.52 44.0872 148.541C44.1077 148.562 44.1236 148.588 44.1339 148.615C44.1442 148.643 44.1487 148.673 44.1472 148.702C44.1456 148.732 44.1379 148.76 44.1247 148.787C44.0647 148.922 42.5747 152.122 40.1247 154.092C40.0993 154.115 40.069 154.132 40.036 154.141C40.0031 154.151 39.9684 154.153 39.9347 154.147Z" fill="#B3CAFF"/>
<path d="M37.1097 163.377C37.0779 163.375 37.0468 163.366 37.0185 163.351C36.9901 163.337 36.965 163.317 36.9447 163.292C36.9147 163.262 34.1197 159.937 31.0347 158.737C31.0071 158.726 30.982 158.71 30.9606 158.689C30.9393 158.669 30.9222 158.644 30.9104 158.617C30.8986 158.59 30.8922 158.561 30.8916 158.531C30.8911 158.501 30.8964 158.472 30.9072 158.444C30.9181 158.417 30.9342 158.392 30.9548 158.37C30.9753 158.349 30.9999 158.332 31.0271 158.32C31.0542 158.308 31.0835 158.302 31.1131 158.301C31.1427 158.301 31.1721 158.306 31.1997 158.317C33.9947 159.402 36.4747 162.072 37.1247 162.817C40.6247 159.317 45.5847 158.617 45.6247 158.612C45.6549 158.606 45.686 158.606 45.7161 158.612C45.7463 158.619 45.7747 158.631 45.7998 158.649C45.8249 158.667 45.8461 158.69 45.862 158.716C45.8779 158.742 45.8882 158.772 45.8924 158.802C45.8965 158.833 45.8943 158.864 45.8859 158.894C45.8776 158.923 45.8632 158.951 45.8437 158.975C45.8243 158.999 45.8001 159.018 45.7728 159.032C45.7454 159.046 45.7154 159.055 45.6847 159.057C45.6347 159.057 40.6847 159.752 37.2697 163.307C37.2492 163.329 37.2245 163.346 37.197 163.358C37.1695 163.37 37.1398 163.377 37.1097 163.377Z" fill="#B3CAFF"/>
<path d="M36.2648 175.097C36.2261 175.097 36.1881 175.087 36.1548 175.067C33.0198 173.312 29.9948 168.112 29.8648 167.892C29.85 167.866 29.8405 167.837 29.8367 167.808C29.833 167.778 29.8352 167.748 29.8431 167.719C29.8509 167.69 29.8644 167.663 29.8827 167.64C29.901 167.616 29.9238 167.597 29.9498 167.582C29.9757 167.567 30.0043 167.558 30.0339 167.554C30.0635 167.55 30.0936 167.552 30.1224 167.56C30.1511 167.568 30.1781 167.581 30.2017 167.6C30.2252 167.618 30.245 167.641 30.2598 167.667C30.2898 167.717 33.2598 172.812 36.2598 174.597C37.0848 173.937 41.7098 170.352 45.5998 169.642C45.6287 169.635 45.6588 169.635 45.6879 169.641C45.7171 169.646 45.7448 169.658 45.7692 169.675C45.7936 169.692 45.8143 169.714 45.8299 169.739C45.8455 169.764 45.8556 169.792 45.8598 169.822C45.8655 169.851 45.8654 169.881 45.8594 169.909C45.8534 169.938 45.8417 169.966 45.8249 169.99C45.8081 170.014 45.7866 170.035 45.7616 170.051C45.7367 170.066 45.7089 170.077 45.6798 170.082C41.5998 170.832 36.4748 175.002 36.4248 175.047C36.3796 175.083 36.3225 175.101 36.2648 175.097Z" fill="#B3CAFF"/>
<path d="M41.4393 186.232C41.4096 186.232 41.3803 186.226 41.3528 186.215C41.3253 186.204 41.3004 186.188 41.2793 186.167C39.3842 184.509 37.0269 183.47 34.5243 183.192C34.4649 183.183 34.4114 183.152 34.3749 183.104C34.3385 183.056 34.3221 182.996 34.3293 182.937C34.3323 182.907 34.3414 182.878 34.3561 182.852C34.3707 182.825 34.3906 182.802 34.4145 182.784C34.4384 182.766 34.4658 182.753 34.495 182.745C34.5242 182.738 34.5546 182.737 34.5843 182.742C37.114 183.032 39.502 184.061 41.4493 185.702C43.2393 184.032 45.0443 178.477 45.0643 178.417C45.0735 178.389 45.0881 178.362 45.1074 178.34C45.1267 178.317 45.1503 178.299 45.1767 178.285C45.2032 178.272 45.2321 178.264 45.2617 178.261C45.2913 178.259 45.321 178.263 45.3493 178.272C45.3775 178.281 45.4037 178.296 45.4262 178.315C45.4488 178.334 45.4673 178.358 45.4808 178.384C45.4943 178.411 45.5024 178.44 45.5047 178.469C45.507 178.499 45.5035 178.529 45.4943 178.557C45.4143 178.802 43.5243 184.612 41.5843 186.182C41.5431 186.215 41.4919 186.232 41.4393 186.232Z" fill="#B3CAFF"/>
<path d="M53.1046 210.172H33.4146L32.0996 198.027H54.4196L53.1046 210.172Z" fill="#96B7FF"/>
<path d="M54.8794 200.327H31.6394L31.3394 197.752H55.1794L54.8794 200.327Z" fill="#C5D7FF"/>
<path d="M54.8794 200.327H31.6394L31.3394 197.752H55.1794L54.8794 200.327Z" fill="#96B7FF"/>
<defs>
<linearGradient id="paint0_linear_551_14883" x1="113.807" y1="53.5851" x2="109.324" y2="101.129" gradientUnits="userSpaceOnUse">
<stop stop-color="#C0D4FF"/>
<stop offset="1" stop-color="#6190FF"/>
</linearGradient>
<linearGradient id="paint1_linear_551_14883" x1="104.728" y1="103.098" x2="102.919" y2="109.676" gradientUnits="userSpaceOnUse">
<stop stop-color="#C0D4FF"/>
<stop offset="1" stop-color="#6190FF"/>
</linearGradient>
<linearGradient id="paint2_linear_551_14883" x1="108.476" y1="95.4087" x2="109.272" y2="102.184" gradientUnits="userSpaceOnUse">
<stop stop-color="#C0D4FF"/>
<stop offset="1" stop-color="#6190FF"/>
</linearGradient>
<linearGradient id="paint3_linear_551_14883" x1="182.385" y1="146" x2="182.385" y2="239.25" gradientUnits="userSpaceOnUse">
<stop stop-color="#C0D4FF"/>
<stop offset="1" stop-color="#6190FF"/>
</linearGradient>
<linearGradient id="paint4_linear_551_14883" x1="183.75" y1="169" x2="190" y2="130.75" gradientUnits="userSpaceOnUse">
<stop offset="0.185669" stop-color="#C0D4FF"/>
<stop offset="1" stop-color="#1D5FFD"/>
</linearGradient>
<linearGradient id="paint5_linear_551_14883" x1="174.75" y1="160.75" x2="173" y2="141.75" gradientUnits="userSpaceOnUse">
<stop stop-color="#A5C2FE"/>
<stop offset="1" stop-color="#6190FF"/>
</linearGradient>
<linearGradient id="paint6_linear_551_14883" x1="141.023" y1="191.755" x2="141.023" y2="213.592" gradientUnits="userSpaceOnUse">
<stop stop-color="#C0D4FF"/>
<stop offset="1" stop-color="#6190FF"/>
</linearGradient>
<linearGradient id="paint7_linear_551_14883" x1="102.501" y1="191.755" x2="102.501" y2="213.592" gradientUnits="userSpaceOnUse">
<stop stop-color="#C0D4FF"/>
<stop offset="1" stop-color="#6190FF"/>
</linearGradient>
<linearGradient id="paint8_linear_551_14883" x1="110.003" y1="191.755" x2="110.003" y2="213.592" gradientUnits="userSpaceOnUse">
<stop stop-color="#C0D4FF"/>
<stop offset="1" stop-color="#6190FF"/>
</linearGradient>
<linearGradient id="paint9_linear_551_14883" x1="71.4808" y1="191.755" x2="71.4808" y2="213.592" gradientUnits="userSpaceOnUse">
<stop stop-color="#C0D4FF"/>
<stop offset="1" stop-color="#6190FF"/>
</linearGradient>
<linearGradient id="paint10_linear_551_14883" x1="37.9898" y1="139.5" x2="37.9898" y2="146.814" gradientUnits="userSpaceOnUse">
<stop stop-color="#C0D4FF"/>
<stop offset="1" stop-color="#6190FF"/>
</linearGradient>
<linearGradient id="paint11_linear_551_14883" x1="34.221" y1="146.78" x2="34.221" y2="151.853" gradientUnits="userSpaceOnUse">
<stop stop-color="#C0D4FF"/>
<stop offset="1" stop-color="#6190FF"/>
</linearGradient>
<linearGradient id="paint12_linear_551_14883" x1="45.0336" y1="145.253" x2="45.0336" y2="151.578" gradientUnits="userSpaceOnUse">
<stop stop-color="#C0D4FF"/>
<stop offset="1" stop-color="#6190FF"/>
</linearGradient>
<linearGradient id="paint13_linear_551_14883" x1="45.4893" y1="156.852" x2="45.4893" y2="161.852" gradientUnits="userSpaceOnUse">
<stop stop-color="#C0D4FF"/>
<stop offset="1" stop-color="#6190FF"/>
</linearGradient>
<linearGradient id="paint14_linear_551_14883" x1="30.5874" y1="155.794" x2="30.5874" y2="161.949" gradientUnits="userSpaceOnUse">
<stop stop-color="#C0D4FF"/>
<stop offset="1" stop-color="#6190FF"/>
</linearGradient>
<linearGradient id="paint15_linear_551_14883" x1="29.4352" y1="164.799" x2="29.4352" y2="172.257" gradientUnits="userSpaceOnUse">
<stop stop-color="#C0D4FF"/>
<stop offset="1" stop-color="#6190FF"/>
</linearGradient>
<linearGradient id="paint16_linear_551_14883" x1="44.8384" y1="167.132" x2="44.8384" y2="173.668" gradientUnits="userSpaceOnUse">
<stop stop-color="#C0D4FF"/>
<stop offset="1" stop-color="#6190FF"/>
</linearGradient>
<linearGradient id="paint17_linear_551_14883" x1="34.0149" y1="178.867" x2="34.0149" y2="186.185" gradientUnits="userSpaceOnUse">
<stop stop-color="#C0D4FF"/>
<stop offset="1" stop-color="#6190FF"/>
</linearGradient>
<linearGradient id="paint18_linear_551_14883" x1="45.4858" y1="176.346" x2="45.4858" y2="184.174" gradientUnits="userSpaceOnUse">
<stop stop-color="#C0D4FF"/>
<stop offset="1" stop-color="#6190FF"/>
</linearGradient>
</defs>
</svg>
