<svg width="55" height="64" viewBox="0 0 55 64" fill="none" xmlns="http://www.w3.org/2000/svg">
<path d="M32.6801 2.23713L6.16374 10.6735C2.96023 11.6928 1.18952 15.116 2.20875 18.3195L14.8634 58.094C15.8826 61.2975 19.3058 63.0682 22.5093 62.049L49.0257 53.6126C52.2292 52.5934 53.9999 49.1702 52.9807 45.9667L40.326 6.19211C39.3068 2.98861 35.8836 1.2179 32.6801 2.23713Z" fill="#0052FE"/>
<path d="M32.3391 6.9076L9.13728 14.2895C7.76435 14.7263 7.00547 16.1934 7.44228 17.5663L9.55139 24.1954C9.9882 25.5683 11.4553 26.3272 12.8282 25.8904L36.03 18.5085C37.403 18.0717 38.1618 16.6046 37.725 15.2317L35.6159 8.6026C35.1791 7.22967 33.712 6.47079 32.3391 6.9076Z" fill="white"/>
<path d="M16.9328 27.3217L13.6182 28.3763C12.2453 28.8131 11.4864 30.2802 11.9232 31.6531L12.9778 34.9676C13.4146 36.3406 14.8817 37.0994 16.2546 36.6626L19.5692 35.6081C20.9421 35.1713 21.701 33.7042 21.2642 32.3313L20.2096 29.0167C19.7728 27.6438 18.3057 26.8849 16.9328 27.3217Z" fill="#00C5FF"/>
<path d="M26.8796 24.158L23.565 25.2126C22.1921 25.6494 21.4332 27.1165 21.87 28.4894L22.9246 31.804C23.3614 33.1769 24.8285 33.9358 26.2014 33.499L29.5159 32.4444C30.8889 32.0076 31.6477 30.5405 31.2109 29.1676L30.1564 25.853C29.7196 24.4801 28.2525 23.7212 26.8796 24.158Z" fill="#00C5FF"/>
<path d="M36.8224 20.9944L33.5079 22.049C32.135 22.4858 31.3761 23.9529 31.8129 25.3258L32.8674 28.6403C33.3042 30.0133 34.7713 30.7721 36.1443 30.3353L39.4588 29.2808C40.8317 28.844 41.5906 27.3769 41.1538 26.0039L40.0993 22.6894C39.6624 21.3165 38.1954 20.5576 36.8224 20.9944Z" fill="#00C5FF"/>
<path d="M20.362 38.094L17.0474 39.1485C15.6745 39.5853 14.9156 41.0524 15.3524 42.4253L16.407 45.7399C16.8438 47.1128 18.3109 47.8717 19.6838 47.4349L22.9984 46.3803C24.3713 45.9435 25.1302 44.4764 24.6934 43.1035L23.6388 39.789C23.202 38.416 21.7349 37.6571 20.362 38.094Z" fill="#00C5FF"/>
<path d="M30.3083 34.9304L26.9937 35.9849C25.6208 36.4217 24.8619 37.8888 25.2987 39.2617L26.3533 42.5763C26.7901 43.9492 28.2572 44.7081 29.6301 44.2713L32.9446 43.2167C34.3176 42.7799 35.0765 41.3128 34.6396 39.9399L33.5851 36.6253C33.1483 35.2524 31.6812 34.4935 30.3083 34.9304Z" fill="#00C5FF"/>
<path d="M40.2516 31.7667L36.9371 32.8212C35.5642 33.258 34.8053 34.7251 35.2421 36.0981L39.7239 50.1849C40.1607 51.5578 41.6278 52.3167 43.0008 51.8799L46.3153 50.8253C47.6882 50.3885 48.4471 48.9214 48.0103 47.5485L43.5285 33.4617C43.0916 32.0888 41.6246 31.3299 40.2516 31.7667Z" fill="white"/>
<path d="M23.7907 48.8663L20.4761 49.9208C19.1032 50.3576 18.3443 51.8247 18.7811 53.1976L19.8357 56.5122C20.2725 57.8851 21.7396 58.644 23.1125 58.2072L26.4271 57.1526C27.8 56.7158 28.5589 55.2487 28.1221 53.8758L27.0675 50.5613C26.6307 49.1883 25.1636 48.4295 23.7907 48.8663Z" fill="#00C5FF"/>
<path d="M33.734 45.7026L30.4195 46.7572C29.0466 47.194 28.2877 48.6611 28.7245 50.034L29.7791 53.3486C30.2159 54.7215 31.683 55.4804 33.0559 55.0435L36.3704 53.989C37.7434 53.5522 38.5022 52.0851 38.0654 50.7122L37.0109 47.3976C36.5741 46.0247 35.107 45.2658 33.734 45.7026Z" fill="#00C5FF"/>
<path d="M13.4315 22.0486C13.2117 22.1185 12.9731 22.0983 12.7683 21.9923C12.5635 21.8863 12.4091 21.7033 12.3392 21.4836L11.2846 18.169C11.2147 17.9493 11.235 17.7107 11.3409 17.5059C11.4469 17.301 11.6299 17.1467 11.8496 17.0768C12.0694 17.0068 12.3079 17.0271 12.5128 17.133C12.7176 17.239 12.872 17.422 12.9419 17.6418L13.9965 20.9563C14.0664 21.1761 14.0461 21.4146 13.9402 21.6195C13.8342 21.8243 13.6512 21.9787 13.4315 22.0486Z" fill="#00C5FF"/>
<path d="M17.5755 20.7303C17.3557 20.8003 17.1172 20.78 16.9124 20.6741C16.7075 20.5681 16.5532 20.3851 16.4832 20.1653L15.4287 16.8508C15.3588 16.631 15.379 16.3925 15.485 16.1876C15.5909 15.9828 15.7739 15.8284 15.9937 15.7585C16.2134 15.6886 16.452 15.7088 16.6568 15.8148C16.8617 15.9208 17.016 16.1037 17.086 16.3235L18.1405 19.6381C18.2104 19.8578 18.1902 20.0964 18.0842 20.3012C17.9783 20.5061 17.7953 20.6604 17.5755 20.7303Z" fill="#00C5FF"/>
<path d="M21.7191 19.4122C21.4993 19.4821 21.2607 19.4618 21.0559 19.3559C20.8511 19.2499 20.6967 19.0669 20.6268 18.8472L19.5722 15.5326C19.5023 15.3128 19.5226 15.0743 19.6285 14.8695C19.7345 14.6646 19.9175 14.5103 20.1372 14.4403C20.357 14.3704 20.5955 14.3907 20.8004 14.4966C21.0052 14.6026 21.1596 14.7856 21.2295 15.0053L22.2841 18.3199C22.354 18.5397 22.3337 18.7782 22.2278 18.983C22.1218 19.1879 21.9388 19.3422 21.7191 19.4122Z" fill="#00C5FF"/>
</svg>
