<svg width="60" height="60" viewBox="0 0 60 60" fill="none" xmlns="http://www.w3.org/2000/svg">
<circle cx="30" cy="30" r="30" fill="#0052FE"/>
<path d="M39.3087 11.0622L20.0282 11.0622C17.6988 11.0622 15.8105 12.9505 15.8105 15.2798V44.2006C15.8105 46.5299 17.6988 48.4182 20.0282 48.4182H39.3087C41.638 48.4182 43.5263 46.5299 43.5263 44.2006V15.2798C43.5263 12.9505 41.638 11.0622 39.3087 11.0622Z" fill="#00C5FF"/>
<path d="M38.0999 14.0735L21.2294 14.0735C20.2311 14.0735 19.4219 14.8828 19.4219 15.8811V20.7012C19.4219 21.6995 20.2311 22.5087 21.2294 22.5087H38.0999C39.0982 22.5087 39.9074 21.6995 39.9074 20.7012V15.8811C39.9074 14.8828 39.0982 14.0735 38.0999 14.0735Z" fill="white"/>
<path d="M23.6414 24.3172H21.2314C20.2331 24.3172 19.4238 25.1265 19.4238 26.1248V28.5348C19.4238 29.5331 20.2331 30.3424 21.2314 30.3424H23.6414C24.6397 30.3424 25.449 29.5331 25.449 28.5348V26.1248C25.449 25.1265 24.6397 24.3172 23.6414 24.3172Z" fill="white"/>
<path d="M30.8719 24.3172H28.4618C27.4636 24.3172 26.6543 25.1264 26.6543 26.1247V28.5348C26.6543 29.5331 27.4636 30.3423 28.4618 30.3423H30.8719C31.8702 30.3423 32.6795 29.5331 32.6795 28.5348V26.1247C32.6795 25.1264 31.8702 24.3172 30.8719 24.3172Z" fill="white"/>
<path d="M38.1024 24.3179H35.6923C34.694 24.3179 33.8848 25.1271 33.8848 26.1254V28.5355C33.8848 29.5338 34.694 30.343 35.6923 30.343H38.1024C39.1007 30.343 39.9099 29.5338 39.9099 28.5355V26.1254C39.9099 25.1271 39.1007 24.3179 38.1024 24.3179Z" fill="white"/>
<path d="M23.6414 32.1494H21.2314C20.2331 32.1494 19.4238 32.9586 19.4238 33.9569V36.367C19.4238 37.3652 20.2331 38.1745 21.2314 38.1745H23.6414C24.6397 38.1745 25.449 37.3652 25.449 36.367V33.9569C25.449 32.9586 24.6397 32.1494 23.6414 32.1494Z" fill="white"/>
<path d="M30.8778 32.1515H28.4677C27.4694 32.1515 26.6602 32.9608 26.6602 33.959V36.3691C26.6602 37.3674 27.4694 38.1767 28.4677 38.1767H30.8778C31.876 38.1767 32.6853 37.3674 32.6853 36.3691V33.959C32.6853 32.9608 31.876 32.1515 30.8778 32.1515Z" fill="white"/>
<path d="M38.1024 32.15H35.6923C34.694 32.15 33.8848 32.9593 33.8848 33.9575V44.2003C33.8848 45.1986 34.694 46.0079 35.6923 46.0079H38.1024C39.1007 46.0079 39.9099 45.1986 39.9099 44.2003V33.9575C39.9099 32.9593 39.1007 32.15 38.1024 32.15Z" fill="white"/>
<path d="M23.6473 39.9841H21.2372C20.239 39.9841 19.4297 40.7934 19.4297 41.7916V44.2017C19.4297 45.2 20.239 46.0093 21.2372 46.0093H23.6473C24.6456 46.0093 25.4548 45.2 25.4548 44.2017V41.7916C25.4548 40.7934 24.6456 39.9841 23.6473 39.9841Z" fill="white"/>
<path d="M30.8758 39.9829H28.4658C27.4675 39.9829 26.6582 40.7921 26.6582 41.7904V44.2005C26.6582 45.1988 27.4675 46.008 28.4658 46.008H30.8758C31.8741 46.008 32.6834 45.1988 32.6834 44.2005V41.7904C32.6834 40.7921 31.8741 39.9829 30.8758 39.9829Z" fill="white"/>
<path d="M22.4404 20.1006C22.2806 20.1006 22.1274 20.0372 22.0144 19.9242C21.9014 19.8112 21.8379 19.6579 21.8379 19.4981V17.0881C21.8379 16.9283 21.9014 16.775 22.0144 16.662C22.1274 16.549 22.2806 16.4855 22.4404 16.4855C22.6002 16.4855 22.7535 16.549 22.8665 16.662C22.9794 16.775 23.0429 16.9283 23.0429 17.0881V19.4981C23.0429 19.6579 22.9794 19.8112 22.8665 19.9242C22.7535 20.0372 22.6002 20.1006 22.4404 20.1006Z" fill="#00C5FF"/>
<path d="M25.4443 20.0975C25.2845 20.0975 25.1313 20.034 25.0183 19.921C24.9053 19.808 24.8418 19.6548 24.8418 19.495V17.0849C24.8418 16.9251 24.9053 16.7719 25.0183 16.6589C25.1313 16.5459 25.2845 16.4824 25.4443 16.4824C25.6041 16.4824 25.7574 16.5459 25.8704 16.6589C25.9834 16.7719 26.0468 16.9251 26.0468 17.0849V19.495C26.0468 19.6548 25.9834 19.808 25.8704 19.921C25.7574 20.034 25.6041 20.0975 25.4443 20.0975Z" fill="#00C5FF"/>
<path d="M28.4619 20.0999C28.3021 20.0999 28.1488 20.0364 28.0358 19.9234C27.9229 19.8104 27.8594 19.6571 27.8594 19.4974V17.0873C27.8594 16.9275 27.9229 16.7742 28.0358 16.6612C28.1488 16.5483 28.3021 16.4848 28.4619 16.4848C28.6217 16.4848 28.7749 16.5483 28.8879 16.6612C29.0009 16.7742 29.0644 16.9275 29.0644 17.0873V19.4974C29.0644 19.6571 29.0009 19.8104 28.8879 19.9234C28.7749 20.0364 28.6217 20.0999 28.4619 20.0999Z" fill="#00C5FF"/>
</svg>
