<svg width="14" height="14" viewBox="0 0 14 14" fill="none" xmlns="http://www.w3.org/2000/svg">
<path fill-rule="evenodd" clip-rule="evenodd" d="M7.00039 12.6C10.0932 12.6 12.6004 10.0928 12.6004 7.00002C12.6004 3.90723 10.0932 1.40002 7.00039 1.40002C3.9076 1.40002 1.40039 3.90723 1.40039 7.00002C1.40039 10.0928 3.9076 12.6 7.00039 12.6ZM6.09537 5.10505C5.822 4.83168 5.37878 4.83168 5.10542 5.10505C4.83205 5.37842 4.83205 5.82163 5.10542 6.095L6.01044 7.00002L5.10542 7.90505C4.83205 8.17842 4.83205 8.62163 5.10542 8.895C5.37878 9.16837 5.822 9.16837 6.09537 8.895L7.00039 7.98997L7.90542 8.895C8.17878 9.16837 8.622 9.16837 8.89537 8.895C9.16873 8.62163 9.16873 8.17842 8.89537 7.90505L7.99034 7.00002L8.89537 6.095C9.16873 5.82163 9.16873 5.37842 8.89537 5.10505C8.622 4.83168 8.17878 4.83168 7.90542 5.10505L7.00039 6.01008L6.09537 5.10505Z" fill="#6C7A93"/>
</svg>
