<svg width="293" height="170" viewBox="0 0 293 170" fill="none" xmlns="http://www.w3.org/2000/svg">
<g clip-path="url(#clip0_556_2450)">
<path d="M132.207 208.132H-18.0223C-19.1992 208.13 -20.3271 207.661 -21.1586 206.828C-21.99 205.995 -22.457 204.867 -22.457 203.69V-7.49022C-22.4468 -8.66036 -21.9753 -9.7792 -21.1449 -10.6037C-20.3146 -11.4282 -19.1924 -11.8919 -18.0223 -11.8939H132.207C133.385 -11.8939 134.515 -11.4258 135.348 -10.5927C136.182 -9.75953 136.65 -8.62956 136.65 -7.45132V203.69C136.65 204.868 136.182 205.998 135.348 206.831C134.515 207.664 133.385 208.132 132.207 208.132ZM-18.0223 -11.7383C-19.1476 -11.7362 -20.2261 -11.2877 -21.0211 -10.4913C-21.816 -9.69485 -22.2625 -8.61552 -22.2625 -7.49022V203.69C-22.2625 204.815 -21.816 205.894 -21.0211 206.691C-20.2261 207.487 -19.1476 207.936 -18.0223 207.938H132.207C133.333 207.936 134.412 207.488 135.209 206.691C136.005 205.895 136.453 204.816 136.455 203.69V-7.49022C136.453 -8.61624 136.005 -9.69555 135.209 -10.4918C134.412 -11.288 133.333 -11.7362 132.207 -11.7383H-18.0223Z" fill="#C5D7FA"/>
<path d="M300.5 208.132H150.263C149.085 208.13 147.956 207.662 147.124 206.829C146.291 205.996 145.822 204.867 145.82 203.69V-7.49022C145.833 -8.66107 146.306 -9.7799 147.137 -10.6042C147.969 -11.4285 149.092 -11.8919 150.263 -11.8939H300.5C301.669 -11.8898 302.789 -11.4253 303.618 -10.601C304.446 -9.77669 304.917 -8.65901 304.927 -7.49022V203.69C304.927 204.865 304.461 205.993 303.631 206.826C302.802 207.658 301.676 208.128 300.5 208.132ZM150.263 -11.7383C149.137 -11.7362 148.058 -11.288 147.261 -10.4918C146.465 -9.69555 146.017 -8.61624 146.015 -7.49022V203.69C146.017 204.816 146.465 205.895 147.261 206.691C148.058 207.488 149.137 207.936 150.263 207.938H300.5C301.626 207.936 302.705 207.488 303.502 206.691C304.298 205.895 304.746 204.816 304.748 203.69V-7.49022C304.746 -8.61624 304.298 -9.69555 303.502 -10.4918C302.705 -11.288 301.626 -11.7362 300.5 -11.7383H150.263Z" fill="#C5D7FA"/>
<path d="M6.18634 242.832H18.168L18.168 150.621H6.18634L6.18634 242.832Z" fill="#C5D7FA"/>
<path d="M123.038 150.621H18.168V242.832H123.038V150.621Z" fill="#C5D7FA"/>
<path d="M123.99 163.948H31.918V180.186H123.99V163.948Z" fill="#C5D7FA"/>
<g style="mix-blend-mode:multiply" opacity="0.7">
<path d="M31.0933 180.186H31.918L31.918 163.948H31.0933L31.0933 180.186Z" fill="#C5D7FA"/>
</g>
<g style="mix-blend-mode:multiply" opacity="0.7">
<path d="M6.18037 156.596L123.297 156.596V154.511H6.18037V156.596Z" fill="#C5D7FA"/>
</g>
<path d="M4.7859 155.39H18.168V149.36H4.7859V155.39Z" fill="#C5D7FA"/>
<path d="M124.439 149.36H18.168V155.39H124.439V149.36Z" fill="#C5D7FA"/>
<path d="M49.6156 131.652C48.9466 130.699 48.556 129.578 48.4874 128.416C48.3854 127.24 48.4881 126.055 48.7909 124.915C49.4018 122.659 50.4895 120.56 51.9808 118.76C52.71 117.884 53.4893 117.05 54.3149 116.263C54.7506 115.897 55.1707 115.524 55.6142 115.166C56.0414 114.8 56.4881 114.457 56.9524 114.139C57.8707 113.502 58.8212 112.912 59.8 112.373C60.8114 111.875 61.8073 111.385 62.8654 110.988C62.0874 111.859 61.3093 112.622 60.5313 113.392C59.7533 114.162 59.0141 114.948 58.2361 115.726C57.4581 116.504 56.7734 117.282 56.0265 118.06C55.6608 118.441 55.3341 118.838 54.9917 119.25C54.6314 119.627 54.2937 120.024 53.9803 120.441C52.6616 122.017 51.5551 123.759 50.6892 125.623C50.2637 126.53 49.9427 127.483 49.7323 128.462C49.4976 129.509 49.4581 130.591 49.6156 131.652Z" fill="#C5D7FA"/>
<path d="M31.4362 128.392C31.7695 127.466 31.9406 126.49 31.942 125.506C31.9398 125.05 31.906 124.595 31.8408 124.144C31.7484 123.711 31.6262 123.285 31.4751 122.868C30.774 121.212 29.7106 119.734 28.363 118.542C28.0363 118.216 27.6472 117.936 27.2971 117.624C26.9489 117.299 26.577 117 26.1846 116.73C25.4065 116.185 24.6674 115.539 23.8505 115.034C23.4459 114.761 23.0724 114.489 22.629 114.201C22.1855 113.913 21.8509 113.618 21.3841 113.361C20.5169 112.813 19.6781 112.22 18.8711 111.587C19.8956 111.74 20.911 111.947 21.9132 112.209C22.4174 112.326 22.9117 112.482 23.3914 112.676C23.8738 112.863 24.3562 113.05 24.8386 113.252L25.5621 113.555C25.7955 113.664 26.0212 113.804 26.2546 113.929C26.7136 114.178 27.1649 114.45 27.6239 114.707C28.0824 114.979 28.5194 115.286 28.931 115.625C29.3433 115.967 29.779 116.271 30.1681 116.652C31.8565 118.155 33.0136 120.164 33.4669 122.378C33.5264 122.657 33.5551 122.941 33.5525 123.226C33.5525 123.514 33.5525 123.802 33.5525 124.082C33.5023 124.641 33.3874 125.192 33.2101 125.724C32.8776 126.76 32.2634 127.684 31.4362 128.392Z" fill="#C5D7FA"/>
<path d="M32.2667 128.392C32.6829 126.329 32.7329 124.209 32.4145 122.129C32.0958 120.162 31.4292 118.268 30.4461 116.535L29.6681 115.251C29.3802 114.839 29.0534 114.473 28.7655 114.038L28.3143 113.415L27.793 112.847C27.4507 112.466 27.1083 112.069 26.7738 111.672C26.0424 110.933 25.2722 110.21 24.5253 109.432C23.7784 108.654 22.9148 108 22.1445 107.175C23.2025 107.525 24.2413 107.93 25.2566 108.389C26.2428 108.925 27.1986 109.514 28.1198 110.155C28.5555 110.513 28.999 110.879 29.4269 111.252L30.0726 111.812L30.6484 112.458C31.0218 112.894 31.4264 113.33 31.761 113.789L32.6946 115.267C33.8679 117.319 34.4697 119.649 34.4374 122.012C34.4324 124.319 33.6698 126.561 32.2667 128.392Z" fill="#C5D7FA"/>
<path d="M48.6213 129.544C47.0736 127.606 45.7673 125.487 44.7311 123.234C43.6698 120.981 42.8131 118.638 42.1714 116.232C41.5451 113.809 41.1851 111.326 41.0978 108.825C41.0288 106.313 41.4109 103.81 42.2259 101.434C42.4437 103.923 42.7161 106.281 43.1206 108.623C43.5252 110.964 44.0932 113.291 44.6767 115.625C45.2602 117.959 45.9449 120.223 46.6218 122.534C47.2986 124.844 47.9833 127.14 48.6213 129.544Z" fill="#C5D7FA"/>
<path d="M47.8162 129.155C45.967 127.375 44.3157 125.4 42.8913 123.265C41.4499 121.141 40.1827 118.903 39.1023 116.574C38.0203 114.229 37.1683 111.785 36.5582 109.276C35.9493 106.754 35.76 104.149 35.998 101.566C36.776 104.032 37.5541 106.366 38.5033 108.677C39.4525 110.988 40.4328 113.229 41.452 115.493C42.4712 117.757 43.5682 119.99 44.6497 122.254C45.7311 124.518 46.8126 126.782 47.8162 129.155Z" fill="#C5D7FA"/>
<path d="M50.9814 132.119C48.7765 130.791 46.7233 129.225 44.8584 127.451C42.9836 125.701 41.2509 123.804 39.6767 121.779C38.0988 119.735 36.7206 117.543 35.5609 115.236C34.4098 112.911 33.6451 110.415 33.2969 107.845C34.6117 110.07 35.9188 112.163 37.3271 114.209C38.7353 116.255 40.2213 118.223 41.7229 120.2C43.2245 122.176 44.835 124.09 46.3444 126.074C47.8538 128.058 49.4721 130.034 50.9814 132.119Z" fill="#C5D7FA"/>
<path d="M46.2143 128.727C44.0868 127.664 42.109 126.324 40.3324 124.743C38.5425 123.178 36.9112 121.439 35.462 119.554C34.009 117.652 32.7794 115.59 31.7975 113.407C30.8193 111.218 30.2296 108.875 30.0547 106.483C31.2451 108.56 32.3343 110.544 33.5947 112.443C34.8551 114.341 36.1389 116.185 37.4849 117.982C38.8308 119.779 40.2858 121.561 41.7484 123.327C43.2111 125.093 44.7361 126.867 46.2143 128.727Z" fill="#C5D7FA"/>
<path d="M50.0227 130.898C49.1488 130.276 48.413 129.48 47.8614 128.56C47.3097 127.64 46.9543 126.616 46.8172 125.553C46.5279 123.383 46.8794 121.176 47.8287 119.204L48.1554 118.472L48.5522 117.788L49.3847 116.442C49.7063 116.027 50.0331 115.622 50.365 115.228C50.6851 114.823 51.0307 114.438 51.3998 114.077C52.1372 113.364 52.9166 112.696 53.7339 112.077C54.568 111.488 55.4357 110.947 56.3325 110.459C55.8123 111.322 55.2488 112.158 54.6442 112.964C54.0685 113.742 53.555 114.598 52.9792 115.368C52.4035 116.138 51.9756 116.994 51.4232 117.78L50.7774 119.009L50.4351 119.616L50.1783 120.246C49.3852 121.866 48.9224 123.628 48.8168 125.428C48.7516 127.324 49.1664 129.205 50.0227 130.898Z" fill="#C5D7FA"/>
<path d="M48.5835 128.416C47.018 126.89 45.8804 124.98 45.2847 122.876C44.6311 120.695 44.5988 118.375 45.1913 116.177C45.4862 115.077 45.9452 114.028 46.5529 113.065C47.1418 112.111 47.8591 111.241 48.6847 110.482C50.2678 108.992 52.1785 107.894 54.2631 107.277C52.803 108.69 51.4457 110.206 50.2018 111.813C49.6284 112.579 49.1233 113.393 48.6925 114.248C48.2617 115.076 47.9251 115.951 47.6888 116.854C47.1983 118.684 47.0583 120.59 47.2764 122.472C47.5012 124.493 47.9393 126.486 48.5835 128.416Z" fill="#C5D7FA"/>
<path d="M44.7816 126.572L32.6055 114.886L33.0956 126.346L44.7816 126.572Z" fill="#C5D7FA"/>
<path d="M58.0809 125.327H25.7383L29.9707 149.36H53.8484L58.0809 125.327Z" fill="#C5D7FA"/>
<path d="M37.8755 125.327H25.7383L29.9707 149.36H36.3506L37.8755 125.327Z" fill="#C5D7FA"/>
<path d="M91.6281 5.09052H26.3438V87.1569H91.6281V5.09052Z" fill="#C5D7FA"/>
<path d="M106.047 5.09045H28.8516V87.1568H106.047V5.09045Z" fill="#C5D7FA"/>
<path d="M34 11.5481L34 80.6837H98.2651V11.5481H34Z" fill="#E3ECFF"/>
<path d="M286.599 242.832H187.284L178.469 78.6297H277.784L286.599 242.832Z" fill="#C5D7FA"/>
<path d="M289.634 242.832H190.319L181.504 78.6297H280.819L289.634 242.832Z" fill="#C5D7FA"/>
<path d="M239.823 225.895H230.953L231.311 95.5673H240.181L239.823 225.895Z" fill="#C5D7FA"/>
<path d="M263.284 225.895H254.414L254.78 95.5673H263.641L263.284 225.895Z" fill="#C5D7FA"/>
<path d="M216.354 225.895H207.484L207.85 95.5673H216.72L216.354 225.895Z" fill="#C5D7FA"/>
<path d="M233.195 227.365H141.995C140.615 227.382 139.247 227.114 137.976 226.577C136.705 226.04 135.559 225.246 134.609 224.245C133.659 223.244 132.927 222.058 132.457 220.761C131.988 219.463 131.791 218.083 131.88 216.706L142.384 25.218C142.579 22.3483 143.849 19.6575 145.94 17.6821C148.03 15.7066 150.789 14.5915 153.665 14.5591H244.873C246.249 14.5488 247.613 14.822 248.878 15.3617C250.144 15.9014 251.285 16.696 252.23 17.696C253.176 18.696 253.905 19.8799 254.373 21.1741C254.84 22.4682 255.036 23.8448 254.949 25.218L244.438 216.706C244.244 219.57 242.981 222.256 240.898 224.231C238.815 226.206 236.065 227.325 233.195 227.365Z" fill="url(#paint0_linear_556_2450)"/>
<path d="M227.679 227.365H141.995C140.615 227.382 139.247 227.114 137.976 226.577C136.705 226.04 135.559 225.246 134.609 224.245C133.659 223.244 132.927 222.058 132.457 220.761C131.988 219.463 131.791 218.083 131.88 216.706L142.384 25.218C142.579 22.3483 143.849 19.6575 145.94 17.6821C148.03 15.7066 150.789 14.5915 153.665 14.5591H239.357C240.733 14.5476 242.097 14.8201 243.364 15.3594C244.63 15.8987 245.771 16.6933 246.717 17.6935C247.662 18.6937 248.392 19.8782 248.859 21.1728C249.326 22.4675 249.521 23.8445 249.432 25.218L238.929 216.706C238.732 219.57 237.466 222.255 235.383 224.23C233.299 226.204 230.549 227.323 227.679 227.365Z" fill="url(#paint1_linear_556_2450)"/>
<path d="M152.898 31.8025C153.07 28.2589 156.007 25.4823 159.555 25.5089L233.922 26.0663C237.651 26.0943 240.62 29.197 240.484 32.9236L239.801 51.6079C239.67 55.1846 236.719 58.0088 233.14 57.982L158.545 57.4229C154.785 57.3947 151.804 54.2414 151.987 50.4851L152.898 31.8025Z" fill="#F5F8FF"/>
<rect x="156.473" y="30.8534" width="24.9312" height="8.01361" rx="2.64635" transform="rotate(0.429462 156.473 30.8534)" fill="#96B7FF"/>
<rect x="156.352" y="47.4737" width="13.356" height="2.96801" rx="1.00953" transform="rotate(0.429462 156.352 47.4737)" fill="#DDE6FA"/>
<rect x="156.387" y="42.4283" width="13.356" height="2.96801" rx="1.00953" transform="rotate(0.429462 156.387 42.4283)" fill="#C7DAFC"/>
<rect x="172.68" y="47.5961" width="8.60722" height="2.96801" rx="1.00953" transform="rotate(0.429462 172.68 47.5961)" fill="#DDE6FA"/>
<rect x="172.715" y="42.5506" width="8.60722" height="2.96801" rx="1.00953" transform="rotate(0.429462 172.715 42.5506)" fill="#C7DAFC"/>
<rect x="184.25" y="47.6828" width="7.12321" height="2.96801" rx="1.00953" transform="rotate(0.429462 184.25 47.6828)" fill="#DDE6FA"/>
<rect x="184.285" y="42.6374" width="7.12321" height="2.96801" rx="1.00953" transform="rotate(0.429462 184.285 42.6374)" fill="#C7DAFC"/>
<rect x="194.34" y="47.7585" width="10.9816" height="2.96801" rx="1.00953" transform="rotate(0.429462 194.34 47.7585)" fill="#DDE6FA"/>
<rect x="194.375" y="42.713" width="10.9816" height="2.96801" rx="1.00953" transform="rotate(0.429462 194.375 42.713)" fill="#C7DAFC"/>
<rect x="211.59" y="42.8421" width="24.9312" height="8.01361" rx="2.52381" transform="rotate(0.429462 211.59 42.8421)" fill="#0052FE"/>
<path d="M149.011 71.3905C149.184 67.8469 152.121 65.0703 155.668 65.0969L230.035 65.6543C233.764 65.6823 236.733 68.785 236.597 72.5116L235.914 91.1959C235.783 94.7726 232.832 97.5968 229.253 97.57L154.659 97.0109C150.898 96.9827 147.917 93.8294 148.1 90.0731L149.011 71.3905Z" fill="#F5F8FF"/>
<rect x="152.473" y="87.0617" width="13.356" height="2.96801" rx="1.00953" transform="rotate(0.429462 152.473 87.0617)" fill="#DDE6FA"/>
<rect x="152.508" y="82.0163" width="13.356" height="2.96801" rx="1.00953" transform="rotate(0.429462 152.508 82.0163)" fill="#C7DAFC"/>
<rect x="168.801" y="87.1841" width="8.60722" height="2.96801" rx="1.00953" transform="rotate(0.429462 168.801 87.1841)" fill="#DDE6FA"/>
<rect x="168.836" y="82.1387" width="8.60722" height="2.96801" rx="1.00953" transform="rotate(0.429462 168.836 82.1387)" fill="#C7DAFC"/>
<rect x="180.367" y="87.2708" width="7.12321" height="2.96801" rx="1.00953" transform="rotate(0.429462 180.367 87.2708)" fill="#DDE6FA"/>
<rect x="180.402" y="82.2254" width="7.12321" height="2.96801" rx="1.00953" transform="rotate(0.429462 180.402 82.2254)" fill="#C7DAFC"/>
<rect x="190.461" y="87.3465" width="10.9816" height="2.96801" rx="1.00953" transform="rotate(0.429462 190.461 87.3465)" fill="#DDE6FA"/>
<rect x="190.496" y="82.301" width="10.9816" height="2.96801" rx="1.00953" transform="rotate(0.429462 190.496 82.301)" fill="#C7DAFC"/>
<rect x="207.711" y="82.4301" width="24.9312" height="8.01361" rx="2.52381" transform="rotate(0.429462 207.711 82.4301)" fill="#0052FE"/>
<path d="M146.675 110.978C146.848 107.435 149.785 104.658 153.332 104.685L227.699 105.242C231.428 105.27 234.397 108.373 234.261 112.1L233.578 130.784C233.447 134.36 230.496 137.185 226.917 137.158L152.323 136.599C148.562 136.571 145.581 133.417 145.764 129.661L146.675 110.978Z" fill="#F5F8FF"/>
<rect x="150.254" y="110.029" width="24.9312" height="8.01361" rx="2.64635" transform="rotate(0.429462 150.254 110.029)" fill="#96B7FF"/>
<rect x="150.133" y="126.65" width="13.356" height="2.96801" rx="1.00953" transform="rotate(0.429462 150.133 126.65)" fill="#DDE6FA"/>
<rect x="150.168" y="121.604" width="13.356" height="2.96801" rx="1.00953" transform="rotate(0.429462 150.168 121.604)" fill="#C7DAFC"/>
<rect x="166.461" y="126.772" width="8.60722" height="2.96801" rx="1.00953" transform="rotate(0.429462 166.461 126.772)" fill="#DDE6FA"/>
<rect x="166.496" y="121.727" width="8.60722" height="2.96801" rx="1.00953" transform="rotate(0.429462 166.496 121.727)" fill="#C7DAFC"/>
<rect x="178.031" y="126.859" width="7.12321" height="2.96801" rx="1.00953" transform="rotate(0.429462 178.031 126.859)" fill="#DDE6FA"/>
<rect x="178.066" y="121.813" width="7.12321" height="2.96801" rx="1.00953" transform="rotate(0.429462 178.066 121.813)" fill="#C7DAFC"/>
<rect x="188.121" y="126.934" width="10.9816" height="2.96801" rx="1.00953" transform="rotate(0.429462 188.121 126.934)" fill="#DDE6FA"/>
<rect x="188.156" y="121.889" width="10.9816" height="2.96801" rx="1.00953" transform="rotate(0.429462 188.156 121.889)" fill="#C7DAFC"/>
<rect x="205.371" y="122.018" width="24.9312" height="8.01361" rx="2.52381" transform="rotate(0.429462 205.371 122.018)" fill="#0052FE"/>
<path d="M145.12 150.566C145.293 147.023 148.23 144.246 151.778 144.273L226.144 144.83C229.873 144.858 232.842 147.961 232.706 151.688L232.023 170.372C231.893 173.948 228.941 176.773 225.362 176.746L150.768 176.187C147.007 176.159 144.027 173.005 144.21 169.249L145.12 150.566Z" fill="#F5F8FF"/>
<rect x="148.695" y="149.617" width="24.9312" height="8.01361" rx="2.64635" transform="rotate(0.429462 148.695 149.617)" fill="#96B7FF"/>
<rect x="148.574" y="166.238" width="13.356" height="2.96801" rx="1.00953" transform="rotate(0.429462 148.574 166.238)" fill="#DDE6FA"/>
<rect x="148.609" y="161.192" width="13.356" height="2.96801" rx="1.00953" transform="rotate(0.429462 148.609 161.192)" fill="#C7DAFC"/>
<rect x="164.902" y="166.36" width="8.60722" height="2.96801" rx="1.00953" transform="rotate(0.429462 164.902 166.36)" fill="#DDE6FA"/>
<rect x="164.938" y="161.315" width="8.60722" height="2.96801" rx="1.00953" transform="rotate(0.429462 164.938 161.315)" fill="#C7DAFC"/>
<rect x="176.469" y="166.447" width="7.12321" height="2.96801" rx="1.00953" transform="rotate(0.429462 176.469 166.447)" fill="#DDE6FA"/>
<rect x="176.504" y="161.401" width="7.12321" height="2.96801" rx="1.00953" transform="rotate(0.429462 176.504 161.401)" fill="#C7DAFC"/>
<rect x="186.562" y="166.522" width="10.9816" height="2.96801" rx="1.00953" transform="rotate(0.429462 186.562 166.522)" fill="#DDE6FA"/>
<rect x="186.598" y="161.477" width="10.9816" height="2.96801" rx="1.00953" transform="rotate(0.429462 186.598 161.477)" fill="#C7DAFC"/>
<rect x="203.812" y="161.606" width="24.9312" height="8.01361" rx="2.52381" transform="rotate(0.429462 203.812 161.606)" fill="#0052FE"/>
<path d="M86.3053 80.0145C83.7612 82.123 81.1315 84.4182 78.7118 86.7211C77.4981 87.8804 76.3155 89.0552 75.2184 90.2689C74.1549 91.4096 73.1795 92.6294 72.3008 93.9179L72.153 94.1357L72.083 94.2602C72.019 94.3587 71.9643 94.4628 71.9196 94.5714C71.8107 94.8126 71.7095 95.116 71.6006 95.435C71.3933 96.1422 71.2322 96.8621 71.1182 97.5902C70.8755 99.2146 70.7197 100.851 70.6514 102.492C70.488 105.853 70.488 109.362 70.5503 112.793L66.9091 113.337C65.9971 109.818 65.3727 106.229 65.0418 102.608C64.8681 100.728 64.8239 98.8384 64.9096 96.9522C64.9716 95.9332 65.1015 94.9195 65.2986 93.9179C65.4075 93.3532 65.5557 92.7969 65.7421 92.2529C65.8588 91.9495 65.9444 91.6694 66.1 91.3504L66.3178 90.8836C66.3956 90.7435 66.4501 90.6579 66.5123 90.5335C67.4649 88.812 68.5771 87.184 69.8345 85.6708C70.9998 84.2185 72.2385 82.8266 73.5457 81.5006C76.1063 78.8789 78.8408 76.433 81.7305 74.1793L86.3053 80.0145Z" fill="#96B7FF"/>
<path d="M84.939 70.686C80.9555 73.0201 74.9336 79.0887 74.9336 79.0887L82.3171 87.9504C82.3171 87.9504 92.7971 81.664 94.0731 78.2017C96.2049 72.3743 88.7047 68.4531 84.939 70.686Z" fill="#96B7FF"/>
<path d="M70.3883 111.478L71.2908 116.745L66.397 116.037C66.397 116.037 65.3934 112.458 67.9531 111.229L70.3883 111.478Z" fill="#96B7FF"/>
<path d="M69.4818 119.951L65.0781 118.581L66.393 116.037L71.2868 116.745L69.4818 119.951Z" fill="#96B7FF"/>
<path d="M114.559 52.0755C114.559 52.6124 114.854 53.0481 115.212 53.0559C115.57 53.0636 115.843 52.6279 115.835 52.0989C115.827 51.5698 115.539 51.1264 115.181 51.1186C114.823 51.1108 114.551 51.5465 114.559 52.0755Z" fill="#96B7FF"/>
<path d="M115.027 51.1264L116.327 50.7763C116.327 50.7763 115.673 51.7877 115.027 51.1264Z" fill="#96B7FF"/>
<path d="M115.02 52.6046C115.52 53.8372 116.185 54.9966 116.996 56.0513C116.718 56.241 116.402 56.3685 116.071 56.4249C115.739 56.4813 115.399 56.4653 115.074 56.3781L115.02 52.6046Z" fill="#96B7FF"/>
<path d="M115.238 48.52C115.187 48.5351 115.133 48.5351 115.083 48.52C114.699 48.3801 114.289 48.3318 113.883 48.3791C113.478 48.4264 113.089 48.5679 112.749 48.7923C112.716 48.8181 112.678 48.8369 112.637 48.8477C112.597 48.8586 112.555 48.8611 112.514 48.8553C112.472 48.8495 112.432 48.8354 112.397 48.8139C112.361 48.7924 112.33 48.7639 112.305 48.7301C112.255 48.6628 112.234 48.5786 112.245 48.4956C112.257 48.4126 112.301 48.3375 112.367 48.2866C112.789 48.0062 113.269 47.8272 113.771 47.7637C114.274 47.7003 114.784 47.7541 115.262 47.9209C115.34 47.9476 115.406 48.004 115.443 48.0782C115.481 48.1523 115.489 48.2383 115.464 48.3177C115.445 48.3668 115.414 48.4107 115.375 48.4459C115.336 48.481 115.289 48.5064 115.238 48.52Z" fill="#96B7FF"/>
<path d="M98.7021 57.7863C99.06 61.8087 97.714 68.3986 94.6797 70.6393C94.6797 70.6393 96.9671 74.8717 104.296 75.8598C112.364 76.9413 108.575 72.4054 108.575 72.4054C104.288 70.7715 104.74 67.5427 105.829 64.6251L98.7021 57.7863Z" fill="#96B7FF"/>
<path d="M113.027 75.5332C116.862 76.5757 120.892 77.5794 124.845 78.4741C126.837 78.902 128.828 79.2521 130.82 79.68C132.812 80.108 134.811 80.3803 136.795 80.637L137.573 80.7382L138.087 80.7926C138.445 80.7926 138.865 80.7926 139.254 80.7926C140.158 80.7296 141.058 80.6075 141.946 80.427C143.873 80.0292 145.776 79.528 147.649 78.9254C151.485 77.7272 155.375 76.2801 159.179 74.7863L160.906 78.0306C157.32 80.3776 153.556 82.4405 149.648 84.2004C147.627 85.1139 145.548 85.8936 143.424 86.5345C142.289 86.8715 141.132 87.1314 139.962 87.3125C139.317 87.4004 138.668 87.455 138.017 87.4759H136.959L136.181 87.4136C131.896 87.1169 127.634 86.5504 123.421 85.7175C119.221 84.935 115.065 83.9273 110.973 82.6988L113.027 75.5332Z" fill="#96B7FF"/>
<path d="M158.172 76.1011L159.3 72.281L163.447 73.837C163.447 73.837 162.498 79.5789 158.942 77.9917L158.172 76.1011Z" fill="#96B7FF"/>
<path d="M161.705 69.7445L165.937 70.2191L163.448 73.837L159.301 72.2809L161.705 69.7445Z" fill="#96B7FF"/>
<path d="M83.4346 110.824L110.417 114.45C120.881 76.5679 117.792 75.5486 117.792 75.5486C115.77 74.6018 113.691 73.7807 111.568 73.0901L111.202 72.9734C109.46 72.4443 109.094 72.3743 106.768 71.8452C102.776 71.1372 99.0729 70.5926 94.4981 70.2036C94.2102 70.2036 93.9146 70.1491 93.6267 70.1336C92.802 70.0791 91.9851 70.0402 91.1915 70.0091C90.6624 70.0091 90.1256 70.0091 89.6354 70.0091H87.0057C86.4853 70.0208 85.973 70.141 85.5017 70.3619C85.0304 70.5828 84.6103 70.8996 84.2684 71.2921C83.9264 71.6846 83.6701 72.144 83.5158 72.6412C83.3615 73.1383 83.3127 73.6622 83.3723 74.1793C85.6831 94.0735 84.9517 100.632 83.4346 110.824Z" fill="#96B7FF"/>
<path opacity="0.2" d="M111.199 84.1147C111.386 85.8731 115.447 89.0863 116.855 88.2227C117.26 86.1143 117.556 84.3326 117.766 82.901C115.727 82.7454 111.736 80.4969 111.199 84.1147Z" fill="#96B7FF"/>
<path d="M106.814 75.2452C106.62 69.021 121.706 75.8754 125.168 77.4237L121.309 87.857C121.309 87.857 116.26 87.6859 113.046 85.8264C111.219 84.7101 109.694 83.1608 108.607 81.3153C107.52 79.4699 106.904 77.3851 106.814 75.2452Z" fill="#96B7FF"/>
<path d="M96.4171 50.3484C96.9151 56.9305 96.9851 59.7236 100.393 63.1469C105.505 68.2897 113.557 66.4691 115.051 59.9259C116.397 54.0362 115.354 44.2642 108.827 41.5567C107.425 40.929 105.884 40.6777 104.356 40.8274C102.828 40.9771 101.365 41.5228 100.112 42.4104C98.8595 43.2981 97.8597 44.4971 97.2117 45.8891C96.5636 47.2812 96.2898 48.8182 96.4171 50.3484Z" fill="#96B7FF"/>
<path d="M96.9977 43.4005C90.3844 41.7433 90.1744 47.2907 90.3144 50.2161C90.4544 53.1414 85.5918 54.5419 85.5918 58.2064C85.5918 62.9835 89.194 65.8311 80.4334 67.2782C73.0188 68.4997 70.7314 77.766 81.7016 83.1889C93.8466 89.1797 112.169 80.7459 109.944 72.7244C106.536 60.346 112.659 60.3849 111.982 53.4604C111.477 48.4344 116.238 48.1854 114.527 43.9918C112.27 38.5067 96.4219 33.6908 96.9977 43.4005Z" fill="#96B7FF"/>
<path d="M89.3364 52.6824C88.4261 47.8898 88.924 44.7154 90.8146 43.2294C93.2499 41.3076 96.9922 42.9726 97.1478 43.0426L96.8288 43.7506C96.8288 43.7506 93.351 42.1946 91.2892 43.8362C89.6476 45.1355 89.2508 48.0609 90.0988 52.5346L89.3364 52.6824Z" fill="#96B7FF"/>
<path d="M81.8582 65.9089C80.1508 65.8551 78.4646 65.5131 76.8711 64.8975L77.159 64.1739C77.2134 64.1739 82.4573 66.259 84.8848 64.2439C86.0674 63.2636 86.4019 61.4275 85.8884 58.7977L86.6665 58.6499C87.2422 61.5986 86.8143 63.6915 85.3983 64.8741C84.3745 65.6203 83.1227 65.9862 81.8582 65.9089Z" fill="#96B7FF"/>
<path d="M110.18 53.0014C110.117 54.2293 110.435 55.4466 111.09 56.487C111.992 57.9575 113.214 57.6851 113.611 56.4403C114.008 55.1955 113.938 53.1959 112.716 52.13C111.495 51.0641 110.304 51.6399 110.18 53.0014Z" fill="#96B7FF"/>
<path d="M103.319 113.493C103.319 113.493 92.831 157.841 87.9294 183.274C82.7633 210.14 52.1401 232.057 52.1401 232.057L45.418 225.14C45.418 225.14 65.1332 207.883 70.1982 182.8C80.4759 131.886 73.5203 121.631 83.4246 110.824L103.319 113.493Z" fill="#96B7FF"/>
<path opacity="0.2" d="M97.7524 123.125C89.5986 130.205 90.4778 155.328 91.3336 166.648C94.7492 150.551 98.8649 132.625 101.277 122.254C100.413 121.616 99.2462 121.826 97.7524 123.125Z" fill="#96B7FF"/>
<path d="M110.05 114.473C110.05 114.473 114.765 167.091 112.19 187.164C109.513 208.039 95.8511 253.46 95.8511 253.46L86.3047 252.223C86.3047 252.223 94.085 207.206 95.5088 186.542C97.0181 163.979 90.3037 111.851 90.3037 111.851L110.05 114.473Z" fill="#96B7FF"/>
<path d="M83.1916 109.198L81.7134 111.431C81.6045 111.61 81.8067 111.828 82.1179 111.867L110.423 115.703C110.664 115.703 110.882 115.64 110.913 115.493L111.411 113.159C111.45 112.995 111.247 112.824 110.983 112.785L83.6351 109.121C83.5606 109.095 83.4809 109.089 83.4034 109.102C83.3258 109.116 83.253 109.149 83.1916 109.198Z" fill="#96B7FF"/>
<path opacity="0.3" d="M83.1916 109.198L81.7134 111.431C81.6045 111.61 81.8067 111.828 82.1179 111.867L110.423 115.703C110.664 115.703 110.882 115.64 110.913 115.493L111.411 113.159C111.45 112.995 111.247 112.824 110.983 112.785L83.6351 109.121C83.5606 109.095 83.4809 109.089 83.4034 109.102C83.3258 109.116 83.253 109.149 83.1916 109.198Z" fill="#96B7FF"/>
<path d="M86.5541 112.723L85.8227 112.629C85.6749 112.629 85.5738 112.521 85.5971 112.427L86.2662 109.354C86.2662 109.268 86.4218 109.214 86.5696 109.229L87.301 109.331C87.4488 109.331 87.55 109.44 87.5344 109.525L86.8575 112.598C86.842 112.692 86.7019 112.746 86.5541 112.723Z" fill="#96B7FF"/>
<path d="M105.056 115.251L104.325 115.15C104.177 115.15 104.076 115.041 104.091 114.956L104.768 111.883C104.768 111.797 104.924 111.735 105.072 111.758L105.803 111.851C105.951 111.851 106.052 111.96 106.029 112.054L105.36 115.127C105.336 115.213 105.204 115.275 105.056 115.251Z" fill="#96B7FF"/>
</g>
<defs>
<linearGradient id="paint0_linear_556_2450" x1="193.414" y1="-45.2703" x2="193.414" y2="117.259" gradientUnits="userSpaceOnUse">
<stop stop-color="#C0D4FF"/>
<stop offset="1" stop-color="#6190FF"/>
</linearGradient>
<linearGradient id="paint1_linear_556_2450" x1="190.656" y1="-45.2704" x2="190.656" y2="465.037" gradientUnits="userSpaceOnUse">
<stop stop-color="#C0D4FF"/>
<stop offset="1" stop-color="#6190FF"/>
</linearGradient>
<clipPath id="clip0_556_2450">
<rect width="293" height="170" fill="white"/>
</clipPath>
</defs>
</svg>
