<svg width="14" height="14" viewBox="0 0 14 14" fill="none" xmlns="http://www.w3.org/2000/svg">
<path fill-rule="evenodd" clip-rule="evenodd" d="M3.00581 3.00501C3.27917 2.73165 3.72239 2.73165 3.99576 3.00501L7.00078 6.01004L10.0058 3.00501C10.2792 2.73165 10.7224 2.73165 10.9958 3.00501C11.2691 3.27838 11.2691 3.7216 10.9958 3.99496L7.99073 6.99999L10.9958 10.005C11.2691 10.2784 11.2691 10.7216 10.9958 10.995C10.7224 11.2683 10.2792 11.2683 10.0058 10.995L7.00078 7.98994L3.99576 10.995C3.72239 11.2683 3.27917 11.2683 3.00581 10.995C2.73244 10.7216 2.73244 10.2784 3.00581 10.005L6.01083 6.99999L3.00581 3.99496C2.73244 3.7216 2.73244 3.27838 3.00581 3.00501Z" fill="#F22222"/>
</svg>
