<svg width="16" height="25" viewBox="0 0 16 25" fill="none" xmlns="http://www.w3.org/2000/svg">
<path d="M2.752 25V19.4H3.608L7.12 23.712H6.696V19.4H7.728V25H6.872L3.36 20.688H3.784V25H2.752ZM8.98856 25V19.4H10.0286V24.12H12.9566V25H8.98856Z" fill="white"/>
<path d="M7.94598 0L8.22409 0.874058H9.13788L8.42274 1.43028L8.70085 2.30433L7.94598 1.74812L7.19111 2.30433L7.46922 1.43028L6.75408 0.874058H7.66787L7.94598 0ZM7.94598 13.5082L8.22409 14.3822H9.13788L8.42274 14.8987L8.70085 15.8125L7.94598 15.2563L7.19111 15.8125L7.46922 14.8987L6.75408 14.3822H7.66787L7.94598 13.5082ZM11.2833 12.3957L11.5614 13.2698H12.5149L11.76 13.826L12.0382 14.7001L11.2833 14.1438L10.5284 14.7001L10.8463 13.826L10.0914 13.2698H11.0052L11.2833 12.3957ZM13.5876 10.0914L13.8657 10.9655H14.8193L14.0644 11.5217L14.3425 12.3957L13.5876 11.8395L12.8328 12.3957L13.1506 11.5217L12.3957 10.9655H13.3095L13.5876 10.0914ZM14.7001 6.75408L14.9782 7.62814H15.892L15.1371 8.18436L15.4152 9.05842L14.7001 8.5022L13.9452 9.05842L14.2233 8.18436L13.4684 7.62814H14.3822L14.7001 6.75408ZM13.5876 3.37704L13.8657 4.29083H14.8193L14.0644 4.80732L14.3425 5.68138L13.5876 5.16489L12.8328 5.68138L13.1506 4.80732L12.3957 4.29083H13.3095L13.5876 3.37704ZM11.2833 1.07271L11.5614 1.98649H12.5149L11.76 2.50298L12.0382 3.37704L11.2833 2.86055L10.5284 3.37704L10.8463 2.50298L10.0914 1.98649H11.0052L11.2833 1.07271ZM4.60867 12.3957L4.33056 13.2698H3.37704L4.13191 13.826L3.8538 14.7001L4.60867 14.1438L5.36354 14.7001L5.0457 13.826L5.80057 13.2698H4.88678L4.60867 12.3957ZM2.30433 10.0914L2.02623 10.9655H1.07271L1.82758 11.5217L1.54947 12.3957L2.30433 11.8395L3.0592 12.3957L2.74136 11.5217L3.49623 10.9655H2.58244L2.30433 10.0914ZM1.1919 6.75408L0.913788 7.62814H0L0.754868 8.18436L0.476759 9.05842L1.1919 8.5022L1.94676 9.05842L1.66866 8.18436L2.42352 7.62814H1.50974L1.1919 6.75408ZM2.30433 3.37704L2.02623 4.29083H1.07271L1.82758 4.80732L1.54947 5.68138L2.30433 5.16489L3.0592 5.68138L2.74136 4.80732L3.49623 4.29083H2.58244L2.30433 3.37704ZM4.60867 1.07271L4.33056 1.98649H3.37704L4.13191 2.50298L3.8538 3.37704L4.60867 2.86055L5.36354 3.37704L5.0457 2.50298L5.80057 1.98649H4.88678L4.60867 1.07271Z" fill="#FFCE31"/>
</svg>
