<svg width="16" height="16" viewBox="0 0 16 16" fill="none" xmlns="http://www.w3.org/2000/svg">
<path d="M3.99961 3.20039C3.99961 2.75856 3.64144 2.40039 3.19961 2.40039C2.75778 2.40039 2.39961 2.75856 2.39961 3.20039V9.01444C1.92137 9.29109 1.59961 9.80817 1.59961 10.4004C1.59961 10.9926 1.92137 11.5097 2.39961 11.7863V12.8004C2.39961 13.2422 2.75778 13.6004 3.19961 13.6004C3.64144 13.6004 3.99961 13.2422 3.99961 12.8004V11.7863C4.47785 11.5097 4.79961 10.9926 4.79961 10.4004C4.79961 9.80817 4.47785 9.29109 3.99961 9.01444V3.20039Z" fill="#2B313B"/>
<path d="M8.79961 3.20039C8.79961 2.75856 8.44144 2.40039 7.99961 2.40039C7.55778 2.40039 7.19961 2.75856 7.19961 3.20039V4.21444C6.72137 4.49109 6.39961 5.00817 6.39961 5.60039C6.39961 6.19262 6.72137 6.70969 7.19961 6.98634V12.8004C7.19961 13.2422 7.55778 13.6004 7.99961 13.6004C8.44144 13.6004 8.79961 13.2422 8.79961 12.8004V6.98634C9.27785 6.70969 9.59961 6.19262 9.59961 5.60039C9.59961 5.00817 9.27785 4.49109 8.79961 4.21444V3.20039Z" fill="#2B313B"/>
<path d="M12.7996 2.40039C13.2414 2.40039 13.5996 2.75856 13.5996 3.20039V9.01444C14.0778 9.29109 14.3996 9.80817 14.3996 10.4004C14.3996 10.9926 14.0778 11.5097 13.5996 11.7863V12.8004C13.5996 13.2422 13.2414 13.6004 12.7996 13.6004C12.3578 13.6004 11.9996 13.2422 11.9996 12.8004V11.7863C11.5214 11.5097 11.1996 10.9926 11.1996 10.4004C11.1996 9.80817 11.5214 9.29109 11.9996 9.01444V3.20039C11.9996 2.75856 12.3578 2.40039 12.7996 2.40039Z" fill="#2B313B"/>
</svg>
