<svg width="149" height="36" viewBox="0 0 149 36" fill="none" xmlns="http://www.w3.org/2000/svg">
<path d="M66.66 24V10H73.5C75.26 10 76.58 10.3333 77.46 11C78.3533 11.6667 78.8 12.5467 78.8 13.64C78.8 14.3733 78.62 15.0133 78.26 15.56C77.9 16.0933 77.4067 16.5067 76.78 16.8C76.1533 17.0933 75.4333 17.24 74.62 17.24L75 16.42C75.88 16.42 76.66 16.5667 77.34 16.86C78.02 17.14 78.5467 17.56 78.92 18.12C79.3067 18.68 79.5 19.3667 79.5 20.18C79.5 21.38 79.0267 22.32 78.08 23C77.1333 23.6667 75.74 24 73.9 24H66.66ZM69.88 21.56H73.66C74.5 21.56 75.1333 21.4267 75.56 21.16C76 20.88 76.22 20.44 76.22 19.84C76.22 19.2533 76 18.82 75.56 18.54C75.1333 18.2467 74.5 18.1 73.66 18.1H69.64V15.74H73.1C73.8867 15.74 74.4867 15.6067 74.9 15.34C75.3267 15.06 75.54 14.64 75.54 14.08C75.54 13.5333 75.3267 13.1267 74.9 12.86C74.4867 12.58 73.8867 12.44 73.1 12.44H69.88V21.56ZM86.273 24.16C85.0463 24.16 83.9663 23.92 83.033 23.44C82.113 22.96 81.3996 22.3067 80.893 21.48C80.3863 20.64 80.133 19.6867 80.133 18.62C80.133 17.54 80.3796 16.5867 80.873 15.76C81.3796 14.92 82.0663 14.2667 82.933 13.8C83.7996 13.32 84.7796 13.08 85.873 13.08C86.9263 13.08 87.873 13.3067 88.713 13.76C89.5663 14.2 90.2396 14.84 90.733 15.68C91.2263 16.5067 91.473 17.5 91.473 18.66C91.473 18.78 91.4663 18.92 91.453 19.08C91.4396 19.2267 91.4263 19.3667 91.413 19.5H82.673V17.68H89.773L88.573 18.22C88.573 17.66 88.4596 17.1733 88.233 16.76C88.0063 16.3467 87.693 16.0267 87.293 15.8C86.893 15.56 86.4263 15.44 85.893 15.44C85.3596 15.44 84.8863 15.56 84.473 15.8C84.073 16.0267 83.7596 16.3533 83.533 16.78C83.3063 17.1933 83.193 17.6867 83.193 18.26V18.74C83.193 19.3267 83.3196 19.8467 83.573 20.3C83.8396 20.74 84.2063 21.08 84.673 21.32C85.153 21.5467 85.713 21.66 86.353 21.66C86.9263 21.66 87.4263 21.5733 87.853 21.4C88.293 21.2267 88.693 20.9667 89.053 20.62L90.713 22.42C90.2196 22.98 89.5996 23.4133 88.853 23.72C88.1063 24.0133 87.2463 24.16 86.273 24.16ZM92.7502 24V13.24H95.7302V16.28L95.3102 15.4C95.6302 14.64 96.1435 14.0667 96.8502 13.68C97.5568 13.28 98.4168 13.08 99.4302 13.08V15.96C99.2968 15.9467 99.1768 15.94 99.0702 15.94C98.9635 15.9267 98.8502 15.92 98.7302 15.92C97.8768 15.92 97.1835 16.1667 96.6502 16.66C96.1302 17.14 95.8702 17.8933 95.8702 18.92V24H92.7502ZM105.747 24.16C104.521 24.16 103.441 23.92 102.507 23.44C101.587 22.96 100.874 22.3067 100.367 21.48C99.8605 20.64 99.6072 19.6867 99.6072 18.62C99.6072 17.54 99.8539 16.5867 100.347 15.76C100.854 14.92 101.541 14.2667 102.407 13.8C103.274 13.32 104.254 13.08 105.347 13.08C106.401 13.08 107.347 13.3067 108.187 13.76C109.041 14.2 109.714 14.84 110.207 15.68C110.701 16.5067 110.947 17.5 110.947 18.66C110.947 18.78 110.941 18.92 110.927 19.08C110.914 19.2267 110.901 19.3667 110.887 19.5H102.147V17.68H109.247L108.047 18.22C108.047 17.66 107.934 17.1733 107.707 16.76C107.481 16.3467 107.167 16.0267 106.767 15.8C106.367 15.56 105.901 15.44 105.367 15.44C104.834 15.44 104.361 15.56 103.947 15.8C103.547 16.0267 103.234 16.3533 103.007 16.78C102.781 17.1933 102.667 17.6867 102.667 18.26V18.74C102.667 19.3267 102.794 19.8467 103.047 20.3C103.314 20.74 103.681 21.08 104.147 21.32C104.627 21.5467 105.187 21.66 105.827 21.66C106.401 21.66 106.901 21.5733 107.327 21.4C107.767 21.2267 108.167 20.9667 108.527 20.62L110.187 22.42C109.694 22.98 109.074 23.4133 108.327 23.72C107.581 24.0133 106.721 24.16 105.747 24.16ZM114.804 21.8L114.884 18L119.904 13.24H123.624L118.804 18.14L117.184 19.46L114.804 21.8ZM112.224 24V9.16H115.344V24H112.224ZM120.244 24L116.604 19.48L118.564 17.06L124.024 24H120.244ZM129.518 24.16C128.292 24.16 127.212 23.92 126.278 23.44C125.358 22.96 124.645 22.3067 124.138 21.48C123.632 20.64 123.378 19.6867 123.378 18.62C123.378 17.54 123.625 16.5867 124.118 15.76C124.625 14.92 125.312 14.2667 126.178 13.8C127.045 13.32 128.025 13.08 129.118 13.08C130.172 13.08 131.118 13.3067 131.958 13.76C132.812 14.2 133.485 14.84 133.978 15.68C134.472 16.5067 134.718 17.5 134.718 18.66C134.718 18.78 134.712 18.92 134.698 19.08C134.685 19.2267 134.672 19.3667 134.658 19.5H125.918V17.68H133.018L131.818 18.22C131.818 17.66 131.705 17.1733 131.478 16.76C131.252 16.3467 130.938 16.0267 130.538 15.8C130.138 15.56 129.672 15.44 129.138 15.44C128.605 15.44 128.132 15.56 127.718 15.8C127.318 16.0267 127.005 16.3533 126.778 16.78C126.552 17.1933 126.438 17.6867 126.438 18.26V18.74C126.438 19.3267 126.565 19.8467 126.818 20.3C127.085 20.74 127.452 21.08 127.918 21.32C128.398 21.5467 128.958 21.66 129.598 21.66C130.172 21.66 130.672 21.5733 131.098 21.4C131.538 21.2267 131.938 20.9667 132.298 20.62L133.958 22.42C133.465 22.98 132.845 23.4133 132.098 23.72C131.352 24.0133 130.492 24.16 129.518 24.16ZM142.535 13.08C143.389 13.08 144.149 13.2533 144.815 13.6C145.495 13.9333 146.029 14.4533 146.415 15.16C146.802 15.8533 146.995 16.7467 146.995 17.84V24H143.875V18.32C143.875 17.4533 143.682 16.8133 143.295 16.4C142.922 15.9867 142.389 15.78 141.695 15.78C141.202 15.78 140.755 15.8867 140.355 16.1C139.969 16.3 139.662 16.6133 139.435 17.04C139.222 17.4667 139.115 18.0133 139.115 18.68V24H135.995V13.24H138.975V16.22L138.415 15.32C138.802 14.6 139.355 14.0467 140.075 13.66C140.795 13.2733 141.615 13.08 142.535 13.08Z" fill="#2B313B"/>
<rect width="55" height="36" rx="18" fill="#0052FE"/>
<circle cx="21.5" cy="10.5" r="5.5" fill="white"/>
<path d="M25.543 25.3609C26.1981 24.9739 26.1981 24.0261 25.543 23.6391L17.5087 18.8915C16.8421 18.4976 16 18.9781 16 19.7524L16 29.2476C16 30.0219 16.8421 30.5024 17.5087 30.1085L25.543 25.3609Z" fill="white"/>
<rect x="28" y="13" width="11" height="11" rx="2" fill="white"/>
</svg>
