<svg width="12" height="13" viewBox="0 0 12 13" fill="none" xmlns="http://www.w3.org/2000/svg">
<path d="M6.60078 2.3C6.26941 2.3 6.00078 2.56863 6.00078 2.9C6.00078 3.23137 6.26941 3.5 6.60078 3.5H8.15225L4.37652 7.27574C4.1422 7.51005 4.1422 7.88995 4.37652 8.12426C4.61083 8.35858 4.99073 8.35858 5.22505 8.12426L9.00078 4.34853V5.9C9.00078 6.23137 9.26941 6.5 9.60078 6.5C9.93215 6.5 10.2008 6.23137 10.2008 5.9V2.9C10.2008 2.56863 9.93215 2.3 9.60078 2.3H6.60078Z" fill="#0052FE"/>
<path d="M3.00078 3.5C2.33804 3.5 1.80078 4.03726 1.80078 4.7V9.5C1.80078 10.1627 2.33804 10.7 3.00078 10.7H7.80078C8.46352 10.7 9.00078 10.1627 9.00078 9.5V7.7C9.00078 7.36863 8.73215 7.1 8.40078 7.1C8.06941 7.1 7.80078 7.36863 7.80078 7.7V9.5H3.00078V4.7L4.80078 4.7C5.13215 4.7 5.40078 4.43137 5.40078 4.1C5.40078 3.76863 5.13215 3.5 4.80078 3.5H3.00078Z" fill="#0052FE"/>
</svg>
