<svg width="54" height="59" viewBox="0 0 54 59" fill="none" xmlns="http://www.w3.org/2000/svg">
<path d="M41.904 50.8091C52.4075 43.4281 50.8041 27.6953 38.4688 23.3704C37.8587 23.1286 37.1391 22.9843 36.5231 22.8458C34.1836 31.1039 27.6066 38.9146 20.2073 39.2203C13.5394 39.4638 11.9508 32.6405 15.9334 28.4119C20.6883 23.3984 27.4282 20.0512 34.3893 20.1351C35.4191 14.8068 34.2667 9.45845 29.1451 6.26763C20.5075 0.909326 8.11671 6.73306 4.10138 15.2069C3.73779 16.1186 2.31028 15.6233 2.67387 14.7117C6.77304 2.92769 23.9135 -2.31605 33.4001 6.40524C37.0534 9.82359 38.0042 15.0569 37.078 20.3911C44.0843 21.5134 49.3705 27.3032 51.1782 33.9316C53.2382 41.6104 49.2189 48.323 43.0597 52.4282C42.086 53.0983 41.034 51.4847 41.904 50.8091ZM22.2804 26.4927C19.9068 28.0156 17.1929 30.0371 16.1021 32.7722C15.0172 35.4039 18.6955 36.5448 20.3478 36.7419C22.4147 36.9627 24.3621 35.6228 25.8891 34.3627C29.2598 31.7571 32.3215 27.2691 33.8342 22.5898C29.7748 22.6704 25.7256 24.4091 22.2804 26.4927Z" fill="#0051FF"/>
<path d="M37.7408 56.3738C37.9047 53.4826 38.2817 50.4998 39.1652 47.753C39.5405 46.635 41.0658 47.2392 40.7941 48.3635C40.2508 50.6116 40.2198 52.9924 40.1947 55.27C41.5477 55.2431 43.0044 55.222 44.3634 55.0919C45.4115 54.9441 47.007 54.3095 48.0083 54.9877C48.5091 55.3269 48.4798 55.8432 48.2431 56.3477C47.6547 57.5574 45.4783 57.4341 44.3266 57.576C42.4434 57.78 40.6759 57.7832 38.8103 57.6774C38.1888 57.6422 37.7057 56.9933 37.7408 56.3738Z" fill="#0051FF"/>
</svg>
