<svg width="12" height="12" viewBox="0 0 12 12" fill="none" xmlns="http://www.w3.org/2000/svg">
<path fill-rule="evenodd" clip-rule="evenodd" d="M10.7992 6C10.7992 8.65096 8.65019 10.8 5.99922 10.8C3.34825 10.8 1.19922 8.65096 1.19922 6C1.19922 3.34903 3.34825 1.2 5.99922 1.2C8.65019 1.2 10.7992 3.34903 10.7992 6ZM6.59922 3.6C6.59922 3.93137 6.33059 4.2 5.99922 4.2C5.66785 4.2 5.39922 3.93137 5.39922 3.6C5.39922 3.26863 5.66785 3 5.99922 3C6.33059 3 6.59922 3.26863 6.59922 3.6ZM5.39922 5.4C5.06785 5.4 4.79922 5.66863 4.79922 6C4.79922 6.33137 5.06785 6.6 5.39922 6.6V8.4C5.39922 8.73137 5.66785 9 5.99922 9H6.59922C6.93059 9 7.19922 8.73137 7.19922 8.4C7.19922 8.06863 6.93059 7.8 6.59922 7.8V6C6.59922 5.66863 6.33059 5.4 5.99922 5.4H5.39922Z" fill="#2B313B"/>
</svg>
