<svg width="192" height="32" viewBox="0 0 192 32" fill="none" xmlns="http://www.w3.org/2000/svg">
<path d="M15.0489 2.92705C15.3483 2.00574 16.6517 2.00574 16.9511 2.92705L19.3677 10.3647C19.5016 10.7768 19.8855 11.0557 20.3188 11.0557H28.1392C29.1079 11.0557 29.5107 12.2953 28.727 12.8647L22.4001 17.4615C22.0496 17.7161 21.903 18.1675 22.0369 18.5795L24.4535 26.0172C24.7529 26.9385 23.6984 27.7047 22.9147 27.1353L16.5878 22.5385C16.2373 22.2839 15.7627 22.2839 15.4122 22.5385L9.08533 27.1353C8.30162 27.7047 7.24714 26.9385 7.54649 26.0172L9.96315 18.5795C10.097 18.1675 9.95036 17.7161 9.59987 17.4615L3.27299 12.8647C2.48928 12.2953 2.89206 11.0557 3.86078 11.0557H11.6812C12.1145 11.0557 12.4984 10.7768 12.6323 10.3647L15.0489 2.92705Z" fill="#EFBC21"/>
<path d="M55.0489 2.92705C55.3483 2.00574 56.6517 2.00574 56.9511 2.92705L59.3677 10.3647C59.5016 10.7768 59.8855 11.0557 60.3188 11.0557H68.1392C69.1079 11.0557 69.5107 12.2953 68.727 12.8647L62.4001 17.4615C62.0496 17.7161 61.903 18.1675 62.0369 18.5795L64.4535 26.0172C64.7529 26.9385 63.6984 27.7047 62.9147 27.1353L56.5878 22.5385C56.2373 22.2839 55.7627 22.2839 55.4122 22.5385L49.0853 27.1353C48.3016 27.7047 47.2471 26.9385 47.5465 26.0172L49.9631 18.5795C50.097 18.1675 49.9504 17.7161 49.5999 17.4615L43.273 12.8647C42.4893 12.2953 42.8921 11.0557 43.8608 11.0557H51.6812C52.1145 11.0557 52.4984 10.7768 52.6323 10.3647L55.0489 2.92705Z" fill="#EFBC21"/>
<path d="M95.0489 2.92705C95.3483 2.00574 96.6517 2.00574 96.9511 2.92705L99.3677 10.3647C99.5016 10.7768 99.8855 11.0557 100.319 11.0557H108.139C109.108 11.0557 109.511 12.2953 108.727 12.8647L102.4 17.4615C102.05 17.7161 101.903 18.1675 102.037 18.5795L104.454 26.0172C104.753 26.9385 103.698 27.7047 102.915 27.1353L96.5878 22.5385C96.2373 22.2839 95.7627 22.2839 95.4122 22.5385L89.0853 27.1353C88.3016 27.7047 87.2471 26.9385 87.5465 26.0172L89.9631 18.5795C90.097 18.1675 89.9504 17.7161 89.5999 17.4615L83.273 12.8647C82.4893 12.2953 82.8921 11.0557 83.8608 11.0557H91.6812C92.1145 11.0557 92.4984 10.7768 92.6323 10.3647L95.0489 2.92705Z" fill="#EFBC21"/>
<path d="M135.049 2.92705C135.348 2.00574 136.652 2.00574 136.951 2.92705L139.368 10.3647C139.502 10.7768 139.886 11.0557 140.319 11.0557H148.139C149.108 11.0557 149.511 12.2953 148.727 12.8647L142.4 17.4615C142.05 17.7161 141.903 18.1675 142.037 18.5795L144.454 26.0172C144.753 26.9385 143.698 27.7047 142.915 27.1353L136.588 22.5385C136.237 22.2839 135.763 22.2839 135.412 22.5385L129.085 27.1353C128.302 27.7047 127.247 26.9385 127.546 26.0172L129.963 18.5795C130.097 18.1675 129.95 17.7161 129.6 17.4615L123.273 12.8647C122.489 12.2953 122.892 11.0557 123.861 11.0557H131.681C132.114 11.0557 132.498 10.7768 132.632 10.3647L135.049 2.92705Z" fill="#EFBC21"/>
<path d="M175.049 2.92705C175.348 2.00574 176.652 2.00574 176.951 2.92705L179.368 10.3647C179.502 10.7768 179.886 11.0557 180.319 11.0557H188.139C189.108 11.0557 189.511 12.2953 188.727 12.8647L182.4 17.4615C182.05 17.7161 181.903 18.1675 182.037 18.5795L184.454 26.0172C184.753 26.9385 183.698 27.7047 182.915 27.1353L176.588 22.5385C176.237 22.2839 175.763 22.2839 175.412 22.5385L169.085 27.1353C168.302 27.7047 167.247 26.9385 167.546 26.0172L169.963 18.5795C170.097 18.1675 169.95 17.7161 169.6 17.4615L163.273 12.8647C162.489 12.2953 162.892 11.0557 163.861 11.0557H171.681C172.114 11.0557 172.498 10.7768 172.632 10.3647L175.049 2.92705Z" fill="#EFBC21"/>
</svg>
