<svg width="60" height="60" viewBox="0 0 60 60" fill="none" xmlns="http://www.w3.org/2000/svg">
<circle cx="30" cy="30" r="30" fill="#0052FE"/>
<path d="M30.0024 46.8C29.5876 46.8 29.252 46.4649 29.252 46.0507V11.5504C29.252 11.1362 29.5876 10.8 30.0024 10.8C30.4166 10.8 30.7522 11.1362 30.7522 11.5504V46.0507C30.7522 46.465 30.4165 46.8 30.0024 46.8Z" fill="#00C5FF"/>
<path d="M30 13.8003C20.059 13.8003 12 21.8599 12 31.8004V31.963C13.2854 30.3293 15.2805 29.2801 17.5207 29.2801C20.2371 29.2801 21.0934 30.8237 22.2602 33.0814C23.4275 30.8238 27.2837 29.2801 30.0006 29.2801C32.717 29.2801 36.5732 30.8237 37.7409 33.0814C38.9077 30.8238 39.7636 29.2801 42.4805 29.2801C44.7195 29.2801 46.7146 30.3293 48 31.963V31.8004C48 21.8599 39.9416 13.8003 30 13.8003Z" fill="#00C5FF"/>
<path d="M30.0021 29.2801C32.7185 29.2801 36.5747 30.8236 37.7425 33.0814C37.7425 21.6633 33.0184 16.0789 31.2057 13.8399C30.808 13.8146 30.4064 13.8003 30.0015 13.8003C29.5972 13.8003 29.1957 13.8146 28.798 13.8399C26.9848 16.0789 22.2617 21.6633 22.2617 33.0814C23.4289 30.8236 27.2852 29.2801 30.0021 29.2801Z" fill="white"/>
<path d="M19.5151 46.224C23.0011 46.224 25.8271 43.398 25.8271 39.912C25.8271 36.426 23.0011 33.6 19.5151 33.6C16.0291 33.6 13.2031 36.426 13.2031 39.912C13.2031 43.398 16.0291 46.224 19.5151 46.224Z" fill="#0052FE"/>
<path d="M19.5165 44.825C22.2298 44.825 24.4294 42.6254 24.4294 39.912C24.4294 37.1987 22.2298 34.9991 19.5165 34.9991C16.8031 34.9991 14.6035 37.1987 14.6035 39.912C14.6035 42.6254 16.8031 44.825 19.5165 44.825Z" fill="white"/>
<path d="M19.5173 44.4604C22.0293 44.4604 24.0658 42.4239 24.0658 39.9119C24.0658 37.3998 22.0293 35.3634 19.5173 35.3634C17.0052 35.3634 14.9688 37.3998 14.9688 39.9119C14.9688 42.4239 17.0052 44.4604 19.5173 44.4604Z" fill="#00C5FF"/>
<path d="M20.4905 39.2167C19.8592 38.7361 19.5481 38.5005 19.5481 38.2744C19.5481 38.2083 19.5859 38.1328 19.6708 38.1328C19.7464 38.1328 19.9159 38.4911 19.9819 38.4911L21.2732 38.425C21.3389 38.4156 21.3766 38.3778 21.3766 38.3215C21.3766 37.4921 20.8488 36.7759 19.9819 36.5969C19.9819 36.0408 19.9819 35.9845 19.9064 35.9845H19.2185C19.1808 35.9845 19.1525 36.0223 19.1525 36.0694V36.5878C18.2758 36.7671 17.8046 37.5208 17.8046 38.237C17.8046 38.9154 18.1535 39.4716 18.6904 39.8578C19.4349 40.3951 19.661 40.6023 19.661 40.8474C19.661 40.9701 19.5761 41.0546 19.4538 41.0546C19.2371 41.0546 19.086 40.8568 19.0203 40.5268C19.0015 40.4422 18.9731 40.4234 18.9165 40.4234L17.7197 40.4894C17.6725 40.4989 17.6445 40.5268 17.6445 40.574C17.6445 41.6863 18.1629 42.3364 19.1525 42.5154C19.1525 43.081 19.1525 43.1467 19.2276 43.1467H19.9061C19.9438 43.1467 19.9816 43.1089 19.9816 43.0712V42.5245C20.8579 42.3549 21.3857 41.7139 21.3857 40.7715C21.3861 40.1871 21.075 39.6596 20.4905 39.2167Z" fill="white"/>
<path d="M39.9136 46.224C43.3996 46.224 46.2256 43.398 46.2256 39.912C46.2256 36.426 43.3996 33.6 39.9136 33.6C36.4275 33.6 33.6016 36.426 33.6016 39.912C33.6016 43.398 36.4275 46.224 39.9136 46.224Z" fill="#0052FE"/>
<path d="M39.9149 44.825C42.6283 44.825 44.8279 42.6254 44.8279 39.912C44.8279 37.1987 42.6283 34.9991 39.9149 34.9991C37.2016 34.9991 35.002 37.1987 35.002 39.912C35.002 42.6254 37.2016 44.825 39.9149 44.825Z" fill="white"/>
<path d="M39.9157 44.4604C42.4278 44.4604 44.4642 42.4239 44.4642 39.9119C44.4642 37.3998 42.4278 35.3634 39.9157 35.3634C37.4036 35.3634 35.3672 37.3998 35.3672 39.9119C35.3672 42.4239 37.4036 44.4604 39.9157 44.4604Z" fill="#00C5FF"/>
<path d="M40.889 39.2167C40.2577 38.7361 39.9466 38.5005 39.9466 38.2744C39.9466 38.2083 39.9843 38.1328 40.0693 38.1328C40.1448 38.1328 40.3143 38.4911 40.3804 38.4911L41.6716 38.425C41.7373 38.4156 41.7751 38.3778 41.7751 38.3215C41.7751 37.4921 41.2472 36.7759 40.3804 36.5969C40.3804 36.0408 40.3804 35.9845 40.3049 35.9845H39.617C39.5792 35.9845 39.5509 36.0223 39.5509 36.0694V36.5878C38.6742 36.7671 38.2031 37.5208 38.2031 38.237C38.2031 38.9154 38.5519 39.4716 39.0888 39.8578C39.8333 40.3951 40.0595 40.6023 40.0595 40.8474C40.0595 40.9701 39.9745 41.0546 39.8522 41.0546C39.6355 41.0546 39.4845 40.8568 39.4188 40.5268C39.3999 40.4422 39.3716 40.4234 39.315 40.4234L38.1181 40.4894C38.0709 40.4989 38.043 40.5268 38.043 40.574C38.043 41.6863 38.5613 42.3364 39.5509 42.5154C39.5509 43.081 39.5509 43.1467 39.6261 43.1467H40.3045C40.3423 43.1467 40.38 43.1089 40.38 43.0712V42.5245C41.2563 42.3549 41.7841 41.7139 41.7841 40.7715C41.7845 40.1871 41.4734 39.6596 40.889 39.2167Z" fill="white"/>
</svg>
