<svg width="254" height="245" viewBox="0 0 254 245" fill="none" xmlns="http://www.w3.org/2000/svg">
<rect width="254" height="245" fill="white"/>
<path d="M72.3374 217.605H51.1406V217.765H72.3374V217.605Z" fill="#DCE7FF"/>
<path d="M132.659 215.87H127.098V216.03H132.659V215.87Z" fill="#DCE7FF"/>
<path d="M170.905 205.829H185.977V139.883H170.905V205.829Z" fill="#DCE7FF"/>
<path d="M116.728 207.736H183.09V205.829H116.728V207.736Z" fill="#DCE7FF"/>
<path d="M170.903 139.883H113.828V205.829H170.903V139.883Z" fill="#DCE7FF"/>
<path d="M164.976 143.582H119.754V171.384H164.976V143.582Z" fill="#DCE7FF"/>
<path d="M164.976 174.328H119.754V202.13H164.976V174.328Z" fill="#DCE7FF"/>
<path d="M154.089 148.427H130.646C129.913 148.428 129.187 148.284 128.51 148.003C127.833 147.723 127.218 147.311 126.7 146.791C126.183 146.272 125.773 145.656 125.495 144.978C125.216 144.3 125.075 143.573 125.078 142.84H159.638C159.642 143.571 159.501 144.296 159.223 144.973C158.946 145.65 158.538 146.266 158.023 146.785C157.507 147.304 156.895 147.716 156.22 147.998C155.545 148.28 154.821 148.426 154.089 148.427Z" fill="#DCE7FF"/>
<path d="M154.091 179.173H130.648C129.173 179.173 127.758 178.587 126.715 177.544C125.672 176.501 125.086 175.086 125.086 173.611H159.646C159.646 175.085 159.061 176.499 158.019 177.542C156.978 178.584 155.565 179.171 154.091 179.173Z" fill="#DCE7FF"/>
<path d="M232.459 205.829H247.531V139.883H232.459V205.829Z" fill="#DCE7FF"/>
<path d="M178.275 207.736H244.637V205.829H178.275V207.736Z" fill="#DCE7FF"/>
<path d="M232.458 139.883H175.383V205.829H232.458V139.883Z" fill="#DCE7FF"/>
<path d="M226.531 143.582H181.309V171.384H226.531V143.582Z" fill="#DCE7FF"/>
<path d="M226.531 174.328H181.309V202.13H226.531V174.328Z" fill="#DCE7FF"/>
<path d="M215.638 148.427H192.194C190.719 148.427 189.305 147.841 188.262 146.798C187.219 145.755 186.633 144.341 186.633 142.866H221.193C221.193 144.34 220.608 145.753 219.566 146.796C218.525 147.839 217.112 148.426 215.638 148.427Z" fill="#DCE7FF"/>
<path d="M215.638 179.173H192.194C190.719 179.173 189.305 178.587 188.262 177.544C187.219 176.501 186.633 175.086 186.633 173.611H221.193C221.193 175.085 220.608 176.499 219.566 177.542C218.525 178.584 217.112 179.171 215.638 179.173Z" fill="#DCE7FF"/>
<path d="M27.4997 207.736H24.6133V199.525H30.5269L27.4997 207.736Z" fill="#DCE7FF"/>
<path d="M65.8541 164.798H71.0829C72.2059 164.802 73.3178 164.577 74.351 164.136C75.3841 163.696 76.3169 163.051 77.0925 162.238H59.8125C60.5913 163.055 61.5292 163.704 62.5683 164.144C63.6074 164.584 64.7256 164.807 65.8541 164.798Z" fill="#DCE7FF"/>
<path d="M37.1954 164.798H42.4306C43.5535 164.801 44.6653 164.576 45.6984 164.136C46.7315 163.696 47.6643 163.05 48.4402 162.238H31.1602C31.9387 163.054 32.8756 163.701 33.9134 164.142C34.9512 164.582 36.0681 164.805 37.1954 164.798Z" fill="#DCE7FF"/>
<path d="M65.4023 153.387C65.4011 154.039 65.5933 154.677 65.9547 155.22C66.3161 155.763 66.8304 156.186 67.4326 156.437C68.0347 156.687 68.6977 156.754 69.3374 156.627C69.9772 156.501 70.5651 156.187 71.0267 155.726C71.4883 155.266 71.8028 154.679 71.9305 154.039C72.0582 153.399 71.9933 152.736 71.7441 152.134C71.4948 151.531 71.0723 151.016 70.5302 150.654C69.988 150.291 69.3505 150.098 68.6983 150.098C67.8258 150.099 66.9894 150.446 66.3718 151.063C65.7543 151.679 65.4057 152.515 65.4023 153.387Z" fill="#DCE7FF"/>
<path d="M48.9219 153.918C48.9219 154.569 49.1148 155.205 49.4763 155.746C49.8377 156.287 50.3515 156.709 50.9526 156.958C51.5537 157.207 52.2151 157.272 52.8532 157.145C53.4914 157.018 54.0775 156.705 54.5376 156.245C54.9976 155.784 55.3109 155.198 55.4379 154.56C55.5648 153.922 55.4997 153.261 55.2507 152.66C55.0017 152.058 54.5801 151.545 54.0391 151.183C53.4981 150.822 52.8621 150.629 52.2115 150.629C51.339 150.629 50.5023 150.975 49.8854 151.592C49.2685 152.209 48.9219 153.046 48.9219 153.918Z" fill="#DCE7FF"/>
<path d="M24.6125 207.73H39.8125L39.8125 159.806H24.6125L24.6125 207.73Z" fill="#DCE7FF"/>
<path d="M81.4133 207.73H96.6133V159.806H81.4133V207.73Z" fill="#DCE7FF"/>
<path d="M24.6184 202.693H83.9336V159.806H24.6184L24.6184 202.693Z" fill="#DCE7FF"/>
<path d="M81.0467 207.736H83.9331V199.525H78.0195L81.0467 207.736Z" fill="#DCE7FF"/>
<path d="M70.188 154.539C72.0048 154.539 73.4776 153.066 73.4776 151.25C73.4776 149.433 72.0048 147.96 70.188 147.96C68.3712 147.96 66.8984 149.433 66.8984 151.25C66.8984 153.066 68.3712 154.539 70.188 154.539Z" fill="#DCE7FF"/>
<path d="M74.5892 155.826C76.8195 155.826 78.6276 154.018 78.6276 151.787C78.6276 149.557 76.8195 147.749 74.5892 147.749C72.3588 147.749 70.5508 149.557 70.5508 151.787C70.5508 154.018 72.3588 155.826 74.5892 155.826Z" fill="#DCE7FF"/>
<path d="M62.5508 148.069C62.5495 148.868 62.7853 149.649 63.2283 150.314C63.6712 150.979 64.3015 151.498 65.0393 151.804C65.7771 152.111 66.5893 152.192 67.3731 152.037C68.1569 151.882 68.8771 151.498 69.4425 150.933C70.0079 150.369 70.3932 149.649 70.5495 148.865C70.7059 148.082 70.6263 147.27 70.3208 146.531C70.0153 145.793 69.4977 145.162 68.8335 144.718C68.1692 144.274 67.3882 144.037 66.5892 144.037C65.5198 144.038 64.4945 144.464 63.7377 145.219C62.9809 145.975 62.5542 146.999 62.5508 148.069Z" fill="#DCE7FF"/>
<path d="M56.1523 149.099C56.1511 149.898 56.3869 150.68 56.8298 151.345C57.2728 152.009 57.9031 152.528 58.6409 152.835C59.3787 153.141 60.1909 153.222 60.9747 153.067C61.7585 152.912 62.4786 152.528 63.0441 151.963C63.6095 151.399 63.9947 150.679 64.1511 149.896C64.3074 149.112 64.2278 148.3 63.9223 147.562C63.6169 146.823 63.0993 146.192 62.435 145.748C61.7708 145.304 60.9897 145.067 60.1907 145.067C59.1208 145.067 58.0946 145.492 57.3374 146.248C56.5803 147.004 56.154 148.029 56.1523 149.099Z" fill="#DCE7FF"/>
<path d="M58.8594 152.357C58.8594 153.116 59.0846 153.859 59.5065 154.49C59.9285 155.122 60.5282 155.614 61.2299 155.905C61.9315 156.195 62.7036 156.271 63.4485 156.123C64.1934 155.975 64.8776 155.609 65.4147 155.072C65.9517 154.535 66.3174 153.851 66.4656 153.106C66.6138 152.361 66.5377 151.589 66.2471 150.887C65.9564 150.186 65.4642 149.586 64.8328 149.164C64.2013 148.742 63.4589 148.517 62.6994 148.517C61.6809 148.517 60.7042 148.921 59.9841 149.642C59.2639 150.362 58.8594 151.338 58.8594 152.357Z" fill="#DCE7FF"/>
<path d="M52.1797 152.107C52.1797 152.927 52.4229 153.729 52.8786 154.411C53.3343 155.093 53.982 155.625 54.7398 155.939C55.4976 156.253 56.3315 156.335 57.136 156.175C57.9404 156.015 58.6794 155.62 59.2594 155.04C59.8394 154.46 60.2344 153.721 60.3944 152.916C60.5544 152.112 60.4723 151.278 60.1584 150.52C59.8445 149.762 59.313 149.115 58.6309 148.659C57.9489 148.203 57.1471 147.96 56.3269 147.96C55.227 147.96 54.1721 148.397 53.3944 149.175C52.6166 149.952 52.1797 151.007 52.1797 152.107Z" fill="#DCE7FF"/>
<path d="M81.0286 153.387C81.0286 153.387 80.5806 159.787 63.2558 159.787C45.931 159.787 45.4766 153.387 45.4766 153.387H81.0286Z" fill="#DCE7FF"/>
<path d="M127 236.638C195.533 236.638 251.089 233.395 251.089 229.394C251.089 225.392 195.533 222.149 127 222.149C58.467 222.149 2.91016 225.392 2.91016 229.394C2.91016 233.395 58.467 236.638 127 236.638Z" fill="#DCE7FF"/>
<path d="M164.612 39.736C164.092 38.0162 163.402 36.3526 162.552 34.7696L163.832 30.5776L155.556 22.296L151.364 23.576C149.781 22.726 148.118 22.0356 146.398 21.5152L144.337 17.6752H132.625L130.571 21.5152C128.851 22.0344 127.187 22.7248 125.604 23.576L121.412 22.296L113.131 30.5776L114.411 34.7696C113.566 36.3541 112.877 38.0175 112.356 39.736L108.484 41.7968V53.5088L112.356 55.5632C112.876 57.2822 113.564 58.9457 114.411 60.5296L113.131 64.7216L121.412 73.0032L125.604 71.7232C127.188 72.5696 128.852 73.2578 130.571 73.7776L132.625 77.6176H144.337L146.398 73.7776C148.116 73.2565 149.78 72.5684 151.364 71.7232L155.556 73.0032L163.838 64.7216L162.558 60.5296C163.409 58.9472 164.1 57.2834 164.619 55.5632L168.491 53.5088V41.7968L164.612 39.736ZM138.481 64.2864C135.19 64.2864 131.973 63.3105 129.236 61.4821C126.5 59.6536 124.367 57.0548 123.108 54.0142C121.848 50.9737 121.519 47.6279 122.161 44.4001C122.803 41.1723 124.388 38.2073 126.715 35.8801C129.042 33.553 132.007 31.9682 135.235 31.3261C138.463 30.6841 141.808 31.0136 144.849 32.273C147.89 33.5325 150.488 35.6653 152.317 38.4017C154.145 41.1381 155.121 44.3553 155.121 47.6464C155.121 52.0596 153.368 56.292 150.247 59.4127C147.127 62.5333 142.894 64.2864 138.481 64.2864Z" fill="#407BFF"/>
<path d="M164.612 39.736C164.092 38.0162 163.402 36.3526 162.552 34.7696L163.832 30.5776L155.556 22.296L151.364 23.576C149.781 22.726 148.118 22.0356 146.398 21.5152L144.337 17.6752H132.625L130.571 21.5152C128.851 22.0344 127.187 22.7248 125.604 23.576L121.412 22.296L113.131 30.5776L114.411 34.7696C113.566 36.3541 112.877 38.0175 112.356 39.736L108.484 41.7968V53.5088L112.356 55.5632C112.876 57.2822 113.564 58.9457 114.411 60.5296L113.131 64.7216L121.412 73.0032L125.604 71.7232C127.188 72.5696 128.852 73.2578 130.571 73.7776L132.625 77.6176H144.337L146.398 73.7776C148.116 73.2565 149.78 72.5684 151.364 71.7232L155.556 73.0032L163.838 64.7216L162.558 60.5296C163.409 58.9472 164.1 57.2834 164.619 55.5632L168.491 53.5088V41.7968L164.612 39.736ZM138.481 64.2864C135.19 64.2864 131.973 63.3105 129.236 61.4821C126.5 59.6536 124.367 57.0548 123.108 54.0142C121.848 50.9737 121.519 47.6279 122.161 44.4001C122.803 41.1723 124.388 38.2073 126.715 35.8801C129.042 33.553 132.007 31.9682 135.235 31.3261C138.463 30.6841 141.808 31.0136 144.849 32.273C147.89 33.5325 150.488 35.6653 152.317 38.4017C154.145 41.1381 155.121 44.3553 155.121 47.6464C155.121 52.0596 153.368 56.292 150.247 59.4127C147.127 62.5333 142.894 64.2864 138.481 64.2864Z" fill="url(#paint0_linear_579_10723)"/>
<path d="M138.482 42.136C137.391 42.136 136.324 42.4595 135.417 43.0657C134.509 43.6719 133.802 44.5335 133.385 45.5416C132.967 46.5497 132.858 47.6589 133.071 48.7291C133.284 49.7992 133.809 50.7822 134.581 51.5538C135.352 52.3253 136.335 52.8507 137.405 53.0636C138.476 53.2764 139.585 53.1672 140.593 52.7496C141.601 52.3321 142.463 51.625 143.069 50.7178C143.675 49.8105 143.998 48.7439 143.998 47.6528C143.998 46.1896 143.417 44.7864 142.383 43.7518C141.348 42.7172 139.945 42.136 138.482 42.136Z" fill="#D9E5FF"/>
<path d="M88.1657 37.432C87.422 34.9734 86.4381 32.5939 85.2281 30.328L87.0585 24.3376L75.2377 12.5168L69.2409 14.3536C66.9831 13.1298 64.6045 12.1432 62.1433 11.4096L59.2057 5.88H42.4697L39.5257 11.4096C37.0654 12.1456 34.6871 13.1321 32.4281 14.3536L26.4377 12.5168L14.6041 24.3504L16.4346 30.3408C15.2193 32.6041 14.2351 34.9842 13.4969 37.4448L7.96094 40.3824V57.1184L13.4905 60.0624C14.2276 62.5214 15.2118 64.8994 16.4281 67.16L14.5977 73.144L26.4313 84.9776L32.4217 83.1472C34.6831 84.3649 37.0636 85.3471 39.5257 86.0784L42.4697 91.6144H59.2057L62.1433 86.0848C64.6025 85.3456 66.9805 84.3593 69.2409 83.1408L75.2377 84.9712L87.0713 73.1376L85.2409 67.1472C86.4475 64.8836 87.4272 62.5061 88.1657 60.0496L93.6954 57.1056V40.3696L88.1657 37.432ZM50.8345 79.0768C44.8334 79.0768 38.967 77.2973 33.9772 73.9632C28.9874 70.6291 25.0984 65.8903 22.8018 60.3459C20.5053 54.8016 19.9044 48.7008 21.0752 42.8149C22.2459 36.9291 25.1358 31.5226 29.3792 27.2791C33.6227 23.0356 39.0292 20.1458 44.915 18.975C50.8009 17.8043 56.9017 18.4051 62.4461 20.7017C67.9904 22.9982 72.7293 26.8873 76.0633 31.8771C79.3974 36.8669 81.1769 42.7332 81.1769 48.7344C81.1769 52.719 80.3921 56.6646 78.8673 60.3459C77.3424 64.0273 75.1074 67.3722 72.2899 70.1897C69.4723 73.0073 66.1274 75.2423 62.4461 76.7671C58.7648 78.292 54.8192 79.0768 50.8345 79.0768Z" fill="url(#paint1_linear_579_10723)"/>
<path opacity="0.2" d="M50.8364 22.648C45.676 22.6493 40.6319 24.1807 36.3418 27.0485C32.0517 29.9164 28.7083 33.992 26.7344 38.76C24.7604 43.5279 24.2446 48.7741 25.2522 53.8352C26.2597 58.8963 28.7453 63.545 32.3947 67.1935C36.0441 70.842 40.6934 73.3264 45.7547 74.3327C50.8161 75.339 56.0621 74.8219 60.8296 72.8468C65.597 70.8717 69.6718 67.5273 72.5386 63.2365C75.4055 58.9457 76.9356 53.9012 76.9356 48.7408C76.9271 41.8221 74.1745 35.1892 69.2816 30.2975C64.3887 25.4058 57.7552 22.6548 50.8364 22.648ZM50.8364 71.3584C46.3628 71.3597 41.9893 70.0343 38.269 67.5498C34.5487 65.0653 31.6488 61.5333 29.9359 57.4006C28.2231 53.2679 27.7742 48.7201 28.6462 44.3323C29.5182 39.9445 31.6718 35.9138 34.8347 32.75C37.9976 29.5862 42.0276 27.4315 46.4152 26.5583C50.8027 25.6851 55.3507 26.1326 59.4839 27.8443C63.6171 29.5559 67.1499 32.4549 69.6354 36.1745C72.1209 39.8941 73.4476 44.2672 73.4476 48.7408C73.4408 54.7362 71.0566 60.4841 66.8178 64.7241C62.5791 68.9641 56.8318 71.3499 50.8364 71.3584Z" fill="#407BFF"/>
<path d="M150.679 114.142C150.509 114.142 150.347 114.075 150.227 113.955C150.107 113.835 150.039 113.672 150.039 113.502V112.222C150.039 112.053 150.107 111.89 150.227 111.77C150.347 111.65 150.509 111.582 150.679 111.582C150.849 111.582 151.012 111.65 151.132 111.77C151.252 111.89 151.319 112.053 151.319 112.222V113.502C151.319 113.672 151.252 113.835 151.132 113.955C151.012 114.075 150.849 114.142 150.679 114.142Z" fill="#407BFF"/>
<path d="M140.716 97.6048C140.128 97.2271 139.669 96.6805 139.398 96.0368C139.33 95.8806 139.204 95.7575 139.046 95.6945C138.889 95.6315 138.712 95.6338 138.556 95.7008C138.4 95.7679 138.277 95.8942 138.214 96.052C138.151 96.2099 138.153 96.3863 138.22 96.5424C138.596 97.4165 139.221 98.1601 140.018 98.68C140.121 98.7465 140.241 98.7821 140.364 98.7824C140.503 98.7834 140.638 98.7395 140.749 98.6571C140.861 98.5748 140.942 98.4585 140.982 98.3257C141.022 98.193 141.017 98.0509 140.969 97.9209C140.921 97.7909 140.832 97.68 140.716 97.6048Z" fill="#407BFF"/>
<path d="M138.484 89.6112C138.653 89.6112 138.816 89.5438 138.936 89.4238C139.056 89.3037 139.124 89.1409 139.124 88.9712V86.52C139.124 86.3503 139.056 86.1875 138.936 86.0675C138.816 85.9474 138.653 85.88 138.484 85.88C138.314 85.88 138.151 85.9474 138.031 86.0675C137.911 86.1875 137.844 86.3503 137.844 86.52V88.9712C137.844 89.1409 137.911 89.3037 138.031 89.4238C138.151 89.5438 138.314 89.6112 138.484 89.6112Z" fill="#407BFF"/>
<path d="M145.144 98.168H142.687C142.517 98.168 142.354 98.2354 142.234 98.3555C142.114 98.4755 142.047 98.6383 142.047 98.808C142.047 98.9777 142.114 99.1405 142.234 99.2605C142.354 99.3806 142.517 99.448 142.687 99.448H145.144C145.314 99.448 145.477 99.3806 145.597 99.2605C145.717 99.1405 145.784 98.9777 145.784 98.808C145.784 98.6383 145.717 98.4755 145.597 98.3555C145.477 98.2354 145.314 98.168 145.144 98.168Z" fill="#407BFF"/>
<path d="M139.124 93.88V91.4288C139.124 91.259 139.056 91.0963 138.936 90.9762C138.816 90.8562 138.653 90.7888 138.484 90.7888C138.314 90.7888 138.151 90.8562 138.031 90.9762C137.911 91.0963 137.844 91.259 137.844 91.4288V93.88C137.844 94.0497 137.911 94.2125 138.031 94.3325C138.151 94.4526 138.314 94.52 138.484 94.52C138.653 94.52 138.816 94.4526 138.936 94.3325C139.056 94.2125 139.124 94.0497 139.124 93.88Z" fill="#407BFF"/>
<path d="M151.283 102.328C151.26 102.16 151.172 102.008 151.038 101.905C150.904 101.801 150.734 101.756 150.566 101.778C150.482 101.792 150.403 101.822 150.331 101.867C150.259 101.912 150.197 101.97 150.149 102.039C150.1 102.108 150.065 102.186 150.047 102.269C150.028 102.351 150.026 102.437 150.041 102.52C150.061 102.668 150.072 102.818 150.073 102.968V104.888C150.073 105.058 150.14 105.221 150.26 105.341C150.38 105.461 150.543 105.528 150.713 105.528C150.883 105.528 151.046 105.461 151.166 105.341C151.286 105.221 151.353 105.058 151.353 104.888V102.968C151.343 102.753 151.32 102.54 151.283 102.328Z" fill="#407BFF"/>
<path d="M150.679 106.674C150.509 106.674 150.347 106.741 150.227 106.861C150.107 106.981 150.039 107.144 150.039 107.314V109.771C150.039 109.941 150.107 110.104 150.227 110.224C150.347 110.344 150.509 110.411 150.679 110.411C150.849 110.411 151.012 110.344 151.132 110.224C151.252 110.104 151.319 109.941 151.319 109.771V107.314C151.319 107.144 151.252 106.981 151.132 106.861C151.012 106.741 150.849 106.674 150.679 106.674Z" fill="#407BFF"/>
<path d="M150.125 99.7872C149.498 99.0716 148.671 98.561 147.75 98.3216C147.669 98.3006 147.584 98.2958 147.501 98.3076C147.417 98.3194 147.337 98.3475 147.264 98.3903C147.192 98.4331 147.129 98.4897 147.078 98.557C147.027 98.6243 146.991 98.7009 146.97 98.7824C146.949 98.8639 146.944 98.9488 146.956 99.0321C146.967 99.1155 146.995 99.1957 147.038 99.2682C147.081 99.3407 147.138 99.4041 147.205 99.4547C147.272 99.5053 147.349 99.5422 147.43 99.5632C148.103 99.7367 148.707 100.109 149.165 100.632C149.225 100.7 149.299 100.755 149.381 100.793C149.464 100.83 149.554 100.849 149.645 100.85C149.768 100.849 149.888 100.814 149.991 100.747C150.095 100.68 150.176 100.585 150.227 100.473C150.278 100.361 150.295 100.237 150.277 100.115C150.259 99.9934 150.206 99.8796 150.125 99.7872Z" fill="#407BFF"/>
<path d="M138.484 84.6768C138.314 84.6768 138.151 84.6094 138.031 84.4893C137.911 84.3693 137.844 84.2065 137.844 84.0368V82.7568C137.844 82.5871 137.911 82.4243 138.031 82.3042C138.151 82.1842 138.314 82.1168 138.484 82.1168C138.653 82.1168 138.816 82.1842 138.936 82.3042C139.056 82.4243 139.124 82.5871 139.124 82.7568V84.0368C139.124 84.2065 139.056 84.3693 138.936 84.4893C138.816 84.6094 138.653 84.6768 138.484 84.6768Z" fill="#407BFF"/>
<path d="M192.478 40.2009C192.478 40.2009 191.828 35.9165 194.962 33.1381C198.096 30.3597 197.819 28.7482 196.924 28.5315C196.029 28.3147 195.201 31.0709 193.823 31.8267C193.823 31.8267 193.779 27.9035 195.179 26.4587C196.579 25.014 197.313 21.2909 195.979 21.2242C194.646 21.1575 194.512 23.4469 194.24 25.0529C193.968 26.6588 192.478 28.9427 192.478 28.9427C192.478 28.9427 192.189 25.4307 191.289 23.9859C190.389 22.5412 192.795 19.2404 191.845 17.7956C190.895 16.3508 189.267 19.1015 189.405 22.1966C189.544 25.2918 191.628 28.5981 191.123 31.8322C191.123 31.8322 190.211 29.565 189.394 29.3539C188.577 29.1427 187.727 27.6479 187.199 27.0922C186.671 26.5365 185.96 28.4592 187.199 30.2485C188.439 32.0378 191.606 36.8279 191.123 40.6954L192.478 40.2009Z" fill="#DCE7FF"/>
<path d="M194.349 38.2448L195.377 44.6797C195.451 45.1473 195.422 45.6254 195.294 46.081C195.165 46.5366 194.94 46.959 194.632 47.3192C194.325 47.6793 193.943 47.9685 193.514 48.1671C193.084 48.3657 192.616 48.4688 192.143 48.4695H191.031C190.558 48.469 190.091 48.3659 189.661 48.1672C189.231 47.9686 188.85 47.6792 188.543 47.319C188.236 46.9587 188.011 46.5362 187.883 46.0806C187.756 45.6249 187.728 45.147 187.803 44.6797L188.825 38.2448H194.349Z" fill="#DCE7FF"/>
<path d="M178.84 49.8198L251.324 49.8198V46.0967L178.84 46.0967V49.8198Z" fill="#DCE7FF"/>
<path d="M244.797 46.0911H247.992V32.3656H244.797V46.0911Z" fill="#DCE7FF"/>
<path d="M229.352 46.0911H232.547V32.3656H229.352V46.0911Z" fill="#DCE7FF"/>
<path d="M209.492 45.5421L212.641 46.0848L214.972 32.5589L211.823 32.0161L209.492 45.5421Z" fill="#DCE7FF"/>
<path d="M240.832 46.0967H244.027V34.1772H240.832V46.0967Z" fill="#DCE7FF"/>
<path d="M233.5 46.0967H236.695V34.1772H233.5V46.0967Z" fill="#DCE7FF"/>
<path d="M214.973 46.0967H218.168V34.1772H214.973V46.0967Z" fill="#DCE7FF"/>
<path d="M222.58 45.3873L225.699 46.0805L228.285 34.4449L225.166 33.7517L222.58 45.3873Z" fill="#DCE7FF"/>
<path d="M238.077 46.0911H239.672V31.6821H238.077V46.0911Z" fill="#DCE7FF"/>
<path d="M219.085 46.0911H220.68V31.6821H219.085V46.0911Z" fill="#DCE7FF"/>
<path d="M251.324 73.8922H178.84V77.6153H251.324V73.8922Z" fill="#DCE7FF"/>
<path d="M185.375 60.1667H182.18V73.8922H185.375V60.1667Z" fill="#DCE7FF"/>
<path d="M200.812 60.1667H197.617V73.8922H200.812V60.1667Z" fill="#DCE7FF"/>
<path d="M218.344 59.8186L215.195 60.3614L217.527 73.8874L220.676 73.3446L218.344 59.8186Z" fill="#DCE7FF"/>
<path d="M189.332 61.9783H186.137V73.8978H189.332V61.9783Z" fill="#DCE7FF"/>
<path d="M196.668 61.9783H193.473V73.8978H196.668V61.9783Z" fill="#DCE7FF"/>
<path d="M215.195 61.9783H212V73.8978H215.195V61.9783Z" fill="#DCE7FF"/>
<path d="M205.01 61.5565L201.891 62.2497L204.477 73.8853L207.596 73.1921L205.01 61.5565Z" fill="#DCE7FF"/>
<path d="M192.087 59.4833H190.492V73.8922H192.087V59.4833Z" fill="#DCE7FF"/>
<path d="M211.079 59.4833H209.484V73.8922H211.079V59.4833Z" fill="#DCE7FF"/>
<path d="M244.368 63.0284H228.809V73.7699H244.368V63.0284Z" fill="#DCE7FF"/>
<path d="M216.601 146.68H32.2812V151.16H216.601V146.68Z" fill="url(#paint2_linear_579_10723)"/>
<path d="M47.7109 151.282V227.019H49.7461L52.3061 151.282H47.7109Z" fill="url(#paint3_linear_579_10723)"/>
<path d="M71.7383 151.282V227.019H73.7735L76.3335 151.282H71.7383Z" fill="url(#paint4_linear_579_10723)"/>
<path d="M201.771 151.282V227.019H199.742L197.176 151.282H201.771Z" fill="url(#paint5_linear_579_10723)"/>
<path d="M177.751 151.282V227.019H175.716L173.156 151.282H177.751Z" fill="url(#paint6_linear_579_10723)"/>
<path d="M129.393 117.618L122.705 144.862L122.52 146.366H168.651L168.843 144.862L175.524 117.618H129.393Z" fill="#407BFF"/>
<path d="M129.393 117.618L122.705 144.862L122.52 146.366H168.651L168.843 144.862L175.524 117.618H129.393Z" fill="url(#paint7_linear_579_10723)"/>
<path d="M174.112 117.618H127.975L121.293 144.862H167.424L174.112 117.618Z" fill="url(#paint8_linear_579_10723)"/>
<path d="M166.444 143.614L172.524 118.866H128.953L122.879 143.614H166.444Z" fill="white"/>
<path d="M155.403 144.862L155.211 146.366H104.414L104.6 144.862H155.403Z" fill="#407BFF"/>
<path opacity="0.6" d="M155.403 144.862L155.211 146.366H104.414L104.6 144.862H155.403Z" fill="white"/>
<path d="M59.4411 141.413C59.4089 140.438 59.0273 139.507 58.3657 138.79C57.7042 138.074 56.807 137.619 55.8379 137.509V136.773C55.8371 136.73 55.8278 136.688 55.8105 136.649C55.7933 136.61 55.7684 136.575 55.7374 136.546C55.7064 136.517 55.6699 136.494 55.63 136.479C55.5901 136.464 55.5477 136.457 55.5051 136.459H48.5931C48.5502 136.457 48.5074 136.464 48.4672 136.479C48.4269 136.494 48.39 136.517 48.3585 136.546C48.327 136.575 48.3015 136.61 48.2836 136.649C48.2656 136.688 48.2556 136.73 48.2539 136.773V146.373H55.8379V145.323C56.8086 145.214 57.7074 144.759 58.3693 144.04C59.0312 143.322 59.4118 142.389 59.4411 141.413ZM55.8379 144.082V138.75C56.4775 138.845 57.0619 139.166 57.4844 139.655C57.9069 140.144 58.1394 140.769 58.1394 141.416C58.1394 142.063 57.9069 142.687 57.4844 143.177C57.0619 143.666 56.4775 143.987 55.8379 144.082Z" fill="url(#paint9_linear_579_10723)"/>
<path d="M188.801 146.366H195.226L193.326 132.293H188.801V146.366Z" fill="url(#paint10_linear_579_10723)"/>
<path d="M179.379 146.366H191.552L193.811 129.893H181.645L179.379 146.366Z" fill="#407BFF"/>
<path d="M179.379 146.366H191.552L193.811 129.893H181.645L179.379 146.366Z" fill="url(#paint11_linear_579_10723)"/>
<path d="M177.754 146.366H190.42L192.685 129.893H180.02L177.754 146.366Z" fill="url(#paint12_linear_579_10723)"/>
<path opacity="0.4" d="M189.298 145.067L191.205 131.192H181.138L179.23 145.067H189.298Z" fill="white"/>
<path d="M93.2553 122.266L92.7305 122.83L92.1673 123.47C91.7897 123.905 91.4121 124.346 91.0537 124.801C90.3369 125.71 89.6457 126.638 88.9993 127.591C87.7132 129.436 86.6397 131.419 85.7993 133.505C85.4078 134.496 85.1037 135.52 84.8905 136.564C84.7881 137.153 84.7241 137.409 84.6921 137.658C84.6566 137.857 84.6566 138.061 84.6921 138.26C84.7994 138.573 84.9678 138.861 85.1875 139.109C85.4073 139.356 85.674 139.557 85.9721 139.7C86.4041 139.966 86.858 140.195 87.3289 140.385C87.5764 140.487 87.8324 140.583 88.0969 140.673C88.3401 140.762 88.6473 140.852 88.8393 140.929V144.455C88.3913 144.519 88.0649 144.57 87.6873 144.596C87.3097 144.622 86.9449 144.628 86.5673 144.596C85.791 144.58 85.0186 144.482 84.2633 144.302C83.4123 144.102 82.5966 143.774 81.8441 143.329C80.9593 142.811 80.199 142.105 79.6169 141.262C79.0176 140.363 78.6202 139.346 78.4521 138.279C78.4093 138.029 78.3815 137.777 78.3689 137.524C78.3562 137.281 78.3562 137.038 78.3689 136.794V136.436C78.3617 136.34 78.3617 136.244 78.3689 136.148L78.4201 135.585C78.5838 134.122 78.8925 132.679 79.3417 131.278C80.2084 128.585 81.4287 126.02 82.9705 123.649C83.7113 122.485 84.5168 121.363 85.3833 120.289C85.8121 119.751 86.2537 119.226 86.7145 118.708C86.9385 118.446 87.1753 118.19 87.4185 117.934C87.6617 117.678 87.8857 117.454 88.2185 117.134L93.2553 122.266Z" fill="url(#paint13_linear_579_10723)"/>
<path d="M93.2553 122.266L92.7305 122.83L92.1673 123.47C91.7897 123.905 91.4121 124.346 91.0537 124.801C90.3369 125.71 89.6457 126.638 88.9993 127.591C87.7132 129.436 86.6397 131.419 85.7993 133.505C85.4078 134.496 85.1037 135.52 84.8905 136.564C84.7881 137.153 84.7241 137.409 84.6921 137.658C84.6566 137.857 84.6566 138.061 84.6921 138.26C84.7994 138.573 84.9678 138.861 85.1875 139.109C85.4073 139.356 85.674 139.557 85.9721 139.7C86.4041 139.966 86.858 140.195 87.3289 140.385C87.5764 140.487 87.8324 140.583 88.0969 140.673C88.3401 140.762 88.6473 140.852 88.8393 140.929V144.455C88.3913 144.519 88.0649 144.57 87.6873 144.596C87.3097 144.622 86.9449 144.628 86.5673 144.596C85.791 144.58 85.0186 144.482 84.2633 144.302C83.4123 144.102 82.5966 143.774 81.8441 143.329C80.9593 142.811 80.199 142.105 79.6169 141.262C79.0176 140.363 78.6202 139.346 78.4521 138.279C78.4093 138.029 78.3815 137.777 78.3689 137.524C78.3562 137.281 78.3562 137.038 78.3689 136.794V136.436C78.3617 136.34 78.3617 136.244 78.3689 136.148L78.4201 135.585C78.5838 134.122 78.8925 132.679 79.3417 131.278C80.2084 128.585 81.4287 126.02 82.9705 123.649C83.7113 122.485 84.5168 121.363 85.3833 120.289C85.8121 119.751 86.2537 119.226 86.7145 118.708C86.9385 118.446 87.1753 118.19 87.4185 117.934C87.6617 117.678 87.8857 117.454 88.2185 117.134L93.2553 122.266Z" fill="#96B7FF"/>
<path d="M87.5664 140.852L90.5488 138.663L92.2448 144.794C92.2448 144.794 89.6016 145.774 87.5856 144.455L87.5664 140.852Z" fill="url(#paint14_linear_579_10723)"/>
<path d="M87.5664 140.852L90.5488 138.663L92.2448 144.794C92.2448 144.794 89.6016 145.774 87.5856 144.455L87.5664 140.852Z" fill="#96B7FF"/>
<path d="M94.6877 137.191L95.8525 142.324L92.2429 144.794L90.5469 138.663L94.6877 137.191Z" fill="url(#paint15_linear_579_10723)"/>
<path d="M94.6877 137.191L95.8525 142.324L92.2429 144.794L90.5469 138.663L94.6877 137.191Z" fill="#96B7FF"/>
<path d="M113.549 98.7401C113.415 99.1177 113.511 99.4953 113.76 99.5785C114.01 99.6617 114.317 99.4313 114.445 99.0537C114.573 98.6761 114.484 98.2921 114.24 98.2089C113.997 98.1257 113.684 98.3561 113.549 98.7401Z" fill="url(#paint16_linear_579_10723)"/>
<path d="M113.549 98.7401C113.415 99.1177 113.511 99.4953 113.76 99.5785C114.01 99.6617 114.317 99.4313 114.445 99.0537C114.573 98.6761 114.484 98.2921 114.24 98.2089C113.997 98.1257 113.684 98.3561 113.549 98.7401Z" fill="#96B7FF"/>
<path d="M113.477 99.4825C113.527 100.801 113.758 102.105 114.162 103.361C113.84 103.453 113.501 103.475 113.17 103.424C112.839 103.373 112.522 103.251 112.242 103.066L113.477 99.4825Z" fill="url(#paint17_linear_579_10723)"/>
<path d="M113.477 99.4825C113.527 100.801 113.758 102.105 114.162 103.361C113.84 103.453 113.501 103.475 113.17 103.424C112.839 103.373 112.522 103.251 112.242 103.066L113.477 99.4825Z" fill="#96B7FF"/>
<path d="M112.936 96.1673C112.984 96.1834 113.036 96.1834 113.083 96.1673C113.364 96.0736 113.663 96.048 113.956 96.0925C114.249 96.137 114.526 96.2504 114.767 96.4233C114.815 96.4582 114.874 96.4737 114.933 96.4668C114.992 96.4598 115.047 96.4309 115.085 96.3857C115.124 96.3406 115.144 96.2825 115.142 96.223C115.14 96.1636 115.116 96.1071 115.074 96.0649C114.773 95.841 114.424 95.6922 114.054 95.631C113.685 95.5698 113.306 95.5979 112.949 95.7129C112.902 95.7289 112.862 95.7591 112.833 95.7993C112.804 95.8394 112.789 95.8875 112.789 95.9369C112.789 95.9863 112.804 96.0344 112.833 96.0745C112.862 96.1147 112.902 96.1449 112.949 96.1609L112.936 96.1673Z" fill="url(#paint18_linear_579_10723)"/>
<path d="M112.936 96.1673C112.984 96.1834 113.036 96.1834 113.083 96.1673C113.364 96.0736 113.663 96.048 113.956 96.0925C114.249 96.137 114.526 96.2504 114.767 96.4233C114.815 96.4582 114.874 96.4737 114.933 96.4668C114.992 96.4598 115.047 96.4309 115.085 96.3857C115.124 96.3406 115.144 96.2825 115.142 96.223C115.14 96.1636 115.116 96.1071 115.074 96.0649C114.773 95.841 114.424 95.6922 114.054 95.631C113.685 95.5698 113.306 95.5979 112.949 95.7129C112.902 95.7289 112.862 95.7591 112.833 95.7993C112.804 95.8394 112.789 95.8875 112.789 95.9369C112.789 95.9863 112.804 96.0344 112.833 96.0745C112.862 96.1147 112.902 96.1449 112.949 96.1609L112.936 96.1673Z" fill="#96B7FF"/>
<path d="M99.5145 100.135C100.231 103.777 100.942 110.452 98.3945 112.884C98.3945 112.884 99.3929 116.577 106.164 116.577C113.607 116.577 109.723 112.884 109.723 112.884C105.659 111.911 105.761 108.897 106.471 106.068L99.5145 100.135Z" fill="url(#paint19_linear_579_10723)"/>
<path d="M99.5145 100.135C100.231 103.777 100.942 110.452 98.3945 112.884C98.3945 112.884 99.3929 116.577 106.164 116.577C113.607 116.577 109.723 112.884 109.723 112.884C105.659 111.911 105.761 108.897 106.471 106.068L99.5145 100.135Z" fill="#96B7FF"/>
<path d="M97.4236 114.151C96.886 112.98 96.3036 111.642 97.5132 111.226C98.8508 110.766 106.172 110.292 108.694 111.156C109.027 111.247 109.339 111.403 109.612 111.616C109.884 111.829 110.111 112.093 110.28 112.395C110.448 112.697 110.555 113.029 110.594 113.372C110.633 113.715 110.602 114.063 110.505 114.394L97.4236 114.151Z" fill="url(#paint20_linear_579_10723)"/>
<path d="M97.4236 114.151C96.886 112.98 96.3036 111.642 97.5132 111.226C98.8508 110.766 106.172 110.292 108.694 111.156C109.027 111.247 109.339 111.403 109.612 111.616C109.884 111.829 110.111 112.093 110.28 112.395C110.448 112.697 110.555 113.029 110.594 113.372C110.633 113.715 110.602 114.063 110.505 114.394L97.4236 114.151Z" fill="#96B7FF"/>
<path d="M122.992 120.398C124.56 123.22 126.243 126.126 127.945 128.916C129.648 131.707 131.433 134.484 133.34 137.019C133.814 137.659 134.307 138.267 134.793 138.875C135.036 139.188 135.292 139.444 135.542 139.732L135.913 140.155L136.009 140.263L136.054 140.315L136.099 140.372C136.397 140.66 136.755 140.879 137.148 141.012C137.753 141.223 138.377 141.375 139.011 141.467C142.122 141.781 145.258 141.744 148.361 141.358L149.334 144.75C148.47 145.134 147.663 145.39 146.806 145.71C145.948 146.03 145.104 146.241 144.246 146.459C142.428 146.914 140.564 147.164 138.691 147.201C137.639 147.218 136.589 147.113 135.561 146.887C134.3 146.637 133.11 146.108 132.08 145.339L131.651 144.987L131.548 144.897L131.484 144.833L131.363 144.711L130.863 144.219C130.537 143.892 130.179 143.579 129.884 143.233C129.244 142.561 128.643 141.889 128.086 141.198C125.85 138.496 123.787 135.655 121.91 132.692C120.976 131.233 120.075 129.759 119.209 128.27C118.339 126.766 117.5 125.294 116.688 123.707L122.992 120.398Z" fill="url(#paint21_linear_579_10723)"/>
<path d="M122.992 120.398C124.56 123.22 126.243 126.126 127.945 128.916C129.648 131.707 131.433 134.484 133.34 137.019C133.814 137.659 134.307 138.267 134.793 138.875C135.036 139.188 135.292 139.444 135.542 139.732L135.913 140.155L136.009 140.263L136.054 140.315L136.099 140.372C136.397 140.66 136.755 140.879 137.148 141.012C137.753 141.223 138.377 141.375 139.011 141.467C142.122 141.781 145.258 141.744 148.361 141.358L149.334 144.75C148.47 145.134 147.663 145.39 146.806 145.71C145.948 146.03 145.104 146.241 144.246 146.459C142.428 146.914 140.564 147.164 138.691 147.201C137.639 147.218 136.589 147.113 135.561 146.887C134.3 146.637 133.11 146.108 132.08 145.339L131.651 144.987L131.548 144.897L131.484 144.833L131.363 144.711L130.863 144.219C130.537 143.892 130.179 143.579 129.884 143.233C129.244 142.561 128.643 141.889 128.086 141.198C125.85 138.496 123.787 135.655 121.91 132.692C120.976 131.233 120.075 129.759 119.209 128.27C118.339 126.766 117.5 125.294 116.688 123.707L122.992 120.398Z" fill="#96B7FF"/>
<path d="M89.4794 114.011C84.8074 115.079 79.457 127.809 79.457 127.809L88.833 134.209C91.165 130.865 93.2341 127.345 95.0218 123.681C97.793 117.883 94.2538 112.916 89.4794 114.011Z" fill="url(#paint22_linear_579_10723)"/>
<path d="M89.4794 114.011C84.8074 115.079 79.457 127.809 79.457 127.809L88.833 134.209C91.165 130.865 93.2341 127.345 95.0218 123.681C97.793 117.883 94.2538 112.916 89.4794 114.011Z" fill="#96B7FF"/>
<g opacity="0.2">
<path d="M92.8194 122.126L88.3906 133.927L88.8258 134.235C88.8258 134.235 90.7458 131.54 92.8194 127.905V122.126Z" fill="url(#paint23_linear_579_10723)"/>
<path d="M92.8194 122.126L88.3906 133.927L88.8258 134.235C88.8258 134.235 90.7458 131.54 92.8194 127.905V122.126Z" fill="#96B7FF"/>
</g>
<path d="M117.142 114.308C117.142 114.308 122.441 120.299 117.437 157.355H90.7935C90.6143 153.265 93.1807 133.323 89.2383 114.052C92.1827 113.485 95.1606 113.109 98.1535 112.926C101.926 112.705 105.709 112.705 109.481 112.926C112.067 113.186 114.629 113.648 117.142 114.308Z" fill="url(#paint24_linear_579_10723)"/>
<path d="M117.142 114.308C117.142 114.308 122.441 120.299 117.437 157.355H90.7935C90.6143 153.265 93.1807 133.323 89.2383 114.052C92.1827 113.485 95.1606 113.109 98.1535 112.926C101.926 112.705 105.709 112.705 109.481 112.926C112.067 113.186 114.629 113.648 117.142 114.308Z" fill="#96B7FF"/>
<g opacity="0.2">
<path d="M114.422 124.98C115.117 129.186 116.934 133.126 119.683 136.385C119.791 133.998 119.836 131.854 119.83 129.94L114.422 124.98Z" fill="url(#paint25_linear_579_10723)"/>
<path d="M114.422 124.98C115.117 129.186 116.934 133.126 119.683 136.385C119.791 133.998 119.836 131.854 119.83 129.94L114.422 124.98Z" fill="#96B7FF"/>
</g>
<path d="M112.11 118.305C111.47 123.022 120.75 135.067 120.75 135.067L130.087 128.667C130.087 128.667 127.495 122.03 123.137 117.678C118.171 112.686 112.839 113.172 112.11 118.305Z" fill="url(#paint26_linear_579_10723)"/>
<path d="M112.11 118.305C111.47 123.022 120.75 135.067 120.75 135.067L130.087 128.667C130.087 128.667 127.495 122.03 123.137 117.678C118.171 112.686 112.839 113.172 112.11 118.305Z" fill="#96B7FF"/>
<path d="M147.309 141.39L151.11 139.828L155.021 142.785C155.021 142.785 151.289 146.087 147.897 144.801L147.309 141.39Z" fill="url(#paint27_linear_579_10723)"/>
<path d="M147.309 141.39L151.11 139.828L155.021 142.785C155.021 142.785 151.289 146.087 147.897 144.801L147.309 141.39Z" fill="#96B7FF"/>
<path d="M153.622 139.674L156.489 141.723L155.004 142.785L151.094 139.828L153.622 139.674Z" fill="url(#paint28_linear_579_10723)"/>
<path d="M153.622 139.674L156.489 141.723L155.004 142.785L151.094 139.828L153.622 139.674Z" fill="#96B7FF"/>
<path d="M101.173 93.5305C99.8422 98.2921 98.8182 101.012 100.341 104.219C102.626 109.051 109.122 108.916 111.861 104.654C114.319 100.814 116.085 93.6713 112.169 90.2345C111.309 89.4707 110.268 88.9394 109.145 88.6911C108.022 88.4429 106.854 88.486 105.752 88.8162C104.65 89.1465 103.651 89.753 102.85 90.5781C102.048 91.4033 101.471 92.4196 101.173 93.5305Z" fill="url(#paint29_linear_579_10723)"/>
<path d="M101.173 93.5305C99.8422 98.2921 98.8182 101.012 100.341 104.219C102.626 109.051 109.122 108.916 111.861 104.654C114.319 100.814 116.085 93.6713 112.169 90.2345C111.309 89.4707 110.268 88.9394 109.145 88.6911C108.022 88.4429 106.854 88.486 105.752 88.8162C104.65 89.1465 103.651 89.753 102.85 90.5781C102.048 91.4033 101.471 92.4196 101.173 93.5305Z" fill="#96B7FF"/>
<path d="M111.311 93.5817C109.391 99.0473 107.131 105.05 101.615 103.911C98.0563 103.175 97.7747 97.4473 96.4947 94.8425C95.3619 92.5577 95.4323 87.9625 97.7747 87.9049C96.7251 86.3817 102.031 80.8073 105.653 83.7513C106.581 82.4713 113.269 78.7017 118.223 84.6857C122.888 90.3433 120.603 95.0601 111.311 93.5817Z" fill="url(#paint30_linear_579_10723)"/>
<path d="M111.311 93.5817C109.391 99.0473 107.131 105.05 101.615 103.911C98.0563 103.175 97.7747 97.4473 96.4947 94.8425C95.3619 92.5577 95.4323 87.9625 97.7747 87.9049C96.7251 86.3817 102.031 80.8073 105.653 83.7513C106.581 82.4713 113.269 78.7017 118.223 84.6857C122.888 90.3433 120.603 95.0601 111.311 93.5817Z" fill="#96B7FF"/>
<path d="M106.988 97.0761C106.86 98.2969 107.134 99.5262 107.769 100.577C108.62 101.946 109.868 101.422 110.329 100.02C110.738 98.7401 110.783 96.5321 109.599 95.6425C108.415 94.7529 107.167 95.6041 106.988 97.0761Z" fill="url(#paint31_linear_579_10723)"/>
<path d="M106.988 97.0761C106.86 98.2969 107.134 99.5262 107.769 100.577C108.62 101.946 109.868 101.422 110.329 100.02C110.738 98.7401 110.783 96.5321 109.599 95.6425C108.415 94.7529 107.167 95.6041 106.988 97.0761Z" fill="#96B7FF"/>
<path d="M147.875 223.623C148.515 223.623 149.155 223.534 149.34 223.246C149.393 223.17 149.422 223.079 149.422 222.987C149.422 222.894 149.393 222.803 149.34 222.727C149.255 222.593 149.123 222.494 148.969 222.452C148.137 222.228 146.409 223.22 146.326 223.265C146.304 223.276 146.287 223.294 146.276 223.316C146.266 223.338 146.263 223.363 146.268 223.387C146.273 223.409 146.283 223.431 146.299 223.448C146.315 223.465 146.335 223.477 146.358 223.483C146.858 223.574 147.366 223.621 147.875 223.623ZM148.668 222.657C148.743 222.646 148.818 222.646 148.892 222.657C148.941 222.666 148.986 222.685 149.026 222.714C149.066 222.743 149.099 222.78 149.123 222.823C149.206 222.971 149.18 223.041 149.123 223.079C148.892 223.406 147.632 223.412 146.704 223.278C147.312 222.945 147.979 222.734 148.668 222.657Z" fill="url(#paint32_linear_579_10723)"/>
<path d="M147.875 223.623C148.515 223.623 149.155 223.534 149.34 223.246C149.393 223.17 149.422 223.079 149.422 222.987C149.422 222.894 149.393 222.803 149.34 222.727C149.255 222.593 149.123 222.494 148.969 222.452C148.137 222.228 146.409 223.22 146.326 223.265C146.304 223.276 146.287 223.294 146.276 223.316C146.266 223.338 146.263 223.363 146.268 223.387C146.273 223.409 146.283 223.431 146.299 223.448C146.315 223.465 146.335 223.477 146.358 223.483C146.858 223.574 147.366 223.621 147.875 223.623ZM148.668 222.657C148.743 222.646 148.818 222.646 148.892 222.657C148.941 222.666 148.986 222.685 149.026 222.714C149.066 222.743 149.099 222.78 149.123 222.823C149.206 222.971 149.18 223.041 149.123 223.079C148.892 223.406 147.632 223.412 146.704 223.278C147.312 222.945 147.979 222.734 148.668 222.657Z" fill="#96B7FF"/>
<path d="M146.369 223.482H146.42C147.022 223.214 148.212 222.138 148.116 221.562C148.116 221.428 148.001 221.268 147.681 221.23C147.566 221.22 147.45 221.233 147.34 221.268C147.23 221.303 147.129 221.36 147.041 221.434C146.401 221.953 146.273 223.297 146.266 223.354C146.264 223.375 146.267 223.396 146.275 223.415C146.283 223.434 146.295 223.45 146.311 223.463C146.329 223.474 146.348 223.48 146.369 223.482ZM147.585 221.466H147.655C147.866 221.466 147.879 221.575 147.886 221.601C147.943 221.94 147.13 222.785 146.516 223.15C146.567 222.586 146.791 222.052 147.156 221.62C147.275 221.518 147.428 221.463 147.585 221.466Z" fill="url(#paint33_linear_579_10723)"/>
<path d="M146.369 223.482H146.42C147.022 223.214 148.212 222.138 148.116 221.562C148.116 221.428 148.001 221.268 147.681 221.23C147.566 221.22 147.45 221.233 147.34 221.268C147.23 221.303 147.129 221.36 147.041 221.434C146.401 221.953 146.273 223.297 146.266 223.354C146.264 223.375 146.267 223.396 146.275 223.415C146.283 223.434 146.295 223.45 146.311 223.463C146.329 223.474 146.348 223.48 146.369 223.482ZM147.585 221.466H147.655C147.866 221.466 147.879 221.575 147.886 221.601C147.943 221.94 147.13 222.785 146.516 223.15C146.567 222.586 146.791 222.052 147.156 221.62C147.275 221.518 147.428 221.463 147.585 221.466Z" fill="#96B7FF"/>
<path d="M140.578 223.367H145.557L146.69 211.828H141.711L140.578 223.367Z" fill="url(#paint34_linear_579_10723)"/>
<path d="M140.578 223.367H145.557L146.69 211.828H141.711L140.578 223.367Z" fill="#96B7FF"/>
<path d="M145.836 222.791H140.403C140.303 222.792 140.206 222.826 140.128 222.889C140.05 222.952 139.996 223.039 139.974 223.137L138.988 227.54C138.963 227.647 138.962 227.759 138.987 227.867C139.011 227.974 139.06 228.075 139.129 228.16C139.198 228.246 139.286 228.315 139.386 228.362C139.486 228.408 139.595 228.432 139.705 228.43C141.663 228.398 144.499 228.283 146.963 228.283C149.849 228.283 152.339 228.436 155.718 228.436C157.766 228.436 158.335 226.369 157.478 226.183C153.58 225.332 150.399 225.243 147.033 223.163C146.676 222.931 146.262 222.802 145.836 222.791Z" fill="url(#paint35_linear_579_10723)"/>
<path d="M145.836 222.791H140.403C140.303 222.792 140.206 222.826 140.128 222.889C140.05 222.952 139.996 223.039 139.974 223.137L138.988 227.54C138.963 227.647 138.962 227.759 138.987 227.867C139.011 227.974 139.06 228.075 139.129 228.16C139.198 228.246 139.286 228.315 139.386 228.362C139.486 228.408 139.595 228.432 139.705 228.43C141.663 228.398 144.499 228.283 146.963 228.283C149.849 228.283 152.339 228.436 155.718 228.436C157.766 228.436 158.335 226.369 157.478 226.183C153.58 225.332 150.399 225.243 147.033 223.163C146.676 222.931 146.262 222.802 145.836 222.791Z" fill="#96B7FF"/>
<g opacity="0.2">
<path d="M146.683 211.834L146.107 217.78H141.121L141.703 211.834H146.683Z" fill="url(#paint36_linear_579_10723)"/>
<path d="M146.683 211.834L146.107 217.78H141.121L141.703 211.834H146.683Z" fill="#96B7FF"/>
</g>
<path d="M127.913 223.617C128.124 223.645 128.339 223.63 128.544 223.574C128.75 223.518 128.942 223.422 129.11 223.29C129.169 223.21 129.2 223.112 129.2 223.012C129.2 222.912 129.169 222.815 129.11 222.734C129.072 222.663 129.019 222.602 128.955 222.555C128.891 222.507 128.817 222.474 128.739 222.458C128.009 222.286 126.633 223.227 126.576 223.265C126.557 223.279 126.543 223.298 126.534 223.319C126.525 223.34 126.522 223.364 126.524 223.387C126.529 223.409 126.54 223.429 126.556 223.445C126.572 223.461 126.592 223.472 126.614 223.476C127.041 223.569 127.476 223.616 127.913 223.617ZM128.553 222.67C128.6 222.663 128.647 222.663 128.694 222.67C128.74 222.676 128.783 222.694 128.821 222.72C128.859 222.747 128.89 222.782 128.912 222.823C129.02 223.022 128.956 223.098 128.912 223.13C128.7 223.406 127.683 223.412 126.934 223.29C127.415 222.965 127.965 222.752 128.54 222.67H128.553Z" fill="url(#paint37_linear_579_10723)"/>
<path d="M127.913 223.617C128.124 223.645 128.339 223.63 128.544 223.574C128.75 223.518 128.942 223.422 129.11 223.29C129.169 223.21 129.2 223.112 129.2 223.012C129.2 222.912 129.169 222.815 129.11 222.734C129.072 222.663 129.019 222.602 128.955 222.555C128.891 222.507 128.817 222.474 128.739 222.458C128.009 222.286 126.633 223.227 126.576 223.265C126.557 223.279 126.543 223.298 126.534 223.319C126.525 223.34 126.522 223.364 126.524 223.387C126.529 223.409 126.54 223.429 126.556 223.445C126.572 223.461 126.592 223.472 126.614 223.476C127.041 223.569 127.476 223.616 127.913 223.617ZM128.553 222.67C128.6 222.663 128.647 222.663 128.694 222.67C128.74 222.676 128.783 222.694 128.821 222.72C128.859 222.747 128.89 222.782 128.912 222.823C129.02 223.022 128.956 223.098 128.912 223.13C128.7 223.406 127.683 223.412 126.934 223.29C127.415 222.965 127.965 222.752 128.54 222.67H128.553Z" fill="#96B7FF"/>
<path d="M126.645 223.482H126.696C127.215 223.201 128.213 222.113 128.104 221.562C128.088 221.474 128.041 221.395 127.972 221.337C127.903 221.28 127.816 221.249 127.727 221.249C127.637 221.238 127.547 221.246 127.461 221.272C127.375 221.299 127.295 221.343 127.227 221.402C126.651 221.876 126.53 223.322 126.523 223.374C126.523 223.395 126.528 223.416 126.538 223.435C126.548 223.454 126.563 223.471 126.581 223.482C126.602 223.489 126.624 223.489 126.645 223.482ZM127.65 221.466H127.701C127.855 221.466 127.867 221.556 127.874 221.588C127.938 221.914 127.298 222.74 126.786 223.13C126.82 222.562 127.025 222.018 127.375 221.569C127.451 221.503 127.549 221.467 127.65 221.466Z" fill="url(#paint38_linear_579_10723)"/>
<path d="M126.645 223.482H126.696C127.215 223.201 128.213 222.113 128.104 221.562C128.088 221.474 128.041 221.395 127.972 221.337C127.903 221.28 127.816 221.249 127.727 221.249C127.637 221.238 127.547 221.246 127.461 221.272C127.375 221.299 127.295 221.343 127.227 221.402C126.651 221.876 126.53 223.322 126.523 223.374C126.523 223.395 126.528 223.416 126.538 223.435C126.548 223.454 126.563 223.471 126.581 223.482C126.602 223.489 126.624 223.489 126.645 223.482ZM127.65 221.466H127.701C127.855 221.466 127.867 221.556 127.874 221.588C127.938 221.914 127.298 222.74 126.786 223.13C126.82 222.562 127.025 222.018 127.375 221.569C127.451 221.503 127.549 221.467 127.65 221.466Z" fill="#96B7FF"/>
<path d="M120.934 223.367H125.913L128.415 211.828H123.436L120.934 223.367Z" fill="url(#paint39_linear_579_10723)"/>
<path d="M120.934 223.367H125.913L128.415 211.828H123.436L120.934 223.367Z" fill="#96B7FF"/>
<path d="M126.268 222.791H120.674C120.575 222.792 120.479 222.827 120.402 222.89C120.325 222.953 120.272 223.04 120.252 223.137L119.266 227.54C119.243 227.648 119.245 227.76 119.271 227.867C119.297 227.975 119.347 228.075 119.417 228.16C119.487 228.246 119.575 228.315 119.676 228.361C119.776 228.408 119.885 228.431 119.996 228.43C121.948 228.398 122.901 228.283 125.359 228.283C126.876 228.283 128.815 228.436 130.908 228.436C133.001 228.436 133.269 226.369 132.412 226.183C128.572 225.345 128.309 224.187 127.081 223.079C126.854 222.887 126.565 222.785 126.268 222.791Z" fill="url(#paint40_linear_579_10723)"/>
<path d="M126.268 222.791H120.674C120.575 222.792 120.479 222.827 120.402 222.89C120.325 222.953 120.272 223.04 120.252 223.137L119.266 227.54C119.243 227.648 119.245 227.76 119.271 227.867C119.297 227.975 119.347 228.075 119.417 228.16C119.487 228.246 119.575 228.315 119.676 228.361C119.776 228.408 119.885 228.431 119.996 228.43C121.948 228.398 122.901 228.283 125.359 228.283C126.876 228.283 128.815 228.436 130.908 228.436C133.001 228.436 133.269 226.369 132.412 226.183C128.572 225.345 128.309 224.187 127.081 223.079C126.854 222.887 126.565 222.785 126.268 222.791Z" fill="#96B7FF"/>
<g opacity="0.2">
<path d="M123.437 211.834H128.417L127.124 217.78H122.145L123.437 211.834Z" fill="url(#paint41_linear_579_10723)"/>
<path d="M123.437 211.834H128.417L127.124 217.78H122.145L123.437 211.834Z" fill="#96B7FF"/>
</g>
<path d="M117.677 157.313C117.677 157.313 154.989 161.262 154.58 180.295C154.315 192.249 152.017 204.07 147.783 215.252H140.385C140.385 215.252 140.762 203.175 140.513 183.687C140.436 177.844 128.641 175.918 117.114 175.239C112.233 174.932 107.535 173.268 103.55 170.432C99.5647 167.597 96.4512 163.705 94.5606 159.194L93.7734 157.313H117.677Z" fill="url(#paint42_linear_579_10723)"/>
<path d="M117.677 157.313C117.677 157.313 154.989 161.262 154.58 180.295C154.315 192.249 152.017 204.07 147.783 215.252H140.385C140.385 215.252 140.762 203.175 140.513 183.687C140.436 177.844 128.641 175.918 117.114 175.239C112.233 174.932 107.535 173.268 103.55 170.432C99.5647 167.597 96.4512 163.705 94.5606 159.194L93.7734 157.313H117.677Z" fill="#96B7FF"/>
<path d="M149.595 213.268C149.634 213.268 149.115 216.769 149.115 216.769H138.875L138.594 213.646L149.595 213.268Z" fill="url(#paint43_linear_579_10723)"/>
<path d="M149.595 213.268C149.634 213.268 149.115 216.769 149.115 216.769H138.875L138.594 213.646L149.595 213.268Z" fill="#96B7FF"/>
<path d="M109.689 157.313C109.689 157.313 136.735 166.273 137.42 177.383C138.7 197.825 128.646 215.252 128.646 215.252H121.177C121.177 215.252 124.012 206.612 125.017 188.09C126.297 164.826 82.8857 188.052 91.0201 157.313H109.689Z" fill="url(#paint44_linear_579_10723)"/>
<path d="M109.689 157.313C109.689 157.313 136.735 166.273 137.42 177.383C138.7 197.825 128.646 215.252 128.646 215.252H121.177C121.177 215.252 124.012 206.612 125.017 188.09C126.297 164.826 82.8857 188.052 91.0201 157.313H109.689Z" fill="#96B7FF"/>
<path d="M130.907 213.268C130.946 213.268 129.967 216.769 129.967 216.769H119.727L119.912 213.646L130.907 213.268Z" fill="url(#paint45_linear_579_10723)"/>
<path d="M130.907 213.268C130.946 213.268 129.967 216.769 129.967 216.769H119.727L119.912 213.646L130.907 213.268Z" fill="#96B7FF"/>
<path d="M129.198 176.91H87.5977C87.5977 175.65 88.098 174.442 88.9885 173.552C89.8791 172.661 91.087 172.161 92.3465 172.161H124.449C125.708 172.161 126.916 172.661 127.807 173.552C128.697 174.442 129.198 175.65 129.198 176.91Z" fill="url(#paint46_linear_579_10723)"/>
<path d="M89.5259 176.903L83.2539 229.486H84.5979L92.5531 176.903H89.5259Z" fill="url(#paint47_linear_579_10723)"/>
<path d="M89.5259 176.903L83.2539 229.486H84.5979L92.5531 176.903H89.5259Z" fill="#96B7FF"/>
<path d="M89.5259 176.903L83.2539 229.486H84.5979L92.5531 176.903H89.5259Z" fill="url(#paint48_linear_579_10723)"/>
<path d="M97.9146 176.903L97.793 229.486H99.1306L100.942 176.903H97.9146Z" fill="url(#paint49_linear_579_10723)"/>
<path d="M97.9146 176.903L97.793 229.486H99.1306L100.942 176.903H97.9146Z" fill="#96B7FF"/>
<path d="M97.9146 176.903L97.793 229.486H99.1306L100.942 176.903H97.9146Z" fill="url(#paint50_linear_579_10723)"/>
<path d="M127.271 176.903L133.543 229.486H132.199L124.25 176.903H127.271Z" fill="url(#paint51_linear_579_10723)"/>
<path d="M127.271 176.903L133.543 229.486H132.199L124.25 176.903H127.271Z" fill="#96B7FF"/>
<path d="M127.271 176.903L133.543 229.486H132.199L124.25 176.903H127.271Z" fill="url(#paint52_linear_579_10723)"/>
<path d="M118.883 176.903L119.004 229.486H117.667L115.855 176.903H118.883Z" fill="url(#paint53_linear_579_10723)"/>
<path d="M118.883 176.903L119.004 229.486H117.667L115.855 176.903H118.883Z" fill="#96B7FF"/>
<path d="M118.883 176.903L119.004 229.486H117.667L115.855 176.903H118.883Z" fill="url(#paint54_linear_579_10723)"/>
<defs>
<linearGradient id="paint0_linear_579_10723" x1="138.488" y1="0.822862" x2="138.488" y2="144.563" gradientUnits="userSpaceOnUse">
<stop stop-color="#C0D4FF"/>
<stop offset="1" stop-color="#6190FF"/>
</linearGradient>
<linearGradient id="paint1_linear_579_10723" x1="50.8282" y1="-18.2236" x2="50.8282" y2="187.366" gradientUnits="userSpaceOnUse">
<stop stop-color="#C0D4FF"/>
<stop offset="1" stop-color="#6190FF"/>
</linearGradient>
<linearGradient id="paint2_linear_579_10723" x1="141.923" y1="147.345" x2="141.882" y2="151.842" gradientUnits="userSpaceOnUse">
<stop stop-color="#C0D4FF"/>
<stop offset="1" stop-color="#6190FF"/>
</linearGradient>
<linearGradient id="paint3_linear_579_10723" x1="50.0085" y1="128.76" x2="50.0085" y2="219.96" gradientUnits="userSpaceOnUse">
<stop stop-color="#C0D4FF"/>
<stop offset="1" stop-color="#6190FF"/>
</linearGradient>
<linearGradient id="paint4_linear_579_10723" x1="74.0359" y1="128.76" x2="74.0359" y2="219.96" gradientUnits="userSpaceOnUse">
<stop stop-color="#C0D4FF"/>
<stop offset="1" stop-color="#6190FF"/>
</linearGradient>
<linearGradient id="paint5_linear_579_10723" x1="199.473" y1="128.76" x2="199.473" y2="219.96" gradientUnits="userSpaceOnUse">
<stop stop-color="#C0D4FF"/>
<stop offset="1" stop-color="#6190FF"/>
</linearGradient>
<linearGradient id="paint6_linear_579_10723" x1="175.454" y1="128.76" x2="175.454" y2="219.96" gradientUnits="userSpaceOnUse">
<stop stop-color="#C0D4FF"/>
<stop offset="1" stop-color="#6190FF"/>
</linearGradient>
<linearGradient id="paint7_linear_579_10723" x1="154.049" y1="121.883" x2="148.438" y2="149.606" gradientUnits="userSpaceOnUse">
<stop stop-color="#C0D4FF"/>
<stop offset="1" stop-color="#6190FF"/>
</linearGradient>
<linearGradient id="paint8_linear_579_10723" x1="175.322" y1="104.44" x2="150.682" y2="135.16" gradientUnits="userSpaceOnUse">
<stop stop-color="#C0D4FF"/>
<stop offset="1" stop-color="#6190FF"/>
</linearGradient>
<linearGradient id="paint9_linear_579_10723" x1="54.9086" y1="137.93" x2="51.9419" y2="146.901" gradientUnits="userSpaceOnUse">
<stop stop-color="#C0D4FF"/>
<stop offset="1" stop-color="#6190FF"/>
</linearGradient>
<linearGradient id="paint10_linear_579_10723" x1="208.602" y1="132.28" x2="194.314" y2="130.235" gradientUnits="userSpaceOnUse">
<stop stop-color="#C0D4FF"/>
<stop offset="1" stop-color="#6190FF"/>
</linearGradient>
<linearGradient id="paint11_linear_579_10723" x1="187.964" y1="132.337" x2="182.001" y2="146.334" gradientUnits="userSpaceOnUse">
<stop stop-color="#C0D4FF"/>
<stop offset="1" stop-color="#6190FF"/>
</linearGradient>
<linearGradient id="paint12_linear_579_10723" x1="186.636" y1="132.337" x2="180.814" y2="146.477" gradientUnits="userSpaceOnUse">
<stop stop-color="#C0D4FF"/>
<stop offset="1" stop-color="#6190FF"/>
</linearGradient>
<linearGradient id="paint13_linear_579_10723" x1="85.8073" y1="122.151" x2="85.8073" y2="147.832" gradientUnits="userSpaceOnUse">
<stop stop-color="#C0D4FF"/>
<stop offset="1" stop-color="#6190FF"/>
</linearGradient>
<linearGradient id="paint14_linear_579_10723" x1="89.9056" y1="139.846" x2="89.9056" y2="145.902" gradientUnits="userSpaceOnUse">
<stop stop-color="#C0D4FF"/>
<stop offset="1" stop-color="#6190FF"/>
</linearGradient>
<linearGradient id="paint15_linear_579_10723" x1="93.1997" y1="138.579" x2="93.1997" y2="145.684" gradientUnits="userSpaceOnUse">
<stop stop-color="#C0D4FF"/>
<stop offset="1" stop-color="#6190FF"/>
</linearGradient>
<linearGradient id="paint16_linear_579_10723" x1="113.996" y1="98.4481" x2="113.996" y2="99.7596" gradientUnits="userSpaceOnUse">
<stop stop-color="#C0D4FF"/>
<stop offset="1" stop-color="#6190FF"/>
</linearGradient>
<linearGradient id="paint17_linear_579_10723" x1="113.202" y1="100.207" x2="113.202" y2="103.915" gradientUnits="userSpaceOnUse">
<stop stop-color="#C0D4FF"/>
<stop offset="1" stop-color="#6190FF"/>
</linearGradient>
<linearGradient id="paint18_linear_579_10723" x1="113.966" y1="95.7581" x2="113.966" y2="96.57" gradientUnits="userSpaceOnUse">
<stop stop-color="#C0D4FF"/>
<stop offset="1" stop-color="#6190FF"/>
</linearGradient>
<linearGradient id="paint19_linear_579_10723" x1="104.565" y1="103.137" x2="104.565" y2="118.5" gradientUnits="userSpaceOnUse">
<stop stop-color="#C0D4FF"/>
<stop offset="1" stop-color="#6190FF"/>
</linearGradient>
<linearGradient id="paint20_linear_579_10723" x1="103.706" y1="111.354" x2="103.706" y2="114.83" gradientUnits="userSpaceOnUse">
<stop stop-color="#C0D4FF"/>
<stop offset="1" stop-color="#6190FF"/>
</linearGradient>
<linearGradient id="paint21_linear_579_10723" x1="133.011" y1="125.291" x2="133.011" y2="150.337" gradientUnits="userSpaceOnUse">
<stop stop-color="#C0D4FF"/>
<stop offset="1" stop-color="#6190FF"/>
</linearGradient>
<linearGradient id="paint22_linear_579_10723" x1="87.727" y1="117.573" x2="87.727" y2="136.589" gradientUnits="userSpaceOnUse">
<stop stop-color="#C0D4FF"/>
<stop offset="1" stop-color="#6190FF"/>
</linearGradient>
<linearGradient id="paint23_linear_579_10723" x1="90.605" y1="124.336" x2="90.605" y2="135.651" gradientUnits="userSpaceOnUse">
<stop stop-color="#C0D4FF"/>
<stop offset="1" stop-color="#6190FF"/>
</linearGradient>
<linearGradient id="paint24_linear_579_10723" x1="104.413" y1="120.9" x2="104.413" y2="162.57" gradientUnits="userSpaceOnUse">
<stop stop-color="#C0D4FF"/>
<stop offset="1" stop-color="#6190FF"/>
</linearGradient>
<linearGradient id="paint25_linear_579_10723" x1="117.126" y1="127.062" x2="117.126" y2="137.719" gradientUnits="userSpaceOnUse">
<stop stop-color="#C0D4FF"/>
<stop offset="1" stop-color="#6190FF"/>
</linearGradient>
<linearGradient id="paint26_linear_579_10723" x1="121.083" y1="117.995" x2="121.083" y2="137.509" gradientUnits="userSpaceOnUse">
<stop stop-color="#C0D4FF"/>
<stop offset="1" stop-color="#6190FF"/>
</linearGradient>
<linearGradient id="paint27_linear_579_10723" x1="151.165" y1="140.79" x2="151.165" y2="145.715" gradientUnits="userSpaceOnUse">
<stop stop-color="#C0D4FF"/>
<stop offset="1" stop-color="#6190FF"/>
</linearGradient>
<linearGradient id="paint28_linear_579_10723" x1="153.791" y1="140.242" x2="153.791" y2="143.149" gradientUnits="userSpaceOnUse">
<stop stop-color="#C0D4FF"/>
<stop offset="1" stop-color="#6190FF"/>
</linearGradient>
<linearGradient id="paint29_linear_579_10723" x1="107.024" y1="92.0581" x2="107.024" y2="110.106" gradientUnits="userSpaceOnUse">
<stop stop-color="#C0D4FF"/>
<stop offset="1" stop-color="#6190FF"/>
</linearGradient>
<linearGradient id="paint30_linear_579_10723" x1="108.175" y1="85.5349" x2="108.175" y2="106.701" gradientUnits="userSpaceOnUse">
<stop stop-color="#C0D4FF"/>
<stop offset="1" stop-color="#6190FF"/>
</linearGradient>
<linearGradient id="paint31_linear_579_10723" x1="108.774" y1="96.3929" x2="108.774" y2="102.089" gradientUnits="userSpaceOnUse">
<stop stop-color="#C0D4FF"/>
<stop offset="1" stop-color="#6190FF"/>
</linearGradient>
<linearGradient id="paint32_linear_579_10723" x1="147.844" y1="222.639" x2="147.844" y2="223.764" gradientUnits="userSpaceOnUse">
<stop stop-color="#C0D4FF"/>
<stop offset="1" stop-color="#6190FF"/>
</linearGradient>
<linearGradient id="paint33_linear_579_10723" x1="147.194" y1="221.638" x2="147.194" y2="223.746" gradientUnits="userSpaceOnUse">
<stop stop-color="#C0D4FF"/>
<stop offset="1" stop-color="#6190FF"/>
</linearGradient>
<linearGradient id="paint34_linear_579_10723" x1="143.634" y1="213.935" x2="143.634" y2="224.717" gradientUnits="userSpaceOnUse">
<stop stop-color="#C0D4FF"/>
<stop offset="1" stop-color="#6190FF"/>
</linearGradient>
<linearGradient id="paint35_linear_579_10723" x1="148.416" y1="223.822" x2="148.416" y2="229.096" gradientUnits="userSpaceOnUse">
<stop stop-color="#C0D4FF"/>
<stop offset="1" stop-color="#6190FF"/>
</linearGradient>
<linearGradient id="paint36_linear_579_10723" x1="143.902" y1="212.92" x2="143.902" y2="218.475" gradientUnits="userSpaceOnUse">
<stop stop-color="#C0D4FF"/>
<stop offset="1" stop-color="#6190FF"/>
</linearGradient>
<linearGradient id="paint37_linear_579_10723" x1="127.862" y1="222.655" x2="127.862" y2="223.77" gradientUnits="userSpaceOnUse">
<stop stop-color="#C0D4FF"/>
<stop offset="1" stop-color="#6190FF"/>
</linearGradient>
<linearGradient id="paint38_linear_579_10723" x1="127.318" y1="221.654" x2="127.318" y2="223.75" gradientUnits="userSpaceOnUse">
<stop stop-color="#C0D4FF"/>
<stop offset="1" stop-color="#6190FF"/>
</linearGradient>
<linearGradient id="paint39_linear_579_10723" x1="124.674" y1="213.935" x2="124.674" y2="224.717" gradientUnits="userSpaceOnUse">
<stop stop-color="#C0D4FF"/>
<stop offset="1" stop-color="#6190FF"/>
</linearGradient>
<linearGradient id="paint40_linear_579_10723" x1="126.059" y1="223.821" x2="126.059" y2="229.096" gradientUnits="userSpaceOnUse">
<stop stop-color="#C0D4FF"/>
<stop offset="1" stop-color="#6190FF"/>
</linearGradient>
<linearGradient id="paint41_linear_579_10723" x1="125.281" y1="212.92" x2="125.281" y2="218.475" gradientUnits="userSpaceOnUse">
<stop stop-color="#C0D4FF"/>
<stop offset="1" stop-color="#6190FF"/>
</linearGradient>
<linearGradient id="paint42_linear_579_10723" x1="124.178" y1="167.889" x2="124.178" y2="222.028" gradientUnits="userSpaceOnUse">
<stop stop-color="#C0D4FF"/>
<stop offset="1" stop-color="#6190FF"/>
</linearGradient>
<linearGradient id="paint43_linear_579_10723" x1="144.096" y1="213.907" x2="144.096" y2="217.178" gradientUnits="userSpaceOnUse">
<stop stop-color="#C0D4FF"/>
<stop offset="1" stop-color="#6190FF"/>
</linearGradient>
<linearGradient id="paint44_linear_579_10723" x1="113.768" y1="167.889" x2="113.768" y2="222.028" gradientUnits="userSpaceOnUse">
<stop stop-color="#C0D4FF"/>
<stop offset="1" stop-color="#6190FF"/>
</linearGradient>
<linearGradient id="paint45_linear_579_10723" x1="125.318" y1="213.907" x2="125.318" y2="217.178" gradientUnits="userSpaceOnUse">
<stop stop-color="#C0D4FF"/>
<stop offset="1" stop-color="#6190FF"/>
</linearGradient>
<linearGradient id="paint46_linear_579_10723" x1="108.398" y1="168.12" x2="108.398" y2="175.48" gradientUnits="userSpaceOnUse">
<stop stop-color="#C0D4FF"/>
<stop offset="1" stop-color="#6190FF"/>
</linearGradient>
<linearGradient id="paint47_linear_579_10723" x1="87.9035" y1="186.502" x2="87.9035" y2="235.635" gradientUnits="userSpaceOnUse">
<stop stop-color="#C0D4FF"/>
<stop offset="1" stop-color="#6190FF"/>
</linearGradient>
<linearGradient id="paint48_linear_579_10723" x1="87.9035" y1="176.903" x2="87.9035" y2="211.32" gradientUnits="userSpaceOnUse">
<stop stop-color="#C0D4FF"/>
<stop offset="1" stop-color="#6190FF"/>
</linearGradient>
<linearGradient id="paint49_linear_579_10723" x1="99.3674" y1="186.502" x2="99.3674" y2="235.635" gradientUnits="userSpaceOnUse">
<stop stop-color="#C0D4FF"/>
<stop offset="1" stop-color="#6190FF"/>
</linearGradient>
<linearGradient id="paint50_linear_579_10723" x1="99.3674" y1="176.903" x2="99.3674" y2="211.32" gradientUnits="userSpaceOnUse">
<stop stop-color="#C0D4FF"/>
<stop offset="1" stop-color="#6190FF"/>
</linearGradient>
<linearGradient id="paint51_linear_579_10723" x1="128.896" y1="186.502" x2="128.896" y2="235.635" gradientUnits="userSpaceOnUse">
<stop stop-color="#C0D4FF"/>
<stop offset="1" stop-color="#6190FF"/>
</linearGradient>
<linearGradient id="paint52_linear_579_10723" x1="128.896" y1="176.903" x2="128.896" y2="211.32" gradientUnits="userSpaceOnUse">
<stop stop-color="#C0D4FF"/>
<stop offset="1" stop-color="#6190FF"/>
</linearGradient>
<linearGradient id="paint53_linear_579_10723" x1="117.43" y1="186.502" x2="117.43" y2="235.635" gradientUnits="userSpaceOnUse">
<stop stop-color="#C0D4FF"/>
<stop offset="1" stop-color="#6190FF"/>
</linearGradient>
<linearGradient id="paint54_linear_579_10723" x1="117.43" y1="176.903" x2="117.43" y2="211.32" gradientUnits="userSpaceOnUse">
<stop stop-color="#C0D4FF"/>
<stop offset="1" stop-color="#6190FF"/>
</linearGradient>
</defs>
</svg>
