<svg width="20" height="20" viewBox="0 0 20 20" fill="none" xmlns="http://www.w3.org/2000/svg">
<path d="M8.60568 1.51514C9.1065 0.252564 10.8935 0.252563 11.3943 1.51514L11.4757 1.7202C11.8224 2.5943 12.8786 2.9375 13.6729 2.43414L13.8593 2.31605C15.0065 1.58897 16.4523 2.63935 16.1153 3.95516L16.0606 4.16887C15.8273 5.07983 16.4801 5.97833 17.4186 6.03797L17.6387 6.05196C18.9943 6.13811 19.5465 7.83765 18.5005 8.70411L18.3306 8.84483C17.6064 9.4447 17.6064 10.5553 18.3306 11.1552L18.5005 11.2959C19.5465 12.1624 18.9943 13.8619 17.6387 13.948L17.4186 13.962C16.4801 14.0217 15.8273 14.9202 16.0606 15.8311L16.1153 16.0448C16.4523 17.3607 15.0065 18.411 13.8593 17.684L13.6729 17.5659C12.8786 17.0625 11.8224 17.4057 11.4757 18.2798L11.3943 18.4849C10.8935 19.7474 9.1065 19.7474 8.60569 18.4849L8.52434 18.2798C8.17762 17.4057 7.12138 17.0625 6.32709 17.5659L6.14075 17.684C4.99346 18.411 3.54774 17.3607 3.8847 16.0448L3.93943 15.8311C4.17271 14.9202 3.51991 14.0217 2.58145 13.962L2.36128 13.948C1.00575 13.8619 0.45353 12.1624 1.49955 11.2959L1.66944 11.1552C2.39362 10.5553 2.39362 9.4447 1.66944 8.84484L1.49955 8.70411C0.45353 7.83765 1.00574 6.13811 2.36128 6.05196L2.58145 6.03797C3.51991 5.97833 4.17271 5.07983 3.93943 4.16887L3.8847 3.95516C3.54774 2.63935 4.99346 1.58897 6.14075 2.31604L6.32709 2.43413C7.12138 2.9375 8.17762 2.59431 8.52434 1.7202L8.60568 1.51514Z" fill="#26BA65"/>
<path fill-rule="evenodd" clip-rule="evenodd" d="M14.025 7.17574C14.2594 7.41005 14.2594 7.78995 14.025 8.02426L9.22505 12.8243C8.99073 13.0586 8.61083 13.0586 8.37652 12.8243L5.97652 10.4243C5.7422 10.1899 5.7422 9.81005 5.97652 9.57574C6.21083 9.34142 6.59073 9.34142 6.82505 9.57574L8.80078 11.5515L13.1765 7.17574C13.4108 6.94142 13.7907 6.94142 14.025 7.17574Z" fill="white"/>
</svg>
