<svg width="250" height="250" viewBox="0 0 250 250" fill="none" xmlns="http://www.w3.org/2000/svg">
<rect width="250" height="250" fill="white"/>
<path d="M224.95 199.245H208.39V199.37H224.95V199.245Z" fill="#F9FBFF"/>
<path d="M165.61 200.605H161.265V200.73H165.61V200.605Z" fill="#F9FBFF"/>
<path d="M207.89 194.605H198.295V194.73H207.89V194.605Z" fill="#F9FBFF"/>
<path d="M55.4448 195.445H52.2798V195.57H55.4448V195.445Z" fill="#F9FBFF"/>
<path d="M145.56 154.11H149.775H152.56L144.765 160.555H143.335H142.06L143.88 157.795L138.57 160.555H137.29H135.78L145.56 154.11Z" fill="#F9FBFF"/>
<path d="M200.805 160.555H198.01L191.815 157.335L194.52 160.555H191.815L184.025 154.11H191.02L200.805 160.555Z" fill="#F9FBFF"/>
<path d="M193.25 160.555L186.805 154.11H191.02L200.805 160.555H199.29L191.815 156.445L194.52 160.555H193.25Z" fill="#F9FBFF"/>
<path d="M120.835 160.555V191.15H215.045V160.555H120.835ZM122.375 162.555H198V172.555H122.375V162.555Z" fill="#F9FBFF"/>
<path d="M120.835 160.555V191.15H200.07V160.555H120.835ZM122.375 162.555H198V172.555H122.375V162.555Z" fill="#F9FBFF"/>
<path d="M122.375 172.54H136.165V162.545H122.375V172.54Z" fill="#F9FBFF"/>
<path d="M137.43 154.965H202.325C203.3 154.965 204.09 154.175 204.09 153.2V115.385C204.09 114.41 203.3 113.62 202.325 113.62H137.43C136.455 113.62 135.665 114.41 135.665 115.385V153.2C135.665 154.175 136.455 154.965 137.43 154.965Z" fill="#F9FBFF"/>
<path d="M135.825 154.965H200.72C201.695 154.965 202.485 154.175 202.485 153.2V115.385C202.485 114.41 201.695 113.62 200.72 113.62H135.825C134.85 113.62 134.06 114.41 134.06 115.385V153.2C134.06 154.175 134.85 154.965 135.825 154.965Z" fill="#F9FBFF"/>
<path d="M154.185 65.83C154.185 65.83 153.725 62.83 155.925 60.885C158.125 58.94 157.925 57.805 157.3 57.655C156.675 57.505 156.095 59.44 155.125 59.97C155.125 59.97 155.095 57.215 156.08 56.205C157.065 55.195 157.58 52.575 156.64 52.53C155.7 52.485 155.61 54.08 155.415 55.215C155.152 56.1831 154.737 57.103 154.185 57.94C154.185 57.94 153.98 55.48 153.345 54.465C152.71 53.45 154.405 51.13 153.75 50.12C153.095 49.11 151.94 51.035 152.035 53.21C152.13 55.385 153.58 57.71 153.245 59.97C153.245 59.97 152.605 58.375 152.03 58.23C151.455 58.085 150.88 57.03 150.49 56.64C150.1 56.25 149.62 57.605 150.49 58.86C151.36 60.115 153.58 63.475 153.245 66.19L154.185 65.83Z" fill="#F9FBFF"/>
<path d="M155.5 64.4601L156.22 68.9601C156.273 69.288 156.254 69.6236 156.164 69.9435C156.075 70.2634 155.917 70.56 155.701 70.813C155.486 71.0659 155.218 71.269 154.917 71.4084C154.615 71.5477 154.287 71.62 153.955 71.6201H153.185C152.853 71.62 152.524 71.5477 152.223 71.4084C151.921 71.269 151.654 71.0659 151.438 70.813C151.223 70.56 151.065 70.2634 150.976 69.9435C150.886 69.6236 150.867 69.288 150.92 68.9601L151.64 64.4601H155.5Z" fill="#F9FBFF"/>
<path d="M144.615 72.5801H195.475V69.9651H144.615V72.5801Z" fill="#F9FBFF"/>
<path d="M190.89 69.9651H193.13V60.3301H190.89V69.9651Z" fill="#F9FBFF"/>
<path d="M180.06 69.9651H182.3V60.3301H180.06V69.9651Z" fill="#F9FBFF"/>
<path d="M166.127 69.5798L168.334 69.9603L169.971 60.4654L167.763 60.0849L166.127 69.5798Z" fill="#F9FBFF"/>
<path d="M188.12 69.9651H190.36V61.6001H188.12V69.9651Z" fill="#F9FBFF"/>
<path d="M182.97 69.9651H185.21V61.6001H182.97V69.9651Z" fill="#F9FBFF"/>
<path d="M169.97 69.9651H172.21V61.6001H169.97V69.9651Z" fill="#F9FBFF"/>
<path d="M175.308 69.4704L177.495 69.9564L179.309 61.7907L177.123 61.3047L175.308 69.4704Z" fill="#F9FBFF"/>
<path d="M186.18 69.9651H187.3V59.8551H186.18V69.9651Z" fill="#F9FBFF"/>
<path d="M172.855 69.9651H173.975V59.8551H172.855V69.9651Z" fill="#F9FBFF"/>
<path d="M195.475 89.475H144.615V92.09H195.475V89.475Z" fill="#F9FBFF"/>
<path d="M149.195 79.8401H146.955V89.4751H149.195V79.8401Z" fill="#F9FBFF"/>
<path d="M160.03 79.8401H157.79V89.4751H160.03V79.8401Z" fill="#F9FBFF"/>
<path d="M172.33 79.5967L170.123 79.9772L171.759 89.4722L173.967 89.0917L172.33 79.5967Z" fill="#F9FBFF"/>
<path d="M151.97 81.11H149.73V89.475H151.97V81.11Z" fill="#F9FBFF"/>
<path d="M157.12 81.11H154.88V89.475H157.12V81.11Z" fill="#F9FBFF"/>
<path d="M170.12 81.11H167.88V89.475H170.12V81.11Z" fill="#F9FBFF"/>
<path d="M162.972 80.8173L160.786 81.3032L162.6 89.469L164.787 88.983L162.972 80.8173Z" fill="#F9FBFF"/>
<path d="M153.91 79.365H152.79V89.475H153.91V79.365Z" fill="#F9FBFF"/>
<path d="M167.235 79.365H166.115V89.475H167.235V79.365Z" fill="#F9FBFF"/>
<path d="M190.595 81.85H179.675V89.385H190.595V81.85Z" fill="#F9FBFF"/>
<path d="M125 213.78C178.541 213.78 221.945 211.246 221.945 208.12C221.945 204.994 178.541 202.46 125 202.46C71.4584 202.46 28.0547 204.994 28.0547 208.12C28.0547 211.246 71.4584 213.78 125 213.78Z" fill="#F9FBFF"/>
<path d="M154.131 208.13H153.371L153.156 207.19L150.656 208.325H144.261C144.261 208.325 143.261 207.325 146.261 206.495C146.41 206.455 146.554 206.399 146.691 206.33C148.316 205.57 150.621 203.005 150.621 203.005H154.121C154.226 203.166 154.321 203.333 154.406 203.505C154.811 204.28 155.471 205.895 154.131 208.13Z" fill="#96B7FF"/>
<path d="M154.426 203.5C153.966 203 151.861 205.245 150.321 206C148.946 206.685 147.401 207 146.711 206.295C148.336 205.535 150.881 202.215 150.881 202.215H153.696C153.696 202.215 154.261 203.18 154.426 203.5Z" fill="#96B7FF"/>
<path d="M161.306 117.5C161.306 117.5 157.411 144.14 156.911 157.405C156.411 171.335 152.476 193.095 150.251 201.84C150.926 202.43 153.586 203.49 155.171 203.315C155.171 203.315 167.491 177.315 165.866 160.51C176.156 130.01 172.096 117.92 172.096 117.92L161.306 117.5Z" fill="#96B7FF"/>
<path opacity="0.2" d="M168.681 150.885C170.211 145.835 171.316 141.46 172.096 137.71C171.321 134.775 170.221 132.265 168.726 130.755C168.726 130.755 166.581 138.93 168.681 150.885Z" fill="#96B7FF"/>
<path d="M177.971 208.13H177.211L176.996 207.19L174.496 208.325H168.121C168.121 208.325 167.121 207.325 170.121 206.495C170.269 206.455 170.414 206.399 170.551 206.33C172.176 205.57 174.481 203.005 174.481 203.005H177.981C178.086 203.166 178.181 203.333 178.266 203.505C178.671 204.28 179.331 205.895 177.971 208.13Z" fill="#96B7FF"/>
<path d="M178.286 203.5C177.826 203 175.721 205.245 174.181 206C172.806 206.685 171.261 207 170.571 206.295C172.196 205.535 174.741 202.215 174.741 202.215H177.556C177.556 202.215 178.121 203.18 178.286 203.5Z" fill="#96B7FF"/>
<path d="M166.166 117C166.166 117 169.691 144.26 171.711 157.38C173.831 171.155 174.101 193.265 173.571 202.275C174.341 202.725 177.156 203.275 178.676 202.775C178.676 202.775 185.861 174.91 181.086 158.725C185.431 126.845 179.146 119.04 179.146 119.04L166.166 117Z" fill="#96B7FF"/>
<path d="M143.541 89.34C142.946 89.13 142.191 89.56 141.866 90.29L141.161 91.9C141.012 92.1584 140.964 92.4625 141.026 92.7541C141.088 93.0457 141.255 93.3042 141.496 93.48L142.901 94.28C142.901 94.28 145.096 96.28 146.536 94.855L147.866 93.555C147.866 93.555 146.716 90.875 145.481 90.02C144.86 89.726 144.21 89.4981 143.541 89.34Z" fill="#96B7FF"/>
<path d="M145.686 90.0001C146.141 88.8051 145.256 87.4601 146.351 87.1901C146.351 87.1901 146.821 89.2801 147.101 91.1151C147.196 91.6215 147.172 92.1433 147.031 92.6389C146.889 93.1345 146.634 93.5903 146.286 93.9701C145.845 93.4199 145.557 92.763 145.452 92.0658C145.346 91.3686 145.427 90.656 145.686 90.0001Z" fill="#96B7FF"/>
<path d="M144.971 95.3001C144.971 95.3001 150.831 112.015 154.561 110.63C156.626 109.865 163.131 101.85 163.131 101.85L164.601 91.09C161.951 90.975 154.326 103.06 154.326 103.06L147.826 93.5601L144.971 95.3001Z" fill="#96B7FF"/>
<path opacity="0.2" d="M172.211 114.26C173.399 112.337 174.413 110.313 175.241 108.21V108.145L173.051 105.92C171.725 108.493 171.425 111.474 172.211 114.26Z" fill="#96B7FF"/>
<path opacity="0.7" d="M167.341 99.8251C170.883 96.6318 174.81 93.8939 179.031 91.6751C178.646 91.6301 178.251 91.5901 177.856 91.5601C175.176 91.2765 172.479 91.1846 169.786 91.2851C169.116 91.3251 168.431 91.3801 167.761 91.4351C166.091 95.2651 167.341 99.8251 167.341 99.8251Z" fill="#96B7FF"/>
<path d="M179.031 117C179.401 112.86 180.881 105.285 183.431 97.3251C184.256 94.7351 182.851 91.8251 182.851 91.8251C182.851 91.8251 179.381 91.7351 179.031 91.6951C178.681 91.6551 178.251 91.6101 177.856 91.5801C175.176 91.2966 172.479 91.2046 169.786 91.3051C169.116 91.3451 168.431 91.4001 167.761 91.4551C167.541 91.4551 165.101 91.5001 164.891 91.5201C164.891 91.5201 161.516 95.3851 161.306 98.5201C161.056 100.926 160.964 103.347 161.031 105.765C161.031 108.605 161.251 112.35 161.441 116.34L179.031 117Z" fill="#96B7FF"/>
<path opacity="0.8" d="M179.031 117C179.401 112.86 180.881 105.285 183.431 97.3251C184.256 94.7351 182.851 91.8251 182.851 91.8251C182.851 91.8251 179.381 91.7351 179.031 91.6951C178.681 91.6551 178.251 91.6101 177.856 91.5801C175.176 91.2966 172.479 91.2046 169.786 91.3051C169.116 91.3451 168.431 91.4001 167.761 91.4551C167.541 91.4551 165.101 91.5001 164.891 91.5201C164.891 91.5201 161.516 95.3851 161.306 98.5201C161.056 100.926 160.964 103.347 161.031 105.765C161.031 108.605 161.251 112.35 161.441 116.34L179.031 117Z" fill="#96B7FF"/>
<path d="M178.871 117.28L161.441 116.315V117.97L179.031 118.905L178.871 117.28Z" fill="#96B7FF"/>
<path d="M169.391 118.195L169.471 117.225C169.477 117.137 169.447 117.049 169.389 116.982C169.331 116.915 169.25 116.873 169.161 116.865L167.251 116.72C167.205 116.716 167.159 116.721 167.116 116.736C167.072 116.751 167.032 116.774 166.998 116.805C166.964 116.837 166.937 116.874 166.919 116.916C166.9 116.959 166.891 117.004 166.891 117.05V118.05C166.891 118.136 166.923 118.218 166.982 118.28C167.041 118.342 167.121 118.38 167.206 118.385L169.041 118.485C169.125 118.49 169.208 118.462 169.273 118.409C169.338 118.355 169.38 118.279 169.391 118.195Z" fill="#96B7FF"/>
<path d="M182.056 107.91C181.056 111.64 180.146 114.91 180.146 114.91L183.691 128L177.601 129.105C177.601 129.105 173.921 112.48 174.186 104.005C174.451 95.5301 178.456 91.1051 178.456 91.1051L182.851 91.8151C182.851 91.8151 184.711 95.1901 184.596 97.2801C184.513 98.0168 184.379 98.7468 184.196 99.4651C184.006 100.325 183.756 101.36 183.471 102.465C183.306 103.115 183.136 103.795 182.971 104.465C182.661 105.61 182.356 106.78 182.056 107.91Z" fill="#96B7FF"/>
<path d="M168.416 91.0901C168.416 91.0901 164.596 97.7451 163.716 102.665C162.836 107.585 160.411 128.5 160.411 128.5L159.091 127.84L160.926 115.34C160.926 115.34 160.266 100.87 160.781 97.9001C161.296 94.9301 164.621 91.0651 164.621 91.0651L168.416 91.0901Z" fill="#96B7FF"/>
<path d="M170.306 90.775L170.046 90.54C170.046 90.54 166.321 90.995 162.911 95.26L164.231 96.555L161.971 98.37L163.046 107.14C163.046 107.14 166.486 95.45 167.976 92.64C168.66 91.91 169.444 91.2819 170.306 90.775Z" fill="#96B7FF"/>
<path opacity="0.2" d="M170.306 90.7751L170.046 90.5601C170.046 90.5601 166.321 90.9951 162.911 95.2601L164.231 96.5551L161.971 98.3701L163.046 107.14C163.046 107.14 166.486 95.4501 167.976 92.6401C168.66 91.91 169.444 91.2819 170.306 90.7751Z" fill="#96B7FF"/>
<path d="M177.601 91.0901C177.601 91.0901 173.346 95.7851 174.296 108.09L178.471 99.2501L176.971 96.8301L180.496 93.5251C180.496 93.5251 178.646 90.0251 177.341 90.3701L177.601 91.0901Z" fill="#96B7FF"/>
<path opacity="0.2" d="M177.601 91.0901C177.601 91.0901 173.346 95.7851 174.296 108.09L178.471 99.2501L176.971 96.8301L180.496 93.5251C180.496 93.5251 178.646 90.0251 177.341 90.3701L177.601 91.0901Z" fill="#96B7FF"/>
<path d="M168.746 92.4251L169.746 98.2701L177.431 91.5451C175.806 89.7501 176.831 85.0451 177.621 82.4501L175.441 84.0801L172.186 86.5001C172.247 87.171 172.192 87.8473 172.026 88.5001C171.781 89.5301 171.341 90.5001 170.861 90.7051L168.746 92.4251Z" fill="#96B7FF"/>
<path opacity="0.2" d="M172.026 88.5001C173.321 88.2101 175.026 86.8751 175.286 85.5551C175.39 85.0723 175.435 84.5787 175.421 84.0851L172.186 86.5001C172.246 87.171 172.192 87.8473 172.026 88.5001Z" fill="#96B7FF"/>
<path d="M177.031 90.0651C177.031 90.0651 173.741 92.6101 169.881 97.9651C169.881 97.9651 169.536 92.6151 170.881 90.7001L170.606 90.3701C168.592 91.2572 166.839 92.6465 165.516 94.4051L168.066 93.6001L169.806 98.3151L175.056 93.9851L178.586 94.5951C178.586 94.5951 178.391 91.1101 177.031 90.0651Z" fill="#96B7FF"/>
<path opacity="0.7" d="M177.031 90.0651C177.031 90.0651 173.741 92.6101 169.881 97.9651C169.881 97.9651 169.536 92.6151 170.881 90.7001L170.606 90.3701C168.592 91.2572 166.839 92.6465 165.516 94.4051L168.066 93.6001L169.806 98.3151L175.056 93.9851L178.586 94.5951C178.586 94.5951 178.391 91.1101 177.031 90.0651Z" fill="#96B7FF"/>
<path opacity="0.2" d="M184.196 99.4501C184.006 100.31 183.756 101.345 183.471 102.45C183.306 103.1 183.136 103.78 182.971 104.45C180.656 100.385 181.891 96.9851 181.891 96.9851C181.891 96.9851 183.121 98.2601 184.196 99.4501Z" fill="#96B7FF"/>
<path d="M182.851 91.805C185.226 91.305 195.081 106.02 193.641 110.905C192.516 114.71 184.401 122.44 184.401 122.44L182.971 118.265L187.721 108.74L183.471 102.455C182.33 100.875 181.767 98.9508 181.876 97.005C181.976 95.2369 182.303 93.4891 182.851 91.805Z" fill="#96B7FF"/>
<path d="M180.576 117.85L184.076 119.23L184.576 121.69C184.046 123.595 180.396 122.41 180.396 122.41L179.581 122.815C179.429 122.892 179.261 122.93 179.09 122.927C178.92 122.923 178.753 122.877 178.605 122.794C178.457 122.71 178.331 122.591 178.24 122.448C178.148 122.304 178.094 122.14 178.081 121.97L177.901 119.675C177.887 119.488 177.923 119.3 178.007 119.132C178.09 118.964 178.218 118.822 178.376 118.72L179.606 117.94C179.748 117.846 179.91 117.789 180.08 117.773C180.249 117.758 180.419 117.784 180.576 117.85Z" fill="#96B7FF"/>
<path d="M170.591 71.24C168.711 72.425 166.241 76.39 169.211 81.445C172.181 86.5 179.211 86.145 182.121 80.165C185.031 74.185 178.216 66.435 170.591 71.24Z" fill="#96B7FF"/>
<path d="M179.686 77.78C178.821 81.83 178.541 83.56 176.186 85.455C172.621 88.31 167.856 86.64 167.501 82.48C167.176 78.735 168.641 72.735 172.866 71.48C173.766 71.1855 174.727 71.1366 175.652 71.3382C176.577 71.5398 177.431 71.9848 178.126 72.627C178.822 73.2693 179.333 74.0855 179.607 74.9914C179.881 75.8973 179.908 76.86 179.686 77.78Z" fill="#96B7FF"/>
<path d="M173.971 69.5001C170.971 69.9001 166.941 73.2551 170.866 73.5601C170.996 74.7951 173.256 74.6001 174.836 73.7951C174.686 74.7201 176.371 76.3751 178.381 75.6351C177.256 76.3901 177.451 79.4901 178.881 79.5401C180.311 79.5901 183.431 80.1201 182.481 75.0851C181.531 70.0501 177.151 69.0451 173.971 69.5001Z" fill="#96B7FF"/>
<path d="M174.471 78.33C174.416 78.675 174.191 78.935 173.971 78.915C173.751 78.895 173.616 78.595 173.676 78.255C173.736 77.915 173.961 77.65 174.176 77.67C174.391 77.69 174.526 78 174.471 78.33Z" fill="#96B7FF"/>
<path d="M170.196 77.7801C170.136 78.1251 169.911 78.3851 169.696 78.3601C169.481 78.3351 169.346 78.0451 169.401 77.7001C169.456 77.3551 169.686 77.1001 169.901 77.1201C170.116 77.1401 170.251 77.4351 170.196 77.7801Z" fill="#96B7FF"/>
<path d="M169.971 77.1501L169.206 76.8301C169.206 76.8301 169.531 77.5001 169.971 77.1501Z" fill="#96B7FF"/>
<path d="M171.376 78.66C170.944 79.4162 170.416 80.1136 169.806 80.735C169.962 80.8772 170.147 80.9826 170.349 81.0432C170.55 81.1038 170.763 81.1181 170.971 81.085L171.376 78.66Z" fill="#96B7FF"/>
<path d="M172.691 82.5401C172.501 82.5575 172.311 82.5575 172.121 82.5401C172.108 82.5389 172.095 82.535 172.084 82.5288C172.072 82.5225 172.062 82.5139 172.054 82.5036C172.047 82.4933 172.041 82.4814 172.038 82.4688C172.034 82.4561 172.034 82.443 172.036 82.4301C172.041 82.4036 172.055 82.3799 172.076 82.3633C172.098 82.3467 172.124 82.3384 172.151 82.3401C172.582 82.3848 173.018 82.3316 173.426 82.1844C173.833 82.0372 174.203 81.7999 174.506 81.4901C174.525 81.4715 174.551 81.4611 174.578 81.4611C174.605 81.4611 174.631 81.4715 174.651 81.4901C174.669 81.5088 174.68 81.5339 174.68 81.5601C174.68 81.5863 174.669 81.6114 174.651 81.6301C174.131 82.1636 173.434 82.4875 172.691 82.5401Z" fill="#96B7FF"/>
<path d="M175.471 76.2401C175.445 76.24 175.419 76.2346 175.395 76.2243C175.371 76.214 175.349 76.199 175.331 76.1801C175.175 75.9898 174.974 75.8411 174.746 75.7469C174.519 75.6527 174.271 75.616 174.026 75.6401C174.001 75.6451 173.974 75.6447 173.949 75.6389C173.924 75.6331 173.9 75.6221 173.879 75.6066C173.859 75.591 173.841 75.5713 173.829 75.5486C173.816 75.526 173.808 75.5009 173.806 75.4751C173.803 75.4208 173.819 75.367 173.852 75.3238C173.885 75.2806 173.933 75.2509 173.986 75.2401C174.296 75.2024 174.61 75.2431 174.9 75.3584C175.19 75.4737 175.447 75.66 175.646 75.9001C175.679 75.9421 175.695 75.9954 175.689 76.0487C175.684 76.102 175.657 76.1509 175.616 76.1851C175.577 76.2212 175.525 76.2409 175.471 76.2401Z" fill="#96B7FF"/>
<path d="M168.816 75.3501C168.777 75.3531 168.738 75.3444 168.704 75.3251C168.671 75.3058 168.643 75.2768 168.626 75.2418C168.609 75.2068 168.602 75.1674 168.608 75.1288C168.613 75.0902 168.63 75.054 168.656 75.0251C168.854 74.7652 169.109 74.554 169.401 74.4075C169.693 74.2611 170.014 74.1833 170.341 74.1801C170.367 74.1818 170.392 74.1889 170.415 74.2009C170.438 74.213 170.458 74.2296 170.474 74.2499C170.49 74.2701 170.501 74.2935 170.508 74.3185C170.514 74.3435 170.515 74.3696 170.511 74.3951C170.504 74.4489 170.477 74.4982 170.435 74.5332C170.394 74.5683 170.341 74.5868 170.286 74.5851C170.027 74.591 169.773 74.6557 169.542 74.7744C169.312 74.8931 169.111 75.0625 168.956 75.2701C168.921 75.3131 168.871 75.3416 168.816 75.3501Z" fill="#96B7FF"/>
<path d="M174.266 77.7L173.501 77.38C173.501 77.38 173.806 78.065 174.266 77.7Z" fill="#96B7FF"/>
<path d="M180.526 81.265C180.267 81.6156 179.942 81.9117 179.569 82.1365C179.196 82.3613 178.782 82.5103 178.351 82.575C177.236 82.72 176.901 81.575 177.401 80.55C177.851 79.615 178.971 78.405 180.001 78.745C181.031 79.085 181.196 80.37 180.526 81.265Z" fill="#96B7FF"/>
<path d="M181.021 76.8151C181.021 76.8151 184.466 75.8151 186.266 78.6601C188.311 81.8851 184.351 85.685 185.196 86.88C186.041 88.075 184.596 89.185 183.821 87.88C183.821 87.88 184.061 89.93 182.691 89.715C181.321 89.5 181.621 86.88 181.621 86.88C181.621 86.88 180.686 87.7951 180.121 86.2851C179.556 84.7751 183.176 82.075 183.251 80.395C183.326 78.715 181.321 78.5701 181.321 78.5701L181.021 76.8151Z" fill="#96B7FF"/>
<circle cx="113.48" cy="79.1718" r="13.205" fill="#ACC6FF"/>
<path d="M112.026 76.7743C112.17 76.6785 112.347 76.5929 112.552 76.5266L112.552 78.1031C112.347 78.0369 112.17 77.9512 112.026 77.8554C111.688 77.63 111.624 77.4206 111.624 77.3149C111.624 77.2091 111.688 76.9997 112.026 76.7743Z" fill="#0054F5"/>
<path d="M114.409 81.817L114.409 80.2405C114.614 80.3068 114.791 80.3924 114.935 80.4882C115.273 80.7136 115.338 80.923 115.338 81.0288C115.338 81.1345 115.273 81.3439 114.935 81.5693C114.791 81.6651 114.614 81.7508 114.409 81.817Z" fill="#0054F5"/>
<path fill-rule="evenodd" clip-rule="evenodd" d="M113.481 86.5996C117.583 86.5996 120.908 83.2741 120.908 79.1718C120.908 75.0696 117.583 71.744 113.481 71.744C109.378 71.744 106.053 75.0696 106.053 79.1718C106.053 83.2741 109.378 86.5996 113.481 86.5996ZM114.409 74.5294C114.409 74.0167 113.993 73.601 113.481 73.601C112.968 73.601 112.552 74.0167 112.552 74.5294V74.6149C111.975 74.7232 111.441 74.9325 110.996 75.2293C110.326 75.676 109.767 76.3951 109.767 77.3149C109.767 78.2347 110.326 78.9538 110.996 79.4005C111.441 79.6973 111.975 79.9065 112.552 80.0149L112.552 81.8173C112.189 81.6994 111.92 81.5226 111.769 81.3487C111.433 80.9614 110.847 80.9199 110.459 81.256C110.072 81.592 110.03 82.1784 110.366 82.5657C110.889 83.1676 111.679 83.5643 112.552 83.7284L112.552 83.8142C112.552 84.327 112.968 84.7427 113.481 84.7427C113.993 84.7427 114.409 84.327 114.409 83.8142L114.409 83.7288C114.986 83.6204 115.52 83.4112 115.965 83.1144C116.635 82.6677 117.194 81.9486 117.194 81.0288C117.194 80.109 116.635 79.3899 115.965 78.9432C115.52 78.6464 114.986 78.4371 114.409 78.3288L114.409 76.5264C114.772 76.6442 115.041 76.821 115.192 76.9949C115.528 77.3822 116.115 77.4237 116.502 77.0877C116.889 76.7516 116.931 76.1652 116.595 75.7779C116.072 75.176 115.282 74.7793 114.409 74.6152V74.5294Z" fill="#0054F5"/>
<path fill-rule="evenodd" clip-rule="evenodd" d="M114.409 74.5294C114.409 74.0167 113.993 73.601 113.481 73.601C112.968 73.601 112.552 74.0167 112.552 74.5294V74.6149C111.975 74.7232 111.441 74.9325 110.996 75.2293C110.326 75.676 109.767 76.3951 109.767 77.3149C109.767 78.2347 110.326 78.9538 110.996 79.4005C111.441 79.6973 111.975 79.9065 112.552 80.0149L112.552 81.8173C112.189 81.6994 111.92 81.5226 111.769 81.3487C111.433 80.9614 110.847 80.9199 110.459 81.256C110.072 81.592 110.03 82.1784 110.366 82.5657C110.889 83.1676 111.679 83.5643 112.552 83.7284L112.552 83.8142C112.552 84.327 112.968 84.7427 113.481 84.7427C113.993 84.7427 114.409 84.327 114.409 83.8142L114.409 83.7288C114.986 83.6204 115.52 83.4112 115.965 83.1144C116.635 82.6677 117.194 81.9486 117.194 81.0288C117.194 80.109 116.635 79.3899 115.965 78.9432C115.52 78.6464 114.986 78.4371 114.409 78.3288L114.409 76.5264C114.772 76.6442 115.041 76.821 115.192 76.9949C115.528 77.3822 116.115 77.4237 116.502 77.0877C116.889 76.7516 116.931 76.1652 116.595 75.7779C116.072 75.176 115.282 74.7793 114.409 74.6152V74.5294ZM112.552 76.5266C112.347 76.5929 112.17 76.6785 112.026 76.7743C111.688 76.9997 111.624 77.2091 111.624 77.3149C111.624 77.4206 111.688 77.63 112.026 77.8554C112.17 77.9512 112.347 78.0369 112.552 78.1031L112.552 76.5266ZM114.409 80.2405L114.409 81.817C114.614 81.7508 114.791 81.6651 114.935 81.5693C115.273 81.3439 115.338 81.1345 115.338 81.0288C115.338 80.923 115.273 80.7136 114.935 80.4882C114.791 80.3924 114.614 80.3068 114.409 80.2405Z" fill="white"/>
<circle cx="81.8432" cy="134.193" r="13.205" fill="#ACC6FF"/>
<path fill-rule="evenodd" clip-rule="evenodd" d="M78.541 130.891V130.066C78.541 128.699 79.6495 127.59 81.0169 127.59H82.6675C84.035 127.59 85.1435 128.699 85.1435 130.066V130.891H86.7941C87.7057 130.891 88.4447 131.63 88.4447 132.542V135.489C86.3894 136.252 84.1654 136.668 81.8423 136.668C79.5191 136.668 77.2951 136.252 75.2397 135.489V132.542C75.2397 131.63 75.9788 130.891 76.8904 130.891H78.541ZM80.1916 130.066C80.1916 129.61 80.5611 129.241 81.0169 129.241H82.6675C83.1234 129.241 83.4929 129.61 83.4929 130.066V130.891H80.1916V130.066ZM81.0169 134.193C81.0169 133.737 81.3864 133.367 81.8422 133.367H81.8505C82.3063 133.367 82.6758 133.737 82.6758 134.193C82.6758 134.648 82.3063 135.018 81.8505 135.018H81.8422C81.3864 135.018 81.0169 134.648 81.0169 134.193Z" fill="#0051FF"/>
<path d="M75.2397 137.24V139.144C75.2397 140.056 75.9788 140.795 76.8904 140.795H86.7941C87.7057 140.795 88.4447 140.056 88.4447 139.144V137.24C86.3709 137.94 84.1501 138.319 81.8423 138.319C79.5344 138.319 77.3136 137.94 75.2397 137.24Z" fill="#0051FF"/>
<circle cx="81.8429" cy="134.193" r="0.825311" fill="white"/>
<circle cx="50.205" cy="114.477" r="13.205" fill="#ACC6FF"/>
<path d="M49.9623 112.243C49.64 111.92 49.1175 111.92 48.7952 112.243C48.4729 112.565 48.4729 113.087 48.7952 113.41L51.2711 115.886C51.5934 116.208 52.116 116.208 52.4383 115.886L54.9142 113.41C55.2365 113.087 55.2365 112.565 54.9142 112.243C54.5919 111.92 54.0693 111.92 53.747 112.243L52.68 113.31V110.35H55.1559C56.0675 110.35 56.8065 111.089 56.8065 112.001V116.127C56.8065 117.039 56.0675 117.778 55.1559 117.778H48.5534C47.6418 117.778 46.9028 117.039 46.9028 116.127V112.001C46.9028 111.089 47.6418 110.35 48.5534 110.35H51.0294L51.0294 113.31L49.9623 112.243Z" fill="#0054F5"/>
<path d="M51.0294 108.7C51.0294 108.244 51.3989 107.874 51.8547 107.874C52.3105 107.874 52.68 108.244 52.68 108.7V110.35H51.0294L51.0294 108.7Z" fill="#0054F5"/>
<path d="M45.2522 113.651C44.3406 113.651 43.6016 114.39 43.6016 115.302V119.429C43.6016 120.34 44.3406 121.079 45.2522 121.079H51.8547C52.7663 121.079 53.5053 120.34 53.5053 119.429H45.2522V113.651Z" fill="#0054F5"/>
<path d="M49.9623 112.243C49.64 111.92 49.1175 111.92 48.7952 112.243C48.4729 112.565 48.4729 113.087 48.7952 113.41L51.2711 115.886C51.5934 116.208 52.116 116.208 52.4383 115.886L54.9142 113.41C55.2365 113.087 55.2365 112.565 54.9142 112.243C54.5919 111.92 54.0693 111.92 53.747 112.243L52.68 113.31V110.35H51.0294L51.0294 113.31L49.9623 112.243Z" fill="white"/>
<circle cx="113.479" cy="114.477" r="13.205" fill="#ACC6FF"/>
<path d="M108.526 109.525C107.614 109.525 106.875 110.264 106.875 111.176V114.477C106.875 115.388 107.614 116.127 108.526 116.127L108.526 111.176H116.779C116.779 110.264 116.04 109.525 115.129 109.525H108.526Z" fill="#0054F5"/>
<path fill-rule="evenodd" clip-rule="evenodd" d="M110.177 114.477C110.177 113.565 110.916 112.826 111.827 112.826H118.43C119.341 112.826 120.08 113.565 120.08 114.477V117.778C120.08 118.69 119.341 119.429 118.43 119.429H111.827C110.916 119.429 110.177 118.69 110.177 117.778V114.477ZM115.129 117.778C116.04 117.778 116.779 117.039 116.779 116.127C116.779 115.216 116.04 114.477 115.129 114.477C114.217 114.477 113.478 115.216 113.478 116.127C113.478 117.039 114.217 117.778 115.129 117.778Z" fill="#0054F5"/>
<path d="M115.129 117.778C116.04 117.778 116.779 117.039 116.779 116.127C116.779 115.216 116.04 114.477 115.129 114.477C114.217 114.477 113.478 115.216 113.478 116.127C113.478 117.039 114.217 117.778 115.129 117.778Z" fill="white"/>
<circle cx="81.8422" cy="56.705" r="13.205" fill="#ACC6FF"/>
<path d="M84.3183 52.4038C84.3183 53.7712 83.2098 54.8797 81.8424 54.8797C80.4749 54.8797 79.3664 53.7712 79.3664 52.4038C79.3664 51.0364 80.4749 49.9279 81.8424 49.9279C83.2098 49.9279 84.3183 51.0364 84.3183 52.4038Z" fill="white"/>
<path d="M88.4448 54.0544C88.4448 54.966 87.7058 55.705 86.7942 55.705C85.8826 55.705 85.1436 54.966 85.1436 54.0544C85.1436 53.1428 85.8826 52.4038 86.7942 52.4038C87.7058 52.4038 88.4448 53.1428 88.4448 54.0544Z" fill="white"/>
<path d="M85.1436 59.8316C85.1436 58.0084 83.6656 56.5303 81.8424 56.5303C80.0191 56.5303 78.5411 58.0084 78.5411 59.8316V62.3075H85.1436V59.8316Z" fill="#0054F5"/>
<path d="M78.5411 54.0544C78.5411 54.966 77.8021 55.705 76.8905 55.705C75.9789 55.705 75.2399 54.966 75.2399 54.0544C75.2399 53.1428 75.9789 52.4038 76.8905 52.4038C77.8021 52.4038 78.5411 53.1428 78.5411 54.0544Z" fill="white"/>
<path d="M86.7942 62.3075V59.8316C86.7942 58.9616 86.5699 58.144 86.1758 57.4335C86.3735 57.3827 86.5807 57.3557 86.7942 57.3557C88.1616 57.3557 89.2702 58.4642 89.2702 59.8316V62.3075H86.7942Z" fill="#0054F5"/>
<path d="M77.5089 57.4335C77.1148 58.144 76.8905 58.9616 76.8905 59.8316V62.3075H74.4146V59.8316C74.4146 58.4642 75.5231 57.3557 76.8905 57.3557C77.104 57.3557 77.3112 57.3827 77.5089 57.4335Z" fill="#0054F5"/>
<circle cx="50.205" cy="79.1718" r="13.205" fill="#ACC6FF"/>
<path fill-rule="evenodd" clip-rule="evenodd" d="M46.9028 72.5693C46.447 72.5693 46.0775 72.9388 46.0775 73.3946V74.22H45.2522C44.3406 74.22 43.6016 74.959 43.6016 75.8706V84.1237C43.6016 85.0353 44.3406 85.7743 45.2522 85.7743H55.1559C56.0675 85.7743 56.8065 85.0353 56.8065 84.1237V75.8706C56.8065 74.959 56.0675 74.22 55.1559 74.22H54.3306V73.3946C54.3306 72.9388 53.9611 72.5693 53.5053 72.5693C53.0495 72.5693 52.68 72.9388 52.68 73.3946V74.22H47.7281V73.3946C47.7281 72.9388 47.3586 72.5693 46.9028 72.5693ZM46.9028 76.6959C46.447 76.6959 46.0775 77.0654 46.0775 77.5212C46.0775 77.977 46.447 78.3465 46.9028 78.3465H53.5053C53.9611 78.3465 54.3306 77.977 54.3306 77.5212C54.3306 77.0654 53.9611 76.6959 53.5053 76.6959H46.9028Z" fill="#0052FE"/>
<path d="M46.9028 76.6959C46.447 76.6959 46.0775 77.0654 46.0775 77.5212C46.0775 77.977 46.447 78.3465 46.9028 78.3465H53.5053C53.9611 78.3465 54.3306 77.977 54.3306 77.5212C54.3306 77.0654 53.9611 76.6959 53.5053 76.6959H46.9028Z" fill="white"/>
<circle cx="82" cy="95" r="9" fill="#ACC6FF"/>
<ellipse cx="82.0629" cy="95.0659" rx="4.82143" ry="4.82143" transform="rotate(-180 82.0629 95.0659)" fill="#779EF1"/>
<path d="M56.6655 198.429C56.6655 198.429 54.3555 193.209 57.1305 188.144C59.9055 183.079 60.7055 181.884 58.9905 180.814C57.2755 179.744 56.4155 184.859 56.4155 184.859C55.5866 182.529 55.5287 179.995 56.2505 177.629C57.4955 173.954 58.3255 167.944 56.6855 167.274C55.0455 166.604 56.2855 174.774 54.8255 177.539C54.1199 175.582 53.6728 173.542 53.4955 171.469C53.3355 168.499 53.7005 163.764 52.4155 162.529C51.1305 161.294 50.2905 162.124 51.4855 168.689C52.207 172.614 52.5835 176.594 52.6105 180.584C52.6105 180.584 49.9005 171.929 47.9955 171.669C46.0905 171.409 46.0805 174.169 47.6705 176.614C49.2605 179.059 52.3455 183.429 52.8305 185.654C52.8305 185.654 49.8305 179.154 47.0055 181.079C44.1805 183.004 49.3605 187.004 51.6605 188.449C53.9605 189.894 55.4955 198.769 55.4955 198.769L56.6655 198.429Z" fill="#96B7FF"/>
<path d="M46 194.724H65.105L63.56 208.399H47.545L46 194.724Z" fill="#96B7FF"/>
</svg>
