<svg width="250" height="250" viewBox="0 0 250 250" fill="none" xmlns="http://www.w3.org/2000/svg">
<rect width="250" height="250" fill="white"/>
<path d="M165.61 200.605H161.265V200.73H165.61V200.605Z" fill="#F9FBFF"/>
<path d="M55.4448 195.445H52.2798V195.57H55.4448V195.445Z" fill="#F9FBFF"/>
<path d="M112.575 197.555H65.7349V197.68H112.575V197.555Z" fill="#F9FBFF"/>
<path d="M152.04 187.5H140.455L146.545 137.895C146.69 136.859 147.199 135.908 147.98 135.212C148.761 134.516 149.764 134.12 150.81 134.095H201.365L193.95 187.5H152.04Z" fill="#F9FBFF"/>
<path d="M188.78 187.5H200.365L206.455 137.895C206.53 137.418 206.499 136.931 206.365 136.468C206.23 136.004 205.996 135.576 205.677 135.214C205.359 134.851 204.965 134.563 204.523 134.37C204.081 134.176 203.602 134.083 203.12 134.095H199.12C198.074 134.121 197.071 134.517 196.289 135.213C195.507 135.909 194.997 136.859 194.85 137.895L188.78 187.5Z" fill="#F9FBFF"/>
<path d="M184.5 187.46L186.595 163.46C186.642 162.939 186.866 162.449 187.23 162.072C187.594 161.696 188.075 161.455 188.595 161.39L189.46 161.28C190.154 161.191 190.797 160.868 191.282 160.363C191.767 159.858 192.064 159.202 192.125 158.505L192.51 154.13C192.547 153.706 192.496 153.279 192.359 152.876C192.223 152.473 192.004 152.103 191.717 151.79C191.429 151.476 191.08 151.225 190.69 151.054C190.301 150.883 189.88 150.795 189.455 150.795H208.815C209.24 150.795 209.661 150.883 210.05 151.054C210.44 151.225 210.789 151.476 211.077 151.79C211.364 152.103 211.583 152.473 211.719 152.876C211.856 153.279 211.907 153.706 211.87 154.13L211.5 158.5C211.438 159.198 211.14 159.853 210.654 160.358C210.168 160.863 209.525 161.186 208.83 161.275L207.965 161.385C207.445 161.449 206.963 161.69 206.599 162.066C206.235 162.443 206.011 162.933 205.965 163.455L203.865 187.455C203.791 188.299 203.403 189.086 202.779 189.658C202.154 190.231 201.337 190.549 200.49 190.55H181.14C181.984 190.546 182.796 190.227 183.418 189.655C184.039 189.084 184.425 188.301 184.5 187.46Z" fill="#F9FBFF"/>
<path d="M131.23 157.465C131.072 155.647 130.238 153.954 128.893 152.721C127.548 151.488 125.79 150.804 123.965 150.805H140.82C142.645 150.804 144.404 151.488 145.75 152.721C147.096 153.954 147.931 155.647 148.09 157.465L149.75 176.465H132.895L131.23 157.465Z" fill="#F9FBFF"/>
<path d="M116.5 150.805H124C125.825 150.804 127.583 151.488 128.928 152.721C130.273 153.954 131.107 155.647 131.265 157.465L132.93 176.465H173.075L174.74 157.465C174.899 155.647 175.733 153.955 177.078 152.723C178.422 151.49 180.18 150.806 182.005 150.805H189.505C189.93 150.805 190.351 150.893 190.741 151.064C191.13 151.236 191.48 151.486 191.767 151.8C192.054 152.113 192.273 152.483 192.41 152.886C192.546 153.289 192.597 153.716 192.56 154.14L192.175 158.515C192.114 159.212 191.817 159.868 191.332 160.373C190.847 160.878 190.204 161.201 189.51 161.29L188.645 161.4C188.125 161.465 187.644 161.706 187.28 162.082C186.916 162.459 186.692 162.949 186.645 163.47L184.55 187.47C184.476 188.314 184.089 189.101 183.464 189.673C182.839 190.246 182.023 190.564 181.175 190.565H124.795C123.948 190.564 123.132 190.246 122.508 189.673C121.884 189.1 121.497 188.314 121.425 187.47L119.325 163.47C119.279 162.948 119.055 162.458 118.691 162.081C118.327 161.705 117.845 161.464 117.325 161.4L116.465 161.29C115.77 161.202 115.126 160.879 114.64 160.374C114.154 159.869 113.856 159.213 113.795 158.515L113.41 154.14C113.373 153.713 113.426 153.284 113.564 152.879C113.703 152.474 113.925 152.102 114.216 151.788C114.507 151.474 114.861 151.224 115.254 151.055C115.647 150.886 116.072 150.801 116.5 150.805Z" fill="#F9FBFF"/>
<path d="M154.65 66.3549C154.65 66.3549 154.065 62.4999 156.885 59.9999C159.705 57.4999 159.455 56.0499 158.65 55.8549C157.845 55.6599 157.1 58.1399 155.86 58.8199C155.86 58.8199 155.82 55.2899 157.08 53.9899C158.34 52.6899 159 49.3399 157.8 49.2799C156.6 49.2199 156.48 51.2799 156.235 52.7249C155.99 54.1699 154.65 56.2249 154.65 56.2249C154.65 56.2249 154.39 53.0649 153.58 51.7649C152.77 50.4649 154.935 47.4949 154.08 46.1949C153.225 44.8949 151.76 47.3699 151.885 50.1549C152.01 52.9399 153.885 55.9149 153.43 58.8249C153.43 58.8249 152.61 56.7849 151.875 56.5949C151.14 56.4049 150.375 55.0599 149.9 54.5599C149.425 54.0599 148.785 55.7899 149.9 57.3999C151.015 59.0099 153.865 63.3199 153.43 66.7999L154.65 66.3549Z" fill="#F9FBFF"/>
<path d="M156.335 64.595L157.26 70.385C157.327 70.8057 157.301 71.2359 157.185 71.6459C157.07 72.0558 156.867 72.4359 156.59 72.7599C156.314 73.084 155.97 73.3442 155.584 73.5229C155.197 73.7016 154.776 73.7944 154.35 73.795H153.35C152.924 73.7945 152.504 73.7017 152.117 73.523C151.731 73.3443 151.388 73.0839 151.111 72.7598C150.835 72.4356 150.633 72.0555 150.518 71.6455C150.403 71.2355 150.378 70.8054 150.445 70.385L151.365 64.595H156.335Z" fill="#F9FBFF"/>
<path d="M142.38 75.01L207.6 75.01V71.66L142.38 71.66V75.01Z" fill="#F9FBFF"/>
<path d="M201.725 71.6549H204.6V59.3049H201.725V71.6549Z" fill="#F9FBFF"/>
<path d="M187.83 71.6549H190.705V59.3049H187.83V71.6549Z" fill="#F9FBFF"/>
<path d="M169.959 71.1609L172.792 71.6493L174.89 59.4788L172.057 58.9904L169.959 71.1609Z" fill="#F9FBFF"/>
<path d="M198.16 71.6599H201.035V60.9349H198.16V71.6599Z" fill="#F9FBFF"/>
<path d="M191.56 71.6599H194.435V60.9349H191.56V71.6599Z" fill="#F9FBFF"/>
<path d="M174.89 71.6599H177.765V60.9349H174.89V71.6599Z" fill="#F9FBFF"/>
<path d="M181.738 71.0215L184.545 71.6453L186.872 61.1757L184.065 60.552L181.738 71.0215Z" fill="#F9FBFF"/>
<path d="M195.68 71.6549H197.115V58.6899H195.68V71.6549Z" fill="#F9FBFF"/>
<path d="M178.59 71.6549H180.025V58.6899H178.59V71.6549Z" fill="#F9FBFF"/>
<path d="M207.6 96.6699H142.38V100.02H207.6V96.6699Z" fill="#F9FBFF"/>
<path d="M148.26 84.3199H145.385V96.6699H148.26V84.3199Z" fill="#F9FBFF"/>
<path d="M162.15 84.3199H159.275V96.6699H162.15V84.3199Z" fill="#F9FBFF"/>
<path d="M177.926 84.0068L175.092 84.4951L177.19 96.6656L180.023 96.1773L177.926 84.0068Z" fill="#F9FBFF"/>
<path d="M151.82 85.95H148.945V96.675H151.82V85.95Z" fill="#F9FBFF"/>
<path d="M158.42 85.95H155.545V96.675H158.42V85.95Z" fill="#F9FBFF"/>
<path d="M175.09 85.95H172.215V96.675H175.09V85.95Z" fill="#F9FBFF"/>
<path d="M165.926 85.5705L163.12 86.1942L165.446 96.6638L168.253 96.04L165.926 85.5705Z" fill="#F9FBFF"/>
<path d="M154.3 83.705H152.865V96.67H154.3V83.705Z" fill="#F9FBFF"/>
<path d="M171.39 83.705H169.955V96.67H171.39V83.705Z" fill="#F9FBFF"/>
<path d="M201.34 86.8949H187.34V96.5599H201.34V86.8949Z" fill="#F9FBFF"/>
<path d="M125 213.78C178.541 213.78 221.945 211.246 221.945 208.12C221.945 204.994 178.541 202.46 125 202.46C71.4584 202.46 28.0547 204.994 28.0547 208.12C28.0547 211.246 71.4584 213.78 125 213.78Z" fill="#F9FBFF"/>
<path d="M187.115 198.597H187.05C186.993 198.58 186.945 198.54 186.917 198.488C186.889 198.435 186.882 198.374 186.9 198.317C186.9 198.262 188.475 192.767 185.875 184.817C185.086 182.532 184.059 180.336 182.81 178.267C180.605 174.352 178.705 170.977 180.565 164.227C181.14 162.142 181.755 160.187 182.35 158.297C184.545 151.327 186.28 145.797 183.59 141.067C183.572 141.041 183.559 141.012 183.553 140.981C183.547 140.95 183.547 140.919 183.554 140.888C183.561 140.857 183.574 140.828 183.593 140.803C183.612 140.778 183.636 140.757 183.663 140.741C183.69 140.726 183.721 140.716 183.752 140.713C183.783 140.71 183.815 140.714 183.845 140.724C183.875 140.734 183.902 140.75 183.925 140.771C183.948 140.792 183.967 140.818 183.98 140.847C186.77 145.762 185.01 151.347 182.78 158.437C182.185 160.322 181.575 162.272 181 164.347C179.19 170.917 180.96 174.062 183.205 178.042C184.463 180.141 185.502 182.364 186.305 184.677C188.95 192.787 187.345 198.407 187.33 198.467C187.31 198.507 187.28 198.541 187.241 198.564C187.203 198.587 187.159 198.598 187.115 198.597Z" fill="#96B7FF"/>
<path d="M185.089 143.397C185.089 143.397 186.089 136.922 181.489 137.542C176.889 138.162 182.894 143.082 185.089 143.397Z" fill="#B3CAFF"/>
<path d="M181.864 148.772C181.864 148.772 179.584 143.407 176.514 145.117C173.444 146.827 178.629 149.407 181.864 148.772Z" fill="#B3CAFF"/>
<path d="M187.479 148.352C187.479 148.352 186.264 143.977 189.714 143.322C193.164 142.667 192.259 146.837 187.479 148.352Z" fill="#B3CAFF"/>
<path d="M186.66 157.812C186.66 157.812 190.66 152.912 192.805 155.722C194.95 158.532 189.895 160.037 186.66 157.812Z" fill="#B3CAFF"/>
<path d="M178.314 158.432C178.314 158.432 176.314 151.692 172.914 154.462C169.514 157.232 175.154 159.652 178.314 158.432Z" fill="#B3CAFF"/>
<path d="M176.615 168.812C176.615 168.812 178.255 161.407 173.23 163.032C168.205 164.657 172.705 167.727 176.615 168.812Z" fill="#B3CAFF"/>
<path d="M184.924 170.017C184.924 170.017 188.424 164.182 192.029 165.267C195.634 166.352 193.729 171.892 184.924 170.017Z" fill="#B3CAFF"/>
<path d="M182.825 182.017C182.825 182.017 177.78 174.387 174.935 177.702C172.09 181.017 178.165 184.277 182.825 182.017Z" fill="#B3CAFF"/>
<path d="M188.13 180.657C188.13 180.657 186.13 174.432 189.865 174.347C193.6 174.262 193.29 178.312 188.13 180.657Z" fill="#B3CAFF"/>
<g opacity="0.2">
<path d="M185.089 143.397C185.089 143.397 186.089 136.922 181.489 137.542C176.889 138.162 182.894 143.082 185.089 143.397Z" fill="url(#paint0_linear_551_14530)"/>
<path d="M181.864 148.772C181.864 148.772 179.584 143.407 176.514 145.117C173.444 146.827 178.629 149.407 181.864 148.772Z" fill="url(#paint1_linear_551_14530)"/>
<path d="M187.479 148.352C187.479 148.352 186.264 143.977 189.714 143.322C193.164 142.667 192.259 146.837 187.479 148.352Z" fill="url(#paint2_linear_551_14530)"/>
<path d="M186.66 157.812C186.66 157.812 190.66 152.912 192.805 155.722C194.95 158.532 189.895 160.037 186.66 157.812Z" fill="url(#paint3_linear_551_14530)"/>
<path d="M178.314 158.432C178.314 158.432 176.314 151.692 172.914 154.462C169.514 157.232 175.154 159.652 178.314 158.432Z" fill="url(#paint4_linear_551_14530)"/>
<path d="M176.615 168.812C176.615 168.812 178.255 161.407 173.23 163.032C168.205 164.657 172.705 167.727 176.615 168.812Z" fill="url(#paint5_linear_551_14530)"/>
<path d="M184.924 170.017C184.924 170.017 188.424 164.182 192.029 165.267C195.634 166.352 193.729 171.892 184.924 170.017Z" fill="url(#paint6_linear_551_14530)"/>
<path d="M182.825 182.017C182.825 182.017 177.78 174.387 174.935 177.702C172.09 181.017 178.165 184.277 182.825 182.017Z" fill="url(#paint7_linear_551_14530)"/>
<path d="M188.13 180.657C188.13 180.657 186.13 174.432 189.865 174.347C193.6 174.262 193.29 178.312 188.13 180.657Z" fill="url(#paint8_linear_551_14530)"/>
</g>
<path d="M184.435 152.147C184.404 152.143 184.374 152.133 184.348 152.118C184.321 152.102 184.298 152.082 184.28 152.057C184.28 152.027 181.95 148.937 180.49 148.357C180.46 148.347 180.433 148.332 180.409 148.312C180.386 148.291 180.367 148.266 180.354 148.238C180.341 148.21 180.333 148.179 180.333 148.148C180.332 148.117 180.338 148.086 180.349 148.057C180.361 148.028 180.379 148.002 180.401 147.981C180.423 147.959 180.45 147.942 180.479 147.931C180.508 147.921 180.539 147.916 180.571 147.918C180.602 147.919 180.632 147.928 180.66 147.942C182.03 148.487 183.96 150.897 184.5 151.602C186.044 150.186 187.305 148.489 188.215 146.602C188.227 146.575 188.245 146.551 188.266 146.53C188.288 146.51 188.314 146.495 188.342 146.484C188.37 146.474 188.399 146.47 188.429 146.471C188.459 146.472 188.488 146.479 188.515 146.492C188.542 146.503 188.567 146.52 188.587 146.541C188.608 146.562 188.624 146.588 188.634 146.615C188.644 146.643 188.649 146.673 188.647 146.702C188.646 146.732 188.638 146.76 188.625 146.787C188.565 146.922 187.075 150.122 184.625 152.092C184.599 152.115 184.569 152.132 184.536 152.141C184.503 152.151 184.468 152.153 184.435 152.147Z" fill="#B3CAFF"/>
<path d="M181.61 161.377C181.578 161.375 181.547 161.366 181.518 161.351C181.49 161.337 181.465 161.317 181.445 161.292C181.415 161.262 178.62 157.937 175.535 156.737C175.507 156.726 175.482 156.71 175.461 156.689C175.439 156.669 175.422 156.644 175.41 156.617C175.399 156.59 175.392 156.561 175.392 156.531C175.391 156.501 175.396 156.472 175.407 156.444C175.418 156.417 175.434 156.392 175.455 156.37C175.475 156.349 175.5 156.332 175.527 156.32C175.554 156.308 175.583 156.302 175.613 156.301C175.643 156.301 175.672 156.306 175.7 156.317C178.495 157.402 180.975 160.072 181.625 160.817C185.125 157.317 190.085 156.617 190.125 156.612C190.155 156.606 190.186 156.606 190.216 156.612C190.246 156.619 190.275 156.631 190.3 156.649C190.325 156.667 190.346 156.69 190.362 156.716C190.378 156.742 190.388 156.772 190.392 156.802C190.396 156.833 190.394 156.864 190.386 156.894C190.378 156.923 190.363 156.951 190.344 156.975C190.324 156.999 190.3 157.018 190.273 157.032C190.245 157.046 190.215 157.055 190.185 157.057C190.135 157.057 185.185 157.752 181.77 161.307C181.749 161.329 181.724 161.346 181.697 161.358C181.669 161.37 181.64 161.377 181.61 161.377Z" fill="#B3CAFF"/>
<path d="M180.765 173.097C180.726 173.097 180.688 173.087 180.655 173.067C177.52 171.312 174.495 166.112 174.365 165.892C174.35 165.866 174.34 165.837 174.337 165.808C174.333 165.778 174.335 165.748 174.343 165.719C174.351 165.69 174.364 165.663 174.383 165.64C174.401 165.616 174.424 165.597 174.45 165.582C174.476 165.567 174.504 165.558 174.534 165.554C174.564 165.55 174.594 165.552 174.622 165.56C174.651 165.568 174.678 165.581 174.702 165.6C174.725 165.618 174.745 165.641 174.76 165.667C174.79 165.717 177.76 170.812 180.76 172.597C181.585 171.937 186.21 168.352 190.1 167.642C190.129 167.635 190.159 167.635 190.188 167.641C190.217 167.646 190.245 167.658 190.269 167.675C190.294 167.692 190.314 167.714 190.33 167.739C190.345 167.764 190.356 167.792 190.36 167.822C190.366 167.851 190.365 167.881 190.359 167.909C190.353 167.938 190.342 167.966 190.325 167.99C190.308 168.014 190.287 168.035 190.262 168.051C190.237 168.066 190.209 168.077 190.18 168.082C186.1 168.832 180.975 173.002 180.925 173.047C180.88 173.083 180.822 173.101 180.765 173.097Z" fill="#B3CAFF"/>
<path d="M185.939 184.232C185.91 184.232 185.88 184.226 185.853 184.215C185.825 184.204 185.8 184.188 185.779 184.167C183.884 182.509 181.527 181.47 179.024 181.192C178.965 181.183 178.911 181.152 178.875 181.104C178.839 181.056 178.822 180.996 178.829 180.937C178.832 180.907 178.841 180.878 178.856 180.852C178.871 180.825 178.891 180.802 178.915 180.784C178.938 180.766 178.966 180.753 178.995 180.745C179.024 180.738 179.055 180.737 179.084 180.742C181.614 181.032 184.002 182.061 185.949 183.702C187.739 182.032 189.544 176.477 189.564 176.417C189.573 176.389 189.588 176.362 189.607 176.34C189.627 176.317 189.65 176.299 189.677 176.285C189.703 176.272 189.732 176.264 189.762 176.261C189.791 176.259 189.821 176.263 189.849 176.272C189.878 176.281 189.904 176.296 189.926 176.315C189.949 176.334 189.967 176.358 189.981 176.384C189.994 176.411 190.002 176.44 190.005 176.469C190.007 176.499 190.003 176.529 189.994 176.557C189.914 176.802 188.024 182.612 186.084 184.182C186.043 184.215 185.992 184.232 185.939 184.232Z" fill="#B3CAFF"/>
<path d="M197.605 208.172H177.915L176.6 196.027H198.92L197.605 208.172Z" fill="#96B7FF"/>
<path d="M199.379 198.327H176.139L175.839 195.752H199.679L199.379 198.327Z" fill="#C5D7FF"/>
<path d="M199.379 198.327H176.139L175.839 195.752H199.679L199.379 198.327Z" fill="#96B7FF"/>
<path d="M116.473 59.455C116.473 59.455 116.723 63.8 122.103 66.405C122.103 66.405 119.288 62.905 119.668 59.845L116.473 59.455Z" fill="#407BFF"/>
<path d="M116.473 59.455C116.473 59.455 116.723 63.8 122.103 66.405C122.103 66.405 119.288 62.905 119.668 59.845L116.473 59.455Z" fill="url(#paint9_linear_551_14530)"/>
<path d="M126.165 46.694L113.614 45.1552C112.915 45.0695 112.279 45.5666 112.193 46.2655L110.655 58.8165C110.569 59.5155 111.066 60.1515 111.765 60.2372L124.316 61.7761C125.015 61.8618 125.651 61.3646 125.737 60.6657L127.276 48.1147C127.361 47.4158 126.864 46.7797 126.165 46.694Z" fill="#407BFF"/>
<path d="M126.165 46.694L113.614 45.1552C112.915 45.0695 112.279 45.5666 112.193 46.2655L110.655 58.8165C110.569 59.5155 111.066 60.1515 111.765 60.2372L124.316 61.7761C125.015 61.8618 125.651 61.3646 125.737 60.6657L127.276 48.1147C127.361 47.4158 126.864 46.7797 126.165 46.694Z" fill="url(#paint10_linear_551_14530)"/>
<path d="M115.92 51.177C116.752 49.9613 118.148 50.5565 118.817 51.5991C119.624 50.6705 121.081 50.2863 121.738 51.5991C122.852 53.8322 120.124 55.6178 118.845 56.3016C118.704 56.3818 118.583 56.4493 118.482 56.5L118.148 56.2509C116.978 55.394 114.516 53.2201 115.92 51.177Z" fill="white"/>
<path d="M48.5295 205.69H112.655C113.234 205.693 113.809 205.577 114.343 205.351C114.877 205.125 115.359 204.792 115.76 204.374C116.162 203.955 116.473 203.459 116.677 202.916C116.881 202.373 116.972 201.794 116.945 201.215L111.58 71.4701C111.517 70.272 111.001 69.1427 110.135 68.3122C109.269 67.4817 108.119 67.0124 106.92 67.0001H42.7945C42.2149 66.9967 41.6406 67.1114 41.1067 67.3372C40.5728 67.563 40.0905 67.8951 39.6891 68.3133C39.2877 68.7315 38.9757 69.2271 38.772 69.7698C38.5684 70.3125 38.4774 70.891 38.5045 71.4701L43.8695 201.225C43.9342 202.422 44.4518 203.549 45.3172 204.378C46.1826 205.208 47.3311 205.677 48.5295 205.69Z" fill="#407BFF"/>
<path d="M48.5295 205.69H112.655C113.234 205.693 113.809 205.577 114.343 205.351C114.877 205.125 115.359 204.792 115.76 204.374C116.162 203.955 116.473 203.459 116.677 202.916C116.881 202.373 116.972 201.794 116.945 201.215L111.58 71.4701C111.517 70.272 111.001 69.1427 110.135 68.3122C109.269 67.4817 108.119 67.0124 106.92 67.0001H42.7945C42.2149 66.9967 41.6406 67.1114 41.1067 67.3372C40.5728 67.563 40.0905 67.8951 39.6891 68.3133C39.2877 68.7315 38.9757 69.2271 38.772 69.7698C38.5684 70.3125 38.4774 70.891 38.5045 71.4701L43.8695 201.225C43.9342 202.422 44.4518 203.549 45.3172 204.378C46.1826 205.208 47.3311 205.677 48.5295 205.69Z" fill="url(#paint11_linear_551_14530)"/>
<path d="M52.5747 205.69H116.7C117.28 205.693 117.855 205.579 118.389 205.353C118.923 205.126 119.406 204.794 119.807 204.375C120.208 203.956 120.52 203.46 120.724 202.917C120.927 202.374 121.018 201.795 120.99 201.215L115.625 71.4701C115.564 70.2724 115.048 69.1431 114.183 68.3125C113.318 67.4819 112.169 67.0125 110.97 67.0001H46.8397C46.2603 66.9967 45.6862 67.1114 45.1526 67.3372C44.6189 67.5631 44.1369 67.8953 43.7359 68.3136C43.3349 68.7319 43.0234 69.2275 42.8203 69.7702C42.6172 70.3129 42.5268 70.8913 42.5547 71.4701L47.9147 201.225C47.9782 202.422 48.4954 203.55 49.3611 204.38C50.2267 205.209 51.3759 205.678 52.5747 205.69Z" fill="url(#paint12_linear_551_14530)"/>
<path d="M116.625 203.77C116.956 203.772 117.284 203.707 117.59 203.578C117.895 203.449 118.171 203.26 118.4 203.02C118.63 202.781 118.808 202.498 118.924 202.187C119.04 201.877 119.091 201.546 119.075 201.215L113.71 71.47C113.675 70.7854 113.381 70.1397 112.886 69.6649C112.392 69.19 111.735 68.9218 111.05 68.915H46.9147C46.5831 68.9119 46.2544 68.9766 45.9487 69.1052C45.6431 69.2339 45.367 69.4237 45.1375 69.6631C44.908 69.9024 44.7299 70.1862 44.6142 70.497C44.4985 70.8077 44.4476 71.1389 44.4647 71.47L49.8347 201.225C49.869 201.91 50.1635 202.555 50.6579 203.03C51.1522 203.505 51.8092 203.773 52.4947 203.78L116.625 203.77Z" fill="white"/>
<path d="M53.9947 190.225H113.995C114.216 190.227 114.435 190.183 114.638 190.097C114.842 190.011 115.025 189.884 115.178 189.725C115.331 189.565 115.449 189.376 115.526 189.169C115.603 188.961 115.636 188.741 115.625 188.52L111.04 77.5951C111.018 77.1378 110.822 76.7063 110.492 76.3891C110.162 76.072 109.722 75.8934 109.265 75.8901H49.2647C49.0434 75.8878 48.8239 75.9308 48.6198 76.0165C48.4158 76.1023 48.2314 76.229 48.0782 76.3888C47.925 76.5485 47.8062 76.738 47.729 76.9455C47.6519 77.153 47.6181 77.3741 47.6297 77.5951L52.2147 188.52C52.2377 188.978 52.4349 189.409 52.7658 189.726C53.0968 190.043 53.5364 190.222 53.9947 190.225Z" fill="url(#paint13_linear_551_14530)"/>
<path opacity="0.2" d="M84.4545 201.57C85.0825 201.575 85.7048 201.451 86.2835 201.207C86.8621 200.963 87.3848 200.604 87.8197 200.151C88.2545 199.698 88.5923 199.161 88.8124 198.572C89.0324 197.984 89.1301 197.357 89.0995 196.73C89.036 195.441 88.4834 194.225 87.5544 193.33C86.6253 192.434 85.3898 191.926 84.0995 191.91C83.4711 191.905 82.8483 192.029 82.2693 192.273C81.6903 192.517 81.1673 192.877 80.7324 193.331C80.2975 193.785 79.9598 194.322 79.7401 194.911C79.5203 195.5 79.4232 196.127 79.4545 196.755C79.5192 198.043 80.0724 199.258 81.0013 200.152C81.9302 201.047 83.165 201.554 84.4545 201.57ZM84.0845 192.57C85.2123 192.581 86.2932 193.023 87.1063 193.805C87.9194 194.586 88.4035 195.649 88.4595 196.775C88.4875 197.316 88.4045 197.857 88.2157 198.364C88.0268 198.872 87.7361 199.336 87.3614 199.727C86.9868 200.118 86.536 200.428 86.037 200.638C85.5379 200.849 85.0011 200.955 84.4595 200.95C83.3325 200.939 82.2523 200.498 81.4393 199.717C80.6263 198.937 80.1417 197.876 80.0845 196.75C80.0558 196.209 80.1382 195.667 80.3268 195.159C80.5153 194.651 80.8059 194.187 81.1806 193.795C81.5554 193.404 82.0064 193.093 82.5058 192.882C83.0052 192.671 83.5425 192.565 84.0845 192.57Z" fill="#407BFF"/>
<path d="M51.7553 88.7436C51.6161 85.8899 53.8923 83.5 56.7494 83.5H103.045C105.688 83.5 107.875 85.5573 108.036 88.1957L108.676 98.6957C108.851 101.571 106.566 104 103.685 104H57.2616C54.5948 104 52.3974 101.907 52.2675 99.2436L51.7553 88.7436Z" fill="#F5F8FF"/>
<path d="M52.7553 114.244C52.6161 111.39 54.8923 109 57.7494 109H104.045C106.688 109 108.875 111.057 109.036 113.696L109.676 124.196C109.851 127.071 107.566 129.5 104.685 129.5H58.2616C55.5948 129.5 53.3974 127.407 53.2675 124.744L52.7553 114.244Z" fill="#F5F8FF"/>
<path d="M53.7553 139.744C53.6161 136.89 55.8923 134.5 58.7494 134.5H105.045C107.688 134.5 109.875 136.557 110.036 139.196L110.676 149.696C110.851 152.571 108.566 155 105.685 155H59.2616C56.5948 155 54.3974 152.907 54.2675 150.244L53.7553 139.744Z" fill="#F5F8FF"/>
<path d="M54.7553 165.244C54.6161 162.39 56.8923 160 59.7494 160H106.045C108.688 160 110.875 162.057 111.036 164.696L111.676 175.196C111.851 178.071 109.566 180.5 106.685 180.5H60.2616C57.5948 180.5 55.3974 178.407 55.2675 175.744L54.7553 165.244Z" fill="#F5F8FF"/>
<rect x="54.9995" y="86.9454" width="16.0221" height="5.14995" rx="2" fill="#96B7FF"/>
<rect x="54.9995" y="97.6268" width="8.58326" height="1.90739" rx="0.762956" fill="#DDE6FA"/>
<rect x="54.9995" y="94.3843" width="8.58326" height="1.90739" rx="0.762956" fill="#C7DAFC"/>
<rect x="65.4907" y="97.6268" width="5.53143" height="1.90739" rx="0.762956" fill="#DDE6FA"/>
<rect x="65.4907" y="94.3843" width="5.53143" height="1.90739" rx="0.762956" fill="#C7DAFC"/>
<rect x="72.9282" y="97.6268" width="4.57774" height="1.90739" rx="0.762956" fill="#DDE6FA"/>
<rect x="72.9282" y="94.3843" width="4.57774" height="1.90739" rx="0.762956" fill="#C7DAFC"/>
<rect x="79.4121" y="97.6268" width="7.05735" height="1.90739" rx="0.762956" fill="#DDE6FA"/>
<rect x="79.4121" y="94.3843" width="7.05735" height="1.90739" rx="0.762956" fill="#C7DAFC"/>
<rect x="90.4771" y="94.3843" width="16.0221" height="5.14995" rx="1.90739" fill="#0052FE"/>
<rect x="55.9995" y="113" width="15.8571" height="5.09694" rx="2" fill="#96B7FF"/>
<rect x="91.1108" y="120.362" width="15.8571" height="5.09694" rx="1.88776" fill="#0052FE"/>
<rect x="55.9995" y="123.572" width="8.4949" height="1.88776" rx="0.755102" fill="#DDE6FA"/>
<rect x="55.9995" y="120.362" width="8.4949" height="1.88776" rx="0.755102" fill="#C7DAFC"/>
<rect x="66.3823" y="123.572" width="5.47449" height="1.88776" rx="0.755102" fill="#DDE6FA"/>
<rect x="66.3823" y="120.362" width="5.47449" height="1.88776" rx="0.755102" fill="#C7DAFC"/>
<rect x="73.7437" y="123.572" width="4.53061" height="1.88776" rx="0.755102" fill="#DDE6FA"/>
<rect x="73.7437" y="120.362" width="4.53061" height="1.88776" rx="0.755102" fill="#C7DAFC"/>
<rect x="80.1636" y="123.572" width="6.98469" height="1.88776" rx="0.755102" fill="#DDE6FA"/>
<rect x="80.1636" y="120.362" width="6.98469" height="1.88776" rx="0.755102" fill="#C7DAFC"/>
<rect x="56.9995" y="138" width="15.8571" height="5.09694" rx="2" fill="#96B7FF"/>
<rect x="92.1108" y="145.362" width="15.8571" height="5.09694" rx="1.88776" fill="#0052FE"/>
<rect x="56.9995" y="148.572" width="8.4949" height="1.88776" rx="0.755102" fill="#DDE6FA"/>
<rect x="56.9995" y="145.362" width="8.4949" height="1.88776" rx="0.755102" fill="#C7DAFC"/>
<rect x="67.3823" y="148.572" width="5.47449" height="1.88776" rx="0.755102" fill="#DDE6FA"/>
<rect x="67.3823" y="145.362" width="5.47449" height="1.88776" rx="0.755102" fill="#C7DAFC"/>
<rect x="74.7437" y="148.572" width="4.53061" height="1.88776" rx="0.755102" fill="#DDE6FA"/>
<rect x="74.7437" y="145.362" width="4.53061" height="1.88776" rx="0.755102" fill="#C7DAFC"/>
<rect x="81.1636" y="148.572" width="6.98469" height="1.88776" rx="0.755102" fill="#DDE6FA"/>
<rect x="81.1636" y="145.362" width="6.98469" height="1.88776" rx="0.755102" fill="#C7DAFC"/>
<rect x="57.9995" y="164" width="15.8571" height="5.09694" rx="2" fill="#96B7FF"/>
<rect x="93.1108" y="171.362" width="15.8571" height="5.09694" rx="1.88776" fill="#0052FE"/>
<rect x="57.9995" y="174.572" width="8.4949" height="1.88776" rx="0.755102" fill="#DDE6FA"/>
<rect x="57.9995" y="171.362" width="8.4949" height="1.88776" rx="0.755102" fill="#C7DAFC"/>
<rect x="68.3823" y="174.572" width="5.47449" height="1.88776" rx="0.755102" fill="#DDE6FA"/>
<rect x="68.3823" y="171.362" width="5.47449" height="1.88776" rx="0.755102" fill="#C7DAFC"/>
<rect x="75.7437" y="174.572" width="4.53061" height="1.88776" rx="0.755102" fill="#DDE6FA"/>
<rect x="75.7437" y="171.362" width="4.53061" height="1.88776" rx="0.755102" fill="#C7DAFC"/>
<rect x="82.1636" y="174.572" width="6.98469" height="1.88776" rx="0.755102" fill="#DDE6FA"/>
<rect x="82.1636" y="171.362" width="6.98469" height="1.88776" rx="0.755102" fill="#C7DAFC"/>
<path d="M146.16 104.425C146.45 105.33 146.71 106.25 146.98 107.165C147.25 108.08 147.505 109.005 147.75 109.925C148.25 111.768 148.723 113.62 149.17 115.48L148.85 114.83L150.925 117.875C151.615 118.875 152.285 119.92 152.965 120.945C153.645 121.97 154.3 123.01 154.965 124.055C155.63 125.1 156.265 126.145 156.89 127.21L155.08 128.555C154.24 127.65 153.435 126.72 152.615 125.795C151.795 124.87 151.01 123.93 150.22 122.99C149.43 122.05 148.64 121.105 147.87 120.15L145.53 117.285L145.36 117.07L145.21 116.635C144.587 114.828 143.985 113.015 143.405 111.195C143.11 110.29 142.835 109.375 142.56 108.46C142.285 107.545 142.015 106.63 141.77 105.71L146.16 104.425Z" fill="#96B7FF"/>
<path d="M144.65 100.39C147.15 101.145 148.09 108.39 148.09 108.39L143.06 112C143.06 112 139.935 106.955 140.3 103.135C140.485 101.225 142.18 99.655 144.65 100.39Z" fill="#96B7FF"/>
<path d="M144.68 100.4C140.645 112.9 139.58 115.375 139.33 121.575C136.33 121.41 130.08 121.13 123.975 120.795C123.705 117.525 123.535 114.76 123.435 112.425C123.345 110.315 123.315 108.56 123.33 107.09C123.395 99.155 124.715 99.7 124.715 99.7C125.939 99.3887 127.182 99.1517 128.435 98.99H128.65C129.675 98.885 129.885 98.88 131.235 98.83C133.525 98.865 135.64 98.95 138.235 99.215L138.735 99.27C139.2 99.325 139.66 99.39 140.105 99.455C140.4 99.5 140.7 99.55 140.98 99.605L141.94 99.79C143.53 100.085 144.68 100.4 144.68 100.4Z" fill="#96B7FF"/>
<path opacity="0.5" d="M144.68 100.4C140.645 112.9 139.58 115.375 139.33 121.575C136.33 121.41 130.08 121.13 123.975 120.795C123.705 117.525 123.535 114.76 123.435 112.425C123.345 110.315 123.315 108.56 123.33 107.09C123.395 99.155 124.715 99.7 124.715 99.7C125.939 99.3887 127.182 99.1517 128.435 98.99H128.65C129.675 98.885 129.885 98.88 131.235 98.83C133.525 98.865 135.64 98.95 138.235 99.215L138.735 99.27C139.2 99.325 139.66 99.39 140.105 99.455C140.4 99.5 140.7 99.55 140.98 99.605L141.94 99.79C143.53 100.085 144.68 100.4 144.68 100.4Z" fill="#96B7FF"/>
<path d="M151.76 206.96L149.14 207.3C145.06 195.085 141.425 179.8 138.93 168.25C138.54 166.44 138.175 164.725 137.845 163.125C137.69 162.36 137.54 161.625 137.395 160.925C136.685 157.425 136.155 154.685 135.83 152.98C135.595 151.735 135.47 151.045 135.47 151.045L144.945 150L145.13 152.425L145.735 160.425L145.81 161.34L146.205 166.625L146.89 175.625C151.565 187.84 151.76 206.96 151.76 206.96Z" fill="#96B7FF"/>
<path d="M130.165 205.8L127.525 205.665C125.525 191.81 124.665 174.485 124.305 162.435C124.25 160.57 124.205 158.825 124.17 157.24C124.17 157.16 124.17 157.085 124.17 157.01C124.105 153.87 124.07 151.375 124.055 149.795C124.055 148.555 124.055 147.88 124.055 147.88L133.555 148.505L133.145 152.47L132.55 158.3L132.43 159.44L132.02 163.415L130.92 174.065C133.36 186.945 130.165 205.8 130.165 205.8Z" fill="#96B7FF"/>
<path opacity="0.2" d="M132.555 158.3L124.17 157.24C124.17 157.16 124.17 157.085 124.17 157.01C124.105 153.87 124.07 151.375 124.055 149.795L133.155 152.47L132.555 158.3Z" fill="#96B7FF"/>
<path opacity="0.2" d="M136.695 157.445L145.36 155.445L145.13 152.4L135.83 153C136.03 154.065 136.33 155.585 136.695 157.445Z" fill="#96B7FF"/>
<path d="M152.665 205.285C152.665 204.955 148.595 205.215 148.595 205.215C148.595 205.215 146.095 207.755 143.67 208.33C141.245 208.905 142.6 210.33 145.31 210.33H152.03C153.95 210.355 152.745 208.715 152.665 205.285Z" fill="#96B7FF"/>
<path d="M146.1 206.155C146.041 206.102 146 206.033 145.982 205.956C145.964 205.879 145.97 205.798 146 205.725C146.015 205.666 146.043 205.611 146.08 205.564C146.118 205.517 146.166 205.478 146.22 205.45C146.507 205.33 146.823 205.296 147.13 205.35C146.8 205.175 146.51 204.96 146.5 204.745C146.49 204.53 146.58 204.49 146.765 204.405C146.843 204.369 146.929 204.351 147.015 204.351C147.101 204.351 147.186 204.369 147.265 204.405C147.815 204.635 148.16 205.58 148.17 205.62C148.18 205.647 148.18 205.678 148.17 205.705C148.16 205.719 148.146 205.73 148.13 205.735C147.603 205.997 147.035 206.166 146.45 206.235C146.328 206.247 146.205 206.219 146.1 206.155ZM146.325 205.655C146.297 205.669 146.273 205.689 146.253 205.713C146.233 205.737 146.218 205.765 146.21 205.795C146.17 205.955 146.21 206 146.235 206.01C146.43 206.17 147.17 205.945 147.77 205.69C147.303 205.538 146.802 205.519 146.325 205.635V205.655ZM146.855 204.62C146.8 204.645 146.71 204.695 146.71 204.755C146.71 204.935 147.305 205.255 147.905 205.48C147.772 205.122 147.529 204.816 147.21 204.605C147.157 204.586 147.101 204.576 147.045 204.575C146.981 204.569 146.916 204.578 146.855 204.6V204.62Z" fill="#96B7FF"/>
<path d="M130.925 205.285C130.925 204.955 126.855 205.215 126.855 205.215C126.855 205.215 124.355 207.755 121.93 208.33C119.505 208.905 120.86 210.33 123.57 210.33H130.285C132.21 210.355 131.03 208.715 130.925 205.285Z" fill="#96B7FF"/>
<path d="M124.36 206.155C124.301 206.102 124.26 206.033 124.242 205.956C124.225 205.879 124.231 205.798 124.26 205.725C124.275 205.666 124.303 205.611 124.341 205.564C124.379 205.517 124.426 205.478 124.48 205.45C124.768 205.33 125.084 205.296 125.39 205.35C125.06 205.175 124.77 204.96 124.76 204.745C124.75 204.53 124.84 204.49 125.025 204.405C125.107 204.366 125.197 204.345 125.288 204.345C125.379 204.345 125.468 204.366 125.55 204.405C126.1 204.635 126.445 205.58 126.455 205.62C126.465 205.647 126.465 205.678 126.455 205.705C126.445 205.719 126.431 205.73 126.415 205.735C125.888 205.997 125.32 206.166 124.735 206.235C124.605 206.253 124.472 206.225 124.36 206.155ZM124.585 205.655C124.557 205.669 124.533 205.689 124.513 205.713C124.493 205.737 124.479 205.765 124.47 205.795C124.43 205.955 124.47 206 124.495 206.01C124.69 206.17 125.43 205.945 126.03 205.69C125.563 205.538 125.063 205.519 124.585 205.635V205.655ZM125.115 204.62C125.06 204.645 124.97 204.695 124.97 204.755C124.97 204.935 125.565 205.255 126.165 205.48C126.032 205.122 125.789 204.816 125.47 204.605C125.417 204.586 125.361 204.576 125.305 204.575C125.241 204.569 125.176 204.578 125.115 204.6V204.62Z" fill="#96B7FF"/>
<path d="M155.93 126.56L160.325 128.765L157.15 130.47C157.15 130.47 154.735 129.785 154.92 127.895L155.93 126.56Z" fill="#96B7FF"/>
<path d="M160.79 130.535L159.46 132.69L157.15 130.47L160.325 128.765L160.79 130.535Z" fill="#96B7FF"/>
<path d="M128.385 87.7849C128.385 88.0899 128.23 88.3399 128.03 88.3499C127.83 88.3599 127.665 88.1199 127.66 87.8199C127.655 87.5199 127.815 87.2649 128.015 87.2549C128.215 87.2449 128.38 87.4999 128.385 87.7849Z" fill="#96B7FF"/>
<path d="M128.105 87.265L127.365 87.09C127.365 87.09 127.75 87.64 128.105 87.265Z" fill="#96B7FF"/>
<path d="M128.13 88.09C127.869 88.8017 127.512 89.4746 127.07 90.09C127.23 90.1935 127.411 90.2609 127.6 90.2877C127.789 90.3144 127.982 90.2999 128.165 90.245L128.13 88.09Z" fill="#96B7FF"/>
<path d="M127.945 85.785C127.973 85.7926 128.002 85.7926 128.03 85.785C128.243 85.701 128.473 85.6682 128.702 85.689C128.93 85.7099 129.15 85.7838 129.345 85.905C129.384 85.9308 129.432 85.9405 129.479 85.9322C129.525 85.9238 129.567 85.898 129.595 85.86C129.608 85.8413 129.618 85.8201 129.623 85.7977C129.629 85.7752 129.63 85.7519 129.626 85.7292C129.622 85.7064 129.614 85.6846 129.602 85.665C129.59 85.6454 129.574 85.6284 129.555 85.615C129.313 85.4599 129.038 85.3642 128.752 85.3355C128.466 85.3069 128.178 85.3461 127.91 85.45C127.866 85.4668 127.83 85.5004 127.81 85.5434C127.791 85.5865 127.789 85.6355 127.805 85.68C127.817 85.7082 127.836 85.7328 127.861 85.7512C127.885 85.7697 127.914 85.7813 127.945 85.785Z" fill="#96B7FF"/>
<path d="M137.21 91.855C136.585 94.055 136.635 97.855 138.09 99.425C138.09 99.425 139.28 101.55 135.09 101.325C130.5 101.075 130.17 98.935 130.17 98.935C132.73 98.48 132.815 96.64 132.52 94.89L137.21 91.855Z" fill="#96B7FF"/>
<path d="M124.565 105.24C122.69 105.45 120.835 105.6 118.95 105.7C118.01 105.745 117.07 105.79 116.115 105.805C115.16 105.82 114.215 105.835 113.17 105.77C112.9 105.77 112.64 105.74 112.29 105.69C112.103 105.663 111.917 105.625 111.735 105.575L111.28 105.44C110.75 105.26 110.28 105.06 109.835 104.86C108.93 104.46 108.09 104.02 107.25 103.575C105.584 102.68 103.966 101.7 102.4 100.64L103.4 98.61C105.17 99.165 106.935 99.77 108.665 100.36C109.53 100.655 110.395 100.95 111.235 101.21C111.65 101.335 112.06 101.445 112.42 101.535L112.645 101.57C112.755 101.595 112.7 101.57 112.77 101.57H113.27C114.08 101.54 114.995 101.48 115.895 101.405L118.625 101.165C120.45 101 122.295 100.835 124.125 100.695L124.565 105.24Z" fill="#96B7FF"/>
<path d="M103.845 99.64L103.66 95.395L99.9949 96.325C99.9949 96.325 99.4949 100.45 102.445 100.74L103.845 99.64Z" fill="#96B7FF"/>
<path d="M102.645 93.705L99.5 93.745L99.995 96.325L103.66 95.395L102.645 93.705Z" fill="#96B7FF"/>
<path d="M138.605 86.53C138.425 90.255 138.43 91.835 136.56 93.825C133.75 96.825 129.17 95.91 128.225 92.235C127.37 88.93 127.805 83.39 131.46 81.735C132.244 81.361 133.111 81.1977 133.978 81.261C134.844 81.3243 135.678 81.612 136.399 82.0959C137.12 82.5798 137.703 83.2432 138.09 84.0207C138.477 84.7982 138.654 85.663 138.605 86.53Z" fill="#96B7FF"/>
<path d="M130.23 89.1649C130.23 89.1649 131.465 92.5749 134.005 93.9349C135.045 94.4949 137.92 94.5999 138.875 94.0949C141.72 92.5949 143.915 85.8449 143.575 83.9199C143.03 80.8649 139.24 79.3749 137.355 79.7049C137.355 79.7049 130.945 78.5199 129.46 80.6699C125.285 86.7149 130.23 89.1649 130.23 89.1649Z" fill="#96B7FF"/>
<path d="M131.455 88.58C131.33 89.263 130.999 89.8913 130.505 90.38C129.82 91.07 129.18 90.765 129.12 90.025C129.06 89.285 129.36 88.2 130.17 87.77C130.98 87.34 131.56 87.81 131.455 88.58Z" fill="#96B7FF"/>
<path d="M123.975 120.795L139.33 121.575C139.33 121.575 146.265 131.215 145.97 153.465L135.47 154.925L134.68 149L134.605 155L123.23 154.5L123.79 137.84C123.79 137.84 123.445 126.305 123.975 120.795Z" fill="#96B7FF"/>
<path d="M126.91 121.235L126.96 122.93L124.065 122.775C123.93 122.775 123.82 122.69 123.82 122.61L123.79 121.24C123.79 121.145 123.92 121.07 124.065 121.08L126.91 121.235Z" fill="#96B7FF"/>
<path d="M137.455 121.81L137.505 123.505L127.68 122.97L127.63 121.27L137.455 121.81Z" fill="#96B7FF"/>
<path d="M140.205 123.655L138.205 123.545L138.16 121.845L139.66 121.93C139.707 121.929 139.754 121.94 139.796 121.962C139.838 121.984 139.874 122.016 139.9 122.055L140.48 123.45C140.53 123.56 140.38 123.66 140.205 123.655Z" fill="#96B7FF"/>
<path opacity="0.2" d="M134.68 149C136.624 146.139 137.912 142.885 138.455 139.47C138.455 139.47 140.145 149.12 135.21 153L134.68 149Z" fill="#96B7FF"/>
<path d="M135.15 154.075L146.235 152.4V153.7L135.35 155.545L135.15 154.075Z" fill="#96B7FF"/>
<path d="M123.03 153.7C123.26 153.7 134.685 154.26 134.685 154.26V155.545L123.03 154.965V153.7Z" fill="#96B7FF"/>
<path opacity="0.2" d="M126.96 105.61C126.96 105.61 125.93 111.32 123.435 112.425C123.345 110.315 123.315 108.56 123.33 107.09C124.504 106.514 125.717 106.019 126.96 105.61Z" fill="#96B7FF"/>
<path d="M140.27 81.96C140.27 81.96 142.71 77.52 147.13 79.375C151.55 81.23 147.655 84.415 147.46 89.19C147.265 93.965 150.82 92.315 150.82 92.315C150.82 92.315 150.16 93.815 148.645 93.435C148.645 93.435 150.49 95.15 152.01 94.095C152.01 94.095 151.745 97.565 147.59 96.325C143.435 95.085 142.315 87.515 142.185 85.925C142.055 84.335 140.27 81.96 140.27 81.96Z" fill="#96B7FF"/>
<path d="M137.355 80.25C137.355 80.25 132.265 77.635 129.115 80.25C128.219 80.9658 127.55 81.9252 127.187 83.0129C126.824 84.1005 126.783 85.2698 127.07 86.38C127.07 86.38 126.625 81.88 129.985 80.21C133.345 78.54 137.355 81.235 137.355 81.235V80.25Z" fill="#96B7FF"/>
<path d="M141.03 80.75C141.613 80.1454 142.301 79.6509 143.06 79.29C143.826 78.9101 144.675 78.7246 145.53 78.75C146.369 78.785 147.186 79.0309 147.905 79.465C148.262 79.6716 148.597 79.9145 148.905 80.19C149.227 80.4788 149.454 80.859 149.555 81.28C149.668 82.1043 149.57 82.944 149.27 83.72C149.025 84.495 148.735 85.245 148.49 86.015C147.99 87.515 147.67 89.18 148.06 90.765C147.63 89.19 147.91 87.52 148.37 85.98C148.6 85.2 148.87 84.44 149.09 83.665C149.356 82.9205 149.433 82.1216 149.315 81.34C149.135 80.58 148.42 80.12 147.745 79.735C147.061 79.3518 146.293 79.1424 145.51 79.125C144.732 79.1568 143.969 79.3465 143.266 79.6826C142.564 80.0187 141.938 80.4941 141.425 81.08L141.03 80.75Z" fill="#96B7FF"/>
<path d="M128.435 99C129.15 99.5701 129.775 100.244 130.29 101C131.24 102.345 133.73 105.63 138.09 104.415C142.45 103.2 142.795 99.955 142.795 99.955C142.795 99.955 135.19 98 128.435 99Z" fill="#96B7FF"/>
<path d="M126.375 99.325C121.715 100.205 116.57 101 116.57 101L119.52 107.035C119.52 107.035 126.91 109.77 127.405 103.645C127.58 101.465 127.495 99.115 126.375 99.325Z" fill="#96B7FF"/>
<defs>
<linearGradient id="paint0_linear_551_14530" x1="182.49" y1="137.5" x2="182.49" y2="144.814" gradientUnits="userSpaceOnUse">
<stop stop-color="#C0D4FF"/>
<stop offset="1" stop-color="#6190FF"/>
</linearGradient>
<linearGradient id="paint1_linear_551_14530" x1="178.721" y1="144.78" x2="178.721" y2="149.853" gradientUnits="userSpaceOnUse">
<stop stop-color="#C0D4FF"/>
<stop offset="1" stop-color="#6190FF"/>
</linearGradient>
<linearGradient id="paint2_linear_551_14530" x1="189.534" y1="143.253" x2="189.534" y2="149.578" gradientUnits="userSpaceOnUse">
<stop stop-color="#C0D4FF"/>
<stop offset="1" stop-color="#6190FF"/>
</linearGradient>
<linearGradient id="paint3_linear_551_14530" x1="189.989" y1="154.852" x2="189.989" y2="159.852" gradientUnits="userSpaceOnUse">
<stop stop-color="#C0D4FF"/>
<stop offset="1" stop-color="#6190FF"/>
</linearGradient>
<linearGradient id="paint4_linear_551_14530" x1="175.087" y1="153.794" x2="175.087" y2="159.949" gradientUnits="userSpaceOnUse">
<stop stop-color="#C0D4FF"/>
<stop offset="1" stop-color="#6190FF"/>
</linearGradient>
<linearGradient id="paint5_linear_551_14530" x1="173.935" y1="162.799" x2="173.935" y2="170.257" gradientUnits="userSpaceOnUse">
<stop stop-color="#C0D4FF"/>
<stop offset="1" stop-color="#6190FF"/>
</linearGradient>
<linearGradient id="paint6_linear_551_14530" x1="189.338" y1="165.132" x2="189.338" y2="171.668" gradientUnits="userSpaceOnUse">
<stop stop-color="#C0D4FF"/>
<stop offset="1" stop-color="#6190FF"/>
</linearGradient>
<linearGradient id="paint7_linear_551_14530" x1="178.515" y1="176.867" x2="178.515" y2="184.185" gradientUnits="userSpaceOnUse">
<stop stop-color="#C0D4FF"/>
<stop offset="1" stop-color="#6190FF"/>
</linearGradient>
<linearGradient id="paint8_linear_551_14530" x1="189.986" y1="174.346" x2="189.986" y2="182.174" gradientUnits="userSpaceOnUse">
<stop stop-color="#C0D4FF"/>
<stop offset="1" stop-color="#6190FF"/>
</linearGradient>
<linearGradient id="paint9_linear_551_14530" x1="119.288" y1="53.669" x2="119.288" y2="64.0157" gradientUnits="userSpaceOnUse">
<stop offset="0.439506" stop-color="#C0D4FF"/>
<stop offset="1" stop-color="#6190FF"/>
</linearGradient>
<linearGradient id="paint10_linear_551_14530" x1="121.429" y1="33.3685" x2="118.676" y2="55.8217" gradientUnits="userSpaceOnUse">
<stop offset="0.439506" stop-color="#C0D4FF"/>
<stop offset="1" stop-color="#6190FF"/>
</linearGradient>
<linearGradient id="paint11_linear_551_14530" x1="65" y1="56.25" x2="96.5" y2="267.25" gradientUnits="userSpaceOnUse">
<stop stop-color="#6190FF"/>
<stop offset="1" stop-color="#C0D4FF"/>
</linearGradient>
<linearGradient id="paint12_linear_551_14530" x1="77.4985" y1="12.5" x2="91.9985" y2="190.5" gradientUnits="userSpaceOnUse">
<stop offset="0.439506" stop-color="#C0D4FF"/>
<stop offset="1" stop-color="#6190FF"/>
</linearGradient>
<linearGradient id="paint13_linear_551_14530" x1="81.5" y1="-13.75" x2="89.75" y2="200.25" gradientUnits="userSpaceOnUse">
<stop offset="0.439506" stop-color="#C0D4FF"/>
<stop offset="1" stop-color="#6190FF"/>
</linearGradient>
</defs>
</svg>
