<svg width="250" height="250" viewBox="0 0 250 250" fill="none" xmlns="http://www.w3.org/2000/svg">
<rect width="250" height="250" fill="white"/>
<path d="M165.61 200.605H161.265V200.73H165.61V200.605Z" fill="#F9FBFF"/>
<path d="M112.575 197.555H65.7349V197.68H112.575V197.555Z" fill="#F9FBFF"/>
<path d="M155.615 67.025H35.54V168.21H155.615V67.025Z" fill="#F9FBFF"/>
<path d="M155.62 69.21H37.4751V165.82H155.62V69.21Z" fill="white"/>
<path d="M156.085 67.33H153.865V168.21H156.085V67.33Z" fill="#F9FBFF"/>
<path d="M213.84 66.6801H167.68V191.1H213.84V66.6801Z" fill="#F9FBFF"/>
<path d="M173.235 138.28C174.403 138.28 175.35 137.333 175.35 136.165C175.35 134.997 174.403 134.05 173.235 134.05C172.067 134.05 171.12 134.997 171.12 136.165C171.12 137.333 172.067 138.28 173.235 138.28Z" fill="#F9FBFF"/>
<path d="M60.3995 48.6005C61.5596 43.6854 58.5155 38.7606 53.6005 37.6005C48.6854 36.4404 43.7605 39.4845 42.6005 44.3995C41.4404 49.3146 44.4844 54.2395 49.3995 55.3995C54.3146 56.5596 59.2395 53.5156 60.3995 48.6005Z" fill="#F9FBFF"/>
<path d="M59.1341 47.9746C59.9459 43.7592 57.1867 39.6838 52.9713 38.8721C48.7558 38.0603 44.6805 40.8195 43.8687 45.0349C43.057 49.2503 45.8162 53.3257 50.0316 54.1374C54.247 54.9492 58.3224 52.19 59.1341 47.9746Z" fill="white"/>
<path d="M51.1337 47.0875C51.0508 47.0872 50.9693 47.0656 50.8971 47.0247L47.2955 44.9873C47.1843 44.9244 47.1025 44.82 47.0681 44.6969C47.0337 44.5739 47.0495 44.4422 47.1121 44.3307C47.1432 44.275 47.1851 44.226 47.2353 44.1866C47.2855 44.1471 47.343 44.118 47.4045 44.101C47.466 44.0839 47.5303 44.0792 47.5936 44.0872C47.657 44.0951 47.7181 44.1155 47.7735 44.1473L50.6702 45.7791V41.1685C50.6702 41.0404 50.7211 40.9176 50.8116 40.8271C50.9022 40.7365 51.025 40.6857 51.153 40.6857C51.2811 40.6857 51.4039 40.7365 51.4944 40.8271C51.5849 40.9176 51.6358 41.0404 51.6358 41.1685V46.6047C51.6358 46.6885 51.614 46.7708 51.5725 46.8436C51.531 46.9164 51.4713 46.9771 51.3992 47.0199C51.3198 47.0692 51.2271 47.0928 51.1337 47.0875Z" fill="#F9FBFF"/>
<path d="M125 213.78C178.541 213.78 221.945 211.246 221.945 208.12C221.945 204.994 178.541 202.46 125 202.46C71.4584 202.46 28.0547 204.994 28.0547 208.12C28.0547 211.246 71.4584 213.78 125 213.78Z" fill="#F9FBFF"/>
<path d="M46.1709 198.5C46.1709 198.5 43.8609 193.28 46.6359 188.215C49.4109 183.15 50.2109 181.955 48.4959 180.885C46.7809 179.815 45.9209 184.93 45.9209 184.93C45.0919 182.6 45.0341 180.065 45.7559 177.7C47.0009 174.025 47.8309 168.015 46.1909 167.345C44.5509 166.675 45.7909 174.845 44.3309 177.61C43.6253 175.653 43.1782 173.613 43.0009 171.54C42.8409 168.57 43.2059 163.835 41.9209 162.6C40.6359 161.365 39.7959 162.195 40.9909 168.76C41.7124 172.685 42.0888 176.665 42.1159 180.655C42.1159 180.655 39.4059 172 37.5009 171.74C35.5959 171.48 35.5859 174.24 37.1759 176.685C38.7659 179.13 41.8509 183.5 42.3359 185.725C42.3359 185.725 39.3359 179.225 36.5109 181.15C33.6859 183.075 38.8659 187.075 41.1659 188.52C43.4659 189.965 45.0009 198.84 45.0009 198.84L46.1709 198.5Z" fill="#96B7FF"/>
<path d="M35.5059 194.795H54.6109L53.0659 208.47H37.0509L35.5059 194.795Z" fill="#96B7FF"/>
<path d="M189 55.5H175.065C173.925 55.5 172.833 55.9525 172.027 56.758C171.222 57.5634 170.77 58.6559 170.77 59.795V71.93C170.77 73.0691 171.222 74.1616 172.027 74.967C172.833 75.7725 173.925 76.225 175.065 76.225H184L186.9 81.025V76.225H189C190.139 76.225 191.231 75.7725 192.037 74.967C192.842 74.1616 193.295 73.0691 193.295 71.93V59.785C193.292 58.6476 192.838 57.5577 192.033 56.7544C191.228 55.9511 190.137 55.5 189 55.5Z" fill="url(#paint0_linear_551_14725)"/>
<path d="M181.216 68.9996C181.111 69.0031 181.007 68.9836 180.911 68.9426C180.815 68.9015 180.731 68.8401 180.664 68.763L177.667 65.403C177.608 65.3361 177.562 65.2585 177.534 65.1748C177.506 65.0912 177.495 65.003 177.502 64.9153C177.51 64.8277 177.535 64.7423 177.577 64.664C177.619 64.5858 177.677 64.5162 177.747 64.4592C177.818 64.4022 177.899 64.359 177.987 64.332C178.075 64.305 178.167 64.2948 178.259 64.3019C178.351 64.3089 178.441 64.3332 178.523 64.3733C178.605 64.4134 178.678 64.4685 178.738 64.5355L181.199 67.3012L185.261 62.7372C185.382 62.6016 185.555 62.5171 185.741 62.5023C185.927 62.4875 186.112 62.5436 186.255 62.6583C186.396 62.7734 186.483 62.9372 186.498 63.1137C186.512 63.2902 186.453 63.4649 186.332 63.5995L181.735 68.763C181.671 68.8351 181.591 68.8935 181.502 68.9343C181.413 68.9751 181.315 68.9974 181.216 68.9996Z" fill="white"/>
<path d="M62.8006 208.465H148.336C148.668 208.472 148.998 208.407 149.304 208.275C149.609 208.143 149.882 207.946 150.105 207.699C150.327 207.452 150.494 207.16 150.593 206.842C150.693 206.525 150.722 206.19 150.681 205.86L137.681 76.7799C137.597 76.0724 137.261 75.4188 136.733 74.94C136.206 74.4611 135.523 74.1894 134.811 74.1749H49.2656C48.9331 74.168 48.603 74.2328 48.2977 74.3649C47.9925 74.497 47.7193 74.6934 47.4968 74.9406C47.2743 75.1878 47.1076 75.4801 47.0082 75.7975C46.9088 76.1149 46.8789 76.45 46.9206 76.7799L59.9206 205.86C60.0041 206.569 60.3419 207.224 60.8716 207.703C61.4012 208.182 62.0866 208.453 62.8006 208.465Z" fill="url(#paint1_linear_551_14725)"/>
<path d="M63.7004 208.465H149.235C149.568 208.472 149.898 208.407 150.203 208.275C150.509 208.143 150.782 207.947 151.004 207.699C151.227 207.452 151.393 207.16 151.493 206.842C151.592 206.525 151.622 206.19 151.58 205.86L138.58 76.78C138.497 76.0724 138.161 75.4188 137.633 74.94C137.106 74.4611 136.423 74.1894 135.71 74.175H50.1654C49.8333 74.1688 49.5037 74.2341 49.1991 74.3665C48.8945 74.499 48.6219 74.6954 48.3999 74.9426C48.1779 75.1897 48.0117 75.4817 47.9126 75.7987C47.8135 76.1157 47.7837 76.4504 47.8254 76.78L60.8254 205.86C60.9087 206.568 61.2459 207.223 61.7744 207.702C62.303 208.181 62.9872 208.452 63.7004 208.465Z" fill="#407BFF"/>
<path d="M63.7004 208.465H149.235C149.568 208.472 149.898 208.407 150.203 208.275C150.509 208.143 150.782 207.947 151.004 207.699C151.227 207.452 151.393 207.16 151.493 206.842C151.592 206.525 151.622 206.19 151.58 205.86L138.58 76.78C138.497 76.0724 138.161 75.4188 137.633 74.94C137.106 74.4611 136.423 74.1894 135.71 74.175H50.1654C49.8333 74.1688 49.5037 74.2341 49.1991 74.3665C48.8945 74.499 48.6219 74.6954 48.3999 74.9426C48.1779 75.1897 48.0117 75.4817 47.9126 75.7987C47.8135 76.1157 47.7837 76.4504 47.8254 76.78L60.8254 205.86C60.9087 206.568 61.2459 207.223 61.7744 207.702C62.303 208.181 62.9872 208.452 63.7004 208.465Z" fill="url(#paint2_linear_551_14725)"/>
<path d="M79.9106 83.9549H107.911C108.177 83.9607 108.442 83.9088 108.687 83.8029C108.932 83.6969 109.151 83.5393 109.33 83.3409C109.508 83.1425 109.642 82.908 109.721 82.6532C109.801 82.3985 109.824 82.1296 109.791 81.8649L109.006 74.0999C108.995 73.9982 108.947 73.904 108.872 73.835C108.796 73.7659 108.698 73.7268 108.596 73.7249H77.1456C77.0976 73.7239 77.05 73.7331 77.0059 73.7521C76.9618 73.7711 76.9223 73.7993 76.89 73.8348C76.8578 73.8704 76.8336 73.9125 76.819 73.9582C76.8044 74.0039 76.7999 74.0523 76.8056 74.0999L77.5906 81.8649C77.6574 82.4357 77.9297 82.9626 78.3567 83.3472C78.7836 83.7319 79.336 83.9479 79.9106 83.9549Z" fill="#263238"/>
<path d="M90.6456 72.27L90.9756 75.525H95.1656L94.8356 72.27C94.7693 71.7013 94.4993 71.1758 94.0756 70.7907C93.6519 70.4055 93.1031 70.1868 92.5306 70.175C92.2634 70.1701 91.9983 70.2227 91.7532 70.3291C91.5081 70.4356 91.2887 70.5936 91.1099 70.7922C90.9312 70.9909 90.7972 71.2257 90.7171 71.4806C90.637 71.7356 90.6126 72.0048 90.6456 72.27ZM91.9156 72.45C91.9012 72.3426 91.9101 72.2333 91.9419 72.1298C91.9737 72.0262 92.0276 71.9307 92.0998 71.8499C92.172 71.7691 92.2609 71.7049 92.3603 71.6618C92.4597 71.6187 92.5673 71.5976 92.6756 71.6C92.9071 71.6057 93.1287 71.6949 93.2996 71.8511C93.4705 72.0073 93.5792 72.22 93.6056 72.45C93.6193 72.557 93.6098 72.6657 93.5776 72.7687C93.5455 72.8717 93.4915 72.9665 93.4193 73.0467C93.3472 73.1269 93.2586 73.1906 93.1596 73.2335C93.0606 73.2763 92.9535 73.2973 92.8456 73.295C92.6146 73.2905 92.3931 73.2024 92.2221 73.047C92.0511 72.8916 91.9422 72.6795 91.9156 72.45Z" fill="#4C6CAF"/>
<path d="M79.9106 83.9549H107.911C108.177 83.9607 108.442 83.9088 108.687 83.8029C108.932 83.6969 109.151 83.5393 109.33 83.3409C109.508 83.1425 109.642 82.908 109.721 82.6532C109.801 82.3985 109.824 82.1296 109.791 81.8649L109.006 74.0999C108.995 73.9982 108.947 73.904 108.872 73.835C108.796 73.7659 108.698 73.7268 108.596 73.7249H77.1456C77.0976 73.7239 77.05 73.7331 77.0059 73.7521C76.9618 73.7711 76.9223 73.7993 76.89 73.8348C76.8578 73.8704 76.8336 73.9125 76.819 73.9582C76.8044 74.0039 76.7999 74.0523 76.8056 74.0999L77.5906 81.8649C77.6574 82.4357 77.9297 82.9626 78.3567 83.3472C78.7836 83.7319 79.336 83.9479 79.9106 83.9549Z" fill="url(#paint3_linear_551_14725)"/>
<path d="M136.71 78.38H51.8354L64.1255 204.655H149L136.71 78.38Z" fill="white"/>
<path opacity="0.3" d="M54.5 88H136.215" stroke="#B8C7FF" stroke-miterlimit="10"/>
<path d="M130.962 96.975H61.5067L61.1367 93.205H130.597L130.962 96.975Z" fill="url(#paint4_linear_551_14725)"/>
<g opacity="0.3">
<path d="M131.466 102.89H68.8211C68.7205 102.898 68.6193 102.886 68.5238 102.853C68.4283 102.82 68.3407 102.768 68.2664 102.7C68.1921 102.631 68.1328 102.548 68.0923 102.456C68.0517 102.363 68.0308 102.263 68.0308 102.162C68.0308 102.062 68.0517 101.962 68.0923 101.869C68.1328 101.777 68.1921 101.694 68.2664 101.625C68.3407 101.557 68.4283 101.505 68.5238 101.472C68.6193 101.439 68.7205 101.427 68.8211 101.435H131.466C131.567 101.427 131.668 101.439 131.763 101.472C131.859 101.505 131.947 101.557 132.021 101.625C132.095 101.694 132.154 101.777 132.195 101.869C132.236 101.962 132.256 102.062 132.256 102.162C132.256 102.263 132.236 102.363 132.195 102.456C132.154 102.548 132.095 102.631 132.021 102.7C131.947 102.768 131.859 102.82 131.763 102.853C131.668 102.886 131.567 102.898 131.466 102.89Z" fill="url(#paint5_linear_551_14725)"/>
</g>
<g opacity="0.3">
<path d="M131.821 106.525H62.3609C62.1673 106.525 61.9816 106.448 61.8447 106.311C61.7078 106.174 61.6309 105.989 61.6309 105.795C61.6309 105.601 61.7078 105.416 61.8447 105.279C61.9816 105.142 62.1673 105.065 62.3609 105.065H131.821C132.014 105.065 132.2 105.142 132.337 105.279C132.474 105.416 132.551 105.601 132.551 105.795C132.551 105.989 132.474 106.174 132.337 106.311C132.2 106.448 132.014 106.525 131.821 106.525Z" fill="url(#paint6_linear_551_14725)"/>
</g>
<g opacity="0.3">
<path d="M132.171 110.155H62.7158C62.62 110.155 62.525 110.136 62.4365 110.099C62.3479 110.063 62.2674 110.009 62.1996 109.941C62.1319 109.873 62.0781 109.793 62.0414 109.704C62.0047 109.616 61.9858 109.521 61.9858 109.425C61.9858 109.329 62.0047 109.234 62.0414 109.146C62.0781 109.057 62.1319 108.977 62.1996 108.909C62.2674 108.841 62.3479 108.787 62.4365 108.751C62.525 108.714 62.62 108.695 62.7158 108.695H132.171C132.267 108.695 132.362 108.714 132.45 108.751C132.539 108.787 132.619 108.841 132.687 108.909C132.755 108.977 132.809 109.057 132.845 109.146C132.882 109.234 132.901 109.329 132.901 109.425C132.901 109.521 132.882 109.616 132.845 109.704C132.809 109.793 132.755 109.873 132.687 109.941C132.619 110.009 132.539 110.063 132.45 110.099C132.362 110.136 132.267 110.155 132.171 110.155Z" fill="url(#paint7_linear_551_14725)"/>
</g>
<g opacity="0.3">
<path d="M132.526 113.785H63.0708C62.8772 113.785 62.6915 113.708 62.5546 113.571C62.4177 113.434 62.3408 113.249 62.3408 113.055C62.3408 112.861 62.4177 112.676 62.5546 112.539C62.6915 112.402 62.8772 112.325 63.0708 112.325H132.526C132.719 112.325 132.905 112.402 133.042 112.539C133.179 112.676 133.256 112.861 133.256 113.055C133.256 113.249 133.179 113.434 133.042 113.571C132.905 113.708 132.719 113.785 132.526 113.785Z" fill="url(#paint8_linear_551_14725)"/>
</g>
<g opacity="0.3">
<path d="M132.881 117.415H63.4211C63.2386 117.4 63.0684 117.317 62.9444 117.182C62.8203 117.047 62.7515 116.871 62.7515 116.687C62.7515 116.504 62.8203 116.328 62.9444 116.193C63.0684 116.058 63.2386 115.975 63.4211 115.96H132.881C133.064 115.975 133.234 116.058 133.358 116.193C133.482 116.328 133.551 116.504 133.551 116.687C133.551 116.871 133.482 117.047 133.358 117.182C133.234 117.317 133.064 117.4 132.881 117.415Z" fill="url(#paint9_linear_551_14725)"/>
</g>
<g opacity="0.3">
<path d="M133.231 121.045H63.7757C63.6751 121.053 63.5739 121.041 63.4784 121.008C63.3829 120.975 63.2952 120.923 63.221 120.855C63.1467 120.786 63.0874 120.703 63.0468 120.611C63.0063 120.518 62.9854 120.418 62.9854 120.318C62.9854 120.217 63.0063 120.117 63.0468 120.024C63.0874 119.932 63.1467 119.849 63.221 119.78C63.2952 119.712 63.3829 119.66 63.4784 119.627C63.5739 119.594 63.6751 119.582 63.7757 119.59H133.231C133.331 119.582 133.433 119.594 133.528 119.627C133.624 119.66 133.711 119.712 133.785 119.78C133.86 119.849 133.919 119.932 133.96 120.024C134 120.117 134.021 120.217 134.021 120.318C134.021 120.418 134 120.518 133.96 120.611C133.919 120.703 133.86 120.786 133.785 120.855C133.711 120.923 133.624 120.975 133.528 121.008C133.433 121.041 133.331 121.053 133.231 121.045Z" fill="url(#paint10_linear_551_14725)"/>
</g>
<g opacity="0.3">
<path d="M126.786 124.675H64.1312C64.0306 124.683 63.9293 124.671 63.8338 124.638C63.7384 124.605 63.6507 124.553 63.5764 124.485C63.5022 124.416 63.4429 124.333 63.4023 124.241C63.3618 124.148 63.3408 124.048 63.3408 123.948C63.3408 123.847 63.3618 123.747 63.4023 123.654C63.4429 123.562 63.5022 123.479 63.5764 123.41C63.6507 123.342 63.7384 123.29 63.8338 123.257C63.9293 123.224 64.0306 123.212 64.1312 123.22H126.786C126.887 123.212 126.988 123.224 127.084 123.257C127.179 123.29 127.267 123.342 127.341 123.41C127.415 123.479 127.474 123.562 127.515 123.654C127.556 123.747 127.577 123.847 127.577 123.948C127.577 124.048 127.556 124.148 127.515 124.241C127.474 124.333 127.415 124.416 127.341 124.485C127.267 124.553 127.179 124.605 127.084 124.638C126.988 124.671 126.887 124.683 126.786 124.675Z" fill="url(#paint11_linear_551_14725)"/>
</g>
<path d="M134.736 135.785H65.281L64.916 132.015H134.371L134.736 135.785Z" fill="url(#paint12_linear_551_14725)"/>
<g opacity="0.3">
<path d="M135.24 141.705H72.5853C72.4847 141.713 72.3834 141.701 72.2879 141.668C72.1925 141.635 72.1048 141.583 72.0305 141.515C71.9563 141.446 71.897 141.363 71.8564 141.271C71.8159 141.178 71.7949 141.079 71.7949 140.978C71.7949 140.877 71.8159 140.777 71.8564 140.684C71.897 140.592 71.9563 140.509 72.0305 140.44C72.1048 140.372 72.1925 140.32 72.2879 140.287C72.3834 140.254 72.4847 140.242 72.5853 140.25H135.24C135.341 140.242 135.442 140.254 135.538 140.287C135.633 140.32 135.721 140.372 135.795 140.44C135.869 140.509 135.929 140.592 135.969 140.684C136.01 140.777 136.031 140.877 136.031 140.978C136.031 141.079 136.01 141.178 135.969 141.271C135.929 141.363 135.869 141.446 135.795 141.515C135.721 141.583 135.633 141.635 135.538 141.668C135.442 141.701 135.341 141.713 135.24 141.705Z" fill="url(#paint13_linear_551_14725)"/>
</g>
<g opacity="0.3">
<path d="M135.597 145.345H66.1419C66.0413 145.353 65.9401 145.341 65.8446 145.308C65.7491 145.275 65.6615 145.223 65.5872 145.155C65.5129 145.086 65.4536 145.003 65.4131 144.911C65.3725 144.818 65.3516 144.718 65.3516 144.617C65.3516 144.517 65.3725 144.417 65.4131 144.324C65.4536 144.232 65.5129 144.149 65.5872 144.08C65.6615 144.012 65.7491 143.96 65.8446 143.927C65.9401 143.894 66.0413 143.882 66.1419 143.89H135.597C135.698 143.882 135.799 143.894 135.894 143.927C135.99 143.96 136.077 144.012 136.152 144.08C136.226 144.149 136.285 144.232 136.326 144.324C136.366 144.417 136.387 144.517 136.387 144.617C136.387 144.718 136.366 144.818 136.326 144.911C136.285 145.003 136.226 145.086 136.152 145.155C136.077 145.223 135.99 145.275 135.894 145.308C135.799 145.341 135.698 145.353 135.597 145.345Z" fill="url(#paint14_linear_551_14725)"/>
</g>
<g opacity="0.3">
<path d="M135.952 148.965H66.4919C66.3094 148.95 66.1392 148.867 66.0152 148.732C65.8911 148.597 65.8223 148.421 65.8223 148.238C65.8223 148.054 65.8911 147.878 66.0152 147.743C66.1392 147.608 66.3094 147.525 66.4919 147.51H135.952C136.134 147.525 136.305 147.608 136.429 147.743C136.553 147.878 136.622 148.054 136.622 148.238C136.622 148.421 136.553 148.597 136.429 148.732C136.305 148.867 136.134 148.95 135.952 148.965Z" fill="url(#paint15_linear_551_14725)"/>
</g>
<g opacity="0.3">
<path d="M136.32 152.595H66.8454C66.6629 152.58 66.4927 152.497 66.3687 152.362C66.2446 152.227 66.1758 152.051 66.1758 151.867C66.1758 151.684 66.2446 151.508 66.3687 151.373C66.4927 151.238 66.6629 151.155 66.8454 151.14H136.32C136.421 151.132 136.522 151.144 136.618 151.177C136.713 151.21 136.801 151.262 136.875 151.33C136.949 151.399 137.009 151.482 137.049 151.574C137.09 151.667 137.111 151.767 137.111 151.867C137.111 151.968 137.09 152.068 137.049 152.161C137.009 152.253 136.949 152.336 136.875 152.405C136.801 152.473 136.713 152.525 136.618 152.558C136.522 152.591 136.421 152.603 136.32 152.595Z" fill="url(#paint16_linear_551_14725)"/>
</g>
<g opacity="0.3">
<path d="M100.716 156.225H67.2161C67.1155 156.233 67.0143 156.221 66.9188 156.188C66.8233 156.155 66.7357 156.103 66.6614 156.035C66.5871 155.966 66.5278 155.883 66.4873 155.791C66.4467 155.698 66.4258 155.598 66.4258 155.497C66.4258 155.396 66.4467 155.297 66.4873 155.204C66.5278 155.112 66.5871 155.029 66.6614 154.96C66.7357 154.892 66.8233 154.84 66.9188 154.807C67.0143 154.774 67.1155 154.762 67.2161 154.77H100.716C100.817 154.762 100.918 154.774 101.013 154.807C101.109 154.84 101.197 154.892 101.271 154.96C101.345 155.029 101.404 155.112 101.445 155.204C101.486 155.297 101.507 155.396 101.507 155.497C101.507 155.598 101.486 155.698 101.445 155.791C101.404 155.883 101.345 155.966 101.271 156.035C101.197 156.103 101.109 156.155 101.013 156.188C100.918 156.221 100.817 156.233 100.716 156.225Z" fill="url(#paint17_linear_551_14725)"/>
</g>
<path d="M139.14 166.615H69.6853L69.3203 162.845H138.775L139.14 166.615Z" fill="url(#paint18_linear_551_14725)"/>
<g opacity="0.3">
<path d="M139.645 172.535H76.9896C76.889 172.543 76.7877 172.531 76.6922 172.498C76.5968 172.465 76.5091 172.413 76.4348 172.345C76.3606 172.276 76.3013 172.193 76.2607 172.101C76.2202 172.008 76.1992 171.908 76.1992 171.808C76.1992 171.707 76.2202 171.607 76.2607 171.514C76.3013 171.422 76.3606 171.339 76.4348 171.27C76.5091 171.202 76.5968 171.15 76.6922 171.117C76.7877 171.084 76.889 171.072 76.9896 171.08H139.645C139.745 171.072 139.846 171.084 139.942 171.117C140.037 171.15 140.125 171.202 140.199 171.27C140.274 171.339 140.333 171.422 140.373 171.514C140.414 171.607 140.435 171.707 140.435 171.808C140.435 171.908 140.414 172.008 140.373 172.101C140.333 172.193 140.274 172.276 140.199 172.345C140.125 172.413 140.037 172.465 139.942 172.498C139.846 172.531 139.745 172.543 139.645 172.535Z" fill="url(#paint19_linear_551_14725)"/>
</g>
<g opacity="0.3">
<path d="M140.001 176.175H70.5462C70.4456 176.183 70.3444 176.171 70.2489 176.138C70.1534 176.105 70.0657 176.053 69.9915 175.985C69.9172 175.916 69.8579 175.833 69.8174 175.741C69.7768 175.648 69.7559 175.548 69.7559 175.448C69.7559 175.347 69.7768 175.247 69.8174 175.154C69.8579 175.062 69.9172 174.979 69.9915 174.91C70.0657 174.842 70.1534 174.79 70.2489 174.757C70.3444 174.724 70.4456 174.712 70.5462 174.72H140.001C140.102 174.712 140.203 174.724 140.299 174.757C140.394 174.79 140.482 174.842 140.556 174.91C140.63 174.979 140.69 175.062 140.73 175.154C140.771 175.247 140.792 175.347 140.792 175.448C140.792 175.548 140.771 175.648 140.73 175.741C140.69 175.833 140.63 175.916 140.556 175.985C140.482 176.053 140.394 176.105 140.299 176.138C140.203 176.171 140.102 176.183 140.001 176.175Z" fill="url(#paint20_linear_551_14725)"/>
</g>
<g opacity="0.3">
<path d="M140.356 179.795H70.8962C70.7137 179.78 70.5435 179.697 70.4195 179.562C70.2954 179.427 70.2266 179.251 70.2266 179.067C70.2266 178.884 70.2954 178.708 70.4195 178.573C70.5435 178.438 70.7137 178.355 70.8962 178.34H140.356C140.539 178.355 140.709 178.438 140.833 178.573C140.957 178.708 141.026 178.884 141.026 179.067C141.026 179.251 140.957 179.427 140.833 179.562C140.709 179.697 140.539 179.78 140.356 179.795Z" fill="url(#paint21_linear_551_14725)"/>
</g>
<g opacity="0.3">
<path d="M140.725 183.425H71.2497C71.0672 183.41 70.897 183.327 70.773 183.192C70.6489 183.057 70.5801 182.881 70.5801 182.698C70.5801 182.514 70.6489 182.338 70.773 182.203C70.897 182.068 71.0672 181.985 71.2497 181.97H140.725C140.825 181.962 140.927 181.974 141.022 182.007C141.118 182.04 141.205 182.092 141.279 182.16C141.354 182.229 141.413 182.312 141.454 182.404C141.494 182.497 141.515 182.597 141.515 182.698C141.515 182.798 141.494 182.898 141.454 182.991C141.413 183.083 141.354 183.166 141.279 183.235C141.205 183.303 141.118 183.355 141.022 183.388C140.927 183.421 140.825 183.433 140.725 183.425Z" fill="url(#paint22_linear_551_14725)"/>
</g>
<g opacity="0.3">
<path d="M105.12 187.055H71.6204C71.5198 187.063 71.4186 187.051 71.3231 187.018C71.2276 186.985 71.14 186.933 71.0657 186.865C70.9914 186.796 70.9321 186.713 70.8916 186.621C70.851 186.528 70.8301 186.428 70.8301 186.328C70.8301 186.227 70.851 186.127 70.8916 186.034C70.9321 185.942 70.9914 185.859 71.0657 185.79C71.14 185.722 71.2276 185.67 71.3231 185.637C71.4186 185.604 71.5198 185.592 71.6204 185.6H105.12C105.221 185.592 105.322 185.604 105.418 185.637C105.513 185.67 105.601 185.722 105.675 185.79C105.749 185.859 105.809 185.942 105.849 186.034C105.89 186.127 105.911 186.227 105.911 186.328C105.911 186.428 105.89 186.528 105.849 186.621C105.809 186.713 105.749 186.796 105.675 186.865C105.601 186.933 105.513 186.985 105.418 187.018C105.322 187.051 105.221 187.063 105.12 187.055Z" fill="url(#paint23_linear_551_14725)"/>
</g>
<path d="M107.116 82.04H95.7708C95.6635 82.0401 95.5597 82.0019 95.4781 81.9322C95.3965 81.8625 95.3425 81.766 95.3258 81.66C95.2496 81.2225 95.0241 80.8249 94.6877 80.535C94.3513 80.2451 93.9248 80.0808 93.4808 80.07C93.2855 80.0654 93.0914 80.1015 92.9109 80.1762C92.7303 80.2508 92.5673 80.3622 92.4323 80.5034C92.2973 80.6445 92.1931 80.8123 92.1266 80.9959C92.06 81.1796 92.0325 81.3751 92.0458 81.57C92.0485 81.6299 92.0387 81.6896 92.0172 81.7456C91.9957 81.8015 91.9629 81.8524 91.9208 81.895C91.8789 81.9391 91.8285 81.9742 91.7726 81.9983C91.7168 82.0224 91.6566 82.0349 91.5958 82.035H80.2508C80.1392 82.0345 80.0316 81.9929 79.9487 81.9182C79.8657 81.8435 79.8131 81.741 79.8008 81.63L79.2358 76C79.2293 75.9376 79.2361 75.8746 79.256 75.8151C79.2758 75.7556 79.3081 75.701 79.3508 75.655C79.3927 75.6076 79.4443 75.5697 79.5021 75.5439C79.5599 75.518 79.6225 75.5047 79.6858 75.505H106.551C106.662 75.5046 106.77 75.5459 106.852 75.6209C106.935 75.6959 106.986 75.7991 106.996 75.91L107.566 81.53C107.574 81.5933 107.568 81.6576 107.549 81.7184C107.53 81.7793 107.498 81.8354 107.455 81.8828C107.412 81.9302 107.36 81.9679 107.301 81.9933C107.243 82.0187 107.18 82.0312 107.116 82.03V82.04ZM96.1158 81.14H106.616L106.141 76.42H80.1808L80.6558 81.14H91.1558C91.223 80.6643 91.4382 80.2217 91.7708 79.875C91.9908 79.6488 92.2546 79.4697 92.5459 79.3485C92.8373 79.2274 93.1502 79.1666 93.4658 79.17C94.0591 79.1806 94.6342 79.3761 95.1111 79.7293C95.5879 80.0824 95.9427 80.5756 96.1258 81.14H96.1158Z" fill="#263238"/>
<g opacity="0.6">
<path d="M107.116 82.04H95.7708C95.6635 82.0401 95.5597 82.0019 95.4781 81.9322C95.3965 81.8625 95.3425 81.766 95.3258 81.66C95.2496 81.2225 95.0241 80.8249 94.6877 80.535C94.3513 80.2451 93.9248 80.0808 93.4808 80.07C93.2855 80.0654 93.0914 80.1015 92.9109 80.1762C92.7303 80.2508 92.5673 80.3622 92.4323 80.5034C92.2973 80.6445 92.1931 80.8123 92.1266 80.9959C92.06 81.1796 92.0325 81.3751 92.0458 81.57C92.0485 81.6299 92.0387 81.6896 92.0172 81.7456C91.9957 81.8015 91.9629 81.8524 91.9208 81.895C91.8789 81.9391 91.8285 81.9742 91.7726 81.9983C91.7168 82.0224 91.6566 82.0349 91.5958 82.035H80.2508C80.1392 82.0345 80.0316 81.9929 79.9487 81.9182C79.8657 81.8435 79.8131 81.741 79.8008 81.63L79.2358 76C79.2293 75.9376 79.2361 75.8746 79.256 75.8151C79.2758 75.7556 79.3081 75.701 79.3508 75.655C79.3927 75.6076 79.4443 75.5697 79.5021 75.5439C79.5599 75.518 79.6225 75.5047 79.6858 75.505H106.551C106.662 75.5046 106.77 75.5459 106.852 75.6209C106.935 75.6959 106.986 75.7991 106.996 75.91L107.566 81.53C107.574 81.5933 107.568 81.6576 107.549 81.7184C107.53 81.7793 107.498 81.8354 107.455 81.8828C107.412 81.9302 107.36 81.9679 107.301 81.9933C107.243 82.0187 107.18 82.0312 107.116 82.03V82.04ZM96.1158 81.14H106.616L106.141 76.42H80.1808L80.6558 81.14H91.1558C91.223 80.6643 91.4382 80.2217 91.7708 79.875C91.9908 79.6488 92.2546 79.4697 92.5459 79.3485C92.8373 79.2274 93.1502 79.1666 93.4658 79.17C94.0591 79.1806 94.6342 79.3761 95.1111 79.7293C95.5879 80.0824 95.9427 80.5756 96.1258 81.14H96.1158Z" fill="#6593FF"/>
</g>
<path d="M81.8057 76C81.8024 75.8767 81.7682 75.7562 81.7062 75.6496C81.6442 75.543 81.5563 75.4537 81.4507 75.39H104.886C104.991 75.4537 105.079 75.543 105.141 75.6496C105.203 75.7562 105.237 75.8767 105.241 76C105.286 76.5 105.006 76.615 105.006 76.615H81.5707C81.5707 76.615 81.8507 76.5 81.8057 76Z" fill="#263238"/>
<path d="M81.8057 76C81.8024 75.8767 81.7682 75.7562 81.7062 75.6496C81.6442 75.543 81.5563 75.4537 81.4507 75.39H104.886C104.991 75.4537 105.079 75.543 105.141 75.6496C105.203 75.7562 105.237 75.8767 105.241 76C105.286 76.5 105.006 76.615 105.006 76.615H81.5707C81.5707 76.615 81.8507 76.5 81.8057 76Z" fill="url(#paint24_linear_551_14725)"/>
<path d="M194.622 111.305C192.786 112.813 190.872 114.223 188.886 115.53C187.878 116.195 186.87 116.83 185.766 117.425C185.221 117.72 184.657 118.01 184.037 118.28C183.724 118.41 183.407 118.54 183.029 118.66C182.857 118.72 182.656 118.78 182.459 118.83C182.399 118.83 182.384 118.855 182.288 118.875L182.036 118.925C181.878 118.954 181.718 118.97 181.557 118.975C180.623 118.986 179.702 118.755 178.886 118.305C178.27 117.985 177.683 117.614 177.132 117.195C176.142 116.434 175.214 115.598 174.354 114.695C172.697 112.976 171.19 111.121 169.848 109.15L171.658 107.65C173.311 109.185 175.035 110.71 176.759 112.09C177.593 112.762 178.469 113.383 179.38 113.95C179.777 114.197 180.195 114.409 180.63 114.585C180.836 114.693 181.067 114.745 181.3 114.735H181.214C181.214 114.735 181.244 114.735 181.255 114.735C181.342 114.705 181.428 114.67 181.512 114.63C181.72 114.542 181.923 114.443 182.122 114.335C182.55 114.105 183.004 113.835 183.457 113.555C184.365 112.985 185.277 112.35 186.189 111.705C187.101 111.06 188.004 110.375 188.906 109.705C189.808 109.035 190.715 108.32 191.592 107.655L194.622 111.305Z" fill="#96B7FF"/>
<path d="M196.154 108.255C196.562 113.085 186.894 117.755 186.894 117.755L183.679 112.555C185.515 110.302 187.527 108.195 189.697 106.255C192.817 103.625 195.882 105.045 196.154 108.255Z" fill="#96B7FF"/>
<path opacity="0.7" d="M192.852 113.875C192.093 114.529 191.291 115.133 190.453 115.685C189.312 116.451 188.123 117.146 186.894 117.765L183.679 112.565C185.516 110.311 187.53 108.204 189.702 106.265C192.817 103.625 195.887 105.045 196.154 108.265C196.325 110.265 194.747 112.25 192.852 113.875Z" fill="#96B7FF"/>
<path d="M171.643 107.85L168.956 104.245L166.194 107.045C166.194 107.045 167.706 109.83 170.322 109.505L171.643 107.85Z" fill="#96B7FF"/>
<path d="M166.057 102.865L164.5 105.445L166.194 107.045L168.956 104.245L166.057 102.865Z" fill="#96B7FF"/>
<path opacity="0.2" d="M192.852 113.875C192.093 114.529 191.291 115.133 190.453 115.685C190.845 114.403 191.404 113.178 192.116 112.04C192.551 112.559 192.809 113.202 192.852 113.875Z" fill="#96B7FF"/>
<path d="M188.351 204.635L192.147 204.535C192.215 204.533 192.283 204.554 192.338 204.595C192.393 204.636 192.432 204.694 192.449 204.76L193.25 207.79C193.269 207.863 193.272 207.94 193.257 208.014C193.242 208.088 193.21 208.157 193.164 208.218C193.118 208.278 193.058 208.327 192.99 208.361C192.923 208.395 192.848 208.414 192.772 208.415C191.401 208.415 189.42 208.415 187.701 208.45C185.685 208.5 184.41 208.405 182.051 208.45C180.624 208.49 180.176 207.075 180.765 206.95C183.462 206.29 185.226 206.42 187.524 204.95C187.763 204.767 188.051 204.658 188.351 204.635Z" fill="#96B7FF"/>
<g opacity="0.4">
<path d="M188.351 204.635L192.147 204.535C192.215 204.533 192.283 204.554 192.338 204.595C192.393 204.636 192.432 204.694 192.449 204.76L193.25 207.79C193.269 207.863 193.272 207.94 193.257 208.014C193.242 208.088 193.21 208.157 193.164 208.218C193.118 208.278 193.058 208.327 192.99 208.361C192.923 208.395 192.848 208.414 192.772 208.415C191.401 208.415 189.42 208.415 187.701 208.45C185.685 208.5 184.41 208.405 182.051 208.45C180.624 208.49 180.176 207.075 180.765 206.95C183.462 206.29 185.226 206.42 187.524 204.95C187.763 204.767 188.051 204.658 188.351 204.635Z" fill="#96B7FF"/>
</g>
<path d="M207.661 204.635L211.457 204.535C211.525 204.533 211.593 204.554 211.648 204.595C211.703 204.636 211.742 204.694 211.759 204.76L212.555 207.79C212.574 207.863 212.577 207.94 212.562 208.014C212.547 208.088 212.515 208.157 212.469 208.218C212.423 208.278 212.363 208.327 212.296 208.361C212.228 208.395 212.153 208.414 212.077 208.415C210.711 208.415 208.73 208.415 207.006 208.45C204.99 208.5 203.715 208.405 201.356 208.45C199.929 208.49 199.486 207.075 200.075 206.95C202.772 206.29 204.536 206.42 206.835 204.95C207.072 204.765 207.36 204.656 207.661 204.635Z" fill="#96B7FF"/>
<g opacity="0.4">
<path d="M207.661 204.635L211.457 204.535C211.525 204.533 211.593 204.554 211.648 204.595C211.703 204.636 211.742 204.694 211.759 204.76L212.555 207.79C212.574 207.863 212.577 207.94 212.562 208.014C212.547 208.088 212.515 208.157 212.469 208.218C212.423 208.278 212.363 208.327 212.296 208.361C212.228 208.395 212.153 208.414 212.077 208.415C210.711 208.415 208.73 208.415 207.006 208.45C204.99 208.5 203.715 208.405 201.356 208.45C199.929 208.49 199.486 207.075 200.075 206.95C202.772 206.29 204.536 206.42 206.835 204.95C207.072 204.765 207.36 204.656 207.661 204.635Z" fill="#96B7FF"/>
</g>
<path d="M214.133 130.28C215.963 138.13 212.334 205.11 212.334 205.11L206.341 204.925L204.188 148.425L192.777 205.445L186.95 204.58C191.179 164.72 196.159 135.75 196.159 135.75V132.75L214.133 130.28Z" fill="#96B7FF"/>
<path d="M210.882 101.21C210.692 104.963 210.788 108.726 211.169 112.465C211.416 115.075 211.769 117.545 212.142 119.775C213.009 125 214.002 128.915 214.158 130.275L196.169 132.74C189.616 114.54 192.081 104.885 192.081 104.885L196.199 102.55L197.112 102.32C199.64 101.828 202.195 101.479 204.763 101.275C205.267 101.23 205.746 101.2 206.225 101.18C208.664 101.075 210.882 101.21 210.882 101.21Z" fill="#96B7FF"/>
<g opacity="0.7">
<path d="M214.133 130.28C211.492 130.645 201.557 132.005 196.139 132.74C189.586 114.545 192.051 104.89 192.051 104.89L196.169 102.56C196.169 102.56 196.774 102.4 197.086 102.325C199.613 101.833 202.166 101.484 204.733 101.28C205.237 101.24 205.716 101.205 206.194 101.185C208.654 101.075 210.867 101.185 210.867 101.185C210.743 103.592 210.743 106.003 210.867 108.41C210.937 109.785 211.038 111.13 211.159 112.44C211.159 112.5 211.159 112.565 211.159 112.625C211.411 115.165 211.754 117.575 212.117 119.75C213.009 125 213.997 128.915 214.133 130.28Z" fill="#96B7FF"/>
</g>
<path d="M204.108 101.195C204.108 101.195 199.979 104.425 198.74 104.41C197.868 104.41 196.607 102.99 196.607 102.99C197.14 102.741 197.607 102.371 197.968 101.91C198.83 100.735 198.331 99.315 197.626 98.01L201.25 93.01C201.311 94.2266 201.466 95.4368 201.713 96.63C202.122 98.585 202.858 100.5 204.108 101.195Z" fill="#96B7FF"/>
<path opacity="0.2" d="M201.713 96.6399C201.335 98.8199 200.378 101.335 197.968 101.905C198.83 100.73 198.331 99.3099 197.625 98.0049L201.25 93.0049C201.31 94.2265 201.465 95.4418 201.713 96.6399Z" fill="#96B7FF"/>
<path d="M198.739 104.415C198.739 104.415 199.747 105.32 200.892 106.195C202.273 105.285 205.478 102.9 205.09 101.1C204.823 100.6 203.381 100.425 203.381 100.425C203.381 100.425 202.096 102.57 198.739 104.415Z" fill="#96B7FF"/>
<path d="M198.74 104.415C198.084 105.078 197.527 105.83 197.086 106.65C195.917 106.08 196.053 102.625 196.406 102.205C196.937 101.821 197.558 101.577 198.21 101.495C198.052 101.988 198.017 102.511 198.109 103.02C198.202 103.529 198.418 104.008 198.74 104.415Z" fill="#96B7FF"/>
<g opacity="0.5">
<path d="M198.74 104.415C198.74 104.415 199.748 105.32 200.892 106.195C202.273 105.285 205.479 102.9 205.091 101.1C204.824 100.6 203.382 100.425 203.382 100.425C203.382 100.425 202.097 102.57 198.74 104.415Z" fill="#96B7FF"/>
<path d="M198.74 104.415C198.084 105.077 197.527 105.83 197.086 106.65C195.917 106.08 196.053 102.625 196.406 102.205C196.937 101.821 197.558 101.577 198.21 101.495C198.052 101.987 198.017 102.511 198.109 103.02C198.202 103.529 198.418 104.008 198.74 104.415Z" fill="#96B7FF"/>
</g>
<path opacity="0.2" d="M202.162 159.37L204.178 148.42L203.79 142.63C203.79 142.63 201.028 152.675 202.162 159.37Z" fill="#96B7FF"/>
<path d="M192.046 89.4599C191.648 90.8449 191.965 93.6599 193.876 92.6899C195.786 91.7199 192.731 87.0749 192.046 89.4599Z" fill="#96B7FF"/>
<path d="M202.081 91.0399C202.394 94.5699 202.757 96.6199 201.245 98.6599C198.966 101.735 194.359 100.74 192.988 97.3649C191.754 94.3299 191.451 89.0699 194.702 87.1999C195.422 86.7844 196.236 86.5569 197.069 86.5388C197.901 86.5206 198.725 86.7124 199.462 87.0961C200.199 87.4799 200.827 88.043 201.285 88.7327C201.743 89.4225 202.017 90.2163 202.081 91.0399Z" fill="#96B7FF"/>
<path d="M196.869 92.765C196.91 93.045 196.794 93.3 196.607 93.325C196.421 93.35 196.229 93.14 196.184 92.855C196.138 92.57 196.259 92.32 196.451 92.295C196.643 92.27 196.824 92.5 196.869 92.765Z" fill="#96B7FF"/>
<path d="M193.613 93.2149C193.659 93.4999 193.538 93.7499 193.351 93.7749C193.165 93.7999 192.973 93.5949 192.933 93.3099C192.892 93.0249 193.008 92.7699 193.195 92.7449C193.381 92.7199 193.573 92.9299 193.613 93.2149Z" fill="#96B7FF"/>
<path d="M194.672 93.21C194.444 94.1019 194.093 94.9583 193.628 95.755C193.846 95.8589 194.083 95.9162 194.325 95.9231C194.566 95.93 194.806 95.8863 195.03 95.795L194.672 93.21Z" fill="#96B7FF"/>
<path d="M197.716 91.5849C197.686 91.5926 197.655 91.5925 197.625 91.5846C197.595 91.5767 197.567 91.5613 197.545 91.5399C197.397 91.3859 197.214 91.2688 197.012 91.1984C196.809 91.128 196.593 91.1062 196.381 91.1349C196.336 91.144 196.289 91.1355 196.251 91.1112C196.212 91.087 196.185 91.0489 196.174 91.0049C196.169 90.9832 196.168 90.9607 196.172 90.9387C196.176 90.9168 196.184 90.8958 196.196 90.8771C196.209 90.8584 196.224 90.8424 196.243 90.83C196.262 90.8176 196.283 90.809 196.305 90.8049C196.574 90.7638 196.85 90.7878 197.108 90.8749C197.366 90.9619 197.599 91.1094 197.787 91.3049C197.819 91.3368 197.837 91.3799 197.837 91.4249C197.837 91.4699 197.819 91.513 197.787 91.5449C197.766 91.5626 197.742 91.5762 197.716 91.5849Z" fill="#96B7FF"/>
<path d="M192.046 92.3C192.016 92.3088 191.984 92.3093 191.954 92.3015C191.924 92.2937 191.896 92.2779 191.874 92.2557C191.853 92.2336 191.837 92.2061 191.83 92.176C191.823 92.1459 191.824 92.1144 191.834 92.085C191.91 91.828 192.047 91.5929 192.234 91.3996C192.421 91.2064 192.652 91.0607 192.907 90.975C192.951 90.9643 192.997 90.9708 193.035 90.9933C193.074 91.0157 193.102 91.0522 193.114 91.095C193.121 91.1163 193.124 91.1388 193.121 91.1611C193.119 91.1834 193.113 91.2051 193.102 91.2247C193.091 91.2444 193.076 91.2616 193.058 91.2754C193.04 91.2892 193.02 91.2993 192.998 91.305C192.796 91.3727 192.614 91.489 192.468 91.6434C192.322 91.7978 192.217 91.9855 192.162 92.19C192.152 92.2159 192.137 92.2393 192.116 92.2584C192.096 92.2775 192.072 92.2917 192.046 92.3Z" fill="#96B7FF"/>
<path d="M196.149 89C196.149 89 197.026 88.175 197.57 88.86C198.114 89.545 198.366 91.535 198.366 91.535L198.513 91.155C198.513 91.155 200.378 95.41 202.041 94.045C203.704 92.68 205.756 87.83 201.189 86.12C201.189 86.12 200.589 85.12 197.711 84.97C194.833 84.82 191.663 87.005 191.35 88.925C191.038 90.845 191.98 91.755 191.98 91.755C192.017 91.3436 192.15 90.9463 192.368 90.595C192.431 90.7774 192.538 90.9415 192.681 91.0725C192.823 91.2034 192.997 91.2971 193.185 91.345C193.103 90.9716 193.131 90.583 193.265 90.225C193.397 90.5404 193.599 90.8223 193.855 91.05C193.8 89.125 195.045 88.55 195.458 88.52C195.61 88.5164 195.759 88.561 195.883 88.6474C196.007 88.7338 196.1 88.8573 196.149 89Z" fill="#96B7FF"/>
<path d="M203.886 93.75C203.814 94.1841 203.657 94.5997 203.422 94.9731C203.188 95.3464 202.881 95.6699 202.52 95.925C201.547 96.6 200.655 95.83 200.589 94.715C200.529 93.715 200.962 92.145 202.102 91.915C202.352 91.8695 202.61 91.8861 202.852 91.9633C203.094 92.0405 203.313 92.176 203.49 92.3577C203.667 92.5394 203.795 92.7616 203.864 93.0045C203.933 93.2474 203.941 93.5035 203.886 93.75Z" fill="#96B7FF"/>
<path d="M195.302 96.955C195.648 97.2285 195.975 97.5259 196.28 97.845L196.471 97.715C197.343 97.115 197.55 96.555 197.514 96.11C197.493 95.8954 197.419 95.6893 197.298 95.51C197.233 95.404 197.153 95.308 197.061 95.225C196.689 95.8238 196.19 96.3356 195.599 96.725C195.423 96.88 195.302 96.955 195.302 96.955Z" fill="#96B7FF"/>
<path d="M195.599 96.745L195.891 97C196.713 96.435 197.212 95.93 197.298 95.5C197.233 95.394 197.153 95.298 197.061 95.215C196.692 95.8247 196.193 96.3469 195.599 96.745Z" fill="#96B7FF"/>
<path d="M196.491 97.715C197.363 97.115 197.57 96.555 197.535 96.11C197.208 96.3454 196.925 96.6346 196.698 96.965C196.553 97.1881 196.481 97.4499 196.491 97.715Z" fill="#96B7FF"/>
<path d="M196.149 133.65L195.801 131.76L214.138 129.085L214.42 132.39L196.149 133.65Z" fill="#96B7FF"/>
<path d="M197.283 132.05L197.444 133.095L195.977 133.27L195.801 132.23L197.283 132.05Z" fill="#96B7FF"/>
<path d="M207.51 130.78L207.676 131.885L198.105 133.02L197.943 131.965L207.51 130.78Z" fill="#96B7FF"/>
<path d="M214.42 131.085L208.341 131.805L208.17 130.705L214.314 129.94L214.42 131.085Z" fill="#96B7FF"/>
<path d="M201.184 131.95L201.255 132.315C201.273 132.402 201.323 132.48 201.396 132.533C201.469 132.585 201.558 132.609 201.648 132.6L203.236 132.41C203.284 132.404 203.33 132.389 203.372 132.366C203.414 132.342 203.451 132.31 203.48 132.271C203.51 132.233 203.531 132.189 203.542 132.143C203.554 132.096 203.556 132.047 203.548 132L203.503 131.625C203.497 131.579 203.482 131.534 203.459 131.493C203.436 131.453 203.405 131.417 203.368 131.388C203.331 131.359 203.289 131.338 203.244 131.325C203.198 131.313 203.151 131.309 203.104 131.315L201.492 131.515C201.441 131.521 201.393 131.537 201.349 131.563C201.306 131.588 201.268 131.623 201.239 131.664C201.21 131.705 201.19 131.752 201.181 131.801C201.171 131.85 201.172 131.901 201.184 131.95Z" fill="#96B7FF"/>
<path d="M216.653 127.305L212.117 127.005L212.49 130.91C212.49 130.91 215.615 131.56 217.051 129.37L216.653 127.305Z" fill="#96B7FF"/>
<path d="M209.229 128.315L210.206 131.16L212.535 130.91L212.167 127.005L209.229 128.315Z" fill="#96B7FF"/>
<path opacity="0.2" d="M211.184 112.65C209.959 110.84 209.632 107.82 209.632 107.82C210.092 107.913 210.52 108.125 210.872 108.435C210.942 109.81 211.043 111.155 211.164 112.465C211.169 112.525 211.174 112.59 211.184 112.65Z" fill="#96B7FF"/>
<path d="M212.762 102.45C214.543 104.178 216.233 105.996 217.828 107.895C218.639 108.845 219.425 109.825 220.171 110.895C220.544 111.42 220.917 111.96 221.27 112.55C221.681 113.212 222.019 113.916 222.278 114.65C222.426 115.136 222.501 115.642 222.5 116.15C222.5 116.548 222.469 116.946 222.409 117.34C222.301 118.026 222.146 118.704 221.946 119.37C221.572 120.595 221.121 121.796 220.595 122.965C219.581 125.23 218.401 127.42 217.067 129.515L214.955 128.47C215.761 126.24 216.552 123.97 217.223 121.735C217.558 120.646 217.838 119.542 218.059 118.425C218.164 117.922 218.232 117.412 218.261 116.9C218.274 116.693 218.274 116.486 218.261 116.28C218.261 116.11 218.206 115.99 218.196 116.01C218.003 115.623 217.779 115.251 217.525 114.9C217.223 114.475 216.89 114.03 216.517 113.59C215.806 112.71 215.035 111.83 214.254 110.955C213.473 110.08 212.651 109.225 211.835 108.36C211.018 107.495 210.181 106.64 209.38 105.8L212.762 102.45Z" fill="#96B7FF"/>
<path d="M209.647 101.2C214.475 100.46 219.859 109.7 219.859 109.7L214.853 113.245C212.458 111.592 210.2 109.753 208.099 107.745C205.221 104.825 206.436 101.695 209.647 101.2Z" fill="#96B7FF"/>
<path opacity="0.7" d="M209.647 101.2C214.475 100.46 219.859 109.7 219.859 109.7L214.853 113.245C212.458 111.592 210.2 109.753 208.099 107.745C205.221 104.825 206.436 101.695 209.647 101.2Z" fill="#96B7FF"/>
<path d="M169.898 107.85L167.233 104.245L164.493 107.045C164.493 107.045 165.993 109.83 168.588 109.505L169.898 107.85Z" fill="#EEC1BB"/>
<path d="M164.358 102.865L162.813 105.445L164.493 107.045L167.233 104.245L164.358 102.865Z" fill="#EEC1BB"/>
<path d="M165.053 207.495L165.423 208.47L165.803 207.5L165.853 202.43L165.103 202.425L165.053 207.495Z" fill="#354863"/>
<path d="M168.304 100.833L164.599 100.797L164.697 90.5627C164.699 90.3797 164.773 90.2049 164.904 90.0767C165.035 89.9486 165.211 89.8776 165.394 89.8793L167.719 89.9016C167.902 89.9034 168.076 89.9778 168.205 90.1084C168.333 90.239 168.404 90.4152 168.402 90.5982L168.304 100.833Z" fill="#263238"/>
<path d="M164.608 100.79L168.313 100.825L168.413 90.57C168.413 90.3922 168.344 90.2215 168.22 90.0944C168.095 89.9673 167.926 89.8939 167.748 89.89H165.383C165.296 89.8886 165.209 89.9047 165.127 89.9372C165.045 89.9697 164.971 90.0181 164.908 90.0794C164.846 90.1408 164.796 90.2139 164.761 90.2947C164.727 90.3755 164.709 90.4622 164.708 90.55L164.608 100.79Z" fill="url(#paint25_linear_551_14725)"/>
<path d="M163.963 98.2899L169.008 98.3399C169.459 98.3449 169.89 98.5243 170.21 98.8404C170.531 99.1565 170.717 99.5847 170.728 100.035C171.558 132.015 171.225 164 169.728 195.99C169.728 195.99 168.878 202.425 166.048 206.555H164.803C162.048 202.375 161.303 195.925 161.303 195.925C160.467 163.935 160.768 131.943 162.208 99.9499C162.229 99.4998 162.424 99.0753 162.751 98.7657C163.078 98.4561 163.513 98.2855 163.963 98.2899Z" fill="url(#paint26_linear_551_14725)"/>
<path d="M160.438 96.9499L168.938 97.0299C169.006 97.0299 169.073 97.0436 169.136 97.0702C169.198 97.0969 169.254 97.136 169.301 97.1851C169.348 97.2342 169.384 97.2923 169.408 97.3559C169.431 97.4195 169.442 97.4872 169.438 97.5549V98.4099L160.788 98.3249C160.058 111.205 160.488 121.94 160.488 121.94L161.118 122.25L160.433 124.75C158.908 120.455 159.673 101.085 159.833 97.5149C159.836 97.4381 159.854 97.3625 159.885 97.2925C159.917 97.2225 159.963 97.1595 160.019 97.107C160.075 97.0546 160.141 97.0137 160.213 96.9867C160.285 96.9598 160.362 96.9473 160.438 96.9499Z" fill="#263238"/>
<path d="M160.869 146.513L171.158 146.612L171.177 144.637L160.888 144.538L160.869 146.513Z" fill="#263238"/>
<path d="M171.328 163C171.122 172.513 170.818 182.013 170.418 191.5C170.409 191.708 170.32 191.904 170.168 192.047C170.017 192.189 169.816 192.268 169.608 192.265L161.548 192.175C161.341 192.172 161.142 192.089 160.994 191.943C160.847 191.796 160.762 191.598 160.758 191.39C160.532 181.92 160.412 172.42 160.398 162.89C160.398 162.784 160.419 162.679 160.46 162.581C160.501 162.483 160.561 162.394 160.636 162.319C160.711 162.244 160.801 162.185 160.899 162.145C160.997 162.105 161.102 162.084 161.208 162.085L170.538 162.175C170.645 162.177 170.749 162.2 170.847 162.242C170.944 162.285 171.032 162.346 171.105 162.423C171.179 162.5 171.236 162.59 171.274 162.689C171.313 162.788 171.331 162.894 171.328 163Z" fill="#263238"/>
<path d="M160.869 146.513L171.158 146.612L171.177 144.637L160.888 144.538L160.869 146.513Z" fill="url(#paint27_linear_551_14725)"/>
<path d="M160.438 96.9499L168.938 97.0299C169.006 97.0299 169.073 97.0436 169.136 97.0702C169.198 97.0969 169.254 97.136 169.301 97.1851C169.348 97.2342 169.384 97.2923 169.408 97.3559C169.431 97.4195 169.442 97.4872 169.438 97.5549V98.4099L160.788 98.3249C160.058 111.205 160.488 121.94 160.488 121.94L161.118 122.25L160.433 124.75C158.908 120.455 159.673 101.085 159.833 97.5149C159.836 97.4381 159.854 97.3625 159.885 97.2925C159.917 97.2225 159.963 97.1595 160.019 97.107C160.075 97.0546 160.141 97.0137 160.213 96.9867C160.285 96.9598 160.362 96.9473 160.438 96.9499Z" fill="url(#paint28_linear_551_14725)"/>
<path d="M171.328 163C171.122 172.513 170.818 182.013 170.418 191.5C170.409 191.708 170.32 191.904 170.168 192.047C170.017 192.189 169.816 192.268 169.608 192.265L161.548 192.175C161.341 192.172 161.142 192.089 160.994 191.943C160.847 191.796 160.762 191.598 160.758 191.39C160.532 181.92 160.412 172.42 160.398 162.89C160.398 162.784 160.419 162.679 160.46 162.581C160.501 162.483 160.561 162.394 160.636 162.319C160.711 162.244 160.801 162.185 160.899 162.145C160.997 162.105 161.102 162.084 161.208 162.085L170.538 162.175C170.645 162.177 170.749 162.2 170.847 162.242C170.944 162.285 171.032 162.346 171.105 162.423C171.179 162.5 171.236 162.59 171.274 162.689C171.313 162.788 171.331 162.894 171.328 163Z" fill="url(#paint29_linear_551_14725)"/>
<defs>
<linearGradient id="paint0_linear_551_14725" x1="182.032" y1="34.25" x2="182.032" y2="72.25" gradientUnits="userSpaceOnUse">
<stop offset="0.439506" stop-color="#C0D4FF"/>
<stop offset="1" stop-color="#6190FF"/>
</linearGradient>
<linearGradient id="paint1_linear_551_14725" x1="98.8006" y1="74.1744" x2="98.8006" y2="240.746" gradientUnits="userSpaceOnUse">
<stop stop-color="#6190FF"/>
<stop offset="1" stop-color="#C0D4FF"/>
</linearGradient>
<linearGradient id="paint2_linear_551_14725" x1="106.25" y1="48.25" x2="106.25" y2="154.5" gradientUnits="userSpaceOnUse">
<stop stop-color="#C0D4FF"/>
<stop offset="1" stop-color="#6190FF"/>
</linearGradient>
<linearGradient id="paint3_linear_551_14725" x1="93.3044" y1="73.7249" x2="93.3044" y2="86.4145" gradientUnits="userSpaceOnUse">
<stop stop-color="#6190FF"/>
<stop offset="1" stop-color="#C0D4FF"/>
</linearGradient>
<linearGradient id="paint4_linear_551_14725" x1="96.0492" y1="93.205" x2="96.0492" y2="97.8812" gradientUnits="userSpaceOnUse">
<stop stop-color="#C0D4FF"/>
<stop offset="1" stop-color="#6190FF"/>
</linearGradient>
<linearGradient id="paint5_linear_551_14725" x1="100.144" y1="101.432" x2="100.144" y2="103.243" gradientUnits="userSpaceOnUse">
<stop stop-color="#C0D4FF"/>
<stop offset="1" stop-color="#6190FF"/>
</linearGradient>
<linearGradient id="paint6_linear_551_14725" x1="97.0909" y1="105.065" x2="97.0909" y2="106.876" gradientUnits="userSpaceOnUse">
<stop stop-color="#C0D4FF"/>
<stop offset="1" stop-color="#6190FF"/>
</linearGradient>
<linearGradient id="paint7_linear_551_14725" x1="97.4433" y1="108.695" x2="97.4433" y2="110.506" gradientUnits="userSpaceOnUse">
<stop stop-color="#C0D4FF"/>
<stop offset="1" stop-color="#6190FF"/>
</linearGradient>
<linearGradient id="paint8_linear_551_14725" x1="97.7983" y1="112.325" x2="97.7983" y2="114.136" gradientUnits="userSpaceOnUse">
<stop stop-color="#C0D4FF"/>
<stop offset="1" stop-color="#6190FF"/>
</linearGradient>
<linearGradient id="paint9_linear_551_14725" x1="98.1511" y1="115.96" x2="98.1511" y2="117.765" gradientUnits="userSpaceOnUse">
<stop stop-color="#C0D4FF"/>
<stop offset="1" stop-color="#6190FF"/>
</linearGradient>
<linearGradient id="paint10_linear_551_14725" x1="98.5032" y1="119.588" x2="98.5032" y2="121.398" gradientUnits="userSpaceOnUse">
<stop stop-color="#C0D4FF"/>
<stop offset="1" stop-color="#6190FF"/>
</linearGradient>
<linearGradient id="paint11_linear_551_14725" x1="95.4587" y1="123.218" x2="95.4587" y2="125.028" gradientUnits="userSpaceOnUse">
<stop stop-color="#C0D4FF"/>
<stop offset="1" stop-color="#6190FF"/>
</linearGradient>
<linearGradient id="paint12_linear_551_14725" x1="99.826" y1="132.015" x2="99.826" y2="136.691" gradientUnits="userSpaceOnUse">
<stop stop-color="#C0D4FF"/>
<stop offset="1" stop-color="#6190FF"/>
</linearGradient>
<linearGradient id="paint13_linear_551_14725" x1="103.913" y1="140.248" x2="103.913" y2="142.059" gradientUnits="userSpaceOnUse">
<stop stop-color="#C0D4FF"/>
<stop offset="1" stop-color="#6190FF"/>
</linearGradient>
<linearGradient id="paint14_linear_551_14725" x1="100.869" y1="143.887" x2="100.869" y2="145.698" gradientUnits="userSpaceOnUse">
<stop stop-color="#C0D4FF"/>
<stop offset="1" stop-color="#6190FF"/>
</linearGradient>
<linearGradient id="paint15_linear_551_14725" x1="101.222" y1="147.51" x2="101.222" y2="149.315" gradientUnits="userSpaceOnUse">
<stop stop-color="#C0D4FF"/>
<stop offset="1" stop-color="#6190FF"/>
</linearGradient>
<linearGradient id="paint16_linear_551_14725" x1="101.643" y1="151.137" x2="101.643" y2="152.948" gradientUnits="userSpaceOnUse">
<stop stop-color="#C0D4FF"/>
<stop offset="1" stop-color="#6190FF"/>
</linearGradient>
<linearGradient id="paint17_linear_551_14725" x1="83.9661" y1="154.767" x2="83.9661" y2="156.578" gradientUnits="userSpaceOnUse">
<stop stop-color="#C0D4FF"/>
<stop offset="1" stop-color="#6190FF"/>
</linearGradient>
<linearGradient id="paint18_linear_551_14725" x1="104.23" y1="162.845" x2="104.23" y2="167.521" gradientUnits="userSpaceOnUse">
<stop stop-color="#C0D4FF"/>
<stop offset="1" stop-color="#6190FF"/>
</linearGradient>
<linearGradient id="paint19_linear_551_14725" x1="108.317" y1="171.078" x2="108.317" y2="172.888" gradientUnits="userSpaceOnUse">
<stop stop-color="#C0D4FF"/>
<stop offset="1" stop-color="#6190FF"/>
</linearGradient>
<linearGradient id="paint20_linear_551_14725" x1="105.274" y1="174.718" x2="105.274" y2="176.528" gradientUnits="userSpaceOnUse">
<stop stop-color="#C0D4FF"/>
<stop offset="1" stop-color="#6190FF"/>
</linearGradient>
<linearGradient id="paint21_linear_551_14725" x1="105.626" y1="178.34" x2="105.626" y2="180.145" gradientUnits="userSpaceOnUse">
<stop stop-color="#C0D4FF"/>
<stop offset="1" stop-color="#6190FF"/>
</linearGradient>
<linearGradient id="paint22_linear_551_14725" x1="106.048" y1="181.968" x2="106.048" y2="183.778" gradientUnits="userSpaceOnUse">
<stop stop-color="#C0D4FF"/>
<stop offset="1" stop-color="#6190FF"/>
</linearGradient>
<linearGradient id="paint23_linear_551_14725" x1="88.3704" y1="185.598" x2="88.3704" y2="187.408" gradientUnits="userSpaceOnUse">
<stop stop-color="#C0D4FF"/>
<stop offset="1" stop-color="#6190FF"/>
</linearGradient>
<linearGradient id="paint24_linear_551_14725" x1="93.3481" y1="78.75" x2="93.3481" y2="70.25" gradientUnits="userSpaceOnUse">
<stop stop-color="#C0D4FF"/>
<stop offset="1" stop-color="#6190FF"/>
</linearGradient>
<linearGradient id="paint25_linear_551_14725" x1="166.511" y1="63.5" x2="166.511" y2="94.5" gradientUnits="userSpaceOnUse">
<stop stop-color="#C0D4FF"/>
<stop offset="1" stop-color="#6190FF"/>
</linearGradient>
<linearGradient id="paint26_linear_551_14725" x1="166.007" y1="98.2898" x2="166.007" y2="147.75" gradientUnits="userSpaceOnUse">
<stop stop-color="#C0D4FF"/>
<stop offset="1" stop-color="#6190FF"/>
</linearGradient>
<linearGradient id="paint27_linear_551_14725" x1="166.013" y1="146.562" x2="166.013" y2="134.75" gradientUnits="userSpaceOnUse">
<stop stop-color="#C0D4FF"/>
<stop offset="1" stop-color="#6190FF"/>
</linearGradient>
<linearGradient id="paint28_linear_551_14725" x1="164.469" y1="173.202" x2="164.469" y2="-19.6982" gradientUnits="userSpaceOnUse">
<stop stop-color="#C0D4FF"/>
<stop offset="1" stop-color="#6190FF"/>
</linearGradient>
<linearGradient id="paint29_linear_551_14725" x1="165.864" y1="130.25" x2="165.864" y2="256" gradientUnits="userSpaceOnUse">
<stop stop-color="#C0D4FF"/>
<stop offset="1" stop-color="#6190FF"/>
</linearGradient>
</defs>
</svg>
