<svg width="40" height="40" viewBox="0 0 40 40" fill="none" xmlns="http://www.w3.org/2000/svg">
<path d="M36.1293 6.45166H29.6777V7.74198H36.1293V6.45166Z" fill="#FFEE6E"/>
<path d="M33.8734 1.37561L29.3574 3.95618L29.9976 5.07649L34.5136 2.49592L33.8734 1.37561Z" fill="#FFEE6E"/>
<path d="M29.9976 9.11748L29.3574 10.2378L33.8734 12.8184L34.5136 11.6981L29.9976 9.11748Z" fill="#FFEE6E"/>
<path d="M10.3227 6.45166H3.87109V7.74198H10.3227V6.45166Z" fill="#FFEE6E"/>
<path d="M6.12651 1.37505L5.48633 2.49536L10.0023 5.07593L10.6425 3.95562L6.12651 1.37505Z" fill="#FFEE6E"/>
<path d="M10.0023 9.11694L5.48633 11.6975L6.12651 12.8178L10.6425 10.2372L10.0023 9.11694Z" fill="#FFEE6E"/>
<path d="M23.0371 16.3181L22.1249 17.2304L23.6042 18.7097H20.6455V14.8387H19.3552V18.7097H16.3965L17.8759 17.2304L16.9636 16.3181L14.383 18.8987C14.322 18.9577 14.2736 19.0284 14.2407 19.1066C14.2077 19.1847 14.191 19.2688 14.1914 19.3536C14.1918 19.4384 14.2094 19.5222 14.2431 19.6001C14.2768 19.6779 14.3259 19.7481 14.3875 19.8065L14.3836 19.8104L16.9642 22.391L17.8765 21.4787L16.3965 20H23.6042L22.1249 21.4794L23.0371 22.3916L25.6178 19.811L25.6133 19.8065C25.6749 19.7481 25.724 19.6778 25.7577 19.5999C25.7914 19.522 25.809 19.438 25.8093 19.3531C25.8097 19.2682 25.7929 19.1841 25.7598 19.1059C25.7268 19.0277 25.6783 18.957 25.6171 18.8981L23.0371 16.3181Z" fill="#AFB4C8"/>
<path d="M18.7115 7.74194H16.1309V12.9032H18.7115V7.74194Z" fill="white"/>
<path d="M16.776 0V1.76129L14.1953 3.16774V0H16.776Z" fill="#00C5FF"/>
<path d="M23.8723 7.74194H20.6465V10.3226H23.8723V7.74194Z" fill="#00C5FF"/>
<path d="M23.8727 7.74198H20.6469V10.3226H23.8727V7.74198ZM25.8082 5.74843V12.9033H18.7114V7.74198H16.1308V12.9033H14.1953V5.74843L20.0018 2.58069L25.8082 5.74843Z" fill="#0052FE"/>
<path d="M16.7753 1.76129L20.0011 0L27.0978 3.87097V6.45161L25.8075 5.74839L20.0011 2.58065L14.1946 5.74839L12.9043 6.45161V3.87097L14.1946 3.16774L16.7753 1.76129Z" fill="#00C5FF"/>
<path d="M27.0977 19.3549V20.6452H29.0331C33.5493 20.6452 33.5493 18.7097 33.5493 18.7097C33.5438 18.9654 33.5901 19.2195 33.6855 19.4568C33.7808 19.6941 33.9232 19.9096 34.104 20.0905C34.2848 20.2713 34.5004 20.4137 34.7377 20.509C34.975 20.6043 35.2291 20.6507 35.4848 20.6452H37.4202V19.3549C37.4202 17.986 36.8765 16.6732 35.9085 15.7053C34.9406 14.7374 33.6278 14.1936 32.2589 14.1936C30.8901 14.1936 29.5773 14.7374 28.6094 15.7053C27.6414 16.6732 27.0977 17.986 27.0977 19.3549Z" fill="#0052FE"/>
<path d="M24.5156 29.6774V40H39.9995V29.6774L33.5479 28.3871L32.2576 29.6774L30.9672 28.3871L24.5156 29.6774Z" fill="#0052FE"/>
<path d="M30.9668 26.8323V28.3871L32.2571 29.6774L33.5474 28.3871V26.8323C33.1397 27.0068 32.7007 27.0968 32.2571 27.0968C31.8135 27.0968 31.3746 27.0068 30.9668 26.8323Z" fill="white"/>
<path d="M35.4844 20.6451V23.8709H36.1295C36.4714 23.8699 36.799 23.7337 37.0408 23.4919C37.2826 23.2501 37.4188 22.9225 37.4199 22.5806V20.6451H35.4844Z" fill="white"/>
<path d="M27.0977 20.6451V22.5806C27.0987 22.9225 27.235 23.2501 27.4767 23.4919C27.7185 23.7337 28.0461 23.8699 28.388 23.8709H29.0331V20.6451H27.0977Z" fill="white"/>
<path d="M30.9687 26.8323C31.5635 27.092 32.2227 27.1663 32.8604 27.0455C33.498 26.9246 34.0844 26.6142 34.5429 26.1549C35.1462 25.5479 35.4848 24.7268 35.4848 23.871V20.6452C35.2291 20.6507 34.975 20.6043 34.7377 20.509C34.5004 20.4136 34.2849 20.2713 34.1041 20.0905C33.9233 19.9096 33.7809 19.6941 33.6855 19.4568C33.5902 19.2195 33.5439 18.9654 33.5493 18.7097C33.5493 18.7097 33.5493 20.6452 29.0332 20.6452V23.871C29.0346 24.499 29.2183 25.113 29.5618 25.6387C29.9054 26.1643 30.3941 26.5789 30.9687 26.8323Z" fill="white"/>
<path d="M31.612 32.9032L30.9668 36.7742L32.2571 38.0645L33.5474 36.7742L32.9023 32.9032H31.612Z" fill="#00C5FF"/>
<path d="M30.3223 31.6129L31.6126 32.9032H32.9029L34.1932 31.6129L32.2577 29.6774L30.3223 31.6129Z" fill="#0052FE"/>
<path d="M29.1738 28.7484L30.3222 31.6129L32.2577 29.6774L30.9674 28.3871L29.1738 28.7484Z" fill="#00C5FF"/>
<path d="M32.2578 29.6774L34.1933 31.6129L35.3417 28.7484L33.5481 28.3871L32.2578 29.6774Z" fill="#00C5FF"/>
<path d="M2.58008 19.3549V20.6452H4.51556C9.03169 20.6452 9.03169 18.7097 9.03169 18.7097C9.02624 18.9654 9.07257 19.2195 9.16791 19.4568C9.26324 19.6941 9.40561 19.9096 9.58643 20.0905C9.76726 20.2713 9.9828 20.4137 10.2201 20.509C10.4574 20.6043 10.7115 20.6507 10.9672 20.6452H12.9027V19.3549C12.9027 17.986 12.3589 16.6732 11.391 15.7053C10.423 14.7374 9.11023 14.1936 7.74137 14.1936C6.37251 14.1936 5.05971 14.7374 4.09179 15.7053C3.12386 16.6732 2.58008 17.986 2.58008 19.3549Z" fill="#0052FE"/>
<path d="M0 29.6774V40H15.4839V29.6774L9.03226 28.3871L7.74194 29.6774L6.45161 28.3871L0 29.6774Z" fill="#0052FE"/>
<path d="M6.45117 26.8323V28.3871L7.74149 29.6774L9.03182 28.3871V26.8323C8.62403 27.0068 8.18507 27.0968 7.74149 27.0968C7.29792 27.0968 6.85896 27.0068 6.45117 26.8323Z" fill="white"/>
<path d="M10.9668 20.6451V23.8709H11.612C11.9539 23.8699 12.2815 23.7337 12.5232 23.4919C12.765 23.2501 12.9013 22.9225 12.9023 22.5806V20.6451H10.9668Z" fill="white"/>
<path d="M2.58008 20.6451V22.5806C2.5811 22.9225 2.71737 23.2501 2.95913 23.4919C3.20089 23.7337 3.5285 23.8699 3.8704 23.8709H4.51556V20.6451H2.58008Z" fill="white"/>
<path d="M6.45111 26.8323C7.04587 27.092 7.70515 27.1663 8.34281 27.0455C8.98046 26.9246 9.56683 26.6142 10.0253 26.1549C10.6286 25.5479 10.9672 24.7268 10.9672 23.871V20.6452C10.7116 20.6507 10.4574 20.6043 10.2202 20.509C9.98287 20.4136 9.76732 20.2713 9.5865 20.0905C9.40567 19.9096 9.26331 19.6941 9.16797 19.4568C9.07263 19.2195 9.0263 18.9654 9.03175 18.7097C9.03175 18.7097 9.03175 20.6452 4.51562 20.6452V23.871C4.51706 24.499 4.7007 25.113 5.04426 25.6387C5.38782 26.1643 5.87653 26.5789 6.45111 26.8323Z" fill="white"/>
<path d="M36.1293 6.45166H29.6777V7.74198H36.1293V6.45166Z" fill="#00C5FF"/>
<path d="M33.8734 1.37561L29.3574 3.95618L29.9976 5.07649L34.5136 2.49592L33.8734 1.37561Z" fill="#00C5FF"/>
<path d="M29.9976 9.11748L29.3574 10.2378L33.8734 12.8184L34.5136 11.6981L29.9976 9.11748Z" fill="#00C5FF"/>
<path d="M10.3227 6.45166H3.87109V7.74198H10.3227V6.45166Z" fill="#00C5FF"/>
<path d="M6.12651 1.37505L5.48633 2.49536L10.0023 5.07593L10.6425 3.95562L6.12651 1.37505Z" fill="#00C5FF"/>
<path d="M10.0023 9.11694L5.48633 11.6975L6.12651 12.8178L10.6425 10.2372L10.0023 9.11694Z" fill="#00C5FF"/>
<path d="M25.6133 19.8065C25.6749 19.7481 25.724 19.6778 25.7577 19.5999C25.7914 19.522 25.809 19.438 25.8093 19.3531C25.8097 19.2682 25.7929 19.1841 25.7598 19.1059C25.7268 19.0277 25.6783 18.957 25.6171 18.8981L23.0365 16.3175L22.1242 17.2297L23.6042 18.7097H20.6455V14.8387H19.3552V18.7097H16.3965L17.8759 17.2304L16.9636 16.3181L14.383 18.8987C14.322 18.9577 14.2736 19.0284 14.2407 19.1066C14.2077 19.1847 14.191 19.2688 14.1914 19.3536C14.1918 19.4384 14.2094 19.5222 14.2431 19.6001C14.2768 19.6779 14.3259 19.7481 14.3875 19.8065L14.3836 19.8104L16.9642 22.391L17.8765 21.4787L16.3965 20H23.6042L22.1249 21.4794L23.0371 22.3916L25.6178 19.811L25.6133 19.8065Z" fill="#00C5FF"/>
</svg>
