<svg width="8" height="6" viewBox="0 0 8 6" fill="none" xmlns="http://www.w3.org/2000/svg">
<path fill-rule="evenodd" clip-rule="evenodd" d="M5.14645 0.646447C5.34171 0.451184 5.65829 0.451184 5.85355 0.646447L7.85355 2.64645C8.04882 2.84171 8.04882 3.15829 7.85355 3.35355L5.85355 5.35355C5.65829 5.54882 5.34171 5.54882 5.14645 5.35355C4.95119 5.15829 4.95118 4.84171 5.14645 4.64645L6.29289 3.5L0.5 3.5C0.223858 3.5 -1.20706e-08 3.27614 0 3C1.20706e-08 2.72386 0.223858 2.5 0.5 2.5L6.29289 2.5L5.14645 1.35355C4.95119 1.15829 4.95118 0.841709 5.14645 0.646447Z" fill="#0052FE"/>
</svg>
