<svg width="32" height="32" viewBox="0 0 32 32" fill="none" xmlns="http://www.w3.org/2000/svg">
<circle cx="16" cy="16" r="16" fill="#B3CAFE"/>
<path fill-rule="evenodd" clip-rule="evenodd" d="M16.0002 8C16.5525 8 17.0002 8.44772 17.0002 9V10.323L20.9547 11.9047L22.553 11.1056C23.047 10.8586 23.6477 11.0588 23.8946 11.5528C24.1416 12.0468 23.9414 12.6474 23.4474 12.8944L22.2143 13.511L23.9524 18.9307C24.073 19.3065 23.9612 19.718 23.6671 19.9812C22.9601 20.614 22.0241 21 21.0002 21C19.9764 21 19.0403 20.614 18.3333 19.9812C18.0392 19.718 17.9275 19.3065 18.048 18.9307L19.7633 13.5823L17.0002 12.477V22H19.0002C19.5525 22 20.0002 22.4477 20.0002 23C20.0002 23.5523 19.5525 24 19.0002 24H13.0002C12.4479 24 12.0002 23.5523 12.0002 23C12.0002 22.4477 12.4479 22 13.0002 22H15.0002V12.477L12.2371 13.5823L13.9524 18.9307C14.073 19.3065 13.9612 19.718 13.6671 19.9812C12.9601 20.614 12.0241 21 11.0002 21C9.97639 21 9.04032 20.614 8.33331 19.9812C8.03924 19.718 7.92747 19.3065 8.04799 18.9307L9.78616 13.511L8.55301 12.8944C8.05903 12.6474 7.8588 12.0468 8.10579 11.5528C8.35278 11.0588 8.95345 10.8586 9.44743 11.1056L11.0458 11.9047L15.0002 10.323V9C15.0002 8.44772 15.4479 8 16.0002 8ZM11.0002 16.2745C10.6807 17.2708 10.5015 17.8294 10.182 18.8258C10.4316 18.9378 10.7082 19 11.0002 19C11.2922 19 11.5689 18.9378 11.8185 18.8258L11.0002 16.2745ZM21.0002 16.2745L20.182 18.8258C20.4316 18.9378 20.7082 19 21.0002 19C21.2922 19 21.5689 18.9378 21.8185 18.8258L21.0002 16.2745Z" fill="#0052FE"/>
<path d="M10.182 18.8258C10.5015 17.8294 10.6807 17.2708 11.0002 16.2745L11.8185 18.8258C11.5689 18.9378 11.2922 19 11.0002 19C10.7082 19 10.4316 18.9378 10.182 18.8258Z" fill="white"/>
<path d="M20.182 18.8258L21.0002 16.2745L21.8185 18.8258C21.5689 18.9378 21.2922 19 21.0002 19C20.7082 19 20.4316 18.9378 20.182 18.8258Z" fill="white"/>
</svg>
