<svg width="32" height="32" viewBox="0 0 32 32" fill="none" xmlns="http://www.w3.org/2000/svg">
<circle cx="16" cy="16" r="16" fill="#B3CAFE"/>
<path d="M15 9C15 8.44772 15.4477 8 16 8C16.5523 8 17 8.44772 17 9V14.5C17 14.7761 17.2239 15 17.5 15C17.7761 15 18 14.7761 18 14.5V10C18 9.44772 18.4477 9 19 9C19.5523 9 20 9.44772 20 10V14.5C20 14.7761 20.2239 15 20.5 15C20.7761 15 21 14.7761 21 14.5V12C21 11.4477 21.4477 11 22 11C22.5523 11 23 11.4477 23 12V17C23 20.866 19.866 24 16 24C12.134 24 9 20.866 9 17V15C9 14.4477 9.44772 14 10 14C10.5523 14 11 14.4477 11 15V17.5C11 17.7761 11.2239 18 11.5 18C11.7761 18 12 17.7761 12 17.5V10C12 9.44772 12.4477 9 13 9C13.5523 9 14 9.44772 14 10V14.5C14 14.7761 14.2239 15 14.5 15C14.7761 15 15 14.7761 15 14.5V9Z" fill="#0052FE"/>
</svg>
