<svg width="35" height="44" viewBox="0 0 35 44" fill="none" xmlns="http://www.w3.org/2000/svg">
<path d="M32.0381 4.24304H2.86719V17.3965H32.0381V4.24304Z" fill="#00C5FF"/>
<path d="M17.3972 15.275C19.9163 15.275 21.9585 13.2328 21.9585 10.7137C21.9585 8.19456 19.9163 6.1524 17.3972 6.1524C14.8781 6.1524 12.8359 8.19456 12.8359 10.7137C12.8359 13.2328 14.8781 15.275 17.3972 15.275Z" fill="#0052FE"/>
<path d="M5.94336 10.7136H10.9289" stroke="white" stroke-miterlimit="10"/>
<path d="M23.7617 10.7136H28.7473" stroke="white" stroke-miterlimit="10"/>
<path d="M17.1947 13.3656V12.9413C16.6643 12.8353 16.1339 12.6231 15.6035 12.1988L16.0278 11.6684C16.346 11.9866 16.7704 12.1988 17.0886 12.1988V10.9259C16.5582 10.8198 16.24 10.6077 16.0278 10.5016C15.8157 10.2894 15.7096 10.0773 15.7096 9.65297C15.7096 9.33474 15.8157 9.01651 16.1339 8.69829C16.346 8.48613 16.7704 8.38006 17.0886 8.27398V8.06183H17.5129V8.38006C17.9372 8.38006 18.4676 8.59221 18.8919 8.91044L18.5736 9.54689C18.2554 9.33474 17.9372 9.22867 17.619 9.22867V10.3955C18.1493 10.5016 18.4676 10.7137 18.6797 10.8198C18.8919 11.032 18.998 11.3502 18.998 11.6684C18.998 12.0927 18.8919 12.3049 18.5736 12.6231C18.3615 12.8353 17.9372 12.9413 17.5129 13.0474V13.3656H17.1947ZM16.7704 9.22867C16.6643 9.33474 16.5582 9.44082 16.5582 9.54689C16.5582 9.65297 16.5582 9.75905 16.6643 9.86512C16.7704 9.9712 16.8764 10.0773 17.1947 10.0773V9.01651C16.9825 9.12259 16.8764 9.22867 16.7704 9.22867ZM18.1493 12.0927C18.2554 11.9866 18.3615 11.8806 18.3615 11.7745C18.3615 11.6684 18.3615 11.4563 18.2554 11.4563C18.1493 11.3502 17.9372 11.2441 17.725 11.2441V12.3049C17.8311 12.1988 18.0433 12.1988 18.1493 12.0927Z" fill="white"/>
<path d="M22.5882 23.1245L27.2556 18.1389C28.4224 16.6539 30.7561 18.1389 29.4832 19.624L25.7705 24.8217H27.5738L31.9229 20.1544C31.9229 20.1544 32.3472 17.2903 32.4533 16.866L32.5594 13.1534C32.2412 12.5169 32.5594 11.7744 33.1959 11.4561C33.8323 11.1379 34.5748 11.4561 34.8931 12.0926V16.2296C34.9991 16.5478 34.9991 21.5334 34.9991 21.5334L29.8014 32.3531H21.8457V24.6096C21.9518 24.1853 22.1639 23.5488 22.5882 23.1245Z" fill="#0052FE"/>
<path d="M31.5027 32.8835H19.0918V43.7033H31.5027V32.8835Z" fill="#0052FE"/>
<path d="M12.4109 23.1246L7.74356 18.1391C6.57672 16.654 4.24305 18.1391 5.51596 19.6241L9.22862 24.8219H7.42533L3.07621 20.1545C3.07621 20.1545 2.6519 17.2904 2.54583 16.8661L2.43975 13.1535C2.75798 12.517 2.43975 11.7745 1.8033 11.4563C1.16684 11.138 0.424305 11.4563 0.106077 12.0927V16.2297C4.03068e-07 16.5479 0 21.5335 0 21.5335L5.19773 32.3533H13.1534V24.6097C13.0474 24.1854 12.8352 23.5489 12.4109 23.1246Z" fill="#0052FE"/>
<path d="M15.8093 32.8837H3.39844V43.7034H15.8093V32.8837Z" fill="#0052FE"/>
<path d="M31.5878 32.5759H19.2617V35.2172H31.5878V32.5759Z" fill="#00C5FF"/>
<path d="M15.7401 32.5759H3.41406V35.2172H15.7401V32.5759Z" fill="#00C5FF"/>
<path d="M17.1875 0V2.33368" stroke="#00C5FF" stroke-miterlimit="10"/>
<path d="M20.0466 0.318237L19.4102 2.65191" stroke="#00C5FF" stroke-miterlimit="10"/>
<path d="M22.5926 1.48505L21.4258 3.50049" stroke="#00C5FF" stroke-miterlimit="10"/>
<path d="M22.5926 20.0484L21.4258 18.033" stroke="#00C5FF" stroke-miterlimit="10"/>
<path d="M19.9431 21.2152L19.3066 18.8815" stroke="#00C5FF" stroke-miterlimit="10"/>
<path d="M17.1875 21.5334V19.0937" stroke="#00C5FF" stroke-miterlimit="10"/>
<path d="M14.4238 21.1091L14.9542 18.8815" stroke="#00C5FF" stroke-miterlimit="10"/>
<path d="M11.7695 20.0484L12.9364 18.033" stroke="#00C5FF" stroke-miterlimit="10"/>
<path d="M11.8828 1.37903L13.0496 3.50055" stroke="#00C5FF" stroke-miterlimit="10"/>
<path d="M14.5293 0.318237L15.1658 2.65191" stroke="#00C5FF" stroke-miterlimit="10"/>
</svg>
