<svg width="32" height="32" viewBox="0 0 32 32" fill="none" xmlns="http://www.w3.org/2000/svg">
<circle cx="16" cy="16" r="16" fill="#B3CAFE"/>
<path fill-rule="evenodd" clip-rule="evenodd" d="M12 8C11.4477 8 11 8.44772 11 9V10H10C8.89543 10 8 10.8954 8 12V22C8 23.1046 8.89543 24 10 24H22C23.1046 24 24 23.1046 24 22V12C24 10.8954 23.1046 10 22 10H21V9C21 8.44772 20.5523 8 20 8C19.4477 8 19 8.44772 19 9V10H13V9C13 8.44772 12.5523 8 12 8ZM12 13C11.4477 13 11 13.4477 11 14C11 14.5523 11.4477 15 12 15H20C20.5523 15 21 14.5523 21 14C21 13.4477 20.5523 13 20 13H12Z" fill="#0052FE"/>
<path d="M12 13C11.4477 13 11 13.4477 11 14C11 14.5523 11.4477 15 12 15H20C20.5523 15 21 14.5523 21 14C21 13.4477 20.5523 13 20 13H12Z" fill="white"/>
</svg>
