<svg width="40" height="32" viewBox="0 0 40 32" fill="none" xmlns="http://www.w3.org/2000/svg">
<path d="M4.44482 25.1852H11.1115V29.4296C11.1115 29.8756 10.9343 30.3033 10.619 30.6186C10.3037 30.934 9.87597 31.1111 9.43001 31.1111H6.12631C5.68035 31.1111 5.25266 30.934 4.93732 30.6186C4.62198 30.3033 4.44482 29.8756 4.44482 29.4296V25.1852Z" fill="#0052FE"/>
<path d="M37.7244 15.3259L34.1689 14.3111L33.3318 14.0741L31.1096 14.7037L30.4429 14.8963L26.6651 15.9704V22.3259C26.6658 23.2973 26.8208 24.2625 27.1244 25.1852H25.1837L24.4429 24.4445H15.554L14.8133 25.1852H4.44293C3.85356 25.1852 3.28832 24.9511 2.87158 24.5343C2.45483 24.1176 2.2207 23.5524 2.2207 22.963V15.8519C2.22123 15.1784 2.45114 14.5253 2.87256 14L5.18367 11.1111L7.87255 3.03705C8.16778 2.15273 8.73363 1.38363 9.49003 0.838604C10.2464 0.293573 11.1551 0.000206823 12.0874 1.70443e-05H27.9096C28.2387 -0.000914874 28.5668 0.0363716 28.8874 0.111128C29.633 0.279316 30.3226 0.636956 30.8897 1.1495C31.4567 1.66204 31.882 2.31216 32.1244 3.03705L34.8133 11.1111L37.1244 14C37.4346 14.3834 37.6412 14.8399 37.7244 15.3259Z" fill="#0052FE"/>
<path d="M6.668 21.4815H11.1124C11.5054 21.4815 11.8822 21.3254 12.16 21.0476C12.4378 20.7698 12.5939 20.3929 12.5939 20V19.0889C12.5968 18.7261 12.4664 18.3748 12.2274 18.1017C11.9885 17.8287 11.6576 17.6528 11.2976 17.6074L7.40875 17.0371H6.668C6.27509 17.0371 5.89827 17.1931 5.62044 17.471C5.34261 17.7488 5.18652 18.1256 5.18652 18.5185V20C5.18652 20.3929 5.34261 20.7698 5.62044 21.0476C5.89827 21.3254 6.27509 21.4815 6.668 21.4815Z" fill="#00C5FF"/>
<path d="M23.8352 21.4815H16.1611C15.9878 21.485 15.8188 21.4276 15.6834 21.3193C15.5481 21.211 15.455 21.0587 15.4204 20.8889L14.9759 18.6667C14.9537 18.5578 14.9562 18.4453 14.9833 18.3376C15.0105 18.2298 15.0615 18.1295 15.1326 18.0442C15.2038 17.9588 15.2932 17.8905 15.3943 17.8444C15.4954 17.7983 15.6056 17.7755 15.7167 17.7778H24.2796C24.3907 17.7755 24.5009 17.7983 24.602 17.8444C24.7031 17.8905 24.7926 17.9588 24.8637 18.0442C24.9348 18.1295 24.9858 18.2298 25.013 18.3376C25.0401 18.4453 25.0426 18.5578 25.0204 18.6667L24.5759 20.8889C24.5413 21.0587 24.4482 21.211 24.3129 21.3193C24.1775 21.4276 24.0085 21.485 23.8352 21.4815Z" fill="white"/>
<path d="M31.215 12.6667C31.0083 12.8775 30.7617 13.0451 30.4895 13.1596C30.2173 13.274 29.925 13.3331 29.6298 13.3334H10.3705C10.152 13.3352 9.93453 13.3027 9.72608 13.2371C9.28583 13.1113 8.89519 12.8526 8.60756 12.4963C8.4084 12.2144 8.28246 11.8874 8.24109 11.5448C8.19971 11.2021 8.24419 10.8545 8.37052 10.5334L10.7927 3.96298C10.8921 3.67369 11.0787 3.42225 11.3267 3.2432C11.5747 3.06415 11.8721 2.96627 12.1779 2.96298H27.8224C28.1247 2.96407 28.4194 3.05763 28.667 3.23108C28.9146 3.40454 29.1033 3.6496 29.2076 3.93335L29.6298 5.1852L31.5927 10.5111C31.7344 10.8704 31.7741 11.2618 31.7075 11.6421C31.6408 12.0225 31.4704 12.377 31.215 12.6667Z" fill="#00C5FF"/>
<path d="M38.1468 7.40742H36.6653C35.6426 7.40742 34.8135 8.23653 34.8135 9.25928C34.8135 10.282 35.6426 11.1111 36.6653 11.1111H38.1468C39.1696 11.1111 39.9987 10.282 39.9987 9.25928C39.9987 8.23653 39.1696 7.40742 38.1468 7.40742Z" fill="#0052FE"/>
<path d="M3.33333 7.40742H1.85185C0.829102 7.40742 0 8.23653 0 9.25928C0 10.282 0.829102 11.1111 1.85185 11.1111H3.33333C4.35608 11.1111 5.18519 10.282 5.18519 9.25928C5.18519 8.23653 4.35608 7.40742 3.33333 7.40742Z" fill="#0052FE"/>
<path d="M39.9989 15.9704V22.3259C39.9983 23.9508 39.5633 25.5459 38.7389 26.946C37.9144 28.3461 36.7306 29.5003 35.31 30.2889C34.6859 30.6409 34.0219 30.917 33.3322 31.1111C32.162 30.7783 31.0693 30.2169 30.1174 29.4593C29.6704 29.1046 29.2586 28.7077 28.8877 28.2741C27.4563 26.6316 26.6671 24.5269 26.6655 22.3482V15.9704L30.4433 14.8963L31.11 14.7037L33.3322 14.0741L34.1692 14.3111L37.7248 15.3259L38.9248 15.6667L39.9989 15.9704Z" fill="#00C5FF"/>
<path d="M32.5917 25.1852C32.4942 25.1858 32.3976 25.1671 32.3073 25.1302C32.2171 25.0933 32.135 25.039 32.0658 24.9704L30.2139 23.1185C30.1449 23.0495 30.0901 22.9675 30.0527 22.8772C30.0153 22.787 29.9961 22.6903 29.9961 22.5926C29.9961 22.4949 30.0153 22.3982 30.0527 22.308C30.0901 22.2177 30.1449 22.1357 30.2139 22.0667C30.283 21.9976 30.365 21.9428 30.4552 21.9054C30.5455 21.8681 30.6422 21.8488 30.7399 21.8488C30.8375 21.8488 30.9343 21.8681 31.0245 21.9054C31.1147 21.9428 31.1967 21.9976 31.2658 22.0667L32.5917 23.4L35.7695 20.2148C35.909 20.0753 36.0982 19.997 36.2954 19.997C36.4927 19.997 36.6819 20.0753 36.8213 20.2148C36.9608 20.3543 37.0392 20.5435 37.0392 20.7408C37.0392 20.938 36.9608 21.1272 36.8213 21.2667L33.1176 24.9704C33.0484 25.039 32.9663 25.0933 32.8761 25.1302C32.7858 25.1671 32.6892 25.1858 32.5917 25.1852Z" fill="white"/>
</svg>
