<svg width="40" height="34" viewBox="0 0 40 34" fill="none" xmlns="http://www.w3.org/2000/svg">
<path d="M17.2606 14.5212C21.2705 14.5212 24.5212 11.2705 24.5212 7.26061C24.5212 3.25068 21.2705 0 17.2606 0C13.2507 0 10 3.25068 10 7.26061C10 11.2705 13.2507 14.5212 17.2606 14.5212Z" fill="#0052FE"/>
<path d="M17.2568 12.9119C20.3779 12.9119 22.9081 10.3817 22.9081 7.26057C22.9081 4.13943 20.3779 1.60925 17.2568 1.60925C14.1356 1.60925 11.6055 4.13943 11.6055 7.26057C11.6055 10.3817 14.1356 12.9119 17.2568 12.9119Z" fill="white"/>
<path d="M17.2594 12.4927C20.149 12.4927 22.4915 10.1502 22.4915 7.26064C22.4915 4.37105 20.149 2.02856 17.2594 2.02856C14.3698 2.02856 12.0273 4.37105 12.0273 7.26064C12.0273 10.1502 14.3698 12.4927 17.2594 12.4927Z" fill="#00C5FF"/>
<path d="M18.3831 6.46091C17.6569 5.90806 17.2991 5.63706 17.2991 5.37691C17.2991 5.30092 17.3425 5.21407 17.4402 5.21407C17.5271 5.21407 17.7221 5.6262 17.7981 5.6262L19.2833 5.5502C19.3589 5.53935 19.4024 5.49592 19.4024 5.4312C19.4024 4.47706 18.7952 3.65321 17.7981 3.44735C17.7981 2.80764 17.7981 2.74292 17.7112 2.74292H16.9199C16.8765 2.74292 16.8439 2.78635 16.8439 2.84063V3.43691C15.8355 3.64319 15.2935 4.51005 15.2935 5.33391C15.2935 6.11433 15.6948 6.75404 16.3124 7.19833C17.1688 7.81633 17.4289 8.05475 17.4289 8.33661C17.4289 8.47775 17.3312 8.57504 17.1905 8.57504C16.9412 8.57504 16.7675 8.34747 16.6919 7.9679C16.6702 7.87061 16.6377 7.8489 16.5725 7.8489L15.1958 7.92489C15.1415 7.93575 15.1094 7.9679 15.1094 8.02218C15.1094 9.3016 15.7057 10.0495 16.8439 10.2553C16.8439 10.9059 16.8439 10.9815 16.9304 10.9815H17.7108C17.7542 10.9815 17.7977 10.938 17.7977 10.8946V10.2658C18.8057 10.0708 19.4128 9.33334 19.4128 8.24934C19.4132 7.57706 19.0554 6.97034 18.3831 6.46091Z" fill="white"/>
<path d="M39.9997 21.7419V34H32.2578L39.9997 21.7419Z" fill="#0052FE"/>
<path d="M34.6319 22.1807L36.1287 19.8065L39.9996 21.7419L32.2577 34L28.3867 32.0645L29.6383 30.0903L34.6319 22.1807Z" fill="#00C5FF"/>
<path d="M5.14194 14.3742C7.7742 16.4775 13.5484 21.0968 13.5484 21.0968H14.5161C13.9173 21.0968 13.3429 20.8589 12.9194 20.4354C12.496 20.012 12.2581 19.4376 12.2581 18.8387C12.2575 18.5423 12.3159 18.2487 12.43 17.9751C12.5441 17.7015 12.7116 17.4534 12.9226 17.2452C13.0182 17.1504 13.1218 17.0641 13.2323 16.9871C13.6073 16.7209 14.0562 16.5788 14.5161 16.5807H26.4516C28.104 16.5831 29.6882 17.2395 30.8581 18.4065L34.6323 22.1807L29.6387 30.0904L29.0323 29.4839H17.8645C15.9138 29.4852 14.0282 28.7818 12.5548 27.5033L0.729034 17.2452C0.499736 17.0354 0.31653 16.7803 0.191032 16.496C0.0655335 16.2116 0.000481794 15.9044 1.53077e-06 15.5936V15.5355C-0.000338081 15.2491 0.0558342 14.9653 0.165302 14.7006C0.274769 14.4359 0.435381 14.1954 0.63794 13.9928C0.8405 13.7902 1.08103 13.6296 1.34575 13.5202C1.61047 13.4107 1.89418 13.3545 2.18065 13.3549H2.22581C3.0275 13.3532 3.81616 13.5576 4.51613 13.9484C4.73501 14.0746 4.94419 14.217 5.14194 14.3742Z" fill="#0052FE"/>
</svg>
