<svg width="40" height="40" viewBox="0 0 40 40" fill="none" xmlns="http://www.w3.org/2000/svg">
<path d="M20 40C31.0457 40 40 31.0457 40 20C40 8.9543 31.0457 0 20 0C8.9543 0 0 8.9543 0 20C0 31.0457 8.9543 40 20 40Z" fill="#0052FE"/>
<path d="M30.1841 9.07576C28.7402 7.05441 26.1166 6.25818 23.7928 7.13605C21.347 8.06001 18.6481 8.06001 16.2022 7.13605C13.8785 6.25818 11.2549 7.05431 9.81101 9.07576C8.66773 10.6764 8.47072 12.7674 9.29507 14.5533L10.9006 18.0319C11.5823 19.509 11.7622 21.1744 11.3787 22.7555C10.6842 25.6194 10.3691 30.6761 15.469 33.7055C15.9548 33.9941 16.5532 33.5751 16.4582 33.0181C15.5543 27.7213 16.8242 23.1687 19.9976 23.1687C23.1709 23.1687 24.4408 27.7213 23.537 33.0181C23.4419 33.575 24.0404 33.994 24.5262 33.7055C29.6261 30.6761 29.311 25.6194 28.6164 22.7554C28.2329 21.1743 28.4128 19.5089 29.0946 18.0318L30.7001 14.5533C31.5243 12.7674 31.3274 10.6765 30.1841 9.07576Z" fill="#00C5FF"/>
<path d="M7.08188 9.32356L8.7899 6.20056L10.4978 9.32356L13.6208 11.0315L10.4978 12.7395L8.7899 15.8624L7.08188 12.7395L3.95898 11.0315L7.08188 9.32356Z" fill="white"/>
</svg>
