<svg width="40" height="40" viewBox="0 0 40 40" fill="none" xmlns="http://www.w3.org/2000/svg">
<path d="M20 0L24.8185 6.23572C25.1746 6.69648 25.7481 6.93391 26.3255 6.8599L34.142 5.85784L33.1399 13.6744C33.0659 14.2519 33.3035 14.8254 33.7641 15.1813L40 20L33.7643 24.8185C33.3035 25.1746 33.0661 25.7481 33.1401 26.3255L34.1422 34.142L26.3256 33.1399C25.7481 33.0659 25.1746 33.3035 24.8187 33.7641L20 40L15.1815 33.7643C14.8254 33.3035 14.2519 33.0661 13.6745 33.1401L5.858 34.1422L6.86007 26.3256C6.93407 25.7481 6.69648 25.1746 6.23589 24.8187L0 20L6.23572 15.1815C6.69648 14.8254 6.93391 14.2519 6.8599 13.6745L5.85784 5.858L13.6744 6.86007C14.2519 6.93407 14.8254 6.69648 15.1813 6.23589L20 0Z" fill="#0052FE"/>
<path d="M25.4061 18.6432L18.1411 29.3453C17.7288 29.9524 16.7874 29.504 16.9894 28.8043L19.2147 21.11H15.1297C14.6993 21.11 14.3903 20.6965 14.5106 20.2842L17.2733 10.8324C17.3514 10.5607 17.6064 10.3695 17.8912 10.3695H22.0209C22.4524 10.3695 22.7591 10.7819 22.64 11.1917L20.7873 17.6368H24.8724C25.3906 17.637 25.6948 18.2164 25.4061 18.6432Z" fill="#00C5FF"/>
</svg>
