<svg width="32" height="32" viewBox="0 0 32 32" fill="none" xmlns="http://www.w3.org/2000/svg">
<circle cx="16" cy="16" r="16" fill="#B3CAFE"/>
<path d="M14.2376 13.0951C14.4117 12.979 14.6268 12.8752 14.875 12.7949L14.875 14.7051C14.6268 14.6248 14.4117 14.521 14.2376 14.4049C13.8279 14.1319 13.75 13.8781 13.75 13.75C13.75 13.6219 13.8279 13.3681 14.2376 13.0951Z" fill="#0054F5"/>
<path d="M17.125 19.2051L17.125 17.2949C17.3732 17.3752 17.5883 17.479 17.7625 17.5951C18.1721 17.8682 18.25 18.1219 18.25 18.25C18.25 18.3781 18.1721 18.6319 17.7625 18.9049C17.5883 19.021 17.3732 19.1248 17.125 19.2051Z" fill="#0054F5"/>
<path fill-rule="evenodd" clip-rule="evenodd" d="M16 25C20.9706 25 25 20.9706 25 16C25 11.0294 20.9706 7 16 7C11.0294 7 7 11.0294 7 16C7 20.9706 11.0294 25 16 25ZM17.125 10.375C17.125 9.75368 16.6213 9.25 16 9.25C15.3787 9.25 14.875 9.75368 14.875 10.375V10.4785C14.1757 10.6098 13.5289 10.8633 12.9895 11.223C12.1776 11.7642 11.5 12.6355 11.5 13.75C11.5 14.8645 12.1776 15.7358 12.9895 16.277C13.5289 16.6367 14.1757 16.8902 14.875 17.0215L14.875 19.2054C14.4351 19.0626 14.1091 18.8484 13.9263 18.6377C13.5191 18.1684 12.8085 18.1181 12.3392 18.5253C11.87 18.9325 11.8196 19.643 12.2268 20.1123C12.8596 20.8416 13.817 21.3222 14.875 21.5211L14.875 21.625C14.875 22.2463 15.3787 22.75 16 22.75C16.6213 22.75 17.125 22.2463 17.125 21.625L17.125 21.5215C17.8243 21.3902 18.4711 21.1367 19.0105 20.777C19.8224 20.2358 20.5 19.3645 20.5 18.25C20.5 17.1355 19.8224 16.2642 19.0105 15.7229C18.4711 15.3633 17.8243 15.1098 17.125 14.9785L17.125 12.7946C17.5649 12.9374 17.891 13.1516 18.0738 13.3623C18.481 13.8316 19.1915 13.8819 19.6608 13.4747C20.1301 13.0675 20.1804 12.357 19.7732 11.8877C19.1404 11.1584 18.183 10.6778 17.125 10.4789V10.375Z" fill="#0054F5"/>
<path fill-rule="evenodd" clip-rule="evenodd" d="M17.125 10.375C17.125 9.75368 16.6213 9.25 16 9.25C15.3787 9.25 14.875 9.75368 14.875 10.375V10.4785C14.1757 10.6098 13.5289 10.8633 12.9895 11.223C12.1776 11.7642 11.5 12.6355 11.5 13.75C11.5 14.8645 12.1776 15.7358 12.9895 16.277C13.5289 16.6367 14.1757 16.8902 14.875 17.0215L14.875 19.2054C14.4351 19.0626 14.1091 18.8484 13.9263 18.6377C13.5191 18.1684 12.8085 18.1181 12.3392 18.5253C11.87 18.9325 11.8196 19.643 12.2268 20.1123C12.8596 20.8416 13.817 21.3222 14.875 21.5211L14.875 21.625C14.875 22.2463 15.3787 22.75 16 22.75C16.6213 22.75 17.125 22.2463 17.125 21.625L17.125 21.5215C17.8243 21.3902 18.4711 21.1367 19.0105 20.777C19.8224 20.2358 20.5 19.3645 20.5 18.25C20.5 17.1355 19.8224 16.2642 19.0105 15.7229C18.4711 15.3633 17.8243 15.1098 17.125 14.9785L17.125 12.7946C17.5649 12.9374 17.891 13.1516 18.0738 13.3623C18.481 13.8316 19.1915 13.8819 19.6608 13.4747C20.1301 13.0675 20.1804 12.357 19.7732 11.8877C19.1404 11.1584 18.183 10.6778 17.125 10.4789V10.375ZM14.875 12.7949C14.6268 12.8752 14.4117 12.979 14.2376 13.0951C13.8279 13.3681 13.75 13.6219 13.75 13.75C13.75 13.8781 13.8279 14.1319 14.2376 14.4049C14.4117 14.521 14.6268 14.6248 14.875 14.7051L14.875 12.7949ZM17.125 17.2949L17.125 19.2051C17.3732 19.1248 17.5883 19.021 17.7625 18.9049C18.1721 18.6319 18.25 18.3781 18.25 18.25C18.25 18.1219 18.1721 17.8682 17.7625 17.5951C17.5883 17.479 17.3732 17.3752 17.125 17.2949Z" fill="white"/>
</svg>
