<svg width="32" height="32" viewBox="0 0 32 32" fill="none" xmlns="http://www.w3.org/2000/svg">
<circle cx="16" cy="16" r="16" fill="#B3CAFE"/>
<path d="M19 12C19 13.6569 17.6569 15 16 15C14.3431 15 13 13.6569 13 12C13 10.3431 14.3431 9 16 9C17.6569 9 19 10.3431 19 12Z" fill="white"/>
<path d="M24 14C24 15.1046 23.1046 16 22 16C20.8954 16 20 15.1046 20 14C20 12.8954 20.8954 12 22 12C23.1046 12 24 12.8954 24 14Z" fill="white"/>
<path d="M20 21C20 18.7909 18.2091 17 16 17C13.7909 17 12 18.7909 12 21V24H20V21Z" fill="#0054F5"/>
<path d="M12 14C12 15.1046 11.1046 16 10 16C8.89543 16 8 15.1046 8 14C8 12.8954 8.89543 12 10 12C11.1046 12 12 12.8954 12 14Z" fill="white"/>
<path d="M22 24V21C22 19.9459 21.7282 18.9552 21.2507 18.0943C21.4902 18.0327 21.7413 18 22 18C23.6569 18 25 19.3431 25 21V24H22Z" fill="#0054F5"/>
<path d="M10.7493 18.0943C10.2718 18.9552 10 19.9459 10 21V24H7V21C7 19.3431 8.34315 18 10 18C10.2587 18 10.5098 18.0327 10.7493 18.0943Z" fill="#0054F5"/>
</svg>
