<svg width="40" height="40" viewBox="0 0 40 40" fill="none" xmlns="http://www.w3.org/2000/svg">
<path d="M20 40C31.0457 40 40 31.0457 40 20C40 8.9543 31.0457 0 20 0C8.9543 0 0 8.9543 0 20C0 31.0457 8.9543 40 20 40Z" fill="#0052FE"/>
<path d="M22.6983 14.6933H17.3223V20.0693H22.6983V14.6933Z" fill="white"/>
<path d="M15.6141 11.4474C15.7241 12.232 15.3099 12.9386 14.6888 13.0256C14.0679 13.1126 13.4754 12.5471 13.3653 11.7626C13.2555 10.978 13.6695 10.2714 14.2906 10.1844C14.9117 10.0972 15.5042 10.6627 15.6141 11.4474Z" fill="white"/>
<path d="M24.4141 11.4474C24.3043 12.232 24.7183 12.9386 25.3394 13.0256C25.9603 13.1126 26.5529 12.5471 26.6629 11.7626C26.773 10.978 26.3587 10.2714 25.7377 10.1844C25.1166 10.0972 24.524 10.6627 24.4141 11.4474Z" fill="white"/>
<path d="M25.6125 10.5856C25.6125 14.2748 23.1034 17.2654 20.0084 17.2654C16.9134 17.2654 14.4043 14.2748 14.4043 10.5856C14.4043 6.89642 16.9134 4.68295 20.0084 4.68295C23.1034 4.68295 25.6125 6.89642 25.6125 10.5856Z" fill="white"/>
<path d="M30.5224 32.026H9.49758C7.95026 32.026 6.84412 30.5294 7.29817 29.0502L9.6568 21.3647C9.92197 20.5007 10.6683 19.872 11.5649 19.7575L20.01 18.6425L28.455 19.7577C29.3514 19.8722 30.098 20.5009 30.3631 21.3649L32.722 29.0504C33.1758 30.5294 32.0697 32.026 30.5224 32.026Z" fill="white"/>
<path d="M20.0098 18.6482L21.8314 21.1992C22.0531 21.5099 22.5064 21.5325 22.7583 21.2459L24.5212 19.2381L20.0098 18.6482Z" fill="#D0D2D3"/>
<path d="M32.6379 28.7768C32.2911 29.5821 31.4939 30.1723 30.5223 30.1723H9.49757C8.52606 30.1723 7.72879 29.5821 7.38206 28.7768L7.29815 29.0504C6.8441 30.5296 7.95045 32.0262 9.49757 32.0262H30.5223C32.0697 32.0262 33.1758 30.5296 32.722 29.0504L32.6379 28.7768Z" fill="#D0D2D3"/>
<path d="M14.4102 10.2898C15.0798 10.5969 15.8242 10.7694 16.6094 10.7694C19.5272 10.7694 21.8927 8.40393 21.8927 5.48627C21.8927 5.31261 21.8837 5.1411 21.8673 4.97193C21.2853 4.78227 20.6599 4.68295 20.008 4.68295C16.9965 4.68295 14.5409 6.77876 14.4102 10.2898Z" fill="#00C5FF"/>
<path d="M20.6232 4.7132C20.5861 4.96549 20.5664 5.22364 20.5664 5.48627C20.5664 8.32393 22.8037 10.6383 25.6105 10.7633C25.6119 10.704 25.6142 10.6451 25.6142 10.5854C25.6144 7.14344 23.4298 4.98676 20.6232 4.7132Z" fill="#00C5FF"/>
<path d="M22.0564 20.6892C22.2162 20.8484 22.4675 20.8697 22.6515 20.7391L24.3276 19.5516C24.552 19.3908 24.5869 19.0708 24.4025 18.8654L23.2896 17.6254C23.1583 17.479 22.9491 17.4316 22.7674 17.5067L20.0098 18.6482L22.0564 20.6892Z" fill="white"/>
<path d="M17.9628 20.6892C17.803 20.8484 17.5517 20.8697 17.3677 20.7391L15.6916 19.5516C15.4672 19.3908 15.4322 19.0708 15.6166 18.8654L16.7296 17.6254C16.8609 17.479 17.0701 17.4316 17.2518 17.5067L20.0094 18.6482L17.9628 20.6892Z" fill="white"/>
<path d="M17.9121 32.026L19.347 20.3936H20.669L22.1041 32.026H17.9121Z" fill="#0052FE"/>
<path d="M21.5396 20.8531L20.3476 22.0451C20.1601 22.2326 19.8561 22.2326 19.6686 22.0451L18.4766 20.8531C18.2891 20.6656 18.2891 20.3616 18.4766 20.1741L19.6686 18.9821C19.8561 18.7946 20.1601 18.7946 20.3476 18.9821L21.5396 20.1741C21.7271 20.3614 21.7271 20.6656 21.5396 20.8531Z" fill="#0052FE"/>
<path d="M18.1383 30.1922L17.9121 32.026H22.1041L21.8778 30.1922H18.1383Z" fill="#106EA0"/>
<path d="M32.7161 29.0502L30.3573 21.3647C30.0921 20.5007 29.3458 19.872 28.4492 19.7575L24.5153 19.2381L20.0041 27.8794L15.4929 19.2381L11.559 19.7575C10.6626 19.872 9.9161 20.5007 9.65093 21.3647L7.29229 29.0502C6.83825 30.5294 7.94459 32.026 9.49171 32.026H30.5165C32.0638 32.026 33.17 30.5294 32.7161 29.0502Z" fill="#00C5FF"/>
<path d="M29.1553 32.026L28.1567 26.5027C28.1192 26.2952 27.8197 26.3013 27.7907 26.5101L27.0234 32.0258H29.1553V32.026Z" fill="#E43D91"/>
<path d="M25.724 28.4149H23.1423C22.8934 28.4149 22.6914 28.2129 22.6914 27.9639C22.6914 27.715 22.8934 27.513 23.1423 27.513H25.724C25.973 27.513 26.1749 27.715 26.1749 27.9639C26.1749 28.2131 25.973 28.4149 25.724 28.4149Z" fill="#E43D91"/>
<path d="M30.6869 26.2755V28.7255C30.6869 31.5413 29.0596 34.096 26.5246 35.2921C26.523 35.2937 26.5215 35.2952 26.5201 35.2952C26.4973 35.3059 26.476 35.3165 26.4534 35.3257C26.4079 35.3409 26.3578 35.3499 26.3061 35.3499C26.2544 35.3499 26.2058 35.3407 26.1603 35.3257C26.1375 35.3165 26.1149 35.3059 26.092 35.2952C26.0905 35.2952 26.0889 35.2937 26.0875 35.2921C23.5525 34.096 21.9238 31.5413 21.9238 28.7255V26.2755C21.9238 26.1434 22.0103 26.025 22.1363 25.9856L26.124 24.7378C26.2425 24.7013 26.3683 24.7013 26.4868 24.7378L30.4745 25.9856C30.6005 26.025 30.6869 26.1434 30.6869 26.2755Z" fill="#0052FE"/>
<path d="M29.4289 27.159V29.102C29.4289 31.086 28.2966 32.8862 26.5266 33.75C26.5251 33.7516 26.5235 33.753 26.5221 33.753C26.4993 33.7635 26.478 33.7742 26.4554 33.7834C26.4538 33.7834 26.4523 33.785 26.4509 33.785C26.4068 33.7986 26.3582 33.8078 26.3083 33.8078C26.2568 33.8078 26.208 33.7986 26.1625 33.7836C26.1444 33.776 26.1245 33.7668 26.1063 33.7578C26.1018 33.7563 26.0987 33.7547 26.0942 33.7533C26.0927 33.7533 26.0911 33.7518 26.0897 33.7504C24.3198 32.8866 23.1875 31.0864 23.1875 29.1024V27.1594C23.1875 27.0927 23.23 27.0335 23.2938 27.0136L26.2174 26.0999C26.2765 26.0817 26.3387 26.0817 26.398 26.0999L29.3217 27.0136C29.3848 27.033 29.4289 27.0923 29.4289 27.159Z" fill="#00C5FF"/>
<path d="M25.8962 31.5641C25.713 31.5641 25.5372 31.4911 25.4075 31.3615L24.0561 30.0103C23.786 29.7405 23.786 29.3028 24.0561 29.0328C24.3261 28.7627 24.7636 28.7627 25.0334 29.0328L25.8961 29.895L27.644 28.1469C27.914 27.8769 28.3515 27.8769 28.6215 28.1469C28.8916 28.4168 28.8916 28.8544 28.6215 29.1245L26.3848 31.3615C26.2555 31.4911 26.0799 31.5641 25.8962 31.5641Z" fill="white"/>
</svg>
