<svg width="32" height="32" viewBox="0 0 32 32" fill="none" xmlns="http://www.w3.org/2000/svg">
<circle cx="16" cy="16" r="16" fill="#B3CAFE"/>
<rect x="9" y="14" width="14" height="10" rx="2" fill="white"/>
<rect x="12" y="9" width="8" height="3" rx="1.5" fill="white"/>
<path fill-rule="evenodd" clip-rule="evenodd" d="M11 11C11 9.34315 12.3431 8 14 8C14.7684 8 15.4692 8.28885 16 8.7639C16.5308 8.28885 17.2316 8 18 8C19.6569 8 21 9.34315 21 11C21 11.3506 20.9398 11.6872 20.8293 12H22C23.1046 12 24 12.8954 24 14C24 15.1046 23.1046 16 22 16H17V15C17 14.4477 16.5523 14 16 14C15.4477 14 15 14.4477 15 15V16H10C8.89543 16 8 15.1046 8 14C8 12.8954 8.89543 12 10 12H11.1707C11.0602 11.6872 11 11.3506 11 11ZM15 12V11C15 10.4477 14.5523 10 14 10C13.4477 10 13 10.4477 13 11C13 11.5523 13.4477 12 14 12H15ZM18 12C18.5523 12 19 11.5523 19 11C19 10.4477 18.5523 10 18 10C17.4477 10 17 10.4477 17 11V12H18Z" fill="#0054F5"/>
<path d="M15 17H9V22C9 23.1046 9.89543 24 11 24H15V17Z" fill="#0054F5"/>
<path d="M17 24H21C22.1046 24 23 23.1046 23 22V17H17V24Z" fill="#0054F5"/>
</svg>