<svg width="40" height="32" viewBox="0 0 40 32" fill="none" xmlns="http://www.w3.org/2000/svg">
<path d="M40.0009 16.2552V22.578C39.9978 24.5583 39.3484 26.4834 38.1513 28.0608C36.9542 29.6383 35.275 30.7819 33.3686 31.3179C31.0452 30.6573 29.0771 29.1051 27.8933 26.9995C27.1323 25.6503 26.7337 24.127 26.7363 22.578V16.2552L31.1579 14.9951L33.3686 14.3687L34.2013 14.6045L38.9324 15.9531L40.0009 16.2552Z" fill="#00C5FF"/>
<path d="M38.9315 15.9531L34.2004 14.6045L33.3677 14.3687L31.157 14.9951L26.7354 16.2552V22.578C26.7328 24.127 27.1314 25.6503 27.8924 26.9995C23.7878 29.7335 20.0221 31.8263 20.0221 31.8263C20.0221 31.8263 6.17539 24.1771 2.76345 19.0555C0.788504 16.1079 0 13.4476 0 11.1189C0 7.64065 1.7465 4.85509 3.89831 2.70328C5.63467 0.972121 7.98656 0 10.4385 0C12.8904 0 15.2423 0.972121 16.9786 2.70328L20 5.72465L23.0508 2.70328C24.7872 0.972121 27.1391 0 29.591 0C32.0429 0 34.3948 0.972121 36.1312 2.70328C39.182 5.77624 41.4149 10.1462 38.9315 15.9531Z" fill="#0052FE"/>
<path d="M17.1566 8.47337V12.8949H12.7351V17.3164H8.31361V12.8949H3.89209V8.47337H8.31361V4.05185H12.7351V8.47337H17.1566Z" fill="white"/>
<path d="M32.6301 25.4225C32.5331 25.4231 32.437 25.4045 32.3472 25.3678C32.2574 25.3311 32.1757 25.2771 32.1069 25.2088L30.2646 23.3665C30.1959 23.2978 30.1414 23.2162 30.1042 23.1265C30.067 23.0367 30.0479 22.9405 30.0479 22.8433C30.0479 22.7461 30.067 22.6499 30.1042 22.5601C30.1414 22.4704 30.1959 22.3888 30.2646 22.3201C30.3333 22.2514 30.4149 22.1969 30.5046 22.1597C30.5944 22.1225 30.6906 22.1034 30.7878 22.1034C30.885 22.1034 30.9812 22.1225 31.0709 22.1597C31.1607 22.1969 31.2423 22.2514 31.311 22.3201L32.6301 23.6465L35.7915 20.4778C35.9302 20.339 36.1184 20.2611 36.3147 20.2611C36.5109 20.2611 36.6991 20.339 36.8379 20.4778C36.9767 20.6166 37.0546 20.8048 37.0546 21.001C37.0546 21.1972 36.9767 21.3854 36.8379 21.5242L33.1533 25.2088C33.0844 25.2771 33.0028 25.3311 32.913 25.3678C32.8232 25.4045 32.7271 25.4231 32.6301 25.4225Z" fill="white"/>
</svg>
