<svg width="40" height="33" viewBox="0 0 40 33" fill="none" xmlns="http://www.w3.org/2000/svg">
<path d="M24.6431 32.5375H6.79664C6.35899 32.5375 5.93927 32.3636 5.62981 32.0541C5.32034 31.7447 5.14648 31.325 5.14648 30.8873V29.2371H10.097C15.2509 29.2455 20.2335 27.3872 24.1233 24.0061V29.3527C24.1233 29.5617 24.1233 29.7679 24.1233 29.9715C24.1813 30.8462 24.3561 31.7092 24.6431 32.5375Z" fill="#0052FE"/>
<path d="M34.8455 11.0854V21.1018L32.4775 20.4253L31.5451 20.1612L30.7201 20.3923L29.0699 20.8626L28.3273 21.0771H28.2448L26.5039 21.5721C29.4254 18.1021 31.1601 13.7885 31.4544 9.26193L34.8455 11.0854Z" fill="#0052FE"/>
<path d="M31.4913 9.28672C31.197 13.8133 29.4623 18.1269 26.5408 21.5969L25.7735 21.8114L24.1233 22.2817V24.0144C20.2323 27.3925 15.2498 29.2478 10.097 29.2372H5.14648V11.0854H5.18774L11.2768 7.78508L19.2141 3.48641C19.4549 3.35642 19.7243 3.28837 19.9979 3.28837C20.2716 3.28837 20.5409 3.35642 20.7818 3.48641L28.719 7.78508L31.4913 9.28672Z" fill="#0052FE"/>
<path d="M39.802 11.9104C39.5886 12.2833 39.2382 12.5583 38.8253 12.677C38.4124 12.7956 37.9695 12.7485 37.5907 12.5458L34.8515 11.0854L20.8251 3.48637C20.5843 3.35639 20.3149 3.28833 20.0413 3.28833C19.7676 3.28833 19.4983 3.35639 19.2575 3.48637L5.18984 11.0854H5.14859L2.43407 12.554C2.05195 12.7638 1.60231 12.8139 1.18336 12.6934C0.76442 12.5728 0.410213 12.2913 0.198108 11.9104C0.0654207 11.6707 -0.00280731 11.4006 8.84826e-05 11.1266C8.42541e-05 10.8289 0.0806057 10.5368 0.233121 10.2811C0.385637 10.0255 0.604466 9.81587 0.866423 9.67447L17.6403 0.598592C18.3648 0.205752 19.1759 0 20 0C20.8242 0 21.6353 0.205752 22.3598 0.598592L39.1336 9.67447C39.3243 9.77741 39.4929 9.91689 39.6297 10.085C39.7665 10.253 39.8688 10.4464 39.9309 10.654C39.9929 10.8617 40.0135 11.0795 39.9914 11.2951C39.9693 11.5106 39.9049 11.7197 39.802 11.9104Z" fill="#00C5FF"/>
<path d="M24.1236 22.2735V29.3526C24.1236 29.5617 24.1236 29.7679 24.1236 29.9715C24.1736 30.845 24.34 31.708 24.6187 32.5375H14.2227V17.686C14.2227 17.2484 14.3965 16.8286 14.706 16.5192C15.0154 16.2097 15.4352 16.0359 15.8728 16.0359H24.1236C24.5613 16.0359 24.981 16.2097 25.2905 16.5192C25.5999 16.8286 25.7738 17.2484 25.7738 17.686V21.8114L24.1236 22.2735Z" fill="white"/>
<path d="M38.9751 16.1122V23.1914C38.9834 25.6398 38.104 28.0083 36.4999 29.858C36.3101 30.0808 36.1038 30.2953 35.8893 30.5016C34.667 31.6694 33.1768 32.5193 31.5494 32.9768C30.3408 32.6375 29.2052 32.0781 28.1996 31.3267L27.9686 31.1534C27.7152 30.955 27.4728 30.7429 27.2425 30.5181C26.5237 29.8239 25.9094 29.0291 25.4191 28.1584C25.1011 27.592 24.8413 26.9949 24.6435 26.3762C24.3649 25.5467 24.1984 24.6838 24.1484 23.8102C24.1484 23.6067 24.1484 23.4004 24.1484 23.1914V16.1122L25.7738 15.6502L28.2491 14.9488H28.3316L29.0742 14.7343L30.7243 14.264L31.5494 14L32.4817 14.264L34.8497 14.9406L37.7788 15.7657L38.9751 16.1122Z" fill="#00C5FF"/>
<path d="M30.7232 26.3762C30.6146 26.3768 30.507 26.356 30.4064 26.315C30.3059 26.2739 30.2145 26.2134 30.1374 26.1369L28.0747 24.0742C27.9193 23.9189 27.832 23.7081 27.832 23.4884C27.832 23.2687 27.9193 23.058 28.0747 22.9026C28.23 22.7472 28.4408 22.66 28.6605 22.66C28.8802 22.66 29.0909 22.7472 29.2463 22.9026L30.7232 24.3878L34.2628 20.8399C34.3397 20.763 34.431 20.702 34.5316 20.6603C34.6321 20.6187 34.7398 20.5973 34.8486 20.5973C34.9574 20.5973 35.0651 20.6187 35.1656 20.6603C35.2661 20.702 35.3575 20.763 35.4344 20.8399C35.5113 20.9168 35.5723 21.0082 35.614 21.1087C35.6556 21.2092 35.677 21.3169 35.677 21.4257C35.677 21.5345 35.6556 21.6422 35.614 21.7428C35.5723 21.8433 35.5113 21.9346 35.4344 22.0115L31.309 26.1369C31.2319 26.2134 31.1405 26.2739 31.0399 26.315C30.9394 26.356 30.8318 26.3768 30.7232 26.3762Z" fill="white"/>
</svg>
