<svg width="40" height="40" viewBox="0 0 40 40" fill="none" xmlns="http://www.w3.org/2000/svg">
<path d="M19.9794 13.3026C23.6528 13.3026 26.6307 10.3247 26.6307 6.65131C26.6307 2.97789 23.6528 0 19.9794 0C16.306 0 13.3281 2.97789 13.3281 6.65131C13.3281 10.3247 16.306 13.3026 19.9794 13.3026Z" fill="#00C1EC"/>
<path d="M38.0411 22.7732H32.1641V39.9572H38.0411V22.7732Z" fill="#0052FE"/>
<path d="M7.84193 22.7732H1.96484V39.9572H7.84193V22.7732Z" fill="#0052FE"/>
<path d="M25.2938 10.6508C24.08 12.2611 22.1516 13.3026 19.9796 13.3026C17.8076 13.3026 15.8793 12.2612 14.6654 10.6508H7.83984V39.9576H32.16V10.6508H25.2938Z" fill="#0052FE"/>
<path d="M28.4415 29.879H11.5625V32.5075H28.4415V29.879Z" fill="#0052FE"/>
<path d="M15.4931 22.6731H12.1094V26.0569H15.4931V22.6731Z" fill="#00C1EC"/>
<path d="M21.6943 22.6731H18.3105V26.0569H21.6943V22.6731Z" fill="#00C1EC"/>
<path d="M27.8935 22.6731H24.5098V26.0569H27.8935V22.6731Z" fill="#00C1EC"/>
<path d="M15.4931 16.816H12.1094V20.1997H15.4931V16.816Z" fill="#00C1EC"/>
<path d="M21.6943 16.816H18.3105V20.1997H21.6943V16.816Z" fill="#00C1EC"/>
<path d="M27.8935 16.816H24.5098V20.1997H27.8935V16.816Z" fill="#00C1EC"/>
<path d="M27.0246 32.5077H20.002V39.9532H27.0246V32.5077Z" fill="#00C1EC"/>
<path d="M20.0011 32.5077H12.9785V39.9532H20.0011V32.5077Z" fill="#00C1EC"/>
<path d="M7.84021 19.523H0V22.7732H7.84021V19.523Z" fill="#0052FE"/>
<path d="M40.0004 19.523H32.1602V22.7732H40.0004V19.523Z" fill="#0052FE"/>
<path d="M13.3704 7.40021H5.61328V10.6508H14.6643C13.9668 9.72538 13.5063 8.61205 13.3704 7.40021Z" fill="#0052FE"/>
<path d="M26.5868 7.40021C26.451 8.61197 25.9905 9.72538 25.293 10.6508H34.3845V7.40021H26.5868Z" fill="#0052FE"/>
<path d="M22.6023 5.50691H21.1265V4.03106C21.1265 3.80432 20.9428 3.62048 20.716 3.62048H19.2481C19.0214 3.62048 18.8375 3.80424 18.8375 4.03106V5.50683H17.3617C17.135 5.50683 16.9512 5.69059 16.9512 5.9174V7.38529C16.9512 7.61202 17.1349 7.79586 17.3617 7.79586H18.8375V9.27163C18.8375 9.49837 19.0213 9.68221 19.2481 9.68221H20.716C20.9427 9.68221 21.1265 9.49845 21.1265 9.27163V7.79586H22.6023C22.8291 7.79586 23.0128 7.6121 23.0128 7.38529V5.9174C23.0128 5.69067 22.8291 5.50691 22.6023 5.50691Z" fill="#F9F1EF"/>
</svg>
