<svg width="14" height="14" viewBox="0 0 14 14" fill="none" xmlns="http://www.w3.org/2000/svg">
<rect width="14" height="14" rx="2" fill="#0052FE"/>
<path d="M6.22 8.68C6.22 8.43333 6.26 8.21667 6.34 8.03C6.42 7.84333 6.52333 7.67667 6.65 7.53C6.77667 7.38333 6.91 7.24667 7.05 7.12C7.19667 6.99333 7.33333 6.87 7.46 6.75C7.58667 6.63 7.69 6.50333 7.77 6.37C7.85 6.23667 7.89 6.08667 7.89 5.92C7.89 5.64 7.77667 5.41333 7.55 5.24C7.32333 5.06667 7.02 4.98 6.64 4.98C6.27333 4.98 5.95333 5.04667 5.68 5.18C5.41333 5.31333 5.19 5.50333 5.01 5.75L4.04 5.12C4.32 4.74 4.68667 4.44333 5.14 4.23C5.59333 4.01 6.13 3.9 6.75 3.9C7.23667 3.9 7.66333 3.97333 8.03 4.12C8.39667 4.26 8.68333 4.46667 8.89 4.74C9.09667 5.00667 9.2 5.33333 9.2 5.72C9.2 5.98667 9.15667 6.22 9.07 6.42C8.99 6.62 8.88333 6.79667 8.75 6.95C8.62333 7.09667 8.48667 7.23667 8.34 7.37C8.19333 7.49667 8.05333 7.62333 7.92 7.75C7.79333 7.87667 7.69 8.01333 7.61 8.16C7.53 8.30667 7.49 8.48 7.49 8.68H6.22ZM6.86 11.07C6.62667 11.07 6.43333 10.9933 6.28 10.84C6.13333 10.6867 6.06 10.5033 6.06 10.29C6.06 10.0767 6.13333 9.89667 6.28 9.75C6.43333 9.59667 6.62667 9.52 6.86 9.52C7.09333 9.52 7.28333 9.59667 7.43 9.75C7.57667 9.89667 7.65 10.0767 7.65 10.29C7.65 10.5033 7.57667 10.6867 7.43 10.84C7.28333 10.9933 7.09333 11.07 6.86 11.07Z" fill="white"/>
</svg>
