<svg width="40" height="43" viewBox="0 0 40 43" fill="none" xmlns="http://www.w3.org/2000/svg">
<path d="M20.7912 12.0893C20.7912 12.0893 30.9992 17.6636 31.559 29.5122C31.7041 32.1851 30.9664 34.8316 29.4597 37.0442C27.953 39.2567 25.7607 40.9126 23.2205 41.7568C20.8161 42.511 18.3084 42.8832 15.7886 42.86C13.269 42.8832 10.7614 42.511 8.3572 41.7568C5.81679 40.9128 3.62431 39.2569 2.11743 37.0444C0.610548 34.8318 -0.127148 32.1852 0.0179501 29.5122C0.577714 17.6632 10.7857 12.0893 10.7857 12.0893H20.7912Z" fill="#0052FE"/>
<path d="M20.7904 9.26637L23.9432 2.19151C23.9432 2.19151 21.1507 0 15.7878 0C10.4249 0 7.63281 2.19151 7.63281 2.19151L10.7856 9.26637H20.7904Z" fill="#0052FE"/>
<path d="M33.2231 15.1723C36.9653 15.1723 39.999 12.1386 39.999 8.39645C39.999 4.65425 36.9653 1.6206 33.2231 1.6206C29.4809 1.6206 26.4473 4.65425 26.4473 8.39645C26.4473 12.1386 29.4809 15.1723 33.2231 15.1723Z" fill="#0052FE"/>
<path d="M22.1457 33.8304C25.6559 30.3201 25.6559 24.6289 22.1457 21.1186C18.6354 17.6084 12.9442 17.6084 9.43398 21.1187C5.92374 24.6289 5.92374 30.3201 9.43398 33.8304C12.9442 37.3406 18.6354 37.3406 22.1457 33.8304Z" fill="#00C5FF"/>
<path d="M15.7909 21.3085C14.5714 21.3085 13.3793 21.6702 12.3653 22.3477C11.3513 23.0252 10.561 23.9882 10.0944 25.1149C9.62767 26.2415 9.50557 27.4813 9.74348 28.6774C9.98139 29.8735 10.5686 30.9721 11.431 31.8344C12.2933 32.6968 13.392 33.284 14.588 33.5219C15.7841 33.7598 17.0239 33.6377 18.1505 33.1711C19.2772 32.7044 20.2402 31.9141 20.9177 30.9001C21.5953 29.8861 21.9569 28.694 21.9569 27.4745C21.9569 26.6647 21.7974 25.863 21.4875 25.1149C21.1777 24.3668 20.7235 23.687 20.1509 23.1145C19.5784 22.5419 18.8986 22.0877 18.1505 21.7779C17.4025 21.468 16.6007 21.3085 15.7909 21.3085Z" fill="white"/>
<path d="M20.79 9.26636H10.7852V12.0893H20.79V9.26636Z" fill="#00C5FF"/>
<path d="M16.2928 31.1885V31.8631H15.3341V31.1573C14.4163 31.0537 13.5558 30.6586 12.8789 30.03L13.6378 29.0921C14.1107 29.5423 14.697 29.8556 15.3341 29.9984V27.9432C14.0382 27.6063 13.1634 27.1428 13.1634 25.9003C13.1634 24.7622 14.0382 23.8878 15.3341 23.7296V23.087H16.2928V23.7404C17.1153 23.8253 17.8898 24.1681 18.5055 24.7199L17.789 25.6893C17.3638 25.3056 16.8495 25.034 16.2928 24.8993V26.8794C17.7366 27.2059 18.6953 27.701 18.6953 28.9866C18.6953 30.1983 17.8206 31.0834 16.2928 31.1885ZM15.3341 26.6265V24.8773C15.1119 24.911 14.9076 25.0189 14.7545 25.1834C14.6014 25.348 14.5085 25.5596 14.491 25.7837C14.491 26.2049 14.7655 26.4263 15.3341 26.6265ZM17.3771 29.1129C17.3771 28.6282 17.0398 28.4072 16.2917 28.1843V30.0597C17.0097 29.9769 17.3782 29.5768 17.3782 29.1129H17.3771Z" fill="#00C5FF"/>
<path d="M39.9997 8.39645C39.9997 8.6156 39.9885 8.83475 39.97 9.04647H38.7145C38.5421 9.04647 38.3767 8.97799 38.2548 8.85608C38.1329 8.73418 38.0645 8.56884 38.0645 8.39645C38.0645 8.22405 38.1329 8.05871 38.2548 7.93681C38.3767 7.81491 38.5421 7.74642 38.7145 7.74642H39.97C39.9885 7.96186 39.9997 8.17729 39.9997 8.39645Z" fill="white"/>
<path d="M28.3788 8.39645C28.379 8.48186 28.3623 8.56648 28.3297 8.64543C28.2971 8.72439 28.2492 8.79612 28.1888 8.85652C28.1284 8.91692 28.0567 8.96479 27.9777 8.99739C27.8988 9.02999 27.8142 9.04667 27.7287 9.04647H26.477C26.4584 8.83475 26.4473 8.6156 26.4473 8.39645C26.4473 8.1773 26.4584 7.96186 26.477 7.74642H27.7287C27.8142 7.74623 27.8988 7.76291 27.9777 7.7955C28.0567 7.8281 28.1284 7.87597 28.1888 7.93637C28.2492 7.99677 28.2971 8.06851 28.3297 8.14746C28.3623 8.22642 28.379 8.31103 28.3788 8.39645Z" fill="white"/>
<path d="M33.2262 15.1734C33.007 15.1734 32.7879 15.1623 32.5762 15.1437V13.8901C32.5762 13.7177 32.6447 13.5524 32.7666 13.4305C32.8885 13.3086 33.0538 13.2401 33.2262 13.2401C33.3986 13.2401 33.5639 13.3086 33.6858 13.4305C33.8077 13.5524 33.8762 13.7177 33.8762 13.8901V15.1456C33.6589 15.1623 33.4435 15.1734 33.2262 15.1734Z" fill="white"/>
<path d="M33.2262 3.55098C33.1408 3.55117 33.0562 3.53449 32.9772 3.5019C32.8983 3.4693 32.8265 3.42142 32.7661 3.36103C32.7057 3.30063 32.6579 3.22889 32.6253 3.14994C32.5927 3.07098 32.576 2.98637 32.5762 2.90095V1.64919C32.7879 1.63062 33.007 1.61948 33.2262 1.61948C33.4453 1.61948 33.6608 1.63062 33.8762 1.64919V2.90095C33.8764 2.98637 33.8597 3.07098 33.8271 3.14994C33.7945 3.22889 33.7467 3.30063 33.6863 3.36103C33.6259 3.42142 33.5541 3.4693 33.4752 3.5019C33.3962 3.53449 33.3116 3.55117 33.2262 3.55098Z" fill="white"/>
<path d="M35.4548 11.2755C35.3694 11.2756 35.2848 11.2589 35.2059 11.2262C35.127 11.1935 35.0553 11.1455 34.995 11.085L32.7664 8.85631C32.706 8.79597 32.6582 8.72433 32.6256 8.64549C32.5929 8.56665 32.5761 8.48216 32.5762 8.39684V5.24441C32.5762 5.07201 32.6447 4.90667 32.7666 4.78477C32.8885 4.66287 33.0538 4.59438 33.2262 4.59438C33.3986 4.59438 33.5639 4.66287 33.6858 4.78477C33.8077 4.90667 33.8762 5.07201 33.8762 5.24441V8.12717L35.9147 10.166C36.0055 10.2569 36.0674 10.3727 36.0924 10.4988C36.1175 10.6248 36.1046 10.7555 36.0555 10.8742C36.0063 10.9929 35.923 11.0944 35.8162 11.1659C35.7094 11.2373 35.5837 11.2755 35.4552 11.2755H35.4548Z" fill="#00C5FF"/>
</svg>
