<svg width="41" height="38" viewBox="0 0 41 38" fill="none" xmlns="http://www.w3.org/2000/svg">
<path d="M39.6193 32.6387C39.7406 32.757 39.8368 32.8985 39.9022 33.0548C39.9676 33.2111 40.0009 33.379 40 33.5484C39.999 33.8903 39.8627 34.2179 39.6209 34.4597C39.3792 34.7014 39.0516 34.8377 38.7097 34.8387H1.29034C1.12092 34.8396 0.953052 34.8064 0.79676 34.741C0.640468 34.6756 0.498953 34.5794 0.380663 34.4581C0.259371 34.3398 0.163155 34.1983 0.097756 34.042C0.0323571 33.8857 -0.000883569 33.7178 1.78541e-05 33.5484C0.00103897 33.2065 0.137311 32.8789 0.379072 32.6371C0.620833 32.3954 0.948439 32.2591 1.29034 32.2581H38.7097C38.8791 32.2572 39.0469 32.2904 39.2032 32.3558C39.3595 32.4212 39.501 32.5174 39.6193 32.6387Z" fill="#0052FE"/>
<path d="M35.4845 13.0581L20.0007 4.51615L4.51682 13.0581L1.29102 14.8387V11.6129L6.4523 8.76776L11.6136 5.91615L20.0007 1.29034L38.7103 11.6129V14.8387L35.4845 13.0581Z" fill="#00C5FF"/>
<path d="M35.4833 13.058V32.258H16.1285V15.4838H7.09627V32.258H4.51562V13.058L19.9995 4.51611L35.4833 13.058ZM32.9027 21.9355V16.7742C32.9017 16.4323 32.7654 16.1047 32.5236 15.8629C32.2819 15.6211 31.9543 15.4849 31.6124 15.4838H19.9995C19.6576 15.4849 19.33 15.6211 19.0882 15.8629C18.8465 16.1047 18.7102 16.4323 18.7092 16.7742V21.9355C18.7102 22.2774 18.8465 22.605 19.0882 22.8467C19.33 23.0885 19.6576 23.2248 19.9995 23.2258H31.6124C31.9543 23.2248 32.2819 23.0885 32.5236 22.8467C32.7654 22.605 32.9017 22.2774 32.9027 21.9355Z" fill="#0052FE"/>
<path d="M16.1299 15.4839H7.09766V32.2581H16.1299V15.4839Z" fill="#00C5FF"/>
<path d="M12.2582 0V2.58064H11.6131H6.4518H5.80664V0H12.2582Z" fill="#00C5FF"/>
<path d="M11.6125 2.58063V5.91611L6.45117 8.76772V2.58063H11.6125Z" fill="#0052FE"/>
<path d="M40.0011 27.0967V37.4193H34.8398V36.129V28.3871V27.0967H35.485H40.0011Z" fill="#0052FE"/>
<path d="M23.2265 32.258H22.5813C22.4119 32.2589 22.244 32.2257 22.0878 32.1603C21.9315 32.0949 21.79 31.9987 21.6717 31.8774C21.5805 31.7916 21.5042 31.6914 21.4459 31.5806C21.3449 31.392 21.2918 31.1816 21.291 30.9677C21.292 30.6258 21.4283 30.2982 21.6701 30.0564C21.9118 29.8147 22.2394 29.6784 22.5813 29.6774H23.2265C22.8846 29.6764 22.557 29.5401 22.3152 29.2983C22.0735 29.0566 21.9372 28.729 21.9362 28.3871C21.9387 28.0456 22.0755 27.7189 22.3169 27.4775C22.5583 27.236 22.8851 27.0993 23.2265 27.0967H32.2587L33.5491 28.3871H34.8394V36.129H33.5491L32.2587 37.4193H23.8717C23.5298 37.4183 23.2022 37.282 22.9604 37.0403C22.7186 36.7985 22.5824 36.4709 22.5813 36.129C22.5839 35.7876 22.7206 35.4608 22.9621 35.2194C23.2035 34.978 23.5302 34.8412 23.8717 34.8387H23.2265C22.8851 34.8361 22.5583 34.6994 22.3169 34.4579C22.0755 34.2165 21.9387 33.8898 21.9362 33.5483C21.9372 33.2064 22.0735 32.8788 22.3152 32.6371C22.557 32.3953 22.8846 32.259 23.2265 32.258Z" fill="#00C5FF"/>
<path d="M32.2589 27.0967H27.0977V24.5161C27.0977 21.9354 29.6783 21.9354 29.6783 21.9354V24.5161L32.2589 27.0967Z" fill="#00C5FF"/>
</svg>
