<svg width="39" height="39" viewBox="0 0 39 39" fill="none" xmlns="http://www.w3.org/2000/svg">
<path d="M5.08696 22.0412H0V36.4543H5.08696V22.0412Z" fill="#00C5FF"/>
<path d="M39 28.8238C39.0001 29.2918 38.8712 29.7507 38.6274 30.1501C38.3836 30.5495 38.0343 30.8739 37.618 31.0875C22.6708 38.7265 22.9845 38.9978 19.6441 38.9978C17.2193 38.9978 16.2528 38.2941 9.47018 35.2165C8.22387 34.6399 7.35909 34.7586 5.08691 34.7586V23.7369C13.1667 22.728 10.5893 22.321 23.1287 28.2134C23.5279 28.4022 23.8712 28.6917 24.1246 29.0534C24.378 29.4151 24.5329 29.8366 24.574 30.2764C24.615 30.7161 24.5409 31.159 24.3588 31.5614C24.1768 31.9638 23.893 32.3118 23.5356 32.5712L35.295 26.5602C35.6828 26.3611 36.1152 26.265 36.5508 26.2812C36.9865 26.2974 37.4106 26.4252 37.7826 26.6525C38.1546 26.8798 38.4619 27.1988 38.6751 27.5791C38.8882 27.9593 39.0001 28.3879 39 28.8238Z" fill="#0052FE"/>
<path d="M35.6102 15.6062C35.6102 27.7471 35.7459 26.3397 35.2965 26.5602L23.5372 32.5712C23.8946 32.3118 24.1783 31.9638 24.3604 31.5614C24.5425 31.159 24.6166 30.7161 24.5755 30.2764C24.5345 29.8366 24.3796 29.4151 24.1262 29.0534C23.8728 28.6917 23.5295 28.4022 23.1302 28.2134C13.3972 23.6436 13.3717 23.5165 11.8711 23.2621V15.6317L23.7407 3.76211L35.6102 15.6062Z" fill="#00C5FF"/>
<path d="M36.1104 16.1065L23.7407 3.74515L11.3709 16.1065C11.0465 16.3843 10.6292 16.5294 10.2025 16.5129C9.77572 16.4964 9.3709 16.3195 9.06891 16.0175C8.76693 15.7156 8.59001 15.3107 8.57353 14.884C8.55705 14.4572 8.7022 14.04 8.98 13.7156L21.9433 0.743849C22.4202 0.267539 23.0666 0 23.7407 0C24.4147 0 25.0611 0.267539 25.538 0.743849C39.3915 14.6058 38.62 13.8004 38.7641 14.0632C38.957 14.4176 39.0172 14.8293 38.9338 15.2241C38.8504 15.6189 38.629 15.9711 38.3092 16.2173C37.9895 16.4635 37.5924 16.5875 37.1894 16.5672C36.7864 16.5469 36.4038 16.3835 36.1104 16.1065Z" fill="#0052FE"/>
<path d="M19.4997 22.8891C19.3313 22.89 19.1665 22.8409 19.0261 22.7478C18.8858 22.6547 18.7764 22.5219 18.7118 22.3664C18.6472 22.2108 18.6304 22.0396 18.6635 21.8745C18.6967 21.7094 18.7782 21.5579 18.8978 21.4393L27.376 12.961C27.5357 12.8014 27.7522 12.7117 27.978 12.7117C28.2038 12.7117 28.4203 12.8014 28.5799 12.961C28.7396 13.1207 28.8293 13.3372 28.8293 13.563C28.8293 13.7888 28.7396 14.0053 28.5799 14.1649C19.398 23.3384 20.0084 22.8891 19.4997 22.8891Z" fill="white"/>
<path d="M21.1944 16.9543C21.6974 16.9543 22.1892 16.8051 22.6074 16.5256C23.0257 16.2461 23.3517 15.8489 23.5442 15.3842C23.7367 14.9194 23.7871 14.408 23.689 13.9146C23.5908 13.4212 23.3486 12.968 22.9929 12.6123C22.6372 12.2566 22.184 12.0143 21.6906 11.9162C21.1972 11.8181 20.6858 11.8684 20.221 12.0609C19.7563 12.2534 19.359 12.5795 19.0795 12.9977C18.8001 13.416 18.6509 13.9078 18.6509 14.4108C18.6509 15.0854 18.9189 15.7323 19.3958 16.2093C19.8728 16.6863 20.5198 16.9543 21.1944 16.9543ZM21.1944 13.563C21.4192 13.563 21.6349 13.6523 21.7939 13.8113C21.9529 13.9703 22.0422 14.1859 22.0422 14.4108C22.0422 14.6357 21.9529 14.8513 21.7939 15.0103C21.6349 15.1693 21.4192 15.2586 21.1944 15.2586C20.9695 15.2586 20.7539 15.1693 20.5949 15.0103C20.4359 14.8513 20.3465 14.6357 20.3465 14.4108C20.3465 14.1859 20.4359 13.9703 20.5949 13.8113C20.7539 13.6523 20.9695 13.563 21.1944 13.563Z" fill="white"/>
<path d="M26.2813 18.6499C25.7782 18.6499 25.2865 18.7991 24.8682 19.0786C24.4499 19.3581 24.1239 19.7553 23.9314 20.2201C23.7389 20.6848 23.6885 21.1962 23.7867 21.6896C23.8848 22.183 24.127 22.6362 24.4828 22.9919C24.8385 23.3476 25.2917 23.5899 25.7851 23.688C26.2785 23.7862 26.7899 23.7358 27.2546 23.5433C27.7194 23.3508 28.1166 23.0248 28.3961 22.6065C28.6756 22.1882 28.8248 21.6965 28.8248 21.1934C28.8248 20.5188 28.5568 19.8719 28.0798 19.3949C27.6028 18.9179 26.9558 18.6499 26.2813 18.6499ZM26.2813 22.0412C26.0564 22.0412 25.8408 21.9519 25.6818 21.7929C25.5228 21.6339 25.4334 21.4183 25.4334 21.1934C25.4334 20.9686 25.5228 20.7529 25.6818 20.5939C25.8408 20.4349 26.0564 20.3456 26.2813 20.3456C26.5061 20.3456 26.7218 20.4349 26.8808 20.5939C27.0398 20.7529 27.1291 20.9686 27.1291 21.1934C27.1291 21.4183 27.0398 21.6339 26.8808 21.7929C26.7218 21.9519 26.5061 22.0412 26.2813 22.0412Z" fill="white"/>
</svg>
