<svg width="32" height="32" viewBox="0 0 32 32" fill="none" xmlns="http://www.w3.org/2000/svg">
<circle cx="16" cy="16" r="16" fill="#B3CAFE"/>
<rect x="12" y="19" width="8" height="5" fill="white"/>
<path d="M16.7071 8.29289C16.3166 7.90237 15.6834 7.90237 15.2929 8.29289L8.29289 15.2929C7.90237 15.6834 7.90237 16.3166 8.29289 16.7071C8.68342 17.0976 9.31658 17.0976 9.70711 16.7071L10 16.4142V23C10 23.5523 10.4477 24 11 24H13C13.5523 24 14 23.5523 14 23V21C14 20.4477 14.4477 20 15 20H17C17.5523 20 18 20.4477 18 21V23C18 23.5523 18.4477 24 19 24H21C21.5523 24 22 23.5523 22 23V16.4142L22.2929 16.7071C22.6834 17.0976 23.3166 17.0976 23.7071 16.7071C24.0976 16.3166 24.0976 15.6834 23.7071 15.2929L16.7071 8.29289Z" fill="#0052FE"/>
</svg>
