<svg width="40" height="37" viewBox="0 0 40 37" fill="none" xmlns="http://www.w3.org/2000/svg">
<path d="M30.9687 34.8387V36.129H9.0332V34.8387C9.03422 34.4968 9.1705 34.1692 9.41226 33.9275C9.65402 33.6857 9.98162 33.5494 10.3235 33.5484H29.6784C30.0203 33.5494 30.3479 33.6857 30.5896 33.9275C30.8314 34.1692 30.9677 34.4968 30.9687 34.8387Z" fill="#0052FE"/>
<path d="M12.9036 29.6774H27.0972L28.3875 33.5484H25.1617L24.5165 31.6129H15.4842L14.8391 33.5484H11.6133L12.9036 29.6774Z" fill="#0052FE"/>
<path d="M40 24.5161V27.0968C40 27.7812 39.7281 28.4376 39.2441 28.9215C38.7602 29.4055 38.1038 29.6774 37.4194 29.6774H2.58065C1.89622 29.6774 1.23982 29.4055 0.755853 28.9215C0.271889 28.4376 0 27.7812 0 27.0968V24.5161H40Z" fill="#00C5FF"/>
<path d="M39.5 2.58065V24.0161H0.5V2.58065C0.5 2.02882 0.71921 1.4996 1.10941 1.10941C1.4996 0.71921 2.02882 0.5 2.58065 0.5H37.4194C37.9712 0.5 38.5004 0.719211 38.8906 1.10941C39.2808 1.4996 39.5 2.02882 39.5 2.58065Z" fill="white" stroke="#0052FE"/>
<path d="M10.3248 14.1935H7.74414V19.3548H10.3248V14.1935Z" fill="white"/>
<path d="M8.38924 6.4516V8.21289L5.80859 9.61934V6.4516H8.38924Z" fill="#00C5FF"/>
<path d="M15.4856 14.1935H12.2598V16.7742H15.4856V14.1935Z" fill="#00C5FF"/>
<path d="M15.486 14.1935H12.2602V16.7742H15.486V14.1935ZM17.4215 12.2V19.3548H10.3247V14.1935H7.74408V19.3548H5.80859V12.2L11.615 9.03223L17.4215 12.2Z" fill="#0052FE"/>
<path d="M8.38855 8.21289L11.6144 6.4516L18.7111 10.3226V12.9032L17.4208 12.2L11.6144 9.03224L5.8079 12.2L4.51758 12.9032V10.3226L5.8079 9.61934L8.38855 8.21289Z" fill="#00C5FF"/>
<path d="M27.0982 14.1935H24.5176V19.3548H27.0982V14.1935Z" fill="white"/>
<path d="M25.1627 6.4516V8.21289L22.582 9.61934V6.4516H25.1627Z" fill="#0052FE"/>
<path d="M32.259 14.1935H29.0332V16.7742H32.259V14.1935Z" fill="#0052FE"/>
<path d="M32.2595 14.1935H29.0336V16.7742H32.2595V14.1935ZM34.1949 12.2V19.3548H27.0982V14.1935H24.5175V19.3548H22.582V12.2L28.3885 9.03223L34.1949 12.2Z" fill="#00C5FF"/>
<path d="M25.162 8.21289L28.3878 6.4516L35.4846 10.3226V12.9032L34.1942 12.2L28.3878 9.03224L22.5813 12.2L21.291 12.9032V10.3226L22.5813 9.61934L25.162 8.21289Z" fill="#0052FE"/>
</svg>
