<svg width="32" height="32" viewBox="0 0 32 32" fill="none" xmlns="http://www.w3.org/2000/svg">
<circle cx="16" cy="16" r="16" fill="#B3CAFE"/>
<path d="M10 10C8.89543 10 8 10.8954 8 12V16C8 17.1046 8.89543 18 10 18L10 12H20C20 10.8954 19.1046 10 18 10H10Z" fill="#0054F5"/>
<path fill-rule="evenodd" clip-rule="evenodd" d="M12 16C12 14.8954 12.8954 14 14 14H22C23.1046 14 24 14.8954 24 16V20C24 21.1046 23.1046 22 22 22H14C12.8954 22 12 21.1046 12 20V16ZM18 20C19.1046 20 20 19.1046 20 18C20 16.8954 19.1046 16 18 16C16.8954 16 16 16.8954 16 18C16 19.1046 16.8954 20 18 20Z" fill="#0054F5"/>
<path d="M18 20C19.1046 20 20 19.1046 20 18C20 16.8954 19.1046 16 18 16C16.8954 16 16 16.8954 16 18C16 19.1046 16.8954 20 18 20Z" fill="white"/>
</svg>
