<svg width="40" height="35" viewBox="0 0 40 35" fill="none" xmlns="http://www.w3.org/2000/svg">
<path d="M4.00065 28H1.33398V34.6667H4.00065V28Z" fill="#0052FE"/>
<path d="M40 24H0V28H40V24Z" fill="#0052FE"/>
<path d="M38.6667 28H36V34.6667H38.6667V28Z" fill="#0052FE"/>
<path d="M37.9993 24H22.666V20H37.9993C38.5298 20 39.0385 20.2107 39.4136 20.5858C39.7886 20.9609 39.9993 21.4696 39.9993 22C39.9993 22.5304 39.7886 23.0391 39.4136 23.4142C39.0385 23.7893 38.5298 24 37.9993 24Z" fill="#D1E6E9"/>
<path d="M4.00065 21.3333C5.47341 21.3333 6.66732 20.1394 6.66732 18.6667C6.66732 17.1939 5.47341 16 4.00065 16C2.52789 16 1.33398 17.1939 1.33398 18.6667C1.33398 20.1394 2.52789 21.3333 4.00065 21.3333Z" fill="#00C5FF"/>
<path d="M24 33.3333V28H26.6667V33.3333C26.6667 33.687 26.5262 34.0261 26.2761 34.2761C26.0261 34.5262 25.687 34.6667 25.3333 34.6667C24.9797 34.6667 24.6406 34.5262 24.3905 34.2761C24.1405 34.0261 24 33.687 24 33.3333Z" fill="#0052FE"/>
<path d="M18.666 33.3333V28H21.3327V33.3333C21.3327 33.687 21.1922 34.0261 20.9422 34.2761C20.6921 34.5262 20.353 34.6667 19.9993 34.6667C19.6457 34.6667 19.3066 34.5262 19.0565 34.2761C18.8065 34.0261 18.666 33.687 18.666 33.3333Z" fill="#0052FE"/>
<path d="M2.66732 21.3333H5.33398C5.68761 21.3333 6.02674 21.4738 6.27679 21.7239C6.52684 21.9739 6.66732 22.3131 6.66732 22.6667V24H1.33398V22.6667C1.33398 22.3131 1.47446 21.9739 1.72451 21.7239C1.97456 21.4738 2.3137 21.3333 2.66732 21.3333Z" fill="#0052FE"/>
<path d="M22.666 24H9.33268C8.62544 24 7.94716 23.719 7.44706 23.2189C6.94697 22.7188 6.66602 22.0406 6.66602 21.3333C6.66602 20.6261 6.94697 19.9478 7.44706 19.4477C7.94716 18.9476 8.62544 18.6667 9.33268 18.6667H22.666V24Z" fill="#00C5FF"/>
<path d="M20.0005 24C10.0138 24 12.4671 24.4 8.73379 22.52C8.44532 22.3464 8.2332 22.0702 8.14 21.7467C8.0468 21.4232 8.07943 21.0764 8.23134 20.7759C8.38325 20.4755 8.64319 20.2436 8.95897 20.1269C9.27475 20.0102 9.623 20.0173 9.93379 20.1467L12.3205 21.3333H20.0005C20.3541 21.3333 20.6932 21.4738 20.9433 21.7239C21.1933 21.9739 21.3338 22.3131 21.3338 22.6667C21.3338 23.0203 21.1933 23.3594 20.9433 23.6095C20.6932 23.8595 20.3541 24 20.0005 24Z" fill="#00C5FF"/>
<path d="M34.666 20C32.4793 21.76 30.866 23.04 29.6527 24H22.666V20H34.666Z" fill="#0052FE"/>
<path d="M22.6667 5.33333C24.1394 5.33333 25.3333 4.13943 25.3333 2.66667C25.3333 1.19391 24.1394 0 22.6667 0C21.1939 0 20 1.19391 20 2.66667C20 4.13943 21.1939 5.33333 22.6667 5.33333Z" fill="#0052FE"/>
<path d="M21.3327 6.66666H23.9993C24.7066 6.66666 25.3849 6.94761 25.885 7.44771C26.3851 7.9478 26.666 8.62608 26.666 9.33332V18.6667H18.666V9.33332C18.666 8.62608 18.947 7.9478 19.4471 7.44771C19.9472 6.94761 20.6254 6.66666 21.3327 6.66666Z" fill="#0052FE"/>
<path d="M22.666 18.6667L34.666 11.4667C35.0896 11.2597 35.5729 11.2101 36.0297 11.3267C36.4865 11.4433 36.8869 11.7186 37.1594 12.1033C37.4319 12.488 37.5587 12.957 37.5172 13.4266C37.4756 13.8962 37.2685 14.3358 36.9327 14.6667C33.3327 17.6 25.3327 24 25.3327 24H22.666V18.6667Z" fill="#00C5FF"/>
<path d="M26.6678 18.6667C26.3078 18.6667 26.7878 18.8133 19.5078 15.9067C18.3878 15.4533 18.6678 14.7867 18.6678 9.33333C18.6678 8.97971 18.8083 8.64057 19.0584 8.39052C19.3084 8.14048 19.6475 8 20.0012 8C20.3548 8 20.6939 8.14048 20.944 8.39052C21.194 8.64057 21.3345 8.97971 21.3345 9.33333V13.76L27.1612 16.0933C27.45 16.2075 27.69 16.419 27.8396 16.6912C27.9892 16.9634 28.0391 17.2793 27.9806 17.5844C27.9221 17.8894 27.7589 18.1645 27.5193 18.3621C27.2796 18.5597 26.9785 18.6674 26.6678 18.6667Z" fill="#0052FE"/>
<path d="M33.3346 14.6667C28.0012 14.6667 29.3346 15.1733 26.6679 12.56C26.7769 11.2719 26.7501 9.97584 26.5879 8.69333L29.8812 12H33.3346C33.6882 12 34.0273 12.1405 34.2774 12.3905C34.5274 12.6406 34.6679 12.9797 34.6679 13.3333C34.6679 13.6869 34.5274 14.0261 34.2774 14.2761C34.0273 14.5262 33.6882 14.6667 33.3346 14.6667Z" fill="#0052FE"/>
</svg>
