<svg width="32" height="32" viewBox="0 0 32 32" fill="none" xmlns="http://www.w3.org/2000/svg">
<circle cx="16" cy="16" r="16" fill="#B3CAFE"/>
<path fill-rule="evenodd" clip-rule="evenodd" d="M18 13C17.4477 13 17 12.5523 17 12C17 11.4477 17.4477 11 18 11H23C23.5523 11 24 11.4477 24 12V17C24 17.5523 23.5523 18 23 18C22.4477 18 22 17.5523 22 17V14.4142L17.7071 18.7071C17.3166 19.0976 16.6834 19.0976 16.2929 18.7071L14 16.4142L9.70711 20.7071C9.31658 21.0976 8.68342 21.0976 8.29289 20.7071C7.90237 20.3166 7.90237 19.6834 8.29289 19.2929L13.2929 14.2929C13.6834 13.9024 14.3166 13.9024 14.7071 14.2929L17 16.5858L20.5858 13H18Z" fill="#0052FE"/>
</svg>
