<svg width="40" height="43" viewBox="0 0 40 43" fill="none" xmlns="http://www.w3.org/2000/svg">
<path d="M39.2215 26.4631C39.1292 26.3432 39.0085 26.2004 38.8465 26.0827C38.7667 25.3277 38.4532 24.6667 37.9504 24.2333C37.2915 23.6641 36.3123 23.4879 35.3924 23.7685C34.6604 23.994 33.9731 24.4967 33.4056 25.2237C33.2248 25.4546 33.2662 25.7891 33.4971 25.9699C33.728 26.1499 34.0625 26.1102 34.2433 25.8781C34.5452 25.4918 35.0442 24.9882 35.7043 24.7853C36.268 24.6124 36.8773 24.7114 37.2556 25.0383C37.4664 25.2204 37.6214 25.4801 37.7116 25.7887C37.385 25.767 36.9934 25.7607 36.6088 25.8555C36.0246 25.9991 35.5528 26.3712 35.3465 26.8481C35.0462 27.5416 35.3481 28.4248 36.0196 28.8169C36.6363 29.1776 37.4639 29.0962 38.0331 28.6198C38.3245 28.3751 38.545 28.0377 38.6857 27.6256C38.9893 28.292 39.0265 29.082 38.7642 29.7672C38.6594 30.0412 38.7964 30.3489 39.0707 30.4537C39.1334 30.4775 39.1973 30.4892 39.2607 30.4892C39.4745 30.4892 39.6762 30.3593 39.7572 30.1476C40.2211 28.9371 40.0103 27.4911 39.2215 26.4631ZM37.3504 27.8047C37.127 27.9922 36.7858 28.0323 36.5562 27.8986C36.3486 27.7771 36.2351 27.4719 36.3227 27.2698C36.3971 27.0982 36.6042 26.9516 36.8635 26.8873C37.0105 26.8514 37.1691 26.8384 37.3378 26.8384C37.4769 26.8384 37.6235 26.8472 37.7771 26.8585C37.7337 27.1779 37.6235 27.575 37.3504 27.8047Z" fill="#0052FE"/>
<path d="M13.0163 36.4375L11.1623 36.2099C10.5548 36.1352 9.99647 36.5715 9.92173 37.1791L9.50834 40.5434C9.43359 41.151 9.86995 41.7093 10.4775 41.784L12.3315 42.0116C12.939 42.0863 13.4973 41.65 13.5721 41.0424L13.9855 37.6781C14.0602 37.0705 13.6238 36.5123 13.0163 36.4375Z" fill="#0052FE"/>
<path d="M32.0229 37.9332L31.0345 34.6908C30.8562 34.1054 30.2307 33.7722 29.6453 33.9509L27.8585 34.4954C27.2731 34.6741 26.9399 35.2992 27.1186 35.8847L28.107 39.127C28.2857 39.7125 28.9108 40.0457 29.4962 39.867L31.283 39.3225C31.8684 39.1442 32.2016 38.5187 32.0229 37.9332Z" fill="#0052FE"/>
<path d="M0.920729 22.3718C0.412136 22.3718 0 23.9344 0 25.8614C0 27.7885 0.412136 29.351 0.920729 29.351C4.08837 29.351 4.07167 27.7885 4.07167 25.8614C4.07167 23.9344 4.50761 22.3718 0.920729 22.3718Z" fill="#0052FE"/>
<path d="M18.2261 11.7574C9.05764 11.7574 1.625 17.0433 1.625 25.7166C1.625 34.3898 9.05764 39.0941 18.2261 39.0941C27.3946 39.0941 34.8272 34.3898 34.8272 25.7166C34.8272 17.0433 27.3946 11.7574 18.2261 11.7574Z" fill="#0052FE"/>
<path d="M12.9738 12.3816C10.2596 13.0535 7.85614 14.2544 5.96875 15.9217C6.0911 16.1764 6.27148 16.4261 6.51367 16.6537C7.41102 17.4963 9.71555 19.0956 11.1273 18.3018C12.5404 17.5068 14.3522 13.5996 12.9738 12.3816Z" fill="#0052FE"/>
<path d="M21.3821 22.5735C20.3353 22.5735 19.4125 23.1051 18.8688 23.9131C18.3251 23.1051 17.4027 22.5735 16.3555 22.5735C14.6835 22.5735 13.3281 23.929 13.3281 25.6009C13.3281 25.7487 13.3423 25.8932 13.3628 26.0352C13.7591 29.8605 17.8888 31.5537 18.8684 31.5537C19.9386 31.5537 23.9735 29.8024 24.3727 26.0443C24.394 25.899 24.4086 25.752 24.4086 25.6009C24.4094 23.9285 23.054 22.5735 21.3821 22.5735Z" fill="#00C5FF"/>
<path d="M7.36499 22.3718C7.85781 22.3718 8.25732 21.8076 8.25732 21.1116C8.25732 20.4156 7.85781 19.8514 7.36499 19.8514C6.87217 19.8514 6.47266 20.4156 6.47266 21.1116C6.47266 21.8076 6.87217 22.3718 7.36499 22.3718Z" fill="#00C5FF"/>
<path d="M12.4799 11.2964C10.2409 10.5995 6.50917 13.2351 6.50917 13.2351C5.48822 13.8749 5.61182 15.0098 6.50917 15.8524C7.40651 16.6951 9.71105 18.2944 11.1228 17.5006C12.6741 16.6283 14.7193 11.9933 12.4799 11.2964Z" fill="#0052FE"/>
<path d="M23.1462 13.2601C20.4968 12.6822 17.7663 12.5711 15.0785 12.9323C14.6952 12.9837 14.4325 13.3269 14.4931 13.6815C14.5536 14.0364 14.8952 14.2765 15.253 14.2289C17.7897 13.8881 20.3669 13.9925 22.8677 14.5383C23.2206 14.6147 23.5801 14.4026 23.6694 14.0539C23.758 13.7057 23.5241 13.342 23.1462 13.2601Z" fill="#00C5FF"/>
<path d="M19.2606 10.5212C22.166 10.5212 24.5212 8.16596 24.5212 5.26061C24.5212 2.35525 22.166 0 19.2606 0C16.3553 0 14 2.35525 14 5.26061C14 8.16596 16.3553 10.5212 19.2606 10.5212Z" fill="#0052FE"/>
<path d="M19.2567 9.35523C21.5181 9.35523 23.3513 7.52201 23.3513 5.26062C23.3513 2.99923 21.5181 1.16602 19.2567 1.16602C16.9953 1.16602 15.1621 2.99923 15.1621 5.26062C15.1621 7.52201 16.9953 9.35523 19.2567 9.35523Z" fill="white"/>
<path d="M19.2596 9.0515C21.3532 9.0515 23.0505 7.35427 23.0505 5.26064C23.0505 3.16701 21.3532 1.46979 19.2596 1.46979C17.166 1.46979 15.4688 3.16701 15.4688 5.26064C15.4688 7.35427 17.166 9.0515 19.2596 9.0515Z" fill="#00C5FF"/>
<path d="M20.0712 4.6812C19.545 4.28064 19.2858 4.08429 19.2858 3.8958C19.2858 3.84074 19.3172 3.77781 19.388 3.77781C19.4509 3.77781 19.5922 4.07642 19.6473 4.07642L20.7234 4.02136C20.7782 4.01349 20.8097 3.98203 20.8097 3.93513C20.8097 3.24382 20.3698 2.64691 19.6473 2.49775C19.6473 2.03426 19.6473 1.98737 19.5844 1.98737H19.011C18.9796 1.98737 18.956 2.01883 18.956 2.05816V2.49019C18.2253 2.63965 17.8326 3.26773 17.8326 3.86464C17.8326 4.43009 18.1234 4.89359 18.5708 5.21549C19.1914 5.66326 19.3798 5.83601 19.3798 6.04022C19.3798 6.14248 19.309 6.21297 19.2071 6.21297C19.0265 6.21297 18.9006 6.04809 18.8459 5.77308C18.8301 5.70259 18.8065 5.68685 18.7593 5.68685L17.7618 5.74192C17.7225 5.74978 17.6992 5.77308 17.6992 5.81241C17.6992 6.7394 18.1312 7.28125 18.956 7.43041C18.956 7.90177 18.956 7.95653 19.0186 7.95653H19.5841C19.6155 7.95653 19.647 7.92506 19.647 7.8936V7.43797C20.3773 7.29668 20.8172 6.76239 20.8172 5.97699C20.8175 5.4899 20.5582 5.0503 20.0712 4.6812Z" fill="white"/>
</svg>
