<svg width="32" height="32" viewBox="0 0 32 32" fill="none" xmlns="http://www.w3.org/2000/svg">
<circle cx="16" cy="16" r="16" fill="#B3CAFE"/>
<path d="M15.7071 13.2929C15.3166 12.9024 14.6834 12.9024 14.2929 13.2929C13.9024 13.6834 13.9024 14.3166 14.2929 14.7071L17.2929 17.7071C17.6834 18.0976 18.3166 18.0976 18.7071 17.7071L21.7071 14.7071C22.0976 14.3166 22.0976 13.6834 21.7071 13.2929C21.3166 12.9024 20.6834 12.9024 20.2929 13.2929L19 14.5858L19 11H22C23.1046 11 24 11.8954 24 13V18C24 19.1046 23.1046 20 22 20H14C12.8954 20 12 19.1046 12 18V13C12 11.8954 12.8954 11 14 11H17L17 14.5858L15.7071 13.2929Z" fill="#0054F5"/>
<path d="M17 9C17 8.44772 17.4477 8 18 8C18.5523 8 19 8.44772 19 9L19 11H17L17 9Z" fill="#0054F5"/>
<path d="M10 15C8.89543 15 8 15.8954 8 17V22C8 23.1046 8.89543 24 10 24H18C19.1046 24 20 23.1046 20 22H10V15Z" fill="#0054F5"/>
<path d="M15.7071 13.2929C15.3166 12.9024 14.6834 12.9024 14.2929 13.2929C13.9024 13.6834 13.9024 14.3166 14.2929 14.7071L17.2929 17.7071C17.6834 18.0976 18.3166 18.0976 18.7071 17.7071L21.7071 14.7071C22.0976 14.3166 22.0976 13.6834 21.7071 13.2929C21.3166 12.9024 20.6834 12.9024 20.2929 13.2929L19 14.5858L19 11H17L17 14.5858L15.7071 13.2929Z" fill="white"/>
</svg>
