<svg width="40" height="40" viewBox="0 0 40 40" fill="none" xmlns="http://www.w3.org/2000/svg">
<path d="M34.5874 14.5695C34.5717 14.3527 34.4913 14.1511 34.3622 14.0046C34.2331 13.8581 34.0646 13.7773 33.89 13.7782H32.708C32.5337 13.7769 32.3654 13.8576 32.2368 14.0043C32.1082 14.151 32.0287 14.3528 32.0142 14.5695L30.8008 31.7781H35.8008L34.5874 14.5695Z" fill="#0052FE"/>
<path d="M37.9485 31.1429H2.05152C1.50742 31.1429 0.985611 31.3591 0.600877 31.7438C0.216142 32.1286 0 32.6504 0 33.1945C0 33.7386 0.216142 34.2604 0.600877 34.6451C0.985611 35.0298 1.50742 35.246 2.05152 35.246H4.02678H11.9353H28.0647H35.9732H37.9485C38.4926 35.246 39.0144 35.0298 39.3991 34.6451C39.7839 34.2604 40 33.7386 40 33.1945C40 32.6504 39.7839 32.1286 39.3991 31.7438C39.0144 31.3591 38.4926 31.1429 37.9485 31.1429Z" fill="#0052FE"/>
<path d="M34.1291 1.67397C34.13 1.40905 34.1645 1.14532 34.2317 0.889069H24.5838C24.3761 0.889069 24.177 0.971567 24.0301 1.11841C23.8833 1.26526 23.8008 1.46443 23.8008 1.67211C23.8008 1.87978 23.8833 2.07895 24.0301 2.2258C24.177 2.37264 24.3761 2.45514 24.5838 2.45514H34.2295C34.1634 2.19998 34.1297 1.93754 34.1291 1.67397Z" fill="#0052FE"/>
<path d="M33.8008 15.7749V1.77814C33.4731 2.01623 33.1284 2.01623 32.8008 1.77814V15.7781L33.8008 15.7749Z" fill="#0052FE"/>
<path d="M7.97904 32.6992C7.31027 32.6992 6.65651 32.8975 6.10044 33.269C5.54438 33.6406 5.11098 34.1687 4.85505 34.7865C4.59912 35.4044 4.53216 36.0843 4.66263 36.7402C4.7931 37.3961 5.11515 37.9986 5.58804 38.4715C6.06094 38.9444 6.66344 39.2665 7.31936 39.3969C7.97529 39.5274 8.65517 39.4605 9.27304 39.2045C9.8909 38.9486 10.419 38.5152 10.7906 37.9591C11.1621 37.4031 11.3604 36.7493 11.3604 36.0805C11.3594 35.184 11.0029 34.3245 10.369 33.6906C9.73503 33.0567 8.87554 32.7001 7.97904 32.6992ZM7.97904 38.3463C7.53106 38.3463 7.09313 38.2135 6.72065 37.9646C6.34817 37.7157 6.05785 37.362 5.88641 36.9481C5.71498 36.5342 5.67012 36.0788 5.75752 35.6394C5.84492 35.2 6.06064 34.7964 6.37741 34.4797C6.69418 34.1629 7.09778 33.9472 7.53715 33.8598C7.97653 33.7724 8.43195 33.8172 8.84583 33.9887C9.25972 34.1601 9.61347 34.4504 9.86235 34.8229C10.1112 35.1954 10.2441 35.6333 10.2441 36.0813C10.243 36.6818 10.0039 37.2574 9.57921 37.682C9.1545 38.1065 8.57956 38.3454 7.97904 38.3463Z" fill="#00C5FF"/>
<path d="M6.72065 37.9646C7.09313 38.2135 7.53106 38.3463 7.97904 38.3463C8.57956 38.3454 9.1545 38.1065 9.57921 37.682C10.0039 37.2574 10.243 36.6818 10.2441 36.0813C10.2441 35.6333 10.1112 35.1954 9.86235 34.8229C9.61347 34.4504 9.25972 34.1601 8.84583 33.9887C8.43195 33.8172 7.97653 33.7724 7.53715 33.8598C7.09778 33.9472 6.69418 34.1629 6.37741 34.4797C6.06064 34.7964 5.84492 35.2 5.75752 35.6394C5.67012 36.0788 5.71498 36.5342 5.88641 36.9481C6.05785 37.362 6.34817 37.7157 6.72065 37.9646Z" fill="white"/>
<path d="M7.98021 35.3042C7.82652 35.3042 7.67628 35.3498 7.54849 35.4352C7.42069 35.5206 7.32109 35.6419 7.26228 35.7839C7.20346 35.9259 7.18807 36.0821 7.21806 36.2329C7.24804 36.3836 7.32205 36.5221 7.43073 36.6308C7.53941 36.7394 7.67787 36.8135 7.82861 36.8434C7.97935 36.8734 8.1356 36.858 8.27759 36.7992C8.41958 36.7404 8.54095 36.6408 8.62633 36.513C8.71172 36.3852 8.7573 36.235 8.7573 36.0813C8.757 35.8753 8.67503 35.6778 8.52937 35.5321C8.3837 35.3865 8.18622 35.3045 7.98021 35.3042Z" fill="#0052FE"/>
<path d="M32.0181 32.6992C31.3493 32.6992 30.6956 32.8975 30.1395 33.269C29.5834 33.6406 29.15 34.1687 28.8941 34.7865C28.6382 35.4044 28.5712 36.0843 28.7017 36.7402C28.8322 37.3961 29.1542 37.9986 29.6271 38.4715C30.1 38.9444 30.7025 39.2665 31.3584 39.3969C32.0144 39.5274 32.6942 39.4605 33.3121 39.2045C33.93 38.9486 34.4581 38.5152 34.8296 37.9591C35.2012 37.4031 35.3995 36.7493 35.3995 36.0805C35.3985 35.184 35.0419 34.3245 34.408 33.6906C33.7741 33.0567 32.9146 32.7001 32.0181 32.6992ZM32.0181 38.3463C31.5701 38.3463 31.1322 38.2135 30.7597 37.9646C30.3872 37.7157 30.0969 37.362 29.9255 36.9481C29.754 36.5342 29.7092 36.0788 29.7966 35.6394C29.884 35.2 30.0997 34.7964 30.4165 34.4797C30.7332 34.1629 31.1368 33.9472 31.5762 33.8598C32.0156 33.7724 32.471 33.8172 32.8849 33.9887C33.2988 34.1601 33.6525 34.4504 33.9014 34.8229C34.1503 35.1954 34.2831 35.6333 34.2831 36.0813C34.2821 36.6815 34.0432 37.2568 33.6189 37.6813C33.1946 38.1058 32.6194 38.3449 32.0192 38.3463H32.0181Z" fill="#00C5FF"/>
<path d="M32.0181 38.3463C31.5701 38.3463 31.1322 38.2135 30.7597 37.9646C30.3872 37.7157 30.0969 37.362 29.9255 36.9481C29.754 36.5342 29.7092 36.0788 29.7966 35.6394C29.884 35.2 30.0997 34.7964 30.4165 34.4797C30.7332 34.1629 31.1368 33.9472 31.5762 33.8598C32.0156 33.7724 32.471 33.8172 32.8849 33.9887C33.2988 34.1601 33.6525 34.4504 33.9014 34.8229C34.1503 35.1954 34.2831 35.6333 34.2831 36.0813C34.2821 36.6815 34.0432 37.2568 33.6189 37.6813C33.1946 38.1058 32.6194 38.3449 32.0192 38.3463H32.0181Z" fill="white"/>
<path d="M32.0193 35.3042C31.8656 35.3042 31.7153 35.3498 31.5875 35.4352C31.4598 35.5206 31.3602 35.6419 31.3013 35.7839C31.2425 35.9259 31.2271 36.0821 31.2571 36.2329C31.2871 36.3836 31.3611 36.5221 31.4698 36.6308C31.5785 36.7394 31.7169 36.8135 31.8677 36.8434C32.0184 36.8734 32.1747 36.858 32.3167 36.7992C32.4586 36.7404 32.58 36.6408 32.6654 36.513C32.7508 36.3852 32.7964 36.235 32.7964 36.0813C32.7961 35.8753 32.7141 35.6778 32.5684 35.5321C32.4228 35.3865 32.2253 35.3045 32.0193 35.3042Z" fill="#0052FE"/>
<path d="M33.3673 3.3479C34.2918 3.3479 35.0413 2.59845 35.0413 1.67395C35.0413 0.749453 34.2918 0 33.3673 0C32.4428 0 31.6934 0.749453 31.6934 1.67395C31.6934 2.59845 32.4428 3.3479 33.3673 3.3479Z" fill="#00C5FF"/>
<path d="M20.1766 8.82611V15.69C20.1802 16.6585 20.0345 17.6218 19.7446 18.546C19.3542 19.8755 18.6831 21.1059 17.7766 22.1539C17.5926 22.3699 17.3926 22.5779 17.1846 22.7779C15.9995 23.9102 14.5546 24.7343 12.9767 25.1779C11.8048 24.8488 10.7038 24.3064 9.72873 23.5779L9.50473 23.4099C9.25909 23.2175 9.02408 23.0118 8.80074 22.7939C8.10377 22.1209 7.50823 21.3502 7.03277 20.5059C7.01004 20.4652 6.99129 20.4223 6.97677 20.378C6.69281 19.8688 6.45969 19.3329 6.28078 18.778C6.01063 17.9737 5.8492 17.137 5.80078 16.29C5.80078 16.0927 5.80078 15.8927 5.80078 15.69V8.82611L7.37676 8.37812L9.77673 7.69813H9.85673L10.5767 7.49013L12.1767 7.03413L12.9767 6.77814L13.8807 7.03413L14.5767 7.23413L16.1766 7.69012L19.0166 8.49011L20.1766 8.82611Z" fill="#00C5FF"/>
<path d="M12.1743 18.778C12.069 18.7786 11.9647 18.7584 11.8672 18.7186C11.7697 18.6788 11.6811 18.6201 11.6063 18.546L9.60637 16.546C9.45572 16.3954 9.37109 16.191 9.37109 15.978C9.37109 15.765 9.45572 15.5607 9.60637 15.41C9.75701 15.2594 9.96132 15.1747 10.1744 15.1747C10.3874 15.1747 10.5917 15.2594 10.7423 15.41L12.1743 16.85L15.6063 13.41C15.7569 13.2594 15.9612 13.1748 16.1743 13.1748C16.3873 13.1748 16.5916 13.2594 16.7423 13.41C16.8929 13.5607 16.9775 13.765 16.9775 13.978C16.9775 14.1911 16.8929 14.3954 16.7423 14.546L12.7423 18.546C12.6676 18.6201 12.5789 18.6788 12.4815 18.7186C12.384 18.7584 12.2796 18.7786 12.1743 18.778Z" fill="white"/>
</svg>
