<svg width="40" height="40" viewBox="0 0 40 40" fill="none" xmlns="http://www.w3.org/2000/svg">
<path fill-rule="evenodd" clip-rule="evenodd" d="M9.97398 0H24.8178V37.5261H0V9.97398L9.97398 0Z" fill="#0052FE"/>
<path d="M19.4263 15.9375H5.41586C4.481 15.9375 3.72314 16.6953 3.72314 17.6302V31.6407C3.72314 32.5755 4.481 33.3334 5.41586 33.3334H19.4263C20.3612 33.3334 21.119 32.5755 21.119 31.6407V17.6302C21.119 16.6953 20.3612 15.9375 19.4263 15.9375Z" fill="white"/>
<path d="M19.2733 16.3542H5.54932C4.77267 16.3542 4.14307 16.9838 4.14307 17.7604V31.4844C4.14307 32.2611 4.77267 32.8907 5.54932 32.8907H19.2733C20.05 32.8907 20.6796 32.2611 20.6796 31.4844V17.7604C20.6796 16.9838 20.05 16.3542 19.2733 16.3542Z" fill="#00C5FF"/>
<path fill-rule="evenodd" clip-rule="evenodd" d="M9.53289 15.9375H8.56935V27.3959H3.95996V28.3594H8.56935V33.099H9.53289V28.3594H11.7725V33.099H12.736V28.3594H14.9496V33.099H15.9131V21.875H20.861V20.9115H15.9131V15.9375H14.9496V20.9115H12.736V15.9375H11.7725V20.9115H9.53289V15.9375ZM9.53289 27.3959V21.875H14.9756V27.3959H9.53289Z" fill="white"/>
<path fill-rule="evenodd" clip-rule="evenodd" d="M31.641 18.3854C32.2399 18.5156 32.8129 18.6979 33.3858 18.9323C33.9587 19.1667 34.4795 19.4531 35.0004 19.7656L35.391 20L35.1566 20.3906L34.4274 21.5885C34.8702 21.901 35.2868 22.2396 35.6514 22.6042C36.042 22.9948 36.3806 23.3854 36.6931 23.8281L37.891 23.099L38.2816 22.8646L38.516 23.2552C38.8285 23.776 39.115 24.3229 39.3493 24.8958C39.5837 25.4427 39.766 26.0417 39.8962 26.6406L40.0004 27.0833L39.5577 27.1875L38.2035 27.5261C38.2295 27.7084 38.2556 27.9167 38.2816 28.099C38.3077 28.4375 38.3337 28.7761 38.3337 29.1406C38.3337 29.4792 38.3077 29.8177 38.2816 30.1563C38.2556 30.3386 38.2295 30.5209 38.2035 30.7292L39.5577 31.0677L40.0004 31.1719L39.8962 31.6146C39.766 32.2136 39.5837 32.7865 39.3493 33.3594C39.115 33.9323 38.8285 34.4792 38.516 35L38.2816 35.3907L37.891 35.1563L36.6931 34.4271C36.3806 34.8698 36.042 35.2865 35.6775 35.6511C35.2868 36.0417 34.8962 36.3802 34.4535 36.6927L35.1827 37.8907L35.417 38.2813L35.0264 38.5157C34.5056 38.8282 33.9587 39.1146 33.3858 39.349C32.8389 39.5834 32.2399 39.7657 31.641 39.8959L31.1983 40L31.0941 39.5573L30.7556 38.2032C30.5733 38.2292 30.3649 38.2552 30.1826 38.2813C29.8441 38.3073 29.5056 38.3334 29.141 38.3334C28.8024 38.3334 28.4639 38.3073 28.1253 38.2813C27.9431 38.2552 27.7608 38.2292 27.5524 38.2032L27.2139 39.5573L27.1097 40L26.667 39.8959C26.0681 39.7657 25.4691 39.5573 24.9222 39.349C24.3493 39.1146 23.8024 38.8282 23.2816 38.4896L22.891 38.2552L23.1253 37.8646L23.8545 36.6667C23.4118 36.3542 23.0212 36.0157 22.6305 35.625C22.266 35.2605 21.9014 34.8438 21.6149 34.4011L20.417 35.1302L20.0264 35.3646L19.792 34.974C19.4795 34.4532 19.193 33.9063 18.9587 33.3334C18.7243 32.7604 18.542 32.1875 18.4118 31.5886L18.3076 31.1459L18.7503 31.0417L20.1045 30.7031C20.0785 30.5209 20.0524 30.3386 20.0264 30.1302C20.0003 29.7917 19.9743 29.4531 19.9743 29.1146C19.9743 28.7761 20.0003 28.4375 20.0264 28.0729C20.0524 27.8906 20.0785 27.6823 20.1045 27.5L18.7503 27.1615L18.3076 27.0573L18.4118 26.6146C18.542 26.0156 18.7503 25.4427 18.9587 24.8698C19.193 24.2969 19.4795 23.75 19.792 23.2292L20.0264 22.8385L20.417 23.0729L21.6149 23.8021C21.9274 23.3594 22.266 22.9688 22.6566 22.5781C23.0212 22.2135 23.4378 21.849 23.8805 21.5625L23.1514 20.3646L22.917 19.974L23.3076 19.7396C23.8285 19.4271 24.3753 19.1406 24.9483 18.9062C25.5212 18.6719 26.0941 18.4896 26.6931 18.3594L27.1358 18.2552L27.2399 18.6979L27.5785 20.0521C27.7608 20.026 27.9431 20 28.1514 19.974C28.4899 19.9479 28.8285 19.9219 29.167 19.9219C29.5056 19.9219 29.8441 19.9479 30.2087 19.974C30.391 20 30.5993 20.026 30.7816 20.0521L31.1201 18.6979L31.2243 18.2552L31.667 18.3594L31.641 18.3854Z" fill="#0052FE"/>
<path fill-rule="evenodd" clip-rule="evenodd" d="M29.141 22.8385C30.8858 22.8385 32.4743 23.5417 33.5941 24.6875C34.7399 25.8333 35.4431 27.3958 35.4431 29.1406C35.4431 30.8854 34.7399 32.474 33.5941 33.5938C32.4483 34.7396 30.8858 35.4427 29.141 35.4427C27.3962 35.4427 25.8076 34.7396 24.6878 33.5938C23.542 32.4479 22.8389 30.8854 22.8389 29.1406C22.8389 27.3958 23.542 25.8073 24.6878 24.6875C25.8337 23.5417 27.3962 22.8385 29.141 22.8385Z" fill="#00C5FF"/>
<path fill-rule="evenodd" clip-rule="evenodd" d="M29.1393 26.3802C29.8945 26.3802 30.5977 26.6927 31.0925 27.1875C31.5873 27.6823 31.8998 28.3854 31.8998 29.1406C31.8998 29.8959 31.5873 30.599 31.0925 31.0938C30.5977 31.5886 29.8945 31.9011 29.1393 31.9011C28.3841 31.9011 27.681 31.5886 27.1862 31.0938C26.6914 30.599 26.3789 29.8959 26.3789 29.1406C26.3789 28.3854 26.6914 27.6823 27.1862 27.1875C27.681 26.6927 28.3841 26.3802 29.1393 26.3802Z" fill="#0052FE"/>
<path fill-rule="evenodd" clip-rule="evenodd" d="M29.1393 26.849C29.7643 26.849 30.3372 27.1094 30.7539 27.5261C31.1706 27.9427 31.431 28.5156 31.431 29.1406C31.431 29.7656 31.1706 30.3386 30.7539 30.7552C30.3372 31.1719 29.7643 31.4323 29.1393 31.4323C28.5143 31.4323 27.9414 31.1719 27.5247 30.7552C27.1081 30.3386 26.8477 29.7656 26.8477 29.1406C26.8477 28.5156 27.1081 27.9427 27.5247 27.5261C27.9414 27.1094 28.5143 26.849 29.1393 26.849Z" fill="white"/>
</svg>
