<svg width="41" height="32" viewBox="0 0 41 32" fill="none" xmlns="http://www.w3.org/2000/svg">
<path d="M6.95696 31.3043C6.72633 31.3274 6.49599 31.2579 6.31661 31.1111C6.13723 30.9644 6.0235 30.7524 6.00043 30.5217C5.97737 30.2911 6.04687 30.0608 6.19364 29.8814C6.3404 29.702 6.55242 29.5883 6.78304 29.5652L15.4787 27.8261C15.7093 27.78 15.9488 27.8273 16.1445 27.9578C16.3402 28.0883 16.476 28.2911 16.5222 28.5217C16.5683 28.7524 16.5209 28.9919 16.3905 29.1876C16.26 29.3832 16.0571 29.5191 15.8265 29.5652C6.53087 31.4087 7.08739 31.3043 6.95696 31.3043Z" fill="#0052FE"/>
<path d="M33.0444 31.3043C32.9139 31.3043 33.54 31.4174 24.1748 29.5652C23.9442 29.5191 23.7413 29.3832 23.6109 29.1876C23.4804 28.9919 23.433 28.7524 23.4791 28.5217C23.5253 28.2911 23.6611 28.0883 23.8568 27.9578C24.0525 27.8273 24.292 27.78 24.5226 27.8261L33.2183 29.5652C33.4489 29.5883 33.6609 29.702 33.8077 29.8814C33.9544 30.0608 34.0239 30.2911 34.0009 30.5217C33.9778 30.7524 33.8641 30.9644 33.6847 31.1111C33.5053 31.2579 33.275 31.3274 33.0444 31.3043Z" fill="#0052FE"/>
<path d="M40 0H0V22.6087H40V0Z" fill="#00C5FF"/>
<path d="M1.73913 0H0V22.6087H1.73913V0Z" fill="#0052FE"/>
<path d="M39.9988 22.6087H3.47705V26.087H39.9988V22.6087Z" fill="#0052FE"/>
<path d="M3.47826 22.6087H0V26.087H3.47826V22.6087Z" fill="#0052FE"/>
<path d="M24.348 26.087H15.6523V29.5652H24.348V26.087Z" fill="#0052FE"/>
<path d="M17.6017 13.2957C18.2269 12.6179 19.0956 12.2162 20.0168 12.1787C20.9381 12.1412 21.8366 12.471 22.5148 13.0957C22.6675 13.2553 22.7538 13.467 22.7561 13.6879C22.7583 13.9089 22.6764 14.1224 22.527 14.2851C22.3776 14.4478 22.1718 14.5475 21.9515 14.564C21.7312 14.5805 21.5129 14.5126 21.3409 14.3739C21.1731 14.2183 20.9764 14.0974 20.7618 14.018C20.5473 13.9386 20.3192 13.9022 20.0906 13.9111C19.862 13.92 19.6374 13.9739 19.4296 14.0697C19.2219 14.1656 19.0351 14.3014 18.88 14.4696C18.7204 14.6223 18.5086 14.7086 18.2877 14.7109C18.0668 14.7131 17.8533 14.6312 17.6906 14.4818C17.5278 14.3324 17.4281 14.1266 17.4116 13.9063C17.3951 13.686 17.4631 13.4677 17.6017 13.2957Z" fill="white"/>
<path d="M15.0441 10.9304C15.6633 10.258 16.409 9.71422 17.2386 9.33016C18.0681 8.9461 18.9652 8.7293 19.8786 8.69215C20.7919 8.655 21.7037 8.79823 22.5617 9.11366C23.4196 9.42908 24.207 9.91052 24.8789 10.5304C25.0484 10.6873 25.1486 10.905 25.1576 11.1357C25.1666 11.3665 25.0835 11.5914 24.9267 11.7609C24.7699 11.9304 24.5521 12.0306 24.3214 12.0396C24.0906 12.0486 23.8658 11.9655 23.6962 11.8087C23.1922 11.3444 22.6015 10.9839 21.9581 10.7479C21.3146 10.5119 20.631 10.4049 19.9462 10.4332C19.2615 10.4615 18.589 10.6244 17.9672 10.9126C17.3454 11.2008 16.7864 11.6087 16.3223 12.113C16.1655 12.2826 15.9478 12.3828 15.717 12.3918C15.4863 12.4008 15.2614 12.3177 15.0919 12.1609C14.9224 12.004 14.8221 11.7863 14.8132 11.5556C14.8042 11.3248 14.8873 11.0999 15.0441 10.9304Z" fill="white"/>
<path d="M21.0608 16.5217C21.0504 16.2911 20.9489 16.0741 20.7785 15.9183C20.608 15.7626 20.3827 15.6809 20.1521 15.6913C19.9215 15.7017 19.7044 15.8032 19.5487 15.9737C19.393 16.1441 19.3113 16.3694 19.3217 16.6C19.3268 16.7142 19.3544 16.8263 19.4028 16.9298C19.4513 17.0333 19.5197 17.1263 19.604 17.2034C19.6884 17.2805 19.7872 17.3403 19.8946 17.3792C20.0021 17.4182 20.1162 17.4356 20.2304 17.4304C20.3446 17.4253 20.4566 17.3977 20.5602 17.3493C20.6637 17.3008 20.7567 17.2325 20.8338 17.1481C20.9109 17.0637 20.9706 16.965 21.0096 16.8575C21.0485 16.75 21.066 16.6359 21.0608 16.5217Z" fill="white"/>
<path d="M40.0013 0H38.2622V22.6087H40.0013V0Z" fill="#0052FE"/>
<path d="M40 0H0V1.73913H40V0Z" fill="#0052FE"/>
</svg>
