<svg width="40" height="40" viewBox="0 0 40 40" fill="none" xmlns="http://www.w3.org/2000/svg">
<path d="M35 0H5.00002C2.23858 0 0 2.23858 0 5.00002V35C0 37.7614 2.23858 40 5.00002 40H35C37.7614 40 40 37.7614 40 35V5.00002C40 2.23858 37.7614 0 35 0Z" fill="#0052FE"/>
<path d="M5.62611 5H34.3761C34.723 5 35.0042 5.2867 35.0042 5.64036V30.9825C35.0042 31.3362 34.723 31.6229 34.3761 31.6229H5.62611C5.27925 31.6229 4.99805 31.3362 4.99805 30.9825V5.64036C4.99805 5.28669 5.27925 5 5.62611 5ZM33.748 6.28071H6.25404V30.3422H33.748V6.28071Z" fill="#00C5FF"/>
<path d="M12.457 30.9824C12.457 30.641 12.7369 30.3643 13.0821 30.3643C13.4273 30.3643 13.7071 30.641 13.7071 30.9824V34.3818C13.7071 34.7231 13.4273 34.9999 13.0821 34.9999C12.7369 34.9999 12.457 34.7231 12.457 34.3818V30.9824Z" fill="#00C5FF"/>
<path d="M9.33988 34.9998C8.99469 34.9998 8.71484 34.7231 8.71484 34.3817C8.71484 34.0403 8.99469 33.7635 9.33988 33.7635H16.8262C17.1714 33.7635 17.4512 34.0403 17.4512 34.3817C17.4512 34.7231 17.1714 34.9998 16.8262 34.9998H9.33988Z" fill="#00C5FF"/>
<path d="M26.2949 31.3779C26.2949 31.0365 26.5748 30.7598 26.92 30.7598C27.2652 30.7598 27.545 31.0365 27.545 31.3779V34.3819C27.545 34.7233 27.2652 35.0001 26.92 35.0001C26.5748 35.0001 26.2949 34.7233 26.2949 34.3819V31.3779Z" fill="#00C5FF"/>
<path d="M23.1758 34.9998C22.8306 34.9998 22.5508 34.7231 22.5508 34.3817C22.5508 34.0403 22.8306 33.7635 23.1758 33.7635H30.6621C31.0073 33.7635 31.2872 34.0403 31.2872 34.3817C31.2872 34.7231 31.0073 34.9998 30.6621 34.9998H23.1758Z" fill="#00C5FF"/>
<path fill-rule="evenodd" clip-rule="evenodd" d="M15.2363 14.2166C15.4773 13.9782 15.6269 13.65 15.6269 13.2894V9.65808H9.37695V14.6029H14.2988C14.6634 14.6029 14.9953 14.4549 15.2363 14.2166L15.2363 14.2166Z" fill="white"/>
<path fill-rule="evenodd" clip-rule="evenodd" d="M16.877 13.2894C16.877 13.65 17.0266 13.9782 17.2676 14.2166C17.5085 14.4549 17.8405 14.6029 18.2051 14.6029H21.7988C22.1634 14.6029 22.4953 14.4549 22.7363 14.2166C22.9773 13.9782 23.1269 13.65 23.1269 13.2894V9.65808H16.877V13.2894H16.877Z" fill="white"/>
<path fill-rule="evenodd" clip-rule="evenodd" d="M24.377 9.65808V13.2894C24.377 13.65 24.5266 13.9782 24.7676 14.2166C25.0086 14.4549 25.3405 14.6029 25.7051 14.6029H30.6269V9.65809H24.377L24.377 9.65808Z" fill="white"/>
<path fill-rule="evenodd" clip-rule="evenodd" d="M30.6269 15.839H25.705C25.3405 15.839 25.0085 15.987 24.7675 16.2253C24.5266 16.4636 24.377 16.7919 24.377 17.1525V19.4703C24.377 19.8309 24.5266 20.1592 24.7675 20.3975C25.0085 20.6358 25.3405 20.7838 25.705 20.7838H30.6269V15.839V15.839Z" fill="white"/>
<path fill-rule="evenodd" clip-rule="evenodd" d="M23.1269 19.4705V17.1526C23.1269 16.792 22.9773 16.4637 22.7363 16.2254C22.4953 15.9871 22.1634 15.8391 21.7988 15.8391H18.205C17.8405 15.8391 17.5085 15.9871 17.2675 16.2254C17.0266 16.4637 16.877 16.792 16.877 17.1526V19.4705C16.877 19.831 17.0266 20.1593 17.2675 20.3976C17.5085 20.6359 17.8405 20.7839 18.205 20.7839H21.7988C22.1634 20.7839 22.4953 20.6359 22.7363 20.3976C22.9773 20.1593 23.1269 19.831 23.1269 19.4705Z" fill="white"/>
<path fill-rule="evenodd" clip-rule="evenodd" d="M15.6269 19.4705V17.1526C15.6269 16.792 15.4773 16.4637 15.2363 16.2254C14.9953 15.9871 14.6634 15.8391 14.2988 15.8391H9.37695V20.7839H14.2988C14.6634 20.7839 14.9953 20.6359 15.2363 20.3976C15.4773 20.1593 15.6269 19.831 15.6269 19.4704V19.4705Z" fill="white"/>
<path fill-rule="evenodd" clip-rule="evenodd" d="M14.2988 22.0201H9.37695V26.9649H15.6269V23.3336C15.6269 22.973 15.4773 22.6448 15.2363 22.4064C14.9953 22.1681 14.6634 22.0201 14.2988 22.0201L14.2988 22.0201Z" fill="white"/>
<path fill-rule="evenodd" clip-rule="evenodd" d="M17.2675 22.4064C17.0266 22.6448 16.877 22.973 16.877 23.3336V26.9649H23.1269V23.3336C23.1269 22.973 22.9773 22.6448 22.7363 22.4064C22.4953 22.1681 22.1634 22.0201 21.7988 22.0201H18.2051C17.8405 22.0201 17.5085 22.1681 17.2676 22.4064H17.2675Z" fill="white"/>
<path fill-rule="evenodd" clip-rule="evenodd" d="M24.377 23.3336V26.9649H30.6269V22.0201H25.7051C25.3405 22.0201 25.0086 22.1681 24.7676 22.4064C24.5266 22.6448 24.377 22.973 24.377 23.3336L24.377 23.3336Z" fill="white"/>
<path fill-rule="evenodd" clip-rule="evenodd" d="M8.12695 28.2012C8.12695 21.6081 8.12695 15.015 8.12695 8.4219C16.0437 8.4219 23.9603 8.4219 31.877 8.4219C31.877 15.015 31.877 21.6081 31.877 28.2012C23.9603 28.2012 16.0436 28.2012 8.12695 28.2012ZM33.993 5.99084H6.05664V30.5711H33.993V5.99084Z" fill="#00C5FF"/>
</svg>
