<svg width="41" height="41" viewBox="0 0 41 41" fill="none" xmlns="http://www.w3.org/2000/svg">
<path d="M25.8334 7.49851H14.1691C13.9481 7.49851 13.7362 7.41073 13.58 7.25448C13.4237 7.09823 13.3359 6.88631 13.3359 6.66534V3.05772C13.3381 2.24744 13.661 1.47097 14.234 0.898015C14.8069 0.325057 15.5834 0.00219888 16.3937 0H23.6089C24.4192 0.00219888 25.1956 0.325057 25.7686 0.898015C26.3416 1.47097 26.6644 2.24744 26.6666 3.05772V6.66534C26.6666 6.88631 26.5788 7.09823 26.4226 7.25448C26.2663 7.41073 26.0544 7.49851 25.8334 7.49851ZM15.0023 5.83217H25.0003V3.05772C25.0003 2.6887 24.8537 2.3348 24.5928 2.07386C24.3318 1.81293 23.9779 1.66633 23.6089 1.66633H16.3937C16.0246 1.66633 15.6707 1.81293 15.4098 2.07386C15.1489 2.3348 15.0023 2.6887 15.0023 3.05772V5.83217Z" fill="#00C5FF"/>
<path d="M5.83529 6.66533V35.8262H3.65239C2.72306 35.8301 1.82741 35.4785 1.14894 34.8434C0.470463 34.2083 0.0605298 33.3378 0.00311866 32.4102C-0.00103955 32.3325 -0.00103955 32.2546 0.00311866 32.1769V10.3146C-0.000332437 9.39919 0.340386 8.51592 0.957697 7.83996C1.57501 7.164 2.42382 6.74474 3.33579 6.66533H3.65239H5.83529Z" fill="#0052FE"/>
<path d="M29.9999 6.66533V22.3705L29.2501 22.5872H29.1668L26.6673 23.3287L25.0009 23.8036V30.9522C25.0009 31.1632 25.0009 31.3715 25.0009 31.577C25.0514 32.4592 25.2195 33.3306 25.5008 34.1682C25.6872 34.7461 25.9299 35.3042 26.2257 35.8345H10.0039V6.66533H29.9999Z" fill="#0052FE"/>
<path d="M39.9982 10.3146V23.7953L38.7901 23.4537L35.8324 22.6205L34.166 22.1456V6.66533H36.3656C36.8437 6.66642 37.317 6.76168 37.7583 6.94567C38.1996 7.12965 38.6004 7.39876 38.9377 7.73762C39.275 8.07649 39.5423 8.47848 39.7242 8.92064C39.9062 9.3628 39.9993 9.83647 39.9982 10.3146Z" fill="#0052FE"/>
<path d="M34.1658 6.66533V22.1372L33.441 21.929L32.4995 21.6623L31.6663 21.8956L30 22.3705V6.66533C30 6.44436 30.0878 6.23244 30.244 6.07619C30.4003 5.91994 30.6122 5.83216 30.8332 5.83216H33.3327C33.5536 5.83216 33.7656 5.91994 33.9218 6.07619C34.0781 6.23244 34.1658 6.44436 34.1658 6.66533Z" fill="#00C5FF"/>
<path d="M9.17056 5.83216H6.67106C6.21091 5.83216 5.83789 6.20518 5.83789 6.66533V35.8262C5.83789 36.2863 6.21091 36.6594 6.67106 36.6594H9.17056C9.63071 36.6594 10.0037 36.2863 10.0037 35.8262V6.66533C10.0037 6.20518 9.63071 5.83216 9.17056 5.83216Z" fill="#00C5FF"/>
<path d="M40.0013 23.7953V30.9438C40.0051 31.9525 39.8533 32.9558 39.5514 33.9182C39.1448 35.3029 38.4459 36.5843 37.5018 37.6758C37.3102 37.9008 37.1019 38.1174 36.8853 38.3257C35.651 39.5049 34.1461 40.3632 32.5028 40.8252C31.2824 40.4825 30.1356 39.9176 29.1201 39.1589L28.8869 38.9839C28.631 38.7835 28.3863 38.5693 28.1537 38.3424C27.4278 37.6414 26.8076 36.8387 26.3124 35.9595C26.2887 35.917 26.2692 35.8724 26.2541 35.8262C25.9583 35.2959 25.7155 34.7378 25.5292 34.1599C25.2479 33.3223 25.0797 32.4508 25.0293 31.5687C25.0293 31.3632 25.0293 31.1549 25.0293 30.9438V23.7953L26.6706 23.3287L29.1701 22.6205H29.2535L30.0033 22.4039L31.6696 21.929L32.5028 21.6624L33.4443 21.929L34.1691 22.1373L35.8355 22.6122L38.7932 23.4453L40.0013 23.7953Z" fill="#00C5FF"/>
<path d="M31.6675 34.1599C31.5579 34.1605 31.4492 34.1395 31.3477 34.098C31.2462 34.0566 31.1538 33.9955 31.076 33.9182L28.9931 31.8353C28.8362 31.6784 28.748 31.4657 28.748 31.2438C28.748 31.0219 28.8362 30.8091 28.9931 30.6522C29.15 30.4953 29.3628 30.4072 29.5846 30.4072C29.8065 30.4072 30.0193 30.4953 30.1762 30.6522L31.6675 32.1519L35.2418 28.5693C35.3987 28.4124 35.6115 28.3243 35.8334 28.3243C36.0553 28.3243 36.268 28.4124 36.4249 28.5693C36.5818 28.7262 36.67 28.939 36.67 29.1609C36.67 29.3827 36.5818 29.5955 36.4249 29.7524L32.2591 33.9182C32.1812 33.9955 32.0889 34.0566 31.9874 34.098C31.8859 34.1395 31.7772 34.1605 31.6675 34.1599Z" fill="white"/>
</svg>
