<svg width="40" height="26" viewBox="0 0 40 26" fill="none" xmlns="http://www.w3.org/2000/svg">
<path d="M1.05445 15.2886V19.6069H6.84416C7.27946 19.2974 7.81242 19.1153 8.38676 19.1153C8.9611 19.1153 9.4924 19.2974 9.9277 19.6069H16.6973V7.13369C16.6973 6.21956 15.9563 5.47854 15.0421 5.47854H7.87697L6.11258 13.0873L2.35374 13.7444C1.6023 13.8751 1.05445 14.5272 1.05445 15.2886Z" fill="#0052FE"/>
<path d="M7.90964 13.03H14.9727V7.20287H9.2081L7.90964 13.03Z" fill="#00C5FF"/>
<path d="M5.88731 5.47855H15.0426C15.9567 5.47855 16.6978 6.21956 16.6978 7.13369V19.6069H31.1919C31.6272 19.2974 32.1602 19.1153 32.7328 19.1153C33.3072 19.1153 33.8401 19.2974 34.2754 19.6069H39.0059V3.13651C39.0059 1.40423 37.6016 0 35.8694 0H8.05357C7.61429 0 7.19306 0.174453 6.88255 0.485124L4.71613 2.65155C3.68248 3.68536 4.4076 5.47855 5.88731 5.47855Z" fill="#0052FE"/>
<path d="M5.71984 21.7818C5.71984 23.2549 6.91321 24.4482 8.38629 24.4482C9.85772 24.4482 11.0527 23.2549 11.0527 21.7818C11.0527 20.883 10.6075 20.0886 9.92723 19.6069C9.49193 19.2974 8.96063 19.1153 8.38629 19.1153C7.81195 19.1153 7.27899 19.2974 6.84369 19.6069C6.16342 20.0902 5.71984 20.883 5.71984 21.7818Z" fill="#0052FE"/>
<path d="M8.38664 22.6276C8.8529 22.6276 9.23242 22.2482 9.23242 21.7818C9.23242 21.3011 8.83949 20.936 8.38664 20.936C7.93065 20.936 7.54103 21.3021 7.54103 21.7818C7.54103 22.2482 7.92038 22.6276 8.38664 22.6276Z" fill="white"/>
<path d="M30.0636 21.7818C30.0636 23.2549 31.2586 24.4482 32.73 24.4482C34.2031 24.4482 35.3965 23.2549 35.3965 21.7818C35.3965 20.883 34.9529 20.0902 34.2726 19.6069C33.8373 19.2974 33.3044 19.1153 32.73 19.1153C32.1574 19.1153 31.6244 19.2974 31.1891 19.6069C30.5088 20.0886 30.0636 20.883 30.0636 21.7818Z" fill="#0052FE"/>
<path d="M32.7304 22.6276C33.1966 22.6276 33.5762 22.2482 33.5762 21.7818C33.5762 21.3001 33.1842 20.936 32.7304 20.936C32.2794 20.936 31.8848 21.3003 31.8848 21.7818C31.8848 22.2482 32.2641 22.6276 32.7304 22.6276Z" fill="white"/>
<path d="M19.2063 6.30612V19.6064H26.8398V6.30612C26.8398 5.84913 26.4693 5.47854 26.0123 5.47854H20.0339C19.5767 5.47854 19.2063 5.84913 19.2063 6.30612Z" fill="white"/>
<path d="M34.2745 19.6069C34.9548 20.0902 35.3984 20.883 35.3984 21.7818H39.5015C39.7763 21.7818 39.998 21.5583 39.998 21.2852V20.1034C39.998 19.8287 39.7763 19.6069 39.5015 19.6069H34.2745Z" fill="#0052FE"/>
<path d="M9.92966 19.6069C10.6099 20.0885 11.0552 20.883 11.0552 21.7818H30.0679C30.0679 20.883 30.5131 20.0885 31.1934 19.6069H9.92966Z" fill="#0052FE"/>
<path d="M4.76837e-06 20.1034V21.2852C4.76837e-06 21.5583 0.221795 21.7818 0.49655 21.7818H5.72186C5.72186 20.883 6.16544 20.0902 6.8457 19.6069H0.49655C0.221795 19.6069 4.76837e-06 19.8287 4.76837e-06 20.1034Z" fill="#0052FE"/>
<path d="M1.05556 18.15H1.72192C2.37819 18.15 2.91016 17.6181 2.91016 16.9618C2.91016 16.3055 2.37819 15.7736 1.72192 15.7736H1.05556V18.15Z" fill="white"/>
<path d="M36.7682 15.5549C36.9966 15.5549 37.1836 15.7403 37.1836 15.9687V16.9618C37.1836 17.1902 36.9966 17.3756 36.7682 17.3756C36.5414 17.3756 36.356 17.1902 36.356 16.9618V15.9687C36.356 15.7403 36.5414 15.5549 36.7682 15.5549Z" fill="white"/>
<path d="M35.0862 15.5549C35.3146 15.5549 35.5 15.7403 35.5 15.9687V16.9618C35.5 17.1902 35.3146 17.3756 35.0862 17.3756C34.8578 17.3756 34.6724 17.1902 34.6724 16.9618V15.9687C34.6724 15.7403 34.8578 15.5549 35.0862 15.5549Z" fill="white"/>
<path d="M33.4026 15.5549C33.631 15.5549 33.8164 15.7403 33.8164 15.9687V16.9618C33.8164 17.1902 33.631 17.3756 33.4026 17.3756C33.1759 17.3756 32.9888 17.1902 32.9888 16.9618V15.9687C32.9888 15.7403 33.1759 15.5549 33.4026 15.5549Z" fill="white"/>
<path d="M39.3333 9.8963V16.2519C39.3328 17.8767 38.8978 19.4718 38.0733 20.8719C37.2489 22.272 36.065 23.4262 34.6444 24.2148C34.0204 24.5668 33.3564 24.8429 32.6667 25.037C31.4965 24.7042 30.4038 24.1428 29.4519 23.3852C29.0049 23.0305 28.5931 22.6336 28.2222 22.2C26.7908 20.5575 26.0016 18.4528 26 16.2741V9.8963L29.7778 8.82222L30.4444 8.62963L32.6667 8L33.5037 8.23704L37.0593 9.25185L38.2593 9.59259L39.3333 9.8963Z" fill="#00C5FF"/>
<path d="M31.9277 19.1111C31.8302 19.1117 31.7335 19.093 31.6433 19.0561C31.553 19.0193 31.4709 18.9649 31.4017 18.8963L29.5499 17.0444C29.4808 16.9754 29.426 16.8934 29.3886 16.8031C29.3513 16.7129 29.332 16.6162 29.332 16.5185C29.332 16.4208 29.3513 16.3241 29.3886 16.2339C29.426 16.1436 29.4808 16.0616 29.5499 15.9926C29.6189 15.9235 29.7009 15.8687 29.7912 15.8314C29.8814 15.794 29.9781 15.7747 30.0758 15.7747C30.1735 15.7747 30.2702 15.794 30.3604 15.8314C30.4507 15.8687 30.5327 15.9235 30.6017 15.9926L31.9277 17.3259L35.1054 14.1407C35.2449 14.0012 35.4341 13.9229 35.6314 13.9229C35.8286 13.9229 36.0178 14.0012 36.1573 14.1407C36.2968 14.2802 36.3751 14.4694 36.3751 14.6667C36.3751 14.8639 36.2968 15.0531 36.1573 15.1926L32.4536 18.8963C32.3844 18.9649 32.3023 19.0193 32.212 19.0561C32.1218 19.093 32.0251 19.1117 31.9277 19.1111Z" fill="white"/>
</svg>
