<svg width="32" height="32" viewBox="0 0 32 32" fill="none" xmlns="http://www.w3.org/2000/svg">
<circle cx="16" cy="16" r="16" fill="#B3CAFE"/>
<path fill-rule="evenodd" clip-rule="evenodd" d="M12 12V11C12 9.34315 13.3431 8 15 8H17C18.6569 8 20 9.34315 20 11V12H22C23.1046 12 24 12.8954 24 14V17.5708C21.5096 18.4947 18.8149 18.9999 16 18.9999C13.1851 18.9999 10.4904 18.4947 8 17.5707V14C8 12.8954 8.89543 12 10 12H12ZM14 11C14 10.4477 14.4477 10 15 10H17C17.5523 10 18 10.4477 18 11V12H14V11ZM15 16C15 15.4477 15.4477 15 16 15H16.01C16.5623 15 17.01 15.4477 17.01 16C17.01 16.5523 16.5623 17 16.01 17H16C15.4477 17 15 16.5523 15 16Z" fill="#0051FF"/>
<path d="M8 19.6923V22C8 23.1046 8.89543 24 10 24H22C23.1046 24 24 23.1046 24 22V19.6923C21.4872 20.5404 18.7964 20.9999 16 20.9999C13.2036 20.9999 10.5128 20.5404 8 19.6923Z" fill="#0051FF"/>
<circle cx="16" cy="16" r="1" fill="white"/>
</svg>
