<svg width="16" height="16" viewBox="0 0 16 16" fill="none" xmlns="http://www.w3.org/2000/svg">
<path d="M0 8C0 12.4183 3.58172 16 8 16C12.4183 16 16 12.4183 16 8C16 3.58172 12.4183 0 8 0C3.58172 0 0 3.58172 0 8Z" fill="#0052FE"/>
<path d="M8.0001 4.6001C9.1001 4.6001 9.2501 4.6001 9.7001 4.6001C10.1001 4.6001 10.3001 4.7001 10.4501 4.7501C10.6501 4.8501 10.8001 4.9001 10.9501 5.0501C11.1001 5.2001 11.2001 5.3501 11.2501 5.5501C11.3001 5.7001 11.3501 5.9001 11.4001 6.3001C11.4001 6.7501 11.4001 6.8501 11.4001 8.0001C11.4001 9.1501 11.4001 9.2501 11.4001 9.7001C11.4001 10.1001 11.3001 10.3001 11.2501 10.4501C11.1501 10.6501 11.1001 10.8001 10.9501 10.9501C10.8001 11.1001 10.6501 11.2001 10.4501 11.2501C10.3001 11.3001 10.1001 11.3501 9.7001 11.4001C9.2501 11.4001 9.1501 11.4001 8.0001 11.4001C6.8501 11.4001 6.7501 11.4001 6.3001 11.4001C5.9001 11.4001 5.7001 11.3001 5.5501 11.2501C5.3501 11.1501 5.2001 11.1001 5.0501 10.9501C4.9001 10.8001 4.8001 10.6501 4.7501 10.4501C4.7001 10.3001 4.6501 10.1001 4.6001 9.7001C4.6001 9.2501 4.6001 9.1501 4.6001 8.0001C4.6001 6.8501 4.6001 6.7501 4.6001 6.3001C4.6001 5.9001 4.7001 5.7001 4.7501 5.5501C4.8501 5.3501 4.9001 5.2001 5.0501 5.0501C5.2001 4.9001 5.3501 4.8001 5.5501 4.7501C5.7001 4.7001 5.9001 4.6501 6.3001 4.6001C6.7501 4.6001 6.9001 4.6001 8.0001 4.6001ZM8.0001 3.8501C6.8501 3.8501 6.7501 3.8501 6.3001 3.8501C5.8501 3.8501 5.5501 3.9501 5.3001 4.0501C5.0501 4.1501 4.8001 4.3001 4.5501 4.5501C4.3001 4.8001 4.2001 5.0001 4.0501 5.3001C3.9501 5.5501 3.9001 5.8501 3.8501 6.3001C3.8501 6.7501 3.8501 6.9001 3.8501 8.0001C3.8501 9.1501 3.8501 9.2501 3.8501 9.7001C3.8501 10.1501 3.9501 10.4501 4.0501 10.7001C4.1501 10.9501 4.3001 11.2001 4.5501 11.4501C4.8001 11.7001 5.0001 11.8001 5.3001 11.9501C5.5501 12.0501 5.8501 12.1001 6.3001 12.1501C6.7501 12.1501 6.9001 12.1501 8.0001 12.1501C9.1001 12.1501 9.2501 12.1501 9.7001 12.1501C10.1501 12.1501 10.4501 12.0501 10.7001 11.9501C10.9501 11.8501 11.2001 11.7001 11.4501 11.4501C11.7001 11.2001 11.8001 11.0001 11.9501 10.7001C12.0501 10.4501 12.1001 10.1501 12.1501 9.7001C12.1501 9.2501 12.1501 9.1001 12.1501 8.0001C12.1501 6.9001 12.1501 6.7501 12.1501 6.3001C12.1501 5.8501 12.0501 5.5501 11.9501 5.3001C11.8501 5.0501 11.7001 4.8001 11.4501 4.5501C11.2001 4.3001 11.0001 4.2001 10.7001 4.0501C10.4501 3.9501 10.1501 3.9001 9.7001 3.8501C9.2501 3.8501 9.1501 3.8501 8.0001 3.8501Z" fill="white"/>
<path d="M8.0001 5.8501C6.8001 5.8501 5.8501 6.8001 5.8501 8.0001C5.8501 9.2001 6.8001 10.1501 8.0001 10.1501C9.2001 10.1501 10.1501 9.2001 10.1501 8.0001C10.1501 6.8001 9.2001 5.8501 8.0001 5.8501ZM8.0001 9.4001C7.2501 9.4001 6.6001 8.8001 6.6001 8.0001C6.6001 7.2501 7.2001 6.6001 8.0001 6.6001C8.7501 6.6001 9.4001 7.2001 9.4001 8.0001C9.4001 8.7501 8.7501 9.4001 8.0001 9.4001Z" fill="white"/>
<path d="M10.2001 6.3001C10.4762 6.3001 10.7001 6.07624 10.7001 5.8001C10.7001 5.52396 10.4762 5.3001 10.2001 5.3001C9.92395 5.3001 9.7001 5.52396 9.7001 5.8001C9.7001 6.07624 9.92395 6.3001 10.2001 6.3001Z" fill="white"/>
</svg>
