<svg width="16" height="16" viewBox="0 0 16 16" fill="none" xmlns="http://www.w3.org/2000/svg">
<path d="M0 8C0 12.4183 3.58172 16 8 16C12.4183 16 16 12.4183 16 8C16 3.58172 12.4183 0 8 0C3.58172 0 0 3.58172 0 8Z" fill="#0052FE"/>
<path d="M12 5.5C11.7 5.65 11.4 5.7 11.05 5.75C11.4 5.55 11.65 5.25 11.75 4.85C11.45 5.05 11.1 5.15 10.7 5.25C10.4 4.95 9.95 4.75 9.5 4.75C8.45 4.75 7.65 5.75 7.9 6.75C6.55 6.7 5.35 6.05 4.5 5.05C4.05 5.8 4.3 6.75 5 7.25C4.75 7.25 4.5 7.15 4.25 7.05C4.25 7.8 4.8 8.5 5.55 8.7C5.3 8.75 5.05 8.8 4.8 8.75C5 9.4 5.6 9.9 6.35 9.9C5.75 10.35 4.85 10.6 4 10.5C4.75 10.95 5.6 11.25 6.5 11.25C9.55 11.25 11.25 8.7 11.15 6.35C11.5 6.15 11.8 5.85 12 5.5Z" fill="white"/>
</svg>
