<svg width="16" height="16" viewBox="0 0 16 16" fill="none" xmlns="http://www.w3.org/2000/svg">
<path d="M0 8C0 12.4183 3.58172 16 8 16C12.4183 16 16 12.4183 16 8C16 3.58172 12.4183 0 8 0C3.58172 0 0 3.58172 0 8Z" fill="#0052FE"/>
<path d="M11.8 6.0502C11.7 5.7002 11.45 5.4502 11.1 5.3502C10.5 5.2002 7.95 5.2002 7.95 5.2002C7.95 5.2002 5.45 5.2002 4.8 5.3502C4.45 5.4502 4.2 5.7002 4.1 6.0502C4 6.7002 4 8.0002 4 8.0002C4 8.0002 4 9.3002 4.15 9.9502C4.25 10.3002 4.5 10.5502 4.85 10.6502C5.45 10.8002 8 10.8002 8 10.8002C8 10.8002 10.5 10.8002 11.15 10.6502C11.5 10.5502 11.75 10.3002 11.85 9.9502C12 9.3002 12 8.0002 12 8.0002C12 8.0002 12 6.7002 11.8 6.0502ZM7.2 9.2002V6.8002L9.3 8.0002L7.2 9.2002Z" fill="white"/>
</svg>
